# Blender 4.5.4 LTS
# www.blender.org
mtllib Aircraft.mtl
o AIRCRAFT
v -1.528807 -0.012569 0.816701
v -1.115358 0.237213 1.084988
v -1.029545 0.043972 -1.451447
v -0.512962 0.354683 -3.348183
v 0.106147 -1.022072 -2.859801
v 0.106147 0.597534 -2.399493
v 0.106147 -1.049719 1.084988
v 0.106147 0.475132 1.676331
v -2.289470 -0.129189 1.084971
v -2.280682 -0.012119 1.084988
v -1.505539 -0.045885 -2.609844
v -1.494173 0.195930 -2.610857
v -3.153166 -0.390902 1.057112
v -3.153166 -0.277021 1.056910
v -3.116288 -0.257824 -1.316473
v -3.116288 -0.144573 -1.317964
v -0.743614 -0.066898 -4.015190
v -0.483076 0.241682 -3.958407
v 0.106147 -0.668989 -4.003382
v -0.677216 -0.066898 -4.843909
v -0.445751 0.267649 -4.830377
v 0.106147 -0.414644 -4.819191
v 0.106147 0.321964 -5.967712
v -0.108887 -0.031185 -7.338346
v -0.108887 0.010935 -7.338346
v 0.106147 -0.030985 -7.856930
v 0.106147 0.019846 -7.856930
v -1.173825 0.208673 3.372752
v -1.176527 0.309507 3.373090
v 0.105610 -0.235516 3.370407
v 0.107490 0.500313 2.586308
v 0.106147 0.093996 -7.321170
v -4.276930 -0.534376 1.084988
v -4.276930 -0.420830 1.084988
v -4.276930 -0.303291 -0.366843
v -4.276930 -0.189745 -0.366641
v -5.188225 -0.264107 0.813815
v -5.435814 -0.148153 1.084988
v -5.188225 -0.213667 0.463297
v -5.435814 -0.013067 0.284239
v -5.753572 -0.031425 1.084988
v -5.753572 0.079107 1.084988
v -5.753572 -0.032059 0.804689
v -5.753572 0.079144 0.804689
v -1.096724 0.144114 3.763335
v -1.097397 0.243221 3.763426
v 0.106147 0.018866 4.414556
v 0.106147 0.452475 4.414556
v -2.063483 -0.273939 4.706487
v -2.063483 -0.168463 4.706487
v -1.626802 -0.134739 5.689456
v -1.626802 0.253567 5.689456
v 1.741100 -0.012569 0.816701
v 1.327651 0.237280 1.084988
v 1.241838 0.043972 -1.451446
v 0.725256 0.354683 -3.348183
v 2.501763 -0.129189 1.084947
v 2.492975 -0.012119 1.084988
v 1.717832 -0.045885 -2.609844
v 1.706467 0.195930 -2.610857
v 3.365459 -0.337959 1.057341
v 3.365459 -0.227156 1.056973
v 3.328581 -0.220568 -1.316968
v 3.328581 -0.112350 -1.318152
v 0.955907 -0.066898 -4.015190
v 0.695370 0.241682 -3.958407
v 0.889509 -0.066898 -4.843909
v 0.658045 0.267649 -4.830377
v 0.321180 -0.031185 -7.338346
v 0.321180 0.010935 -7.338346
v 1.384296 0.207951 3.372146
v 1.386829 0.308748 3.372454
v 4.223114 -0.435270 0.804616
v 4.489223 -0.420830 1.084988
v 4.223336 -0.258955 -0.271235
v 4.489223 -0.189745 -0.367006
v 5.648108 -0.252773 1.084988
v 5.648108 -0.148153 1.084988
v 5.648108 -0.120493 0.284239
v 5.648108 -0.013067 0.284239
v 5.965866 -0.031425 1.084988
v 5.965866 0.079107 1.084988
v 5.965866 -0.032059 0.804689
v 5.965866 0.079144 0.804689
v 1.307976 0.144104 3.763328
v 1.308650 0.243204 3.763412
v 2.275776 -0.273939 4.706487
v 2.275776 -0.168463 4.706487
v 1.839095 -0.134739 5.689456
v 1.839095 0.253567 5.689456
v -0.720801 0.222134 -3.152149
v 0.106147 0.608688 -1.969358
v -0.739866 0.046648 -4.015459
v -0.676818 0.046648 -4.843931
v 0.106147 0.187359 -6.661996
v 0.933095 0.222134 -3.152149
v 0.952160 0.046648 -4.015459
v 0.889112 0.046648 -4.843931
v -0.425676 0.476824 -4.067669
v 0.106147 0.950899 -4.275897
v 0.106147 1.043919 -3.255702
v 0.106147 0.501328 -5.741488
v 0.637969 0.476824 -4.067669
v -0.342099 0.570786 -3.326321
v -0.349411 0.483753 -4.922165
v 0.554392 0.570786 -3.326320
v 0.561704 0.483753 -4.922165
v -0.738564 -0.023024 -3.152887
v -1.143728 0.017307 1.084988
v -2.289169 -0.122950 0.771255
v -1.852744 0.027740 -0.992249
v -3.152899 -0.381140 0.670441
v -3.036700 -0.249506 -1.044662
v -4.276866 -0.509575 0.813815
v -4.192484 -0.337595 -0.110347
v -5.435814 -0.120493 0.284239
v -5.435814 -0.252773 1.084988
v 0.950857 -0.023024 -3.152887
v 1.356021 0.017353 1.084988
v 2.501462 -0.122950 0.770109
v 2.065037 0.027740 -0.993779
v 3.365192 -0.312887 0.671804
v 3.248993 -0.202141 -1.044934
v 4.489223 -0.303291 -0.365788
v 4.489223 -0.534376 1.084988
v -1.870496 -0.144396 -1.006891
v -2.289169 -0.355204 0.770649
v -3.036700 -0.481733 -1.042716
v -3.152899 -0.603580 0.671580
v -4.192484 -0.562887 -0.110858
v -4.276866 -0.722940 0.813815
v 2.082789 -0.144396 -1.012172
v 2.501462 -0.355204 0.769598
v 3.248993 -0.434477 -1.043154
v 3.365192 -0.535381 0.670695
v -1.045486 -0.190260 -1.451888
v -1.546159 -0.237774 0.813854
v -5.188225 -0.404627 0.463297
v -5.188225 -0.448853 0.813815
v 1.257779 -0.190260 -1.451888
v 1.758452 -0.237774 0.813854
v 4.223336 -0.486940 -0.271683
v 4.223114 -0.656630 0.805685
v -1.928947 -0.569843 -1.014895
v -2.289169 -0.692551 0.771557
v -3.036700 -0.855722 -1.041051
v -3.152899 -0.926634 0.668291
v -4.192484 -0.907343 -0.111912
v -4.276866 -1.009897 0.813815
v 2.141240 -0.569843 -1.012687
v 2.501462 -0.692099 0.770039
v 3.248993 -0.812605 -1.041051
v 3.365192 -0.860126 0.667615
v -1.113094 -0.573011 -1.412360
v -1.546384 -0.591587 0.813817
v 1.325387 -0.573011 -1.412360
v 1.758677 -0.591587 0.813817
v 4.223336 -0.837456 -0.272699
v 4.223114 -0.955021 0.805470
v -1.813212 -0.133068 -1.232428
v -1.008305 -0.210829 -1.706006
v -4.192558 -0.547430 -0.326484
v -3.036774 -0.476934 -1.251239
v 2.025318 -0.133078 -1.234844
v 1.220469 -0.210857 -1.705975
v 4.223263 -0.479263 -0.489397
v 3.248919 -0.430094 -1.252490
v -1.880762 -0.559940 -1.217970
v -1.081426 -0.589537 -1.661965
v -4.192558 -0.904816 -0.327020
v -3.036774 -0.856060 -1.240264
v 2.092874 -0.559942 -1.216732
v 1.293586 -0.589560 -1.661936
v 4.223263 -0.836784 -0.489966
v 3.248919 -0.812822 -1.241383
v -1.154596 -0.107944 3.370708
v 0.105610 -0.373329 3.370407
v -1.095526 -0.162531 3.763106
v 0.106147 -0.284752 4.207398
v 1.365593 -0.108423 3.370306
v 1.306746 -0.162531 3.763106
v -1.281288 0.207214 3.377446
v -1.284096 0.307924 3.377679
v -1.203636 0.145050 3.770038
v -1.204344 0.244129 3.770106
v 1.491626 0.206530 3.376871
v 1.494241 0.307205 3.377076
v 1.414860 0.145033 3.770023
v 1.415560 0.244104 3.770085
v -2.193383 2.030306 3.941375
v -2.282419 1.995047 3.181842
v 2.404603 2.030306 3.941375
v 2.493638 1.995047 3.181842
v -2.397794 2.032207 3.954295
v -2.486829 1.996948 3.194763
v 2.609013 2.032207 3.954295
v 2.698049 1.996948 3.194763
v 1.487051 0.388401 2.613229
v 1.608952 0.377573 2.611136
v -1.253042 0.391048 2.615449
v -1.374853 0.379814 2.613017
v 1.742216 0.915758 2.477116
v 1.877063 0.905100 2.476149
v -1.510920 0.917503 2.478580
v -1.645991 0.906296 2.477153
v 1.511661 0.415945 2.283435
v 1.640451 0.402792 2.279922
v -1.298679 0.416290 2.283724
v -1.427339 0.402628 2.279784
v 1.556514 0.626484 2.281403
v 1.685303 0.613333 2.277890
v -1.345157 0.626650 2.281540
v -1.473817 0.612988 2.277600
v 0.106147 0.720947 -5.025531
v 0.106147 0.735739 -2.664584
vn -0.1398 0.9902 0.0033
vn -0.1711 0.9847 -0.0332
vn -0.2914 0.9566 -0.0002
vn -0.6995 -0.7139 -0.0335
vn -0.9982 0.0598 0.0063
vn -0.2241 0.9743 0.0242
vn -0.9743 -0.0721 0.2132
vn -0.5760 0.0340 -0.8167
vn -0.0000 -0.0000 1.0000
vn -0.0419 0.9947 0.0941
vn 0.6212 -0.0023 -0.7836
vn -0.6261 0.0145 -0.7796
vn -0.0328 0.0021 0.9995
vn 0.9525 0.2991 -0.0570
vn -0.7353 0.5871 0.3387
vn -0.6719 -0.7322 -0.1112
vn -0.3742 -0.9210 -0.1083
vn -0.9968 0.0181 -0.0779
vn -0.4943 -0.8558 -0.1523
vn -0.9237 -0.0000 -0.3830
vn -0.4015 0.9093 -0.1095
vn -0.9750 0.0025 -0.2221
vn 0.0435 0.0014 -0.9991
vn -0.9965 0.0798 -0.0245
vn 1.0000 -0.0008 -0.0000
vn -0.5042 -0.8441 0.1822
vn -0.3484 0.9285 -0.1285
vn 0.2301 0.9606 0.1562
vn -0.4787 0.0722 -0.8750
vn -0.6335 -0.0044 -0.7738
vn 0.0248 0.0009 0.9997
vn -0.8535 -0.0000 -0.5211
vn -0.4992 0.0011 -0.8665
vn -0.4897 0.0008 -0.8719
vn -1.0000 -0.0000 -0.0000
vn 0.5147 0.8507 0.1063
vn -0.5036 -0.8576 -0.1044
vn -0.2845 0.9550 -0.0833
vn 1.0000 -0.0014 0.0004
vn -0.1555 0.9862 0.0562
vn 0.4215 -0.2925 0.8583
vn -0.9139 -0.0000 0.4060
vn 0.1183 -0.9868 -0.1103
vn -0.6980 -0.0020 -0.7161
vn 0.5926 -0.0000 0.8055
vn 0.1399 0.9902 0.0033
vn 0.1716 0.9846 -0.0330
vn 0.2914 0.9566 -0.0002
vn 0.6995 -0.7139 -0.0335
vn 0.9982 0.0598 0.0063
vn 0.1926 0.9809 0.0260
vn -0.1542 -0.0001 0.9880
vn 0.5760 0.0340 -0.8167
vn -0.0000 -0.0001 1.0000
vn 0.0797 0.9928 0.0890
vn -0.0581 -0.0053 0.9983
vn 0.6259 0.0154 -0.7797
vn 0.0327 0.0027 0.9995
vn -0.8390 0.3469 -0.4192
vn 0.7102 0.6243 0.3255
vn 0.6719 -0.7322 -0.1112
vn 0.3742 -0.9210 -0.1083
vn 0.9968 0.0181 -0.0779
vn 0.4943 -0.8558 -0.1523
vn 0.9237 -0.0000 -0.3830
vn 0.4015 0.9093 -0.1095
vn 0.9750 0.0025 -0.2221
vn 0.0061 -0.9876 -0.1566
vn 0.9965 0.0803 -0.0236
vn 0.5041 -0.8441 0.1824
vn 0.3484 0.9285 -0.1285
vn -0.2301 0.9606 0.1561
vn 0.6335 -0.0084 -0.7737
vn -0.0245 0.0016 0.9997
vn 0.8535 -0.0000 -0.5211
vn 0.2357 -0.9594 -0.1548
vn 0.4901 -0.0048 -0.8716
vn 1.0000 -0.0000 -0.0000
vn -0.5147 0.8507 0.1063
vn 0.5036 -0.8576 -0.1044
vn 0.2846 0.9550 -0.0835
vn 0.1562 0.9861 0.0560
vn 0.0002 0.0045 -1.0000
vn 0.9139 -0.0000 0.4060
vn -0.1183 -0.9868 -0.1102
vn 0.6976 -0.0020 -0.7165
vn -0.5926 -0.0000 0.8055
vn -0.4356 0.8997 0.0298
vn -0.6001 0.7842 -0.1579
vn -0.5769 0.7898 -0.2084
vn -0.6464 0.7625 -0.0265
vn 0.4356 0.8997 0.0298
vn 0.6001 0.7842 -0.1579
vn 0.5769 0.7898 -0.2084
vn 0.6464 0.7625 -0.0265
vn -0.4915 0.8326 -0.2554
vn -0.6974 0.7154 -0.0428
vn 0.4915 0.8326 -0.2554
vn 0.6974 0.7154 -0.0428
vn 0.8944 0.4461 -0.0328
vn -0.9525 0.2991 -0.0570
vn -0.8944 0.4461 -0.0328
vn 0.8390 0.3469 -0.4192
vn -0.0850 -0.9963 -0.0143
vn 0.1345 -0.9897 -0.0488
vn 0.0582 -0.9969 0.0534
vn 0.2896 -0.9569 -0.0216
vn 0.2025 -0.9767 0.0710
vn 0.1160 -0.9919 -0.0521
vn 0.0141 -0.9985 -0.0535
vn -0.2312 -0.9609 -0.1525
vn -0.2445 -0.9602 -0.1355
vn -0.2089 -0.9700 -0.1246
vn 0.0849 -0.9963 -0.0143
vn -0.1346 -0.9897 -0.0486
vn -0.0581 -0.9969 0.0534
vn -0.2277 -0.9728 -0.0433
vn -0.1744 -0.9820 0.0726
vn -0.2061 -0.9661 -0.1558
vn -0.1478 -0.9812 -0.1238
vn -0.1146 -0.9915 0.0617
vn 0.9756 0.0748 -0.2062
vn 0.2799 -0.9588 -0.0485
vn 0.1274 -0.0053 0.9918
vn -0.2662 -0.9489 -0.1696
vn -0.9756 -0.1643 0.1460
vn -0.2285 -0.9722 -0.0517
vn -0.9959 0.0002 -0.0908
vn -0.1153 0.0012 0.9933
vn 0.0596 -0.0051 0.9982
vn 0.0296 0.0301 -0.9991
vn 0.4755 0.0800 -0.8760
vn 0.1258 0.0026 0.9921
vn 0.1127 -0.0035 0.9936
vn -0.6281 -0.0024 -0.7782
vn -0.0261 0.0399 -0.9989
vn 0.9743 -0.0721 0.2132
vn 1.0000 -0.0000 0.0002
vn 0.0572 -0.9981 -0.0238
vn 0.0291 -0.9976 -0.0635
vn -0.0569 -0.9981 -0.0238
vn -0.0367 -0.9977 -0.0576
vn 0.9756 -0.1643 0.1455
vn -0.9977 -0.0001 0.0677
vn 0.9762 -0.0791 0.2018
vn -0.0576 0.0013 0.9983
vn -0.1577 -0.0052 0.9875
vn 0.9629 0.1376 -0.2320
vn -0.0729 0.9973 -0.0049
vn -0.9755 0.0767 -0.2060
vn -0.9762 -0.0791 0.2018
vn 0.9977 -0.0002 0.0677
vn 0.0592 0.0006 0.9982
vn 0.4949 0.0194 -0.8687
vn -0.6220 -0.0111 -0.7830
vn -0.4952 0.0234 -0.8685
vn 0.6134 -0.0112 -0.7897
vn -0.0272 0.9985 0.0477
vn 0.0139 -0.9998 0.0122
vn 1.0000 -0.0000 -0.0003
vn -0.0139 -0.9998 0.0122
vn 1.0000 -0.0000 -0.0004
vn -0.0242 -0.9997 -0.0011
vn -0.9630 0.1406 -0.2300
vn 0.0729 0.9973 -0.0049
vn 0.0299 0.9992 0.0282
vn -1.0000 -0.0000 0.0004
vn -1.0000 -0.0000 0.0003
vn 0.0392 -0.9992 -0.0053
vn -0.1616 -0.9862 0.0351
vn 0.1615 -0.9862 0.0353
vn -0.9855 -0.0329 0.1664
vn -0.4212 -0.2926 0.8585
vn -0.0005 0.0041 -1.0000
vn 0.9858 -0.0321 0.1651
vn -0.9809 -0.0176 0.1939
vn 0.9814 -0.0165 0.1914
vn 0.0625 -0.0004 0.9980
vn -0.8397 0.5321 -0.1080
vn 0.8476 0.5289 0.0426
vn -0.0432 0.0016 -0.9991
vn -0.0624 -0.0003 0.9981
vn -0.0060 -0.9873 -0.1586
vn 0.0063 0.9989 -0.0471
vn -0.0063 0.9989 -0.0471
vn -0.0524 -0.9931 -0.1051
vn 0.0622 -0.0611 0.9962
vn 0.8187 -0.5644 0.1055
vn -0.0621 -0.0611 0.9962
vn -0.8188 -0.5643 0.1060
vn 0.8397 0.5320 -0.1085
vn 0.9230 0.3844 0.0166
vn -0.0968 -0.9915 -0.0874
vn -0.8503 0.5260 0.0191
vn 0.0545 -0.9929 -0.1061
vn -0.0432 0.5250 -0.8500
vn 0.0435 0.5255 -0.8497
vn -0.8296 -0.5572 -0.0368
vn 0.8321 -0.5544 -0.0144
vn -0.0276 -0.0038 -0.9996
vn 0.0310 -0.0035 -0.9995
vn 0.9130 -0.4010 -0.0745
vn -0.0346 0.5476 -0.8360
vn 0.1007 -0.9911 -0.0865
vn -0.9180 -0.3966 -0.0049
vn -0.9170 0.3892 0.0873
vn 0.0350 0.5452 -0.8376
vn 0.6072 0.7826 -0.1377
vn -0.6072 0.7826 -0.1377
vn -0.7102 0.6243 0.3255
vn 0.7353 0.5871 0.3387
vt 0.875000 0.750000
vt 0.875000 0.500000
vt 0.750000 0.750000
vt 0.750000 0.500000
vt 0.125000 0.500000
vt 0.250000 0.500000
vt 0.250000 0.750000
vt 0.125000 0.750000
vt 0.375000 0.250000
vt 0.625000 0.250000
vt 0.125000 0.721349
vt 0.125000 0.532294
vt 0.375000 1.000000
vt 0.625000 1.000000
vt 0.125000 0.541456
vt 0.125000 0.548358
vt 0.837043 0.500000
vt 0.826731 0.500000
vt 0.841526 0.500000
vt 0.749728 0.500000
vt 0.749728 0.500000
vt 0.625000 0.375000
vt 0.375000 0.375000
vt 0.000000 0.000000
vt 0.125000 0.535290
vt 0.125000 0.576460
vt 0.125000 0.552782
vt 0.375000 0.000000
vt 0.625000 0.000000
vt 0.375000 0.875000
vt 0.625000 0.875000
vt 0.125000 0.702505
vt 0.125000 0.709122
vt 0.125000 0.721349
vt 0.125000 0.715917
vt 0.754740 0.500000
vt 0.841526 0.500000
vt 0.125000 0.699521
vt 0.125000 0.675590
vt 0.752424 0.500000
vt 0.125000 0.541456
vt 0.125000 0.535290
s 0
usemtl Material.007
f 2/1/1 91/2/1 12/2/1 10/1/1
f 8/3/2 2/1/2 29/1/2 31/3/2
f 92/4/3 91/2/3 2/1/3 8/3/3
f 108/5/4 5/6/4 7/7/4 109/8/4
f 108/9/5 91/10/5 93/10/5 17/9/5
f 10/1/6 12/2/6 16/2/6 14/1/6
f 53/11/7 55/12/7 140/12/7 141/11/7
f 91/10/8 108/9/8 11/9/8 12/10/8
f 109/13/9 2/14/9 10/14/9 9/13/9
f 14/1/10 16/2/10 36/2/10 34/1/10
f 123/15/11 75/16/11 142/16/11 134/15/11
f 12/10/12 11/9/12 15/9/12 16/10/12
f 9/13/13 10/14/13 14/14/13 13/13/13
f 66/17/14 68/18/14 107/18/14 103/17/14
f 4/19/15 6/20/15 215/21/15 104/19/15
f 5/6/16 108/5/16 17/5/16 19/6/16
f 22/6/17 20/5/17 24/5/17 26/6/17
f 17/9/18 93/10/18 94/10/18 20/9/18
f 19/6/19 17/5/19 20/5/19 22/6/19
f 24/9/20 25/10/20 27/22/20 26/23/20
f 94/2/21 95/4/21 32/4/21 25/2/21
f 20/9/22 94/10/22 25/10/22 24/9/22
f 71/13/23 72/14/23 187/14/23 186/13/23
f 2/14/24 109/13/24 28/13/24 29/14/24
f 7/24/25 8/24/25 31/24/25 30/24/25
f 109/8/26 7/7/26 30/7/26 28/8/26
f 25/2/27 32/4/27 27/4/27
f 34/1/28 36/2/28 40/2/28 38/1/28
f 111/25/29 3/12/29 136/12/29 126/25/29
f 16/10/30 15/9/30 35/9/30 36/10/30
f 13/13/31 14/14/31 34/14/31 33/13/31
f 40/10/32 116/9/32 43/9/32 44/10/32
f 39/26/33 115/27/33 130/27/33 138/26/33
f 36/10/34 35/9/34 116/9/34 40/10/34
f 33/13/9 34/14/9 38/14/9 117/13/9
f 41/28/35 42/29/35 44/10/35 43/9/35
f 117/13/9 38/14/9 42/14/9 41/13/9
f 38/1/36 40/2/36 44/2/36 42/1/36
f 116/5/37 117/8/37 41/8/37 43/5/37
f 48/3/38 46/1/38 50/1/38 52/3/38
f 30/24/39 31/24/39 48/24/39 47/24/39
f 31/3/40 29/1/40 46/1/40 48/3/40
f 85/8/41 47/7/41 179/7/41 181/8/41
f 51/30/42 52/31/42 50/14/42 49/13/42
f 45/8/43 47/7/43 51/7/43 49/8/43
f 46/14/44 45/13/44 49/13/44 50/14/44
f 47/24/45 48/24/45 52/24/45 51/24/45
f 54/1/46 58/1/46 60/2/46 96/2/46
f 8/3/47 31/3/47 72/1/47 54/1/47
f 92/4/48 8/3/48 54/1/48 96/2/48
f 118/5/49 119/8/49 7/7/49 5/6/49
f 118/9/50 65/9/50 97/10/50 96/10/50
f 58/1/51 62/1/51 64/2/51 60/2/51
f 73/32/52 122/33/52 135/33/52 143/32/52
f 96/10/53 60/10/53 59/9/53 118/9/53
f 119/13/54 57/13/54 58/14/54 54/14/54
f 62/1/55 74/1/55 76/2/55 64/2/55
f 1/34/56 110/35/56 127/35/56 137/34/56
f 60/10/57 64/10/57 63/9/57 59/9/57
f 57/13/58 61/13/58 62/14/58 58/14/58
f 23/36/59 21/18/59 105/18/59 102/36/59
f 215/21/60 106/37/60 101/20/60
f 5/6/61 19/6/61 65/5/61 118/5/61
f 22/6/62 26/6/62 69/5/62 67/5/62
f 65/9/63 67/9/63 98/10/63 97/10/63
f 19/6/64 22/6/64 67/5/64 65/5/64
f 69/9/65 26/23/65 27/22/65 70/10/65
f 98/2/66 70/2/66 32/4/66 95/4/66
f 67/9/67 69/9/67 70/10/67 98/10/67
f 85/13/68 71/13/68 186/13/68 188/13/68
f 54/14/69 72/14/69 71/13/69 119/13/69
f 119/8/70 71/8/70 30/7/70 7/7/70
f 70/2/71 27/4/71 32/4/71
f 74/1/72 78/1/72 80/2/72 76/2/72
f 114/38/9 37/39/9 139/39/9 131/38/9
f 64/10/73 76/10/73 124/9/73 63/9/73
f 61/13/74 125/13/74 74/14/74 62/14/74
f 80/10/75 84/10/75 83/9/75 79/9/75
f 124/5/76 79/5/76 77/8/76 125/8/76
f 76/10/77 80/10/77 79/9/77 124/9/77
f 125/13/9 77/13/9 78/14/9 74/14/9
f 81/28/78 83/9/78 84/10/78 82/29/78
f 77/13/9 81/13/9 82/14/9 78/14/9
f 78/1/79 82/1/79 84/2/79 80/2/79
f 79/5/80 83/5/80 81/8/80 77/8/80
f 48/3/81 90/3/81 88/1/81 86/1/81
f 31/3/82 48/3/82 86/1/82 72/1/82
f 28/8/83 30/7/83 177/7/83 176/8/83
f 89/30/84 87/13/84 88/14/84 90/31/84
f 85/8/85 87/8/85 89/7/85 47/7/85
f 86/14/86 88/14/86 87/13/86 85/13/86
f 47/24/87 89/24/87 90/24/87 48/24/87
f 6/20/88 4/19/88 91/2/88 92/4/88
f 4/19/89 18/17/89 93/2/89 91/2/89
f 21/18/90 23/36/90 95/4/90 94/2/90
f 18/17/91 21/18/91 94/2/91 93/2/91
f 56/37/92 6/20/92 92/4/92 96/2/92
f 66/17/93 56/37/93 96/2/93 97/2/93
f 23/36/94 68/18/94 98/2/94 95/4/94
f 68/18/95 66/17/95 97/2/95 98/2/95
f 105/18/96 214/40/96 102/36/96
f 104/19/97 101/20/97 100/4/97 99/17/97
f 107/18/98 102/36/98 214/40/98
f 106/37/99 103/17/99 100/4/99 101/20/99
f 56/37/100 66/17/100 103/17/100 106/37/100
f 21/18/101 18/17/101 99/17/101 105/18/101
f 18/17/102 4/19/102 104/19/102 99/17/102
f 68/18/103 23/36/103 102/36/103 107/18/103
f 1/34/104 3/12/104 108/5/104 109/8/104
f 110/35/105 1/34/105 109/8/105 9/8/105
f 3/12/106 111/25/106 11/5/106 108/5/106
f 112/33/107 110/35/107 9/8/107 13/8/107
f 111/25/108 113/41/108 15/5/108 11/5/108
f 114/38/109 112/33/109 13/8/109 33/8/109
f 113/41/110 115/27/110 35/5/110 15/5/110
f 39/26/111 37/39/111 117/8/111 116/5/111
f 37/39/112 114/38/112 33/8/112 117/8/112
f 115/27/113 39/26/113 116/5/113 35/5/113
f 55/12/114 53/11/114 119/8/114 118/5/114
f 53/11/115 120/35/115 57/8/115 119/8/115
f 121/42/116 55/12/116 118/5/116 59/5/116
f 120/35/117 122/33/117 61/8/117 57/8/117
f 123/15/118 121/42/118 59/5/118 63/5/118
f 73/32/119 75/16/119 124/5/119 125/8/119
f 122/33/120 73/32/120 125/8/120 61/8/120
f 75/16/121 123/15/121 63/5/121 124/5/121
f 132/42/122 133/35/122 151/35/122 150/42/122
f 126/25/123 127/35/123 129/33/123 128/41/123
f 129/33/124 131/38/124 149/38/124 147/33/124
f 130/27/125 131/38/125 139/39/125 138/26/125
f 156/12/126 140/12/126 165/12/126 173/12/126
f 132/42/127 134/15/127 135/33/127 133/35/127
f 131/38/128 130/27/128 148/27/128 149/38/128
f 110/35/129 112/33/129 129/33/129 127/35/129
f 120/35/130 53/11/130 141/11/130 133/35/130
f 113/41/131 111/25/131 126/25/131 128/41/131
f 55/12/132 121/42/132 132/42/132 140/12/132
f 112/33/133 114/38/133 131/38/133 129/33/133
f 122/33/134 120/35/134 133/35/134 135/33/134
f 115/27/135 113/41/135 128/41/135 130/27/135
f 121/42/136 123/15/136 134/15/136 132/42/136
f 37/39/35 39/26/35 138/26/35 139/39/35
f 3/12/137 1/34/137 137/34/137 136/12/137
f 75/16/138 73/32/138 143/32/138 142/16/138
f 154/12/139 155/34/139 145/35/139 144/25/139
f 146/41/140 147/33/140 149/38/140 148/27/140
f 156/12/141 150/42/141 151/35/141 157/11/141
f 152/15/142 158/16/142 159/32/142 153/33/142
f 136/12/143 154/12/143 169/12/143 161/12/143
f 135/33/144 134/15/144 152/15/144 153/33/144
f 136/12/145 137/34/145 155/34/145 154/12/145
f 142/16/138 143/32/138 159/32/138 158/16/138
f 137/34/146 127/35/146 145/35/146 155/34/146
f 143/32/147 135/33/147 153/33/147 159/32/147
f 132/42/148 150/42/148 172/42/148 164/42/148
f 140/12/149 132/42/149 164/42/149 165/12/149
f 127/35/150 126/25/150 144/25/150 145/35/150
f 141/11/151 140/12/151 156/12/151 157/11/151
f 128/41/152 129/33/152 147/33/152 146/41/152
f 133/35/153 141/11/153 157/11/153 151/35/153
f 165/12/154 164/42/154 172/42/154 173/12/154
f 162/27/155 163/41/155 171/41/155 170/27/155
f 160/25/156 161/12/156 169/12/156 168/25/156
f 167/15/157 166/16/157 174/16/157 175/15/157
f 130/27/158 128/41/158 163/41/158 162/27/158
f 150/42/159 156/12/159 173/12/159 172/42/159
f 142/16/160 158/16/160 174/16/160 166/16/160
f 154/12/161 144/25/161 168/25/161 169/12/161
f 128/41/162 146/41/162 171/41/162 163/41/162
f 158/16/163 152/15/163 175/15/163 174/16/163
f 144/25/164 126/25/164 160/25/164 168/25/164
f 126/25/165 136/12/165 161/12/165 160/25/165
f 134/15/166 142/16/166 166/16/166 167/15/166
f 152/15/167 134/15/167 167/15/167 175/15/167
f 148/27/168 130/27/168 162/27/168 170/27/168
f 146/41/169 148/27/169 170/27/169 171/41/169
f 176/8/170 177/7/170 179/7/170 178/8/170
f 180/8/171 181/8/171 179/7/171 177/7/171
f 45/13/172 28/13/172 176/13/172 178/13/172
f 47/7/173 45/8/173 178/8/173 179/7/173
f 30/7/174 71/8/174 180/8/174 177/7/174
f 71/13/175 85/13/175 181/13/175 180/13/175
f 183/14/176 182/13/176 184/13/176 185/14/176
f 187/14/177 189/14/177 188/13/177 186/13/177
f 45/13/178 46/14/178 185/14/178 184/13/178
f 72/1/179 86/1/179 192/1/179 193/1/179
f 191/1/180 29/1/180 200/1/180 204/1/180
f 29/14/181 28/13/181 182/13/181 183/14/181
f 86/14/182 85/13/182 188/13/182 189/14/182
f 28/13/183 45/13/183 184/13/183 182/13/183
f 190/1/184 191/1/184 195/1/184 194/1/184
f 193/1/185 192/1/185 196/1/185 197/1/185
f 187/14/186 72/14/186 198/14/186 199/14/186
f 185/14/187 46/14/187 190/14/187 194/14/187
f 189/14/188 187/14/188 197/14/188 196/14/188
f 86/14/189 189/14/189 196/14/189 192/14/189
f 183/14/190 185/14/190 194/14/190 195/14/190
f 46/1/191 29/1/191 191/1/191 190/1/191
f 204/1/192 200/1/192 208/1/192 212/1/192
f 199/14/193 198/14/193 206/14/193 207/14/193
f 72/1/194 193/1/194 202/1/194 198/1/194
f 29/14/195 183/14/195 201/14/195 200/14/195
f 195/1/196 191/1/196 204/1/196 205/1/196
f 193/1/197 197/1/197 203/1/197 202/1/197
f 183/14/198 195/14/198 205/14/198 201/14/198
f 197/14/199 187/14/199 199/14/199 203/14/199
f 207/14/200 206/14/200 210/14/200 211/14/200
f 208/14/201 209/14/201 213/14/201 212/14/201
f 203/14/202 199/14/202 207/14/202 211/14/202
f 205/1/203 204/1/203 212/1/203 213/1/203
f 200/14/204 201/14/204 209/14/204 208/14/204
f 201/14/205 205/14/205 213/14/205 209/14/205
f 198/1/206 202/1/206 210/1/206 206/1/206
f 202/1/207 203/1/207 211/1/207 210/1/207
f 103/17/208 107/18/208 214/40/208 100/4/208
f 99/17/209 100/4/209 214/40/209 105/18/209
f 104/19/210 215/21/210 101/20/210
f 6/20/211 56/37/211 106/37/211 215/21/211
