# Blender 4.5.4 LTS
# www.blender.org
mtllib Battleship.mtl
o Cube.006
v 0.272397 2.893224 2.916705
v 0.272397 2.893224 3.613128
v -0.282504 2.893224 3.613128
v -0.282504 2.893224 2.916705
v 0.178243 3.181968 2.916705
v -0.188351 3.181968 2.916705
v 0.178243 3.233044 3.262888
v 0.272397 2.940355 3.613128
v 0.235492 3.186306 3.438008
v 0.272397 3.082355 3.519809
v -0.282504 2.940355 3.613128
v -0.188351 3.233044 3.262888
v -0.282504 3.082355 3.519809
v -0.245600 3.186306 3.438008
v 0.618927 2.984113 -3.409923
v 0.615864 2.711409 -3.418466
v 0.554134 2.978075 -3.728047
v 0.518270 2.710547 -3.728308
v 0.473366 2.395828 -3.394955
v 0.377184 2.395703 -3.720294
v 0.664115 2.988391 -3.136198
v 0.661880 2.711876 -3.136085
v 0.515840 2.395332 -3.131562
v 0.487505 2.977252 -3.924794
v 0.442574 2.711075 -3.923691
v 0.306997 2.396477 -3.910955
v 0.348727 2.979228 -4.187657
v 0.364005 2.708241 -4.142789
v 0.246446 2.402196 -4.069223
v -0.000048 2.999673 -4.673870
v -0.000048 2.722276 -4.596374
v -0.000048 2.396551 -4.336507
v 0.716907 2.990073 -2.536625
v 0.736027 2.708817 -2.535818
v 0.551270 2.395215 -2.532014
v 0.760610 2.985053 -2.053785
v 0.758343 2.708029 -2.053057
v 0.556165 2.394190 -2.049769
v 0.794600 2.868152 -1.460225
v 0.761489 2.703271 -1.460119
v 0.572214 2.394248 -1.458106
v 0.792843 2.782028 -0.871090
v 0.788669 2.705941 -0.872382
v 0.600383 2.395648 -0.872223
v 0.763402 2.715648 0.125700
v 0.667381 2.396235 0.124659
v 0.767873 2.801738 2.053479
v 0.633830 2.394567 2.053988
v 0.753731 2.798361 4.197565
v 0.620896 2.390591 4.189721
v -0.000048 2.826045 4.196790
v -0.000048 2.388552 4.171354
v -0.000048 2.390046 2.082372
v -0.000048 2.377570 0.122728
v -0.000048 2.388521 -0.874369
v -0.000048 2.387727 -2.556678
v -0.000048 2.390023 -1.476418
v -0.000048 2.389521 -2.064542
v -0.000048 2.386822 -3.123421
v -0.000048 2.388454 -3.405398
v -0.000048 2.385072 -3.757890
v -0.000048 2.377575 -3.927306
v -0.000048 2.372316 -4.081401
v -0.619023 2.984113 -3.409922
v -0.615960 2.711408 -3.418466
v -0.554230 2.978074 -3.728047
v -0.518366 2.710547 -3.728307
v -0.473462 2.395828 -3.394955
v -0.377280 2.395703 -3.720294
v -0.664211 2.988391 -3.136198
v -0.661977 2.711876 -3.136085
v -0.515936 2.395332 -3.131561
v -0.487601 2.977252 -3.924794
v -0.442670 2.711075 -3.923690
v -0.307094 2.396477 -3.910956
v -0.348824 2.979228 -4.187658
v -0.364101 2.708241 -4.142789
v -0.246542 2.402196 -4.069223
v -0.717004 2.990073 -2.536625
v -0.736123 2.708817 -2.535818
v -0.551366 2.395215 -2.532013
v -0.760706 2.985052 -2.053785
v -0.758439 2.708028 -2.053056
v -0.556261 2.394189 -2.049769
v -0.794696 2.868152 -1.460225
v -0.761585 2.703271 -1.460119
v -0.572310 2.394248 -1.458106
v -0.792939 2.782028 -0.871089
v -0.788765 2.705940 -0.872382
v -0.600479 2.395648 -0.872223
v -0.763498 2.715648 0.125700
v -0.667478 2.396235 0.124658
v -0.767969 2.801738 2.053479
v -0.633926 2.394567 2.053988
v -0.753827 2.798361 4.197566
v -0.620992 2.390591 4.189721
v 0.532922 2.987307 -3.391962
v 0.530619 2.732113 -3.399978
v 0.470545 2.987307 -3.702266
v 0.435991 2.732113 -3.702266
v 0.415721 2.481438 -3.381655
v 0.321093 2.481438 -3.702266
v 0.577058 2.987307 -3.124541
v 0.574578 2.732113 -3.124811
v 0.459680 2.481438 -3.124195
v 0.406613 2.987307 -3.891924
v 0.362382 2.732113 -3.891924
v 0.251600 2.481438 -3.891924
v 0.273027 2.987307 -4.142871
v 0.289372 2.732113 -4.098892
v 0.191955 2.481438 -4.038357
v -0.000048 3.022837 -4.530860
v -0.000048 2.771134 -4.470999
v -0.000048 2.484266 -4.268765
v 0.629476 2.987307 -2.529010
v 0.647978 2.732113 -2.529280
v 0.498364 2.481438 -2.528663
v 0.672829 2.987307 -2.048939
v 0.670504 2.732113 -2.049209
v 0.507155 2.481438 -2.048592
v 0.707458 2.878876 -1.456962
v 0.676308 2.732113 -1.457232
v 0.522980 2.481438 -1.456615
v 0.705308 2.790958 -0.870847
v 0.702871 2.732113 -0.871117
v 0.544960 2.481438 -0.870500
v 0.675859 2.732113 0.124059
v 0.603974 2.481438 0.124676
v 0.684299 2.828618 2.052614
v 0.569401 2.481438 2.053231
v 0.671807 2.828618 4.109020
v 0.556909 2.481438 4.109637
v -0.000048 2.828618 4.109020
v -0.000048 2.475960 4.085660
v -0.000048 2.477845 2.082201
v -0.000048 2.465376 0.122861
v -0.000048 2.476320 -0.873987
v -0.000048 2.475524 -2.556762
v -0.000048 2.477817 -1.476367
v -0.000048 2.477315 -2.064641
v -0.000048 2.474621 -3.123250
v -0.000048 2.476257 -3.405353
v -0.000048 2.472901 -3.758670
v -0.000048 2.465543 -3.927728
v -0.000048 2.460568 -4.075272
v -0.533019 2.987307 -3.391962
v -0.530715 2.732113 -3.399978
v -0.470642 2.987307 -3.702266
v -0.436087 2.732113 -3.702266
v -0.415817 2.481438 -3.381654
v -0.321189 2.481438 -3.702266
v -0.577154 2.987307 -3.124542
v -0.574674 2.732113 -3.124812
v -0.459776 2.481438 -3.124194
v -0.406709 2.987307 -3.891923
v -0.362478 2.732113 -3.891924
v -0.251696 2.481438 -3.891924
v -0.273123 2.987307 -4.142872
v -0.289468 2.732113 -4.098892
v -0.192051 2.481438 -4.038357
v -0.629573 2.987307 -2.529010
v -0.648074 2.732113 -2.529280
v -0.498460 2.481438 -2.528663
v -0.672925 2.987307 -2.048939
v -0.670601 2.732113 -2.049209
v -0.507251 2.481438 -2.048592
v -0.707554 2.878876 -1.456962
v -0.676404 2.732113 -1.457232
v -0.523077 2.481438 -1.456615
v -0.705404 2.790958 -0.870846
v -0.702967 2.732113 -0.871117
v -0.545056 2.481438 -0.870500
v -0.675955 2.732113 0.124059
v -0.604070 2.481438 0.124676
v -0.684395 2.828618 2.052614
v -0.569497 2.481438 2.053231
v -0.671904 2.828618 4.109020
v -0.557006 2.481438 4.109637
v -0.241695 2.639426 1.672052
v -0.241695 2.980174 1.672052
v -0.241695 2.639426 1.209681
v -0.241695 2.980174 1.209681
v 0.241695 2.639426 1.672052
v 0.241695 2.980174 1.672052
v 0.241695 2.639426 1.209681
v 0.241695 2.980174 1.209681
v -0.126695 3.676317 1.559152
v -0.126695 3.676317 1.322581
v 0.126695 3.676317 1.559152
v 0.126695 3.676317 1.322581
v -0.241695 3.676317 1.672052
v -0.241695 3.676317 1.209681
v 0.241695 3.676317 1.209681
v 0.241695 3.676317 1.672052
v -0.126695 4.309219 1.559152
v -0.126695 4.309219 1.322581
v 0.126695 4.309219 1.322581
v 0.126695 4.309219 1.559152
v -0.055217 4.581111 1.492419
v -0.055217 4.581111 1.389314
v 0.055217 4.581111 1.389314
v 0.055217 4.581111 1.492419
v -0.205087 4.454044 1.637544
v -0.205087 4.454044 1.244189
v 0.205087 4.454044 1.244188
v 0.205087 4.454044 1.637544
v -0.205087 4.581111 1.637544
v -0.205087 4.581111 1.244189
v 0.205087 4.581111 1.244188
v 0.205087 4.581111 1.637544
v -0.055217 5.483494 1.492419
v -0.055217 5.483494 1.389314
v 0.055217 5.483494 1.389314
v 0.055217 5.483494 1.492419
v -0.055217 5.532087 1.492419
v -0.055217 5.532087 1.389314
v 0.055217 5.532087 1.389314
v 0.055217 5.532087 1.492419
v -0.089543 5.483494 1.526744
v -0.089543 5.483494 1.354988
v 0.089543 5.483494 1.354988
v 0.089543 5.483494 1.526744
v -0.089543 5.532087 1.526744
v -0.089543 5.532087 1.354988
v 0.089543 5.532087 1.354988
v 0.089543 5.532087 1.526744
v -0.402780 2.627235 1.204500
v -0.402780 2.938593 1.204500
v -0.402780 2.627235 -0.005925
v -0.402780 2.938593 -0.005925
v 0.402780 2.627235 1.204500
v 0.402780 2.938593 1.204500
v 0.402780 2.627235 -0.005924
v 0.402780 2.938593 -0.005924
v 0.403991 2.683518 -0.004977
v 0.403991 3.593231 -0.004977
v 0.403991 2.683518 -1.193236
v 0.403991 3.593231 -1.193236
v 0.403991 3.687639 -1.193236
v 0.403991 3.687639 -0.004977
v 0.483849 3.600679 -1.311031
v 0.483849 3.600679 0.112818
v 0.483849 3.680191 -1.311031
v 0.483849 3.680191 0.112818
v 0.403991 2.683518 -0.599107
v 0.403991 3.593231 -0.599107
v 0.403991 3.687639 -0.599107
v 0.483849 3.600679 -0.599107
v 0.483849 3.680191 -0.599107
v 0.403991 3.138375 -1.193236
v 0.403991 3.138375 -0.004977
v 0.403991 3.138375 -0.599107
v 0.403991 3.213391 -0.470610
v 0.403991 3.518215 -0.470610
v 0.403991 3.518215 -0.133473
v 0.403991 3.213391 -0.133473
v 0.403991 3.213391 -1.064740
v 0.403991 3.518215 -1.064740
v 0.403991 3.518215 -0.727603
v 0.403991 3.213391 -0.727603
v 0.358310 3.518215 -0.470610
v 0.358310 3.213391 -0.470610
v 0.358310 3.213391 -0.133473
v 0.358310 3.518215 -0.133473
v 0.358310 3.518215 -1.064740
v 0.358310 3.213391 -1.064740
v 0.358310 3.213391 -0.727603
v 0.358310 3.518215 -0.727603
v 0.001211 2.683518 -1.193236
v 0.001211 3.593231 -1.193236
v 0.001211 2.683518 -0.004977
v 0.001211 3.593231 -0.004977
v 0.001211 3.687639 -1.193236
v 0.001211 3.687639 -0.004977
v 0.001211 3.600679 -1.311031
v 0.001211 3.600679 0.112818
v 0.001211 3.680191 -1.311031
v 0.001211 3.680191 0.112818
v 0.001211 2.683518 -0.599106
v 0.001211 3.138375 -0.004977
v 0.001211 3.138375 -1.193236
v 0.001211 3.963696 -1.193236
v 0.403991 3.963696 -1.193236
v 0.403991 3.963696 -0.599107
v 0.403991 3.963696 -0.282699
v 0.001211 3.963696 -0.599106
v 0.001211 3.963696 -0.282699
v 0.001211 4.440291 -0.787825
v 0.185552 4.440291 -0.787825
v 0.185552 4.440291 -0.599106
v 0.001211 4.440291 -0.599106
v 0.403991 2.999010 -1.408819
v 0.403991 2.683518 -1.408819
v 0.001211 2.999010 -1.408819
v 0.001211 2.683518 -1.408819
v 0.001211 4.506193 -0.787825
v 0.185552 4.506193 -0.787825
v 0.185552 4.506193 -0.599106
v 0.001211 4.506193 -0.599106
v -0.401569 2.683518 -0.004977
v -0.401569 3.593231 -0.004977
v -0.401569 2.683518 -1.193236
v -0.401569 3.593231 -1.193236
v -0.401569 3.687639 -1.193236
v -0.401569 3.687639 -0.004977
v -0.481426 3.600679 -1.311031
v -0.481426 3.600679 0.112818
v -0.481426 3.680191 -1.311031
v -0.481426 3.680191 0.112818
v -0.401569 2.683518 -0.599106
v -0.401569 3.593231 -0.599106
v -0.401569 3.687639 -0.599106
v -0.481426 3.600679 -0.599106
v -0.481426 3.680191 -0.599106
v -0.401569 3.138375 -1.193236
v -0.401569 3.138375 -0.004977
v -0.401569 3.138375 -0.599106
v -0.401569 3.213391 -0.470610
v -0.401569 3.518215 -0.470610
v -0.401569 3.518215 -0.133473
v -0.401569 3.213391 -0.133473
v -0.401569 3.213391 -1.064740
v -0.401569 3.518215 -1.064740
v -0.401569 3.518215 -0.727602
v -0.401569 3.213391 -0.727602
v -0.355887 3.518215 -0.470610
v -0.355887 3.213391 -0.470610
v -0.355887 3.213391 -0.133473
v -0.355887 3.518215 -0.133473
v -0.355887 3.518215 -1.064740
v -0.355887 3.213391 -1.064740
v -0.355887 3.213391 -0.727602
v -0.355887 3.518215 -0.727602
v -0.401569 3.963696 -1.193236
v -0.401569 3.963696 -0.599106
v -0.401569 3.963696 -0.282699
v -0.183130 4.440291 -0.787825
v -0.183130 4.440291 -0.599106
v -0.401569 2.999010 -1.408819
v -0.401569 2.683518 -1.408819
v -0.183130 4.506193 -0.787825
v -0.183130 4.506193 -0.599106
v -0.402780 2.683518 -2.099996
v -0.240101 2.960354 -2.339958
v -0.402780 2.683518 -3.288254
v -0.240101 2.960354 -3.048291
v 0.402780 2.683518 -2.099995
v 0.240101 2.960354 -2.339959
v 0.402780 2.683518 -3.288254
v 0.240101 2.960354 -3.048291
v -0.402780 2.960354 -2.099996
v -0.402780 2.960354 -3.288254
v 0.402780 2.960354 -3.288254
v 0.402780 2.960354 -2.099995
v -0.240101 3.115423 -2.339958
v -0.240101 3.115423 -3.048291
v 0.240101 3.115423 -3.048291
v 0.240101 3.115423 -2.339959
v -0.472895 3.105225 -2.235952
v -0.472895 3.105225 -3.167675
v 0.472895 3.105225 -3.167676
v 0.472895 3.105225 -2.235952
v -0.312417 3.393970 -2.235952
v 0.312417 3.393970 -2.235952
v -0.312417 3.445045 -2.699100
v -0.472895 3.152356 -3.167675
v -0.409993 3.398307 -2.933388
v -0.472895 3.294356 -3.042827
v 0.472895 3.152356 -3.167676
v 0.312417 3.445045 -2.699100
v 0.472895 3.294356 -3.042827
v 0.409993 3.398307 -2.933388
v 0.231335 3.364800 -3.685288
v 0.222844 3.205826 -2.964900
v 0.231335 3.387981 -3.680319
v 0.222844 3.237651 -2.958076
v 0.322901 3.364800 -3.685288
v 0.331391 3.205826 -2.964899
v 0.322901 3.387981 -3.680319
v 0.331391 3.237651 -2.958076
v 0.277118 3.420098 -3.673433
v 0.277118 3.274806 -2.950110
v 0.277118 3.332682 -3.692175
v 0.277118 3.168671 -2.972866
v 0.222844 3.392303 -3.679392
v 0.222844 3.360478 -3.686215
v 0.277118 3.429458 -3.671425
v 0.331391 3.360478 -3.686215
v 0.331391 3.392303 -3.679392
v 0.277118 3.323323 -3.694182
v 0.277118 3.273605 -2.990169
v 0.277118 3.186189 -3.008911
v 0.231335 3.241488 -2.997055
v 0.231335 3.218307 -3.002026
v 0.322901 3.218307 -3.002025
v 0.322901 3.241488 -2.997055
v -0.047923 3.364800 -3.685288
v -0.056414 3.205826 -2.964900
v -0.047923 3.387981 -3.680319
v -0.056414 3.237651 -2.958076
v 0.043643 3.364800 -3.685288
v 0.052134 3.205826 -2.964900
v 0.043643 3.387981 -3.680319
v 0.052134 3.237651 -2.958076
v -0.002140 3.420098 -3.673433
v -0.002140 3.274806 -2.950110
v -0.002140 3.332682 -3.692175
v -0.002140 3.168671 -2.972866
v -0.056414 3.392303 -3.679392
v -0.056414 3.360478 -3.686215
v -0.002140 3.429458 -3.671425
v 0.052134 3.360478 -3.686215
v 0.052134 3.392303 -3.679392
v -0.002140 3.323323 -3.694182
v -0.002140 3.273605 -2.990169
v -0.002140 3.186189 -3.008911
v -0.047923 3.241488 -2.997055
v -0.047923 3.218307 -3.002026
v 0.043643 3.218307 -3.002025
v 0.043643 3.241488 -2.997055
v -0.351626 3.364800 -3.685288
v -0.360117 3.205826 -2.964900
v -0.351626 3.387981 -3.680319
v -0.360117 3.237651 -2.958076
v -0.260060 3.364800 -3.685288
v -0.251570 3.205826 -2.964900
v -0.260060 3.387981 -3.680319
v -0.251570 3.237651 -2.958076
v -0.305843 3.420098 -3.673433
v -0.305843 3.274806 -2.950110
v -0.305843 3.332682 -3.692175
v -0.305843 3.168671 -2.972866
v -0.360117 3.392303 -3.679392
v -0.360117 3.360478 -3.686215
v -0.305843 3.429458 -3.671425
v -0.251570 3.360478 -3.686215
v -0.251570 3.392303 -3.679392
v -0.305843 3.323323 -3.694182
v -0.305843 3.273605 -2.990169
v -0.305843 3.186189 -3.008911
v -0.351626 3.241488 -2.997055
v -0.351626 3.218307 -3.002026
v -0.260060 3.218307 -3.002025
v -0.260060 3.241488 -2.997055
v 0.394166 2.471516 2.815083
v 0.231487 2.748353 2.994445
v 0.394167 2.471516 3.703255
v 0.231487 2.748353 3.523893
v -0.411394 2.471516 2.815083
v -0.248715 2.748353 2.994445
v -0.411394 2.471516 3.703255
v -0.248715 2.748353 3.523893
v 0.394166 2.748353 2.815083
v 0.394167 2.748353 3.703255
v -0.411394 2.748353 3.703255
v -0.411394 2.748353 2.815083
v 0.231487 2.903422 2.994445
v 0.231487 2.903422 3.523893
v -0.248715 2.903422 3.523893
v -0.248715 2.903422 2.994445
v -0.079467 3.064938 4.197089
v -0.072926 3.060530 3.423759
v -0.079467 3.083201 4.197056
v -0.072926 3.085603 3.423714
v -0.150003 3.064938 4.197089
v -0.156544 3.060530 3.423759
v -0.150003 3.083201 4.197056
v -0.156544 3.085603 3.423714
v -0.114735 3.108504 4.197011
v -0.114735 3.114875 3.423662
v -0.114735 3.039634 4.197133
v -0.114735 3.031258 3.423810
v -0.072926 3.086606 4.197050
v -0.072926 3.061533 4.197094
v -0.114735 3.115878 4.196999
v -0.156543 3.061533 4.197094
v -0.156543 3.086606 4.197050
v -0.114735 3.032260 4.197146
v -0.114735 3.107554 3.453655
v -0.114735 3.038685 3.453776
v -0.079467 3.082251 3.453700
v -0.079467 3.063988 3.453732
v -0.150003 3.063988 3.453732
v -0.150003 3.082251 3.453700
v 0.135655 3.064938 4.197089
v 0.142196 3.060530 3.423759
v 0.135655 3.083201 4.197056
v 0.142196 3.085603 3.423714
v 0.065119 3.064938 4.197089
v 0.058578 3.060530 3.423759
v 0.065119 3.083201 4.197056
v 0.058578 3.085603 3.423714
v 0.100387 3.108504 4.197011
v 0.100387 3.114875 3.423662
v 0.100387 3.039634 4.197133
v 0.100387 3.031258 3.423810
v 0.142196 3.086606 4.197050
v 0.142196 3.061533 4.197094
v 0.100387 3.115878 4.196999
v 0.058578 3.061533 4.197094
v 0.058578 3.086606 4.197050
v 0.100387 3.032260 4.197146
v 0.100387 3.107554 3.453655
v 0.100387 3.038685 3.453776
v 0.135655 3.082251 3.453699
v 0.135655 3.063988 3.453732
v 0.065119 3.063988 3.453732
v 0.065119 3.082251 3.453700
vn -0.0000 -1.0000 -0.0000
vn -0.0000 -0.0000 -1.0000
vn -0.0000 0.9662 0.2579
vn -0.0000 0.6184 0.7859
vn -0.0000 0.5492 0.8357
vn 0.9716 0.2271 -0.0669
vn -0.0000 0.9893 -0.1460
vn -0.0000 -0.0000 1.0000
vn -0.9716 0.2271 -0.0669
vn 0.9662 -0.0656 -0.2491
vn 0.8741 -0.4065 -0.2660
vn 0.8976 -0.4162 -0.1455
vn 0.9868 -0.0070 -0.1618
vn 0.8612 -0.3893 -0.3268
vn 0.9306 -0.1414 -0.3377
vn 0.8607 -0.3956 -0.3203
vn 0.9083 -0.0852 -0.4095
vn 0.6843 -0.4359 -0.5846
vn 0.7897 -0.1126 -0.6031
vn 0.8820 -0.4641 -0.0818
vn 0.9940 0.0299 -0.1051
vn 0.8508 -0.5249 -0.0250
vn 0.9972 0.0299 -0.0680
vn 0.8465 -0.5321 -0.0158
vn 0.9960 -0.0798 -0.0394
vn 0.8531 -0.5203 -0.0384
vn 0.9878 -0.1527 -0.0322
vn 0.9113 -0.4114 -0.0169
vn 0.9533 -0.3018 0.0138
vn 0.9503 -0.3113 0.0055
vn 0.9981 -0.0552 0.0258
vn -0.0146 -0.0370 0.9992
vn 0.0052 -1.0000 -0.0013
vn 0.0179 -0.9998 0.0029
vn 0.0204 -0.9998 -0.0059
vn 0.0097 -1.0000 -0.0003
vn 0.0079 -1.0000 0.0004
vn 0.0109 -0.9999 0.0007
vn 0.0150 -0.9999 0.0002
vn 0.0161 -0.9999 -0.0052
vn 0.0210 -0.9998 0.0022
vn 0.0423 -0.9991 0.0104
vn 0.0887 -0.9959 -0.0187
vn 0.1244 -0.9878 -0.0938
vn -0.9662 -0.0656 -0.2491
vn -0.8741 -0.4065 -0.2660
vn -0.8976 -0.4162 -0.1456
vn -0.9868 -0.0070 -0.1618
vn -0.8612 -0.3893 -0.3268
vn -0.9306 -0.1414 -0.3377
vn -0.8607 -0.3956 -0.3203
vn -0.9083 -0.0852 -0.4095
vn -0.6843 -0.4359 -0.5846
vn -0.7897 -0.1126 -0.6031
vn -0.8820 -0.4641 -0.0818
vn -0.9940 0.0299 -0.1051
vn -0.8508 -0.5249 -0.0250
vn -0.9972 0.0299 -0.0680
vn -0.8465 -0.5321 -0.0158
vn -0.9960 -0.0798 -0.0394
vn -0.8531 -0.5203 -0.0384
vn -0.9878 -0.1527 -0.0322
vn -0.9113 -0.4114 -0.0169
vn -0.9533 -0.3018 0.0138
vn -0.9503 -0.3113 0.0055
vn -0.9981 -0.0552 0.0258
vn 0.0146 -0.0370 0.9992
vn -0.0052 -1.0000 -0.0013
vn -0.0179 -0.9998 0.0029
vn -0.0204 -0.9998 -0.0059
vn -0.0097 -1.0000 -0.0003
vn -0.0079 -1.0000 0.0004
vn -0.0109 -0.9999 0.0007
vn -0.0150 -0.9999 0.0002
vn -0.0161 -0.9999 -0.0052
vn -0.0210 -0.9998 0.0022
vn -0.0423 -0.9991 0.0104
vn -0.0887 -0.9959 -0.0187
vn -0.1244 -0.9878 -0.0938
vn -0.9666 0.0659 0.2477
vn -0.8728 0.4097 0.2652
vn -0.8969 0.4167 0.1480
vn -0.9871 0.0066 0.1603
vn -0.8623 0.3881 0.3253
vn -0.9304 0.1436 0.3374
vn -0.8597 0.3960 0.3227
vn -0.9082 0.0849 0.4098
vn -0.6974 0.4128 0.5859
vn -0.7955 0.0969 0.5982
vn -0.8813 0.4652 0.0829
vn -0.9940 -0.0313 0.1050
vn -0.8479 0.5294 0.0277
vn -0.9972 -0.0317 0.0684
vn -0.8453 0.5340 0.0154
vn -0.9957 0.0829 0.0416
vn -0.8490 0.5272 0.0352
vn -0.9864 0.1610 0.0326
vn -0.9089 0.4167 0.0146
vn -0.9544 0.2982 -0.0139
vn -0.9493 0.3142 -0.0058
vn -0.9988 0.0415 -0.0271
vn 0.0194 0.0293 -0.9994
vn -0.0081 1.0000 0.0004
vn -0.0168 0.9999 -0.0034
vn -0.0185 0.9998 0.0060
vn -0.0082 1.0000 0.0014
vn -0.0075 1.0000 -0.0003
vn -0.0099 0.9999 -0.0018
vn -0.0133 0.9999 -0.0003
vn -0.0138 0.9999 0.0042
vn -0.0184 0.9998 -0.0024
vn -0.0406 0.9991 -0.0126
vn -0.0826 0.9966 -0.0001
vn -0.1301 0.9841 0.1205
vn 0.9666 0.0659 0.2477
vn 0.8728 0.4097 0.2652
vn 0.8969 0.4167 0.1480
vn 0.9871 0.0066 0.1603
vn 0.8623 0.3881 0.3253
vn 0.9304 0.1436 0.3374
vn 0.8597 0.3960 0.3227
vn 0.9082 0.0849 0.4098
vn 0.6974 0.4128 0.5859
vn 0.7955 0.0969 0.5982
vn 0.8813 0.4652 0.0829
vn 0.9940 -0.0313 0.1050
vn 0.8479 0.5294 0.0277
vn 0.9972 -0.0317 0.0684
vn 0.8453 0.5340 0.0154
vn 0.9957 0.0829 0.0416
vn 0.8490 0.5272 0.0352
vn 0.9864 0.1611 0.0326
vn 0.9089 0.4167 0.0146
vn 0.9544 0.2982 -0.0139
vn 0.9493 0.3142 -0.0058
vn 0.9988 0.0415 -0.0271
vn -0.0194 0.0293 -0.9994
vn 0.0081 1.0000 0.0004
vn 0.0168 0.9999 -0.0034
vn 0.0185 0.9998 0.0060
vn 0.0082 1.0000 0.0014
vn 0.0075 1.0000 -0.0003
vn 0.0099 0.9999 -0.0018
vn 0.0133 0.9999 -0.0003
vn 0.0138 0.9999 0.0042
vn 0.0184 0.9998 -0.0024
vn 0.0406 0.9991 -0.0126
vn 0.0826 0.9966 -0.0001
vn 0.1301 0.9841 0.1205
vn 0.0671 0.9975 -0.0232
vn 0.0105 0.9999 -0.0096
vn 0.1034 0.9940 -0.0370
vn 0.0927 0.9947 -0.0453
vn 0.2018 0.9761 -0.0810
vn -0.0220 0.9998 0.0005
vn -0.0025 1.0000 0.0054
vn 0.0811 0.9800 0.1816
vn 0.1135 0.9828 0.1459
vn 0.2459 0.9682 -0.0467
vn 0.3250 0.9457 0.0028
vn 0.1427 0.9875 0.0663
vn 0.0190 0.9845 0.1745
vn -0.0671 0.9975 -0.0232
vn -0.0105 0.9999 -0.0096
vn -0.1034 0.9940 -0.0370
vn -0.0927 0.9947 -0.0453
vn -0.2018 0.9761 -0.0810
vn 0.0220 0.9998 0.0005
vn 0.0025 1.0000 0.0054
vn -0.0811 0.9800 0.1816
vn -0.1135 0.9828 0.1459
vn -0.2459 0.9682 -0.0467
vn -0.3250 0.9457 0.0028
vn -0.1427 0.9875 0.0663
vn -0.0190 0.9845 0.1745
vn -1.0000 -0.0000 -0.0000
vn 1.0000 -0.0000 -0.0000
vn -0.0000 1.0000 -0.0000
vn 0.8794 -0.4760 -0.0000
vn -0.0000 -0.4760 -0.8794
vn -0.8794 -0.4760 -0.0000
vn -0.0000 -0.4760 0.8794
vn -0.0000 0.9980 -0.0631
vn 0.0929 -0.9957 -0.0000
vn -0.0000 -0.9980 0.0631
vn 0.0929 0.9957 -0.0000
vn -0.0000 0.8398 -0.5429
vn -0.0000 0.7092 0.7050
vn -0.0000 -0.9980 -0.0631
vn -0.0000 0.9980 0.0631
vn 0.9091 0.4167 -0.0000
vn -0.0000 0.6479 -0.7617
vn -0.0929 -0.9957 -0.0000
vn -0.0929 0.9957 -0.0000
vn -0.9091 0.4167 -0.0000
vn -0.0000 0.9807 -0.1956
vn -0.0000 0.7251 -0.6887
vn -0.0000 0.6603 -0.7510
vn -0.9259 0.3689 0.0812
vn -0.0000 0.9940 0.1096
vn 0.9259 0.3689 0.0812
vn 0.5735 0.8010 0.1717
vn -0.5735 -0.8010 -0.1717
vn -0.5829 -0.7945 -0.1703
vn -0.0000 -0.2096 0.9778
vn 0.5829 -0.7945 -0.1703
vn 0.5735 -0.8010 -0.1717
vn -0.5735 0.8010 0.1717
vn -0.0000 0.2096 -0.9778
vn -0.0000 0.2097 -0.9778
vn 0.5829 0.7945 0.1703
vn -0.5829 0.7945 0.1703
vn -0.5735 0.8192 -0.0011
vn 0.5735 -0.8192 0.0011
vn 0.5829 -0.8125 0.0010
vn -0.0000 -0.0018 -1.0000
vn -0.5829 -0.8125 0.0010
vn -0.5735 -0.8192 0.0011
vn 0.5735 0.8192 -0.0011
vn -0.0000 0.0018 1.0000
vn -0.0000 0.0017 1.0000
vn -0.5829 0.8125 -0.0010
vn 0.5829 0.8125 -0.0010
vt 0.160243 0.905416
vt 0.133808 0.905416
vt 0.133808 0.878573
vt 0.160243 0.878573
vt 0.260409 0.901900
vt 0.260409 0.928743
vt 0.252272 0.924189
vt 0.252272 0.906455
vt 0.089968 0.886282
vt 0.089968 0.904016
vt 0.083301 0.906786
vt 0.083301 0.883513
vt 0.080155 0.908571
vt 0.080155 0.881727
vt 0.260409 0.928744
vt 0.264318 0.901900
vt 0.264318 0.928744
vt 0.244396 0.901900
vt 0.244396 0.928344
vt 0.236174 0.928351
vt 0.234724 0.915205
vt 0.236067 0.908552
vt 0.239028 0.905443
vt 0.243058 0.901900
vt 0.103092 0.886282
vt 0.103092 0.904016
vt 0.265655 0.901900
vt 0.265655 0.928744
vt 0.225052 0.928344
vt 0.225052 0.901900
vt 0.226390 0.901900
vt 0.230420 0.905443
vt 0.233381 0.908552
vt 0.234724 0.915205
vt 0.233275 0.928351
vt 0.311863 0.592854
vt 0.304122 0.592575
vt 0.304057 0.580803
vt 0.311639 0.580771
vt 0.295212 0.593511
vt 0.295163 0.581151
vt 0.304186 0.603300
vt 0.295245 0.603515
vt 0.312033 0.603250
vt 0.295163 0.573906
vt 0.304050 0.573379
vt 0.311591 0.573296
vt 0.295307 0.567891
vt 0.303943 0.565055
vt 0.311628 0.563305
vt 0.189574 0.562043
vt 0.183887 0.565071
vt 0.171963 0.554930
vt 0.171963 0.544816
vt 0.304344 0.547805
vt 0.312200 0.544816
vt 0.304212 0.626099
vt 0.295366 0.626283
vt 0.312200 0.626020
vt 0.198633 0.623426
vt 0.207571 0.623040
vt 0.208650 0.641366
vt 0.198870 0.641732
vt 0.312153 0.644358
vt 0.304291 0.644432
vt 0.208803 0.663876
vt 0.199646 0.664190
vt 0.308958 0.666918
vt 0.304288 0.666947
vt 0.210117 0.686183
vt 0.201009 0.686428
vt 0.306646 0.689302
vt 0.304488 0.689266
vt 0.295735 0.689311
vt 0.304994 0.727161
vt 0.295956 0.727168
vt 0.307868 0.800347
vt 0.296350 0.800425
vt 0.308256 0.881760
vt 0.296719 0.881521
vt 0.419565 0.864455
vt 0.407971 0.870850
vt 0.407286 0.834383
vt 0.419728 0.834417
vt 0.202001 0.878573
vt 0.171963 0.877877
vt 0.171963 0.798582
vt 0.202627 0.797502
vt 0.171963 0.724208
vt 0.204250 0.724267
vt 0.171963 0.686352
vt 0.171963 0.663498
vt 0.171963 0.641175
vt 0.171963 0.622496
vt 0.171963 0.600984
vt 0.196919 0.600668
vt 0.171963 0.590279
vt 0.194864 0.590670
vt 0.171963 0.576902
vt 0.190212 0.578321
vt 0.171963 0.570477
vt 0.186816 0.571083
vt 0.171963 0.564632
vt 0.278462 0.592854
vt 0.278686 0.580771
vt 0.286269 0.580804
vt 0.286203 0.592575
vt 0.295162 0.581151
vt 0.295113 0.593511
vt 0.295081 0.603515
vt 0.286140 0.603301
vt 0.278293 0.603250
vt 0.286276 0.573379
vt 0.295163 0.573906
vt 0.278735 0.573296
vt 0.286383 0.565055
vt 0.295018 0.567891
vt 0.278697 0.563305
vt 0.154351 0.562043
vt 0.160038 0.565071
vt 0.278126 0.544816
vt 0.285981 0.547805
vt 0.294960 0.626283
vt 0.286114 0.626099
vt 0.278126 0.626020
vt 0.145292 0.623426
vt 0.145055 0.641732
vt 0.135275 0.641366
vt 0.136355 0.623040
vt 0.286034 0.644432
vt 0.278173 0.644358
vt 0.144279 0.664190
vt 0.135123 0.663876
vt 0.286037 0.666947
vt 0.281367 0.666918
vt 0.142916 0.686428
vt 0.133808 0.686183
vt 0.285838 0.689266
vt 0.283679 0.689302
vt 0.294590 0.689311
vt 0.294370 0.727168
vt 0.285332 0.727161
vt 0.293975 0.800425
vt 0.282458 0.800347
vt 0.293606 0.881521
vt 0.282070 0.881760
vt 0.419728 0.804378
vt 0.408169 0.797921
vt 0.141924 0.878573
vt 0.141298 0.797502
vt 0.139675 0.724267
vt 0.147006 0.600668
vt 0.149061 0.590670
vt 0.153714 0.578321
vt 0.157109 0.571083
vt 0.312681 0.588032
vt 0.312801 0.576254
vt 0.320053 0.576319
vt 0.319927 0.587790
vt 0.327201 0.576388
vt 0.327068 0.588555
vt 0.326971 0.598328
vt 0.319824 0.598235
vt 0.312580 0.598183
vt 0.320137 0.569122
vt 0.327283 0.569192
vt 0.312882 0.569057
vt 0.320226 0.561269
vt 0.327348 0.563636
vt 0.313002 0.559538
vt 0.244701 0.929894
vt 0.244396 0.915882
vt 0.252272 0.916065
vt 0.251841 0.925346
vt 0.312200 0.544816
vt 0.319324 0.547150
vt 0.326764 0.620938
vt 0.319607 0.620843
vt 0.312370 0.620792
vt 0.220011 0.610885
vt 0.219585 0.629113
vt 0.211683 0.628992
vt 0.212773 0.610764
vt 0.319443 0.639070
vt 0.312200 0.639017
vt 0.218820 0.651589
vt 0.211402 0.651468
vt 0.319247 0.661547
vt 0.315073 0.661519
vt 0.217756 0.673843
vt 0.210117 0.673722
vt 0.319047 0.683800
vt 0.317376 0.683796
vt 0.326206 0.683896
vt 0.325863 0.721679
vt 0.318728 0.721589
vt 0.325239 0.794910
vt 0.315353 0.794793
vt 0.324567 0.872993
vt 0.314681 0.872877
vt 0.415260 0.623347
vt 0.414998 0.596404
vt 0.425041 0.596404
vt 0.425041 0.628905
vt 0.217179 0.862930
vt 0.216574 0.784852
vt 0.244122 0.785953
vt 0.244122 0.862022
vt 0.214902 0.711628
vt 0.244122 0.711565
vt 0.244122 0.673713
vt 0.244122 0.650841
vt 0.244122 0.628505
vt 0.244122 0.609821
vt 0.221882 0.588274
vt 0.244122 0.588313
vt 0.224008 0.578499
vt 0.244122 0.577601
vt 0.228586 0.566326
vt 0.244122 0.564188
vt 0.231948 0.559125
vt 0.244122 0.557771
vt 0.234833 0.553565
vt 0.244122 0.552171
vt 0.244122 0.544816
vt 0.342015 0.588032
vt 0.334769 0.587790
vt 0.334643 0.576319
vt 0.341896 0.576254
vt 0.327628 0.588555
vt 0.327496 0.576388
vt 0.334872 0.598235
vt 0.327725 0.598328
vt 0.342116 0.598183
vt 0.327413 0.569192
vt 0.334560 0.569122
vt 0.341815 0.569057
vt 0.334471 0.561269
vt 0.341694 0.559537
vt 0.245350 0.901900
vt 0.252272 0.906774
vt 0.335373 0.547150
vt 0.342497 0.544816
vt 0.335089 0.620843
vt 0.327932 0.620938
vt 0.342326 0.620792
vt 0.268233 0.610885
vt 0.275470 0.610764
vt 0.276560 0.628992
vt 0.268658 0.629113
vt 0.342497 0.639017
vt 0.335253 0.639070
vt 0.276841 0.651468
vt 0.269423 0.651589
vt 0.339624 0.661519
vt 0.335449 0.661547
vt 0.278126 0.673722
vt 0.270487 0.673843
vt 0.337320 0.683796
vt 0.335649 0.683800
vt 0.328490 0.683896
vt 0.335969 0.721589
vt 0.328834 0.721679
vt 0.339343 0.794793
vt 0.329457 0.794910
vt 0.340015 0.872877
vt 0.330129 0.872993
vt 0.415260 0.569461
vt 0.425041 0.563903
vt 0.271065 0.862930
vt 0.271669 0.784852
vt 0.273342 0.711628
vt 0.266361 0.588274
vt 0.264235 0.578499
vt 0.259657 0.566326
vt 0.256295 0.559125
vt 0.253410 0.553565
vt 0.065423 0.592812
vt 0.068557 0.580735
vt 0.072601 0.581711
vt 0.069583 0.593492
vt 0.063237 0.603203
vt 0.067448 0.603646
vt 0.071781 0.573266
vt 0.075694 0.574510
vt 0.078494 0.563284
vt 0.082156 0.564982
vt 0.095366 0.544816
vt 0.095366 0.550236
vt 0.060683 0.625967
vt 0.064913 0.626257
vt 0.058569 0.644301
vt 0.062815 0.644485
vt 0.056925 0.666884
vt 0.061140 0.667003
vt 0.057010 0.689286
vt 0.061244 0.689291
vt 0.058218 0.800319
vt 0.058434 0.727158
vt 0.062669 0.727089
vt 0.062261 0.800275
vt 0.058902 0.881727
vt 0.062865 0.878354
vt 0.095366 0.881687
vt 0.095366 0.878354
vt 0.122175 0.580735
vt 0.125310 0.592812
vt 0.121149 0.593492
vt 0.118131 0.581711
vt 0.127496 0.603203
vt 0.123284 0.603646
vt 0.118952 0.573265
vt 0.115039 0.574510
vt 0.112238 0.563284
vt 0.108576 0.564981
vt 0.130049 0.625967
vt 0.125820 0.626257
vt 0.132164 0.644301
vt 0.127917 0.644485
vt 0.133808 0.666884
vt 0.129592 0.667003
vt 0.133723 0.689286
vt 0.129488 0.689291
vt 0.132299 0.727158
vt 0.132515 0.800319
vt 0.128472 0.800275
vt 0.128064 0.727089
vt 0.131831 0.881727
vt 0.127868 0.878354
vt 0.278126 0.911189
vt 0.278126 0.901518
vt 0.295683 0.901518
vt 0.295683 0.911189
vt 0.183627 0.907795
vt 0.183627 0.898192
vt 0.207011 0.898192
vt 0.207011 0.907795
vt 0.103092 0.911156
vt 0.103092 0.901485
vt 0.120650 0.901485
vt 0.120650 0.911156
vt 0.160243 0.907985
vt 0.160243 0.898319
vt 0.183627 0.898319
vt 0.183627 0.907985
vt 0.409295 0.652290
vt 0.409295 0.628905
vt 0.426845 0.628905
vt 0.426845 0.652290
vt 0.103092 0.881728
vt 0.120650 0.881727
vt 0.431682 0.823578
vt 0.422699 0.823578
vt 0.422700 0.805615
vt 0.431683 0.805615
vt 0.278126 0.881760
vt 0.295683 0.881760
vt 0.160243 0.878573
vt 0.183627 0.878573
vt 0.183627 0.878573
vt 0.207011 0.878573
vt 0.366626 0.906154
vt 0.375608 0.906154
vt 0.379894 0.911717
vt 0.362339 0.911717
vt 0.375608 0.893896
vt 0.379894 0.888333
vt 0.366626 0.893896
vt 0.362339 0.888333
vt 0.419728 0.801527
vt 0.434665 0.801527
vt 0.307648 0.907417
vt 0.298665 0.907417
vt 0.298665 0.889454
vt 0.307648 0.889454
vt 0.358547 0.914099
vt 0.346289 0.914099
vt 0.346289 0.896146
vt 0.358547 0.896146
vt 0.397516 0.921495
vt 0.385258 0.921495
vt 0.385258 0.903658
vt 0.397516 0.903658
vt 0.172898 0.933596
vt 0.168983 0.933596
vt 0.168983 0.907985
vt 0.172898 0.907985
vt 0.215628 0.914492
vt 0.219542 0.914492
vt 0.225052 0.921742
vt 0.210117 0.921742
vt 0.219542 0.909150
vt 0.215628 0.909150
vt 0.210117 0.901900
vt 0.225052 0.901900
vt 0.381466 0.899929
vt 0.401309 0.899929
vt 0.381466 0.896348
vt 0.401309 0.896348
vt 0.419728 0.797921
vt 0.434665 0.797921
vt 0.310619 0.885366
vt 0.295683 0.885366
vt 0.295683 0.881760
vt 0.310619 0.881760
vt 0.362339 0.891937
vt 0.342497 0.891937
vt 0.342497 0.888333
vt 0.362339 0.888333
vt 0.417240 0.744833
vt 0.421155 0.744833
vt 0.422458 0.746494
vt 0.415937 0.746494
vt 0.270997 0.927497
vt 0.265655 0.927497
vt 0.265655 0.901900
vt 0.270997 0.901900
vt 0.276339 0.927331
vt 0.270997 0.927331
vt 0.270997 0.901900
vt 0.276339 0.901900
vt 0.159814 0.931028
vt 0.155899 0.931028
vt 0.155899 0.905416
vt 0.159814 0.905416
vt 0.421155 0.739491
vt 0.417240 0.739491
vt 0.415937 0.737831
vt 0.422458 0.737831
vt 0.081458 0.910232
vt 0.081458 0.915574
vt 0.080155 0.917235
vt 0.085371 0.915574
vt 0.085371 0.910232
vt 0.086674 0.908571
vt 0.086674 0.917235
vt 0.426420 0.611519
vt 0.426420 0.620182
vt 0.425041 0.620182
vt 0.425041 0.611519
vt 0.426411 0.620182
vt 0.426411 0.628846
vt 0.425041 0.628846
vt 0.426320 0.745181
vt 0.426320 0.751703
vt 0.424941 0.751703
vt 0.424941 0.745181
vt 0.181701 0.914507
vt 0.181701 0.907985
vt 0.183080 0.907985
vt 0.183080 0.914507
vt 0.416748 0.751959
vt 0.425585 0.751959
vt 0.425585 0.797921
vt 0.416748 0.797921
vt 0.435620 0.652290
vt 0.426845 0.613320
vt 0.435620 0.613320
vt 0.425669 0.698676
vt 0.416832 0.698676
vt 0.416832 0.652714
vt 0.425669 0.652714
vt 0.433873 0.602872
vt 0.425041 0.602872
vt 0.433873 0.563903
vt 0.342497 0.752168
vt 0.381466 0.752168
vt 0.381466 0.798113
vt 0.342497 0.798113
vt 0.342497 0.706210
vt 0.381466 0.706210
vt 0.420105 0.890335
vt 0.407285 0.890335
vt 0.407286 0.870850
vt 0.420105 0.870850
vt 0.095514 0.908571
vt 0.095514 0.917162
vt 0.093304 0.917162
vt 0.093304 0.908571
vt 0.361981 0.683658
vt 0.381466 0.683658
vt 0.381466 0.706210
vt 0.361981 0.706210
vt 0.365845 0.549285
vt 0.346360 0.549285
vt 0.365845 0.544816
vt 0.385329 0.625906
vt 0.385329 0.603354
vt 0.389192 0.598877
vt 0.389192 0.625900
vt 0.442172 0.822839
vt 0.442172 0.849872
vt 0.439916 0.849872
vt 0.439916 0.822839
vt 0.209267 0.901921
vt 0.209267 0.925268
vt 0.207011 0.925268
vt 0.207011 0.901921
vt 0.365845 0.648458
vt 0.385329 0.648458
vt 0.389192 0.652923
vt 0.365845 0.652923
vt 0.346360 0.571843
vt 0.346360 0.594401
vt 0.342497 0.598877
vt 0.342497 0.571846
vt 0.442172 0.795806
vt 0.439916 0.795806
vt 0.361981 0.661106
vt 0.381466 0.661106
vt 0.404761 0.864028
vt 0.404761 0.851228
vt 0.406971 0.851228
vt 0.406971 0.864028
vt 0.407285 0.743982
vt 0.394376 0.743982
vt 0.394376 0.721421
vt 0.407285 0.721421
vt 0.394376 0.698861
vt 0.407285 0.698861
vt 0.427919 0.843063
vt 0.427919 0.823578
vt 0.436050 0.823578
vt 0.436050 0.843063
vt 0.381466 0.721421
vt 0.383595 0.716542
vt 0.392247 0.716542
vt 0.381466 0.698861
vt 0.383595 0.703740
vt 0.392247 0.703740
vt 0.381466 0.743981
vt 0.383595 0.739102
vt 0.392247 0.739102
vt 0.383595 0.726301
vt 0.392247 0.726301
vt 0.415937 0.750632
vt 0.407286 0.750632
vt 0.407286 0.737831
vt 0.415937 0.737831
vt 0.428304 0.557617
vt 0.419653 0.557617
vt 0.419653 0.544816
vt 0.428304 0.544816
vt 0.412487 0.575451
vt 0.412487 0.562651
vt 0.414697 0.562651
vt 0.414697 0.575451
vt 0.414697 0.588248
vt 0.412487 0.588248
vt 0.412487 0.575451
vt 0.425041 0.611519
vt 0.427251 0.602872
vt 0.427251 0.611519
vt 0.430514 0.544816
vt 0.430514 0.557613
vt 0.428304 0.557613
vt 0.428304 0.544816
vt 0.091094 0.908571
vt 0.091094 0.917162
vt 0.088884 0.917162
vt 0.088884 0.908571
vt 0.425585 0.795985
vt 0.425585 0.787338
vt 0.427795 0.787338
vt 0.427795 0.795985
vt 0.414998 0.628905
vt 0.402095 0.628905
vt 0.402095 0.609421
vt 0.414998 0.609421
vt 0.365845 0.594401
vt 0.346360 0.583749
vt 0.365845 0.583749
vt 0.365845 0.603354
vt 0.365845 0.598877
vt 0.436050 0.870274
vt 0.436050 0.846926
vt 0.438290 0.846926
vt 0.438290 0.870274
vt 0.365845 0.598877
vt 0.337092 0.872993
vt 0.337092 0.892478
vt 0.329312 0.892478
vt 0.329312 0.872993
vt 0.389192 0.628905
vt 0.389192 0.609421
vt 0.396926 0.873788
vt 0.396926 0.896348
vt 0.383337 0.880968
vt 0.383337 0.873802
vt 0.346360 0.571736
vt 0.365845 0.571736
vt 0.404761 0.873788
vt 0.404761 0.896348
vt 0.396926 0.861773
vt 0.314057 0.883560
vt 0.314057 0.892478
vt 0.312200 0.892478
vt 0.312200 0.883560
vt 0.422674 0.718346
vt 0.422674 0.737831
vt 0.409155 0.727264
vt 0.409155 0.718346
vt 0.120649 0.901212
vt 0.129541 0.901212
vt 0.129541 0.920697
vt 0.120649 0.920697
vt 0.361981 0.652923
vt 0.381466 0.652923
vt 0.407285 0.752168
vt 0.398331 0.752168
vt 0.419653 0.553733
vt 0.412487 0.553733
vt 0.412487 0.544816
vt 0.381466 0.880968
vt 0.381466 0.873802
vt 0.407285 0.727264
vt 0.407285 0.718346
vt 0.420105 0.909819
vt 0.407285 0.909819
vt 0.097724 0.908571
vt 0.097724 0.917162
vt 0.342497 0.683658
vt 0.389192 0.544816
vt 0.385329 0.549285
vt 0.346360 0.625906
vt 0.342497 0.625900
vt 0.346360 0.603354
vt 0.441066 0.897883
vt 0.443322 0.897883
vt 0.443322 0.924916
vt 0.441066 0.924916
vt 0.207011 0.878573
vt 0.209267 0.878573
vt 0.342497 0.652923
vt 0.346360 0.648458
vt 0.385329 0.571843
vt 0.389192 0.571846
vt 0.385329 0.594401
vt 0.441066 0.870850
vt 0.443322 0.870850
vt 0.342497 0.661106
vt 0.406971 0.876829
vt 0.404761 0.876829
vt 0.404761 0.864028
vt 0.406971 0.864028
vt 0.381466 0.843042
vt 0.381466 0.820481
vt 0.394376 0.820481
vt 0.394376 0.843042
vt 0.381466 0.797921
vt 0.394376 0.797921
vt 0.436050 0.862548
vt 0.427919 0.862548
vt 0.396505 0.815602
vt 0.405156 0.815602
vt 0.407286 0.820481
vt 0.405156 0.802800
vt 0.407286 0.797921
vt 0.396505 0.802800
vt 0.396505 0.838162
vt 0.405156 0.838162
vt 0.407286 0.843041
vt 0.405156 0.825360
vt 0.396505 0.825361
vt 0.183627 0.920597
vt 0.183627 0.907795
vt 0.192278 0.907795
vt 0.192278 0.920597
vt 0.192278 0.920597
vt 0.192278 0.907795
vt 0.200930 0.907795
vt 0.200930 0.920597
vt 0.406971 0.889629
vt 0.404761 0.889629
vt 0.404761 0.876829
vt 0.308972 0.907417
vt 0.311182 0.907417
vt 0.311182 0.920214
vt 0.308972 0.920214
vt 0.427879 0.696740
vt 0.425669 0.696740
vt 0.425669 0.688093
vt 0.427879 0.688093
vt 0.432724 0.544816
vt 0.432724 0.557613
vt 0.088884 0.917218
vt 0.086674 0.917218
vt 0.414998 0.589936
vt 0.402095 0.589936
vt 0.385329 0.583749
vt 0.438290 0.823578
vt 0.337092 0.911963
vt 0.329312 0.911963
vt 0.389192 0.589936
vt 0.397027 0.567376
vt 0.410617 0.567390
vt 0.410617 0.574556
vt 0.397027 0.589936
vt 0.385329 0.571736
vt 0.389192 0.567376
vt 0.389192 0.544816
vt 0.397027 0.555361
vt 0.314057 0.901395
vt 0.312200 0.901395
vt 0.409155 0.709428
vt 0.422674 0.698861
vt 0.120649 0.881727
vt 0.129541 0.881727
vt 0.390420 0.851228
vt 0.381466 0.851228
vt 0.419653 0.562651
vt 0.412487 0.567390
vt 0.412487 0.574556
vt 0.407285 0.709428
vt 0.420105 0.870850
vt 0.427962 0.870850
vt 0.427962 0.915970
vt 0.420105 0.915970
vt 0.441675 0.602872
vt 0.441675 0.563903
vt 0.430531 0.743982
vt 0.422674 0.743981
vt 0.430531 0.698861
vt 0.427962 0.870850
vt 0.435814 0.870850
vt 0.435814 0.909819
vt 0.427962 0.909819
vt 0.342497 0.843229
vt 0.381466 0.843229
vt 0.381466 0.888333
vt 0.133808 0.932313
vt 0.133808 0.905416
vt 0.138209 0.905416
vt 0.138209 0.932313
vt 0.373596 0.834118
vt 0.373596 0.807224
vt 0.350366 0.807224
vt 0.350366 0.834118
vt 0.056925 0.881727
vt 0.080155 0.908622
vt 0.056925 0.908622
vt 0.205329 0.907795
vt 0.205329 0.931025
vt 0.200930 0.931025
vt 0.164613 0.931215
vt 0.164613 0.907985
vt 0.168983 0.931215
vt 0.142610 0.905416
vt 0.142610 0.932313
vt 0.381466 0.652923
vt 0.416832 0.652923
vt 0.416832 0.698676
vt 0.381466 0.698676
vt 0.419728 0.869331
vt 0.419728 0.823578
vt 0.427919 0.831341
vt 0.427919 0.861568
vt 0.399071 0.790158
vt 0.399071 0.759931
vt 0.407948 0.755211
vt 0.407948 0.794878
vt 0.412063 0.752168
vt 0.412063 0.797921
vt 0.416748 0.752168
vt 0.425669 0.652714
vt 0.433911 0.652725
vt 0.435360 0.670311
vt 0.434006 0.679201
vt 0.431037 0.683353
vt 0.427007 0.688093
vt 0.381466 0.790158
vt 0.381466 0.759931
vt 0.438290 0.869331
vt 0.438290 0.823578
vt 0.439619 0.823578
vt 0.439619 0.869331
vt 0.435276 0.751959
vt 0.435276 0.787338
vt 0.433938 0.787338
vt 0.429908 0.782597
vt 0.426939 0.778446
vt 0.425585 0.769556
vt 0.427034 0.751970
vt 0.444255 0.898702
vt 0.444255 0.926441
vt 0.443322 0.926554
vt 0.443322 0.898815
vt 0.438440 0.871138
vt 0.438440 0.898585
vt 0.435815 0.898297
vt 0.435815 0.870850
vt 0.444410 0.613433
vt 0.444410 0.641172
vt 0.443477 0.641059
vt 0.443477 0.613320
vt 0.339717 0.872993
vt 0.339717 0.900492
vt 0.337092 0.900766
vt 0.337092 0.873267
vt 0.149255 0.905653
vt 0.151469 0.905416
vt 0.151469 0.931464
vt 0.149255 0.931701
vt 0.422513 0.559651
vt 0.424485 0.557617
vt 0.425330 0.557960
vt 0.425330 0.560793
vt 0.422513 0.562484
vt 0.423357 0.562826
vt 0.147040 0.905416
vt 0.147040 0.931464
vt 0.342343 0.873267
vt 0.342343 0.900766
vt 0.441066 0.870850
vt 0.441066 0.898297
vt 0.420239 0.751334
vt 0.420915 0.751334
vt 0.421041 0.751745
vt 0.420113 0.751745
vt 0.419303 0.749120
vt 0.419031 0.749120
vt 0.420915 0.746905
vt 0.420239 0.746905
vt 0.420113 0.746494
vt 0.421041 0.746494
vt 0.421851 0.749120
vt 0.422124 0.749120
vt 0.100541 0.910247
vt 0.102265 0.908571
vt 0.102888 0.908834
vt 0.102888 0.911239
vt 0.100541 0.912651
vt 0.101163 0.912914
vt 0.445090 0.613402
vt 0.445769 0.613320
vt 0.445769 0.639596
vt 0.445090 0.639678
vt 0.444410 0.613320
vt 0.444410 0.639596
vt 0.306757 0.907417
vt 0.308972 0.907666
vt 0.308972 0.933665
vt 0.306757 0.933416
vt 0.304542 0.907666
vt 0.304542 0.933665
vt 0.277553 0.901900
vt 0.277553 0.929639
vt 0.276620 0.929752
vt 0.276620 0.902013
vt 0.438440 0.898873
vt 0.438440 0.926321
vt 0.435815 0.926033
vt 0.435815 0.898585
vt 0.380827 0.888446
vt 0.380827 0.916185
vt 0.379894 0.916072
vt 0.379894 0.888333
vt 0.403934 0.896348
vt 0.403934 0.923847
vt 0.401309 0.924120
vt 0.401309 0.896622
vt 0.153684 0.905653
vt 0.155899 0.905416
vt 0.155899 0.931464
vt 0.153684 0.931701
vt 0.422124 0.748528
vt 0.424096 0.746494
vt 0.424941 0.746836
vt 0.424941 0.749669
vt 0.422124 0.751361
vt 0.422969 0.751703
vt 0.406560 0.896622
vt 0.406560 0.924120
vt 0.441066 0.898585
vt 0.441066 0.926033
vt 0.419926 0.562140
vt 0.420550 0.562398
vt 0.420510 0.562825
vt 0.419653 0.562472
vt 0.419905 0.559736
vt 0.419653 0.559632
vt 0.422239 0.558303
vt 0.421615 0.558045
vt 0.421655 0.557617
vt 0.422512 0.557971
vt 0.422260 0.560707
vt 0.422512 0.560811
vt 0.056925 0.910297
vt 0.058649 0.908622
vt 0.059271 0.908885
vt 0.059271 0.911289
vt 0.056925 0.912702
vt 0.057547 0.912965
vt 0.205329 0.907877
vt 0.206008 0.907795
vt 0.206008 0.934071
vt 0.205329 0.934153
vt 0.444967 0.870850
vt 0.445646 0.870932
vt 0.445646 0.897208
vt 0.444967 0.897126
vt 0.297898 0.907417
vt 0.300112 0.907666
vt 0.300112 0.933665
vt 0.297898 0.933416
vt 0.295683 0.907666
vt 0.295683 0.933665
vt 0.444255 0.870850
vt 0.444255 0.898589
vt 0.443322 0.898702
vt 0.443322 0.870963
vt 0.339717 0.901054
vt 0.339717 0.928501
vt 0.337092 0.928213
vt 0.337092 0.900766
vt 0.312200 0.881873
vt 0.312200 0.909612
vt 0.311267 0.909499
vt 0.311267 0.881760
vt 0.437290 0.795806
vt 0.437290 0.823304
vt 0.434665 0.823578
vt 0.434665 0.796080
vt 0.144825 0.905653
vt 0.147040 0.905416
vt 0.147040 0.931464
vt 0.144825 0.931701
vt 0.097724 0.910605
vt 0.099696 0.908571
vt 0.100541 0.908913
vt 0.100541 0.911747
vt 0.097724 0.913438
vt 0.098568 0.913780
vt 0.142610 0.931464
vt 0.439916 0.796080
vt 0.439916 0.823578
vt 0.342343 0.928213
vt 0.417146 0.751334
vt 0.417822 0.751334
vt 0.417948 0.751745
vt 0.417020 0.751745
vt 0.416210 0.749120
vt 0.415937 0.749120
vt 0.417822 0.746905
vt 0.417146 0.746905
vt 0.417020 0.746494
vt 0.417948 0.746494
vt 0.418758 0.749120
vt 0.404761 0.891305
vt 0.406486 0.889629
vt 0.407108 0.889892
vt 0.407108 0.892297
vt 0.404761 0.893709
vt 0.405383 0.893972
vt 0.206008 0.907877
vt 0.206688 0.907795
vt 0.206688 0.934071
vt 0.206008 0.934153
vt 0.444967 0.897208
vt 0.445646 0.897290
vt 0.445646 0.923566
vt 0.444967 0.923484
vt 0.302327 0.907417
vt 0.302327 0.933416
vt 0.300112 0.907666
vt 0.300112 0.933665
vt 0.443217 0.686440
vt 0.435360 0.686440
vt 0.435360 0.652714
vt 0.443217 0.652714
vt 0.438384 0.737831
vt 0.430531 0.737831
vt 0.430531 0.698861
vt 0.438384 0.698861
vt 0.443477 0.613320
vt 0.443477 0.647046
vt 0.435620 0.647046
vt 0.443078 0.751959
vt 0.443078 0.790928
vt 0.435276 0.790928
vt 0.277553 0.862930
vt 0.243840 0.901900
vt 0.243840 0.862930
vt 0.177299 0.907985
vt 0.177299 0.928089
vt 0.172898 0.928089
vt 0.172898 0.907985
vt 0.237030 0.870800
vt 0.216927 0.870800
vt 0.210117 0.862930
vt 0.216927 0.894030
vt 0.210117 0.901900
vt 0.237030 0.894030
vt 0.243840 0.901900
vt 0.389192 0.652136
vt 0.389192 0.628905
vt 0.409295 0.628905
vt 0.409295 0.652136
vt 0.164613 0.907985
vt 0.164613 0.931215
vt 0.160243 0.931215
vt 0.442783 0.728239
vt 0.442783 0.751469
vt 0.438384 0.751469
vt 0.438384 0.728239
vt 0.181701 0.928089
vt 0.209978 0.878573
vt 0.209978 0.907938
vt 0.209267 0.907939
vt 0.209267 0.878574
vt 0.443698 0.593264
vt 0.443698 0.563903
vt 0.445720 0.563916
vt 0.445720 0.593278
vt 0.444967 0.870851
vt 0.444967 0.900216
vt 0.444255 0.900215
vt 0.444255 0.870850
vt 0.440407 0.728239
vt 0.440407 0.698886
vt 0.442429 0.698861
vt 0.442429 0.728215
vt 0.444135 0.727077
vt 0.442429 0.727098
vt 0.442429 0.698882
vt 0.444135 0.698861
vt 0.066196 0.910183
vt 0.066196 0.912367
vt 0.065542 0.912634
vt 0.064015 0.911073
vt 0.064669 0.908622
vt 0.064015 0.908888
vt 0.445841 0.727098
vt 0.445841 0.698882
vt 0.438384 0.728215
vt 0.438384 0.698861
vt 0.441675 0.593278
vt 0.441675 0.563916
vt 0.060198 0.912350
vt 0.060716 0.912350
vt 0.060813 0.912667
vt 0.060102 0.912667
vt 0.059481 0.910644
vt 0.059271 0.910644
vt 0.060716 0.908938
vt 0.060198 0.908938
vt 0.060102 0.908622
vt 0.060813 0.908622
vt 0.061434 0.910644
vt 0.061643 0.910644
vt 0.070178 0.909916
vt 0.071502 0.908622
vt 0.071979 0.908822
vt 0.071979 0.910673
vt 0.070178 0.911767
vt 0.070656 0.911968
vt 0.277553 0.862931
vt 0.278071 0.862930
vt 0.278071 0.891157
vt 0.277553 0.891158
vt 0.380948 0.888333
vt 0.381466 0.888334
vt 0.381466 0.916560
vt 0.380948 0.916560
vt 0.444923 0.680949
vt 0.443217 0.680938
vt 0.444923 0.652726
vt 0.446630 0.680938
vt 0.446630 0.652714
vt 0.407271 0.896348
vt 0.407271 0.925713
vt 0.406560 0.925714
vt 0.406560 0.896349
vt 0.444195 0.825168
vt 0.444195 0.795806
vt 0.446217 0.795819
vt 0.446217 0.825181
vt 0.444967 0.900217
vt 0.444967 0.929582
vt 0.444255 0.929581
vt 0.444255 0.900216
vt 0.131563 0.911105
vt 0.131563 0.881752
vt 0.133586 0.881727
vt 0.133586 0.911081
vt 0.443878 0.853396
vt 0.442172 0.853418
vt 0.442172 0.825202
vt 0.443878 0.825181
vt 0.068378 0.910183
vt 0.068378 0.912367
vt 0.067724 0.912634
vt 0.066196 0.911073
vt 0.066851 0.908622
vt 0.066196 0.908888
vt 0.445585 0.853418
vt 0.445585 0.825202
vt 0.129541 0.911081
vt 0.129541 0.881727
vt 0.442172 0.825181
vt 0.442172 0.795819
vt 0.062570 0.912350
vt 0.063088 0.912350
vt 0.063185 0.912667
vt 0.062473 0.912667
vt 0.061852 0.910644
vt 0.061643 0.910644
vt 0.063088 0.908938
vt 0.062570 0.908938
vt 0.062473 0.908622
vt 0.063185 0.908622
vt 0.063806 0.910644
vt 0.064015 0.910644
vt 0.068378 0.909916
vt 0.069701 0.908622
vt 0.070178 0.908822
vt 0.070178 0.910673
vt 0.068378 0.911767
vt 0.068855 0.911968
vt 0.277553 0.891158
vt 0.278071 0.891158
vt 0.278071 0.919384
vt 0.277553 0.919385
vt 0.445585 0.825181
vt 0.446103 0.825182
vt 0.446103 0.853408
vt 0.445585 0.853408
vt 0.444784 0.780194
vt 0.443078 0.780183
vt 0.444784 0.751970
vt 0.446490 0.780183
vt 0.446490 0.751959
s 0
usemtl Material.002
f 3/1/1 4/2/1 1/3/1 2/4/1
f 1/5/2 4/6/2 6/7/2 5/8/2
f 7/9/3 12/10/3 14/11/3 9/12/3
f 9/12/4 14/11/4 13/13/4 10/14/4
f 10/15/5 13/5/5 11/16/5 8/17/5
f 2/18/6 1/19/6 5/20/6 7/21/6 9/22/6 10/23/6 8/24/6
f 12/10/7 7/9/7 5/25/7 6/26/7
f 3/27/8 2/28/8 8/17/8 11/16/8
f 4/29/9 3/30/9 11/31/9 13/32/9 14/33/9 12/34/9 6/35/9
f 15/36/10 16/37/10 18/38/10 17/39/10
f 18/38/11 16/37/11 19/40/11 20/41/11
f 19/40/12 16/37/12 22/42/12 23/43/12
f 16/37/13 15/36/13 21/44/13 22/42/13
f 18/38/14 20/41/14 26/45/14 25/46/14
f 17/39/15 18/38/15 25/46/15 24/47/15
f 25/46/16 26/45/16 29/48/16 28/49/16
f 24/47/17 25/46/17 28/49/17 27/50/17
f 28/51/18 29/52/18 32/53/18 31/54/18
f 27/50/19 28/49/19 31/55/19 30/56/19
f 23/43/20 22/42/20 34/57/20 35/58/20
f 22/42/21 21/44/21 33/59/21 34/57/21
f 35/60/22 34/61/22 37/62/22 38/63/22
f 34/57/23 33/59/23 36/64/23 37/65/23
f 38/63/24 37/62/24 40/66/24 41/67/24
f 37/65/25 36/64/25 39/68/25 40/69/25
f 41/67/26 40/66/26 43/70/26 44/71/26
f 40/69/27 39/68/27 42/72/27 43/73/27
f 44/74/28 43/73/28 45/75/28 46/76/28
f 46/76/29 45/75/29 47/77/29 48/78/29
f 48/78/30 47/77/30 49/79/30 50/80/30
f 43/73/31 42/72/31 45/75/31
f 50/81/32 49/82/32 51/83/32 52/84/32
f 50/85/33 52/86/33 53/87/33 48/88/33
f 48/88/34 53/87/34 54/89/34 46/90/34
f 46/90/35 54/89/35 55/91/35 44/71/35
f 44/71/36 55/91/36 57/92/36 41/67/36
f 41/67/37 57/92/37 58/93/37 38/63/37
f 38/63/38 58/93/38 56/94/38 35/60/38
f 35/60/39 56/94/39 59/95/39 23/96/39
f 23/96/40 59/95/40 60/97/40 19/98/40
f 19/98/41 60/97/41 61/99/41 20/100/41
f 20/100/42 61/99/42 62/101/42 26/102/42
f 26/102/43 62/101/43 63/103/43 29/52/43
f 29/52/44 63/103/44 32/53/44
f 64/104/45 66/105/45 67/106/45 65/107/45
f 67/106/46 69/108/46 68/109/46 65/107/46
f 68/109/47 72/110/47 71/111/47 65/107/47
f 65/107/48 71/111/48 70/112/48 64/104/48
f 67/106/49 74/113/49 75/114/49 69/108/49
f 66/105/50 73/115/50 74/113/50 67/106/50
f 74/113/51 77/116/51 78/117/51 75/114/51
f 73/115/52 76/118/52 77/116/52 74/113/52
f 77/119/53 31/54/53 32/53/53 78/120/53
f 76/118/54 30/121/54 31/122/54 77/116/54
f 72/110/55 81/123/55 80/124/55 71/111/55
f 71/111/56 80/124/56 79/125/56 70/112/56
f 81/126/57 84/127/57 83/128/57 80/129/57
f 80/124/58 83/130/58 82/131/58 79/125/58
f 84/127/59 87/132/59 86/133/59 83/128/59
f 83/130/60 86/134/60 85/135/60 82/131/60
f 87/132/61 90/136/61 89/137/61 86/133/61
f 86/134/62 89/138/62 88/139/62 85/135/62
f 90/140/63 92/141/63 91/142/63 89/138/63
f 92/141/64 94/143/64 93/144/64 91/142/64
f 94/143/65 96/145/65 95/146/65 93/144/65
f 89/138/66 91/142/66 88/139/66
f 96/147/67 52/84/67 51/83/67 95/148/67
f 96/149/68 94/150/68 53/87/68 52/86/68
f 94/150/69 92/151/69 54/89/69 53/87/69
f 92/151/70 90/136/70 55/91/70 54/89/70
f 90/136/71 87/132/71 57/92/71 55/91/71
f 87/132/72 84/127/72 58/93/72 57/92/72
f 84/127/73 81/126/73 56/94/73 58/93/73
f 81/126/74 72/152/74 59/95/74 56/94/74
f 72/152/75 68/153/75 60/97/75 59/95/75
f 68/153/76 69/154/76 61/99/76 60/97/76
f 69/154/77 75/155/77 62/101/77 61/99/77
f 75/155/78 78/120/78 63/103/78 62/101/78
f 78/120/79 32/53/79 63/103/79
f 97/156/80 99/157/80 100/158/80 98/159/80
f 100/158/81 102/160/81 101/161/81 98/159/81
f 101/161/82 105/162/82 104/163/82 98/159/82
f 98/159/83 104/163/83 103/164/83 97/156/83
f 100/158/84 107/165/84 108/166/84 102/160/84
f 99/157/85 106/167/85 107/165/85 100/158/85
f 107/165/86 110/168/86 111/169/86 108/166/86
f 106/167/87 109/170/87 110/168/87 107/165/87
f 110/171/88 113/172/88 114/173/88 111/174/88
f 109/170/89 112/175/89 113/176/89 110/168/89
f 105/162/90 117/177/90 116/178/90 104/163/90
f 104/163/91 116/178/91 115/179/91 103/164/91
f 117/180/92 120/181/92 119/182/92 116/183/92
f 116/178/93 119/184/93 118/185/93 115/179/93
f 120/181/94 123/186/94 122/187/94 119/182/94
f 119/184/95 122/188/95 121/189/95 118/185/95
f 123/186/96 126/190/96 125/191/96 122/187/96
f 122/188/97 125/192/97 124/193/97 121/189/97
f 126/194/98 128/195/98 127/196/98 125/192/98
f 128/195/99 130/197/99 129/198/99 127/196/99
f 130/197/100 132/199/100 131/200/100 129/198/100
f 125/192/101 127/196/101 124/193/101
f 132/201/102 134/202/102 133/203/102 131/204/102
f 132/205/103 130/206/103 135/207/103 134/208/103
f 130/206/104 128/209/104 136/210/104 135/207/104
f 128/209/105 126/190/105 137/211/105 136/210/105
f 126/190/106 123/186/106 139/212/106 137/211/106
f 123/186/107 120/181/107 140/213/107 139/212/107
f 120/181/108 117/180/108 138/214/108 140/213/108
f 117/180/109 105/215/109 141/216/109 138/214/109
f 105/215/110 101/217/110 142/218/110 141/216/110
f 101/217/111 102/219/111 143/220/111 142/218/111
f 102/219/112 108/221/112 144/222/112 143/220/112
f 108/221/113 111/223/113 145/224/113 144/222/113
f 111/223/114 114/225/114 145/224/114
f 146/226/115 147/227/115 149/228/115 148/229/115
f 149/228/116 147/227/116 150/230/116 151/231/116
f 150/230/117 147/227/117 153/232/117 154/233/117
f 147/227/118 146/226/118 152/234/118 153/232/118
f 149/228/119 151/231/119 157/235/119 156/236/119
f 148/229/120 149/228/120 156/236/120 155/237/120
f 156/236/121 157/235/121 160/169/121 159/238/121
f 155/237/122 156/236/122 159/238/122 158/239/122
f 159/240/123 160/241/123 114/173/123 113/172/123
f 158/239/124 159/238/124 113/242/124 112/243/124
f 154/233/125 153/232/125 162/244/125 163/245/125
f 153/232/126 152/234/126 161/246/126 162/244/126
f 163/247/127 162/248/127 165/249/127 166/250/127
f 162/244/128 161/246/128 164/251/128 165/252/128
f 166/250/129 165/249/129 168/253/129 169/254/129
f 165/252/130 164/251/130 167/255/130 168/256/130
f 169/254/131 168/253/131 171/257/131 172/258/131
f 168/256/132 167/255/132 170/259/132 171/260/132
f 172/261/133 171/260/133 173/262/133 174/263/133
f 174/263/134 173/262/134 175/264/134 176/265/134
f 176/265/135 175/264/135 177/266/135 178/267/135
f 171/260/136 170/259/136 173/262/136
f 178/268/137 177/269/137 133/203/137 134/202/137
f 178/270/138 134/208/138 135/207/138 176/271/138
f 176/271/139 135/207/139 136/210/139 174/272/139
f 174/272/140 136/210/140 137/211/140 172/258/140
f 172/258/141 137/211/141 139/212/141 169/254/141
f 169/254/142 139/212/142 140/213/142 166/250/142
f 166/250/143 140/213/143 138/214/143 163/247/143
f 163/247/144 138/214/144 141/216/144 154/273/144
f 154/273/145 141/216/145 142/218/145 150/274/145
f 150/274/146 142/218/146 143/220/146 151/275/146
f 151/275/147 143/220/147 144/222/147 157/276/147
f 157/276/148 144/222/148 145/224/148 160/277/148
f 160/277/149 145/224/149 114/225/149
f 15/278/150 17/279/150 99/280/150 97/281/150
f 21/282/151 15/278/151 97/281/151 103/283/151
f 17/279/152 24/284/152 106/285/152 99/280/152
f 24/284/153 27/286/153 109/287/153 106/285/153
f 27/286/154 30/288/154 112/289/154 109/287/154
f 33/290/155 21/282/155 103/283/155 115/291/155
f 36/292/156 33/290/156 115/291/156 118/293/156
f 39/294/157 36/292/157 118/293/157 121/295/157
f 42/296/158 39/294/158 121/295/158 124/297/158
f 47/298/159 45/299/159 127/300/159 129/301/159
f 49/302/160 47/298/160 129/301/160 131/303/160
f 45/299/161 42/296/161 124/297/161 127/300/161
f 51/304/162 49/302/162 131/303/162 133/305/162
f 66/306/163 64/307/163 146/308/163 148/309/163
f 64/307/164 70/310/164 152/311/164 146/308/164
f 73/312/165 66/306/165 148/309/165 155/313/165
f 76/314/166 73/312/166 155/313/166 158/315/166
f 30/288/167 76/314/167 158/315/167 112/289/167
f 70/310/168 79/316/168 161/317/168 152/311/168
f 79/316/169 82/318/169 164/319/169 161/317/169
f 82/318/170 85/320/170 167/321/170 164/319/170
f 85/320/171 88/322/171 170/323/171 167/321/171
f 91/324/172 93/325/172 175/326/172 173/327/172
f 93/325/173 95/328/173 177/329/173 175/326/173
f 88/322/174 91/324/174 173/327/174 170/323/174
f 95/328/175 51/304/175 133/305/175 177/329/175
f 179/330/176 180/331/176 182/332/176 181/333/176
f 181/334/2 182/335/2 186/336/2 185/337/2
f 185/338/177 186/339/177 184/340/177 183/341/177
f 183/342/8 184/343/8 180/344/8 179/345/8
f 181/346/1 185/347/1 183/348/1 179/349/1
f 184/340/177 186/339/177 193/350/177 194/351/177
f 189/352/177 190/353/177 197/354/177 198/355/177
f 182/332/176 180/331/176 191/356/176 192/357/176
f 180/344/8 184/343/8 194/358/8 191/359/8
f 186/336/2 182/335/2 192/360/2 193/361/2
f 187/362/178 188/363/178 192/364/178 191/365/178
f 188/363/178 190/366/178 193/367/178 192/364/178
f 190/366/178 189/368/178 194/369/178 193/367/178
f 189/368/178 187/362/178 191/365/178 194/369/178
f 198/355/179 197/354/179 205/370/179 206/371/179
f 188/372/176 187/373/176 195/374/176 196/375/176
f 187/376/8 189/377/8 198/378/8 195/379/8
f 190/380/2 188/381/2 196/382/2 197/383/2
f 200/384/176 199/385/176 211/386/176 212/387/176
f 199/388/178 200/389/178 208/390/178 207/391/178
f 201/392/178 202/393/178 210/394/178 209/395/178
f 197/383/180 196/382/180 204/396/180 205/397/180
f 205/397/2 204/396/2 208/398/2 209/399/2
f 206/371/177 205/370/177 209/400/177 210/401/177
f 204/402/176 203/403/176 207/404/176 208/405/176
f 203/406/8 206/407/8 210/408/8 207/409/8
f 202/393/178 199/388/178 207/391/178 210/394/178
f 196/375/181 195/374/181 203/403/181 204/402/181
f 200/389/178 201/392/178 209/395/178 208/390/178
f 195/379/182 198/378/182 206/407/182 203/406/182
f 215/410/178 216/411/178 224/412/178 223/413/178
f 199/414/8 202/415/8 214/416/8 211/417/8
f 201/418/2 200/419/2 212/420/2 213/421/2
f 202/422/177 201/423/177 213/424/177 214/425/177
f 217/426/178 216/411/178 215/410/178 218/427/178
f 217/426/178 218/427/178 226/428/178 225/429/178
f 213/430/1 212/431/1 220/432/1 221/13/1
f 211/433/1 214/434/1 222/435/1 219/436/1
f 219/437/8 222/438/8 226/439/8 223/440/8
f 221/441/2 220/442/2 224/443/2 225/439/2
f 222/444/177 221/445/177 225/446/177 226/447/177
f 220/448/176 219/449/176 223/450/176 224/451/176
f 214/434/1 213/430/1 221/13/1 222/435/1
f 218/427/178 215/410/178 223/413/178 226/428/178
f 212/431/1 211/433/1 219/436/1 220/432/1
f 216/411/178 217/426/178 225/429/178 224/412/178
f 227/452/176 228/453/176 230/454/176 229/455/176
f 229/456/2 230/349/2 234/457/2 233/458/2
f 233/459/177 234/460/177 232/461/177 231/462/177
f 231/463/8 232/464/8 228/269/8 227/465/8
f 229/466/1 233/467/1 231/468/1 227/469/1
f 234/470/178 230/471/178 228/467/178 232/466/178
f 281/472/2 270/473/2 238/474/2 250/475/2
f 255/476/2 256/477/2 263/478/2 264/479/2
f 279/480/1 245/481/1 235/482/1 271/483/1
f 273/484/183 239/485/183 243/243/183 277/486/183
f 246/487/184 238/488/184 241/489/184 248/490/184
f 248/491/177 241/492/177 243/493/177 249/494/177
f 276/495/8 242/496/8 244/497/8 278/498/8
f 272/499/185 236/500/185 242/501/185 276/502/185
f 247/503/186 240/504/186 244/505/186 249/506/186
f 239/485/186 247/503/186 249/506/186 243/243/186
f 242/507/177 248/491/177 249/494/177 244/508/177
f 236/500/184 246/487/184 248/490/184 242/501/184
f 269/509/1 237/510/1 245/481/1 279/480/1
f 260/511/178 257/512/178 266/513/178 267/514/178
f 237/515/177 250/516/177 252/517/177 245/518/177
f 245/518/177 252/517/177 251/519/177 235/520/177
f 281/521/187 250/522/187 292/523/187 294/524/187
f 252/517/177 246/525/177 254/526/177 253/527/177
f 246/525/177 236/528/177 255/529/177 254/526/177
f 236/528/177 251/519/177 256/530/177 255/529/177
f 251/519/177 252/517/177 253/527/177 256/530/177
f 250/516/177 238/531/177 258/532/177 257/533/177
f 238/531/177 246/525/177 259/534/177 258/532/177
f 246/525/177 252/517/177 260/535/177 259/534/177
f 252/517/177 250/516/177 257/533/177 260/535/177
f 262/536/177 261/537/177 264/538/177 263/539/177
f 266/540/177 265/541/177 268/542/177 267/543/177
f 256/544/178 253/545/178 262/546/178 263/547/178
f 258/547/1 259/548/1 268/549/1 265/550/1
f 257/551/8 258/464/8 265/552/8 266/553/8
f 254/554/1 255/555/1 264/556/1 261/557/1
f 259/558/2 260/559/2 267/560/2 268/561/2
f 253/562/8 254/563/8 261/564/8 262/565/8
f 235/566/8 251/567/8 280/568/8 271/569/8
f 274/570/188 240/504/188 285/571/188 287/572/188
f 238/488/189 270/573/189 275/574/189 241/489/189
f 241/575/2 275/576/2 277/577/2 243/578/2
f 240/504/190 274/570/190 278/579/190 244/505/190
f 239/580/2 273/581/2 282/582/2 283/583/2
f 251/567/8 236/584/8 272/585/8 280/568/8
f 284/586/191 283/587/191 289/588/191 290/589/191
f 284/590/178 286/591/178 287/572/178 285/571/178
f 247/592/177 239/593/177 283/587/177 284/586/177
f 240/512/177 247/592/177 284/586/177 285/594/177
f 289/595/2 288/596/2 296/597/2 297/598/2
f 283/583/192 282/582/192 288/596/192 289/595/192
f 286/599/8 284/600/8 290/601/8 291/602/8
f 295/603/2 294/604/2 292/605/2 293/606/2
f 237/510/1 269/509/1 295/607/1 293/608/1
f 250/516/177 237/515/177 293/609/177 292/610/177
f 297/542/178 296/611/178 299/612/178 298/613/178
f 290/589/177 289/588/177 297/614/177 298/615/177
f 291/602/8 290/601/8 298/616/8 299/617/8
f 281/472/2 315/618/2 303/619/2 270/473/2
f 320/476/2 329/620/2 328/621/2 321/477/2
f 279/480/1 271/483/1 300/470/1 310/622/1
f 273/484/183 277/486/183 308/623/183 304/624/183
f 311/625/193 313/626/193 306/505/193 303/627/193
f 313/628/176 314/629/176 308/630/176 306/631/176
f 276/495/8 278/498/8 309/632/8 307/633/8
f 272/499/185 276/502/185 307/634/185 301/635/185
f 312/636/194 314/637/194 309/489/194 305/638/194
f 304/624/194 308/623/194 314/637/194 312/636/194
f 307/639/176 309/640/176 314/629/176 313/628/176
f 301/635/193 307/634/193 313/626/193 311/625/193
f 269/509/1 279/480/1 310/622/1 302/641/1
f 325/642/178 332/643/178 331/644/178 322/645/178
f 302/646/176 310/647/176 317/648/176 315/649/176
f 310/647/176 300/650/176 316/651/176 317/648/176
f 281/521/187 294/524/187 339/652/187 315/653/187
f 317/648/176 318/654/176 319/655/176 311/656/176
f 311/656/176 319/655/176 320/657/176 301/658/176
f 301/658/176 320/657/176 321/659/176 316/651/176
f 316/651/176 321/659/176 318/654/176 317/648/176
f 315/649/176 322/660/176 323/661/176 303/662/176
f 303/662/176 323/661/176 324/663/176 311/656/176
f 311/656/176 324/663/176 325/664/176 317/648/176
f 317/648/176 325/664/176 322/660/176 315/649/176
f 327/665/176 328/666/176 329/667/176 326/668/176
f 331/669/176 332/670/176 333/671/176 330/672/176
f 321/673/178 328/674/178 327/675/178 318/642/178
f 323/676/1 330/677/1 333/678/1 324/679/1
f 322/680/8 331/681/8 330/682/8 323/683/8
f 319/554/1 326/684/1 329/685/1 320/555/1
f 324/558/2 333/479/2 332/478/2 325/559/2
f 318/686/8 327/687/8 326/435/8 319/561/8
f 300/688/8 271/569/8 280/568/8 316/689/8
f 274/570/188 287/572/188 336/690/188 305/638/188
f 303/627/189 306/505/189 275/574/189 270/573/189
f 306/523/2 308/691/2 277/577/2 275/576/2
f 305/638/190 309/489/190 278/579/190 274/570/190
f 304/692/2 334/693/2 282/582/2 273/581/2
f 316/689/8 280/568/8 272/585/8 301/694/8
f 335/695/195 338/696/195 337/697/195 334/698/195
f 335/699/178 336/690/178 287/572/178 286/591/178
f 312/700/176 335/695/176 334/698/176 304/694/176
f 305/701/176 336/702/176 335/695/176 312/700/176
f 337/703/2 341/704/2 296/597/2 288/596/2
f 334/693/192 337/703/192 288/596/192 282/582/192
f 286/599/8 291/602/8 338/705/8 335/706/8
f 295/603/2 340/707/2 339/708/2 294/604/2
f 302/641/1 340/634/1 295/607/1 269/509/1
f 315/649/176 339/709/176 340/710/176 302/646/176
f 341/711/178 342/545/178 299/612/178 296/611/178
f 338/696/176 342/712/176 341/713/176 337/697/176
f 291/602/8 299/617/8 342/714/8 338/705/8
f 343/715/176 351/716/176 352/717/176 345/718/176
f 345/719/2 352/463/2 353/465/2 349/720/2
f 349/721/177 353/722/177 354/706/177 347/723/177
f 347/724/8 354/725/8 351/726/8 343/727/8
f 345/728/1 349/729/1 347/730/1 343/408/1
f 346/731/176 344/732/176 355/733/176 356/734/176
f 344/735/178 346/736/178 352/468/178 351/729/178
f 346/736/178 350/737/178 353/469/178 352/468/178
f 350/737/178 348/738/178 354/728/178 353/469/178
f 348/738/178 344/735/178 351/729/178 354/728/178
f 357/739/178 356/14/178 355/740/178 358/741/178
f 344/742/8 348/743/8 358/744/8 355/671/8
f 350/745/2 346/746/2 356/386/2 357/747/2
f 348/748/177 350/749/177 357/734/177 358/733/177
f 361/750/1 362/751/1 359/752/1 360/753/1
f 359/754/8 362/755/8 364/756/8 363/757/8
f 365/758/196 370/759/196 372/760/196 367/761/196
f 367/761/197 372/760/197 371/762/197 368/763/197
f 368/763/198 371/762/198 369/764/198 366/455/198
f 360/682/199 359/765/199 363/766/199 365/767/199 367/768/199 368/769/199 366/770/199
f 370/759/200 365/758/200 363/771/200 364/772/200
f 361/773/2 360/774/2 366/775/2 369/776/2
f 362/777/201 361/778/201 369/779/201 371/780/201 372/781/201 370/782/201 364/783/201
f 386/784/176 374/785/176 376/786/176 385/787/176
f 387/788/202 382/789/202 380/790/202 389/791/202
f 389/792/177 380/793/177 378/794/177 388/795/177
f 390/796/203 384/797/203 374/798/203 386/799/203
f 381/800/204 379/801/204 396/802/204 391/803/204
f 382/804/205 376/805/205 374/806/205 384/807/205
f 380/808/205 382/804/205 384/807/205 378/809/205
f 375/810/206 381/800/206 391/803/206 393/811/206
f 388/812/207 378/813/207 384/797/207 390/796/207
f 385/814/208 376/815/208 382/789/208 387/788/208
f 375/816/209 373/817/209 386/818/209 385/819/209
f 381/820/210 375/816/210 385/819/210 387/821/210
f 377/822/209 379/823/209 389/824/209 388/825/209
f 383/826/209 377/822/209 388/825/209 390/827/209
f 379/823/210 381/820/210 387/821/210 389/824/210
f 373/817/209 383/826/209 390/827/209 386/818/209
f 391/828/209 396/829/209 395/830/209 392/831/209
f 393/832/210 391/828/210 392/831/210 394/833/210
f 379/834/176 377/835/176 395/836/176 396/837/176
f 373/838/177 375/834/177 393/837/177 394/839/177
f 383/840/211 373/841/211 394/842/211 392/843/211
f 377/844/212 383/840/212 392/843/212 395/845/212
f 410/846/176 398/847/176 400/848/176 409/849/176
f 411/850/202 406/851/202 404/852/202 413/853/202
f 413/854/177 404/855/177 402/856/177 412/857/177
f 414/858/203 408/859/203 398/860/203 410/861/203
f 405/862/204 403/863/204 420/864/204 415/865/204
f 406/866/205 400/867/205 398/868/205 408/869/205
f 404/870/205 406/866/205 408/869/205 402/871/205
f 399/801/206 405/862/206 415/865/206 417/802/206
f 412/872/207 402/873/207 408/859/207 414/858/207
f 409/874/208 400/875/208 406/851/208 411/850/208
f 399/876/209 397/877/209 410/878/209 409/879/209
f 405/880/210 399/876/210 409/879/210 411/881/210
f 401/882/209 403/883/209 413/884/209 412/885/209
f 407/886/209 401/882/209 412/885/209 414/887/209
f 403/883/210 405/880/210 411/881/210 413/884/210
f 397/877/209 407/886/209 414/887/209 410/878/209
f 415/888/209 420/889/209 419/890/209 416/891/209
f 417/892/210 415/888/210 416/891/210 418/893/210
f 403/894/176 401/895/176 419/896/176 420/897/176
f 397/898/177 399/899/177 417/900/177 418/901/177
f 407/902/211 397/903/211 418/904/211 416/905/211
f 401/906/212 407/902/212 416/905/212 419/907/212
f 434/908/176 422/909/176 424/910/176 433/911/176
f 435/912/202 430/913/202 428/914/202 437/915/202
f 437/916/177 428/917/177 426/918/177 436/919/177
f 438/920/203 432/921/203 422/922/203 434/923/203
f 429/924/204 427/925/204 444/926/204 439/927/204
f 430/928/205 424/929/205 422/930/205 432/931/205
f 428/932/205 430/928/205 432/931/205 426/933/205
f 423/748/206 429/924/206 439/927/206 441/934/206
f 436/935/207 426/936/207 432/921/207 438/920/207
f 433/813/208 424/937/208 430/913/208 435/912/208
f 423/938/209 421/939/209 434/940/209 433/941/209
f 429/942/210 423/938/210 433/941/210 435/943/210
f 425/944/209 427/945/209 437/946/209 436/947/209
f 431/948/209 425/944/209 436/947/209 438/821/209
f 427/945/210 429/942/210 435/943/210 437/946/210
f 421/939/209 431/948/209 438/821/209 434/940/209
f 439/949/209 444/950/209 443/951/209 440/952/209
f 441/953/210 439/949/210 440/952/210 442/954/210
f 427/955/176 425/956/176 443/957/176 444/958/176
f 421/959/177 423/960/177 441/961/177 442/962/177
f 431/963/211 421/844/211 442/845/211 440/964/211
f 425/965/212 431/963/212 440/964/212 443/966/212
f 445/967/177 453/968/177 454/969/177 447/970/177
f 447/971/8 454/972/8 455/973/8 451/974/8
f 451/458/176 455/975/176 456/976/176 449/977/176
f 449/777/2 456/978/2 453/979/2 445/980/2
f 447/981/1 451/846/1 449/982/1 445/983/1
f 448/984/177 446/985/177 457/986/177 458/987/177
f 446/988/178 448/989/178 454/990/178 453/983/178
f 448/989/178 452/991/178 455/992/178 454/990/178
f 452/991/178 450/993/178 456/994/178 455/992/178
f 450/993/178 446/988/178 453/983/178 456/994/178
f 459/995/178 458/996/178 457/997/178 460/998/178
f 446/999/2 450/1000/2 460/1001/2 457/342/2
f 452/1002/8 448/1003/8 458/1004/8 459/1005/8
f 450/985/176 452/984/176 459/449/176 460/1006/176
f 474/1007/177 462/1008/177 464/1009/177 473/1010/177
f 475/1011/213 470/1012/213 468/1013/213 477/1014/213
f 477/1015/176 468/1016/176 466/1017/176 476/1018/176
f 478/1019/214 472/1020/214 462/1021/214 474/1022/214
f 469/1023/215 467/1024/215 484/1025/215 479/1026/215
f 470/1027/216 464/1028/216 462/1029/216 472/1030/216
f 468/1031/216 470/1027/216 472/1030/216 466/1032/216
f 463/1033/217 469/1023/217 479/1026/217 481/1034/217
f 476/1035/218 466/1036/218 472/1020/218 478/1019/218
f 473/1037/219 464/1038/219 470/1012/219 475/1011/219
f 463/1039/220 461/1040/220 474/1041/220 473/1042/220
f 469/1043/221 463/1039/221 473/1042/221 475/1044/221
f 465/1045/220 467/1046/220 477/1047/220 476/1048/220
f 471/1049/221 465/1045/221 476/1048/221 478/1050/221
f 467/1046/220 469/1043/220 475/1044/220 477/1047/220
f 461/1040/221 471/1049/221 478/1050/221 474/1041/221
f 479/1051/220 484/1052/220 483/1053/220 480/1054/220
f 481/1055/220 479/1051/220 480/1054/220 482/1056/220
f 467/1057/177 465/1058/177 483/1059/177 484/1060/177
f 461/1061/176 463/1062/176 481/1063/176 482/1064/176
f 471/1065/222 461/1066/222 482/970/222 480/1067/222
f 465/1068/223 471/1065/223 480/1067/223 483/1069/223
f 498/1070/177 486/1071/177 488/1072/177 497/1073/177
f 499/1074/213 494/1075/213 492/1076/213 501/1077/213
f 501/1078/176 492/1079/176 490/1080/176 500/1081/176
f 502/1082/214 496/1083/214 486/1084/214 498/1085/214
f 493/1086/215 491/1087/215 508/1088/215 503/1089/215
f 494/1090/216 488/1091/216 486/1092/216 496/1093/216
f 492/1094/216 494/1090/216 496/1093/216 490/1095/216
f 487/1096/217 493/1086/217 503/1089/217 505/1097/217
f 500/1098/218 490/1099/218 496/1083/218 502/1082/218
f 497/1100/219 488/1101/219 494/1075/219 499/1074/219
f 487/1102/220 485/1103/220 498/1104/220 497/1105/220
f 493/1106/221 487/1102/221 497/1105/221 499/1107/221
f 489/1108/220 491/1109/220 501/1110/220 500/1111/220
f 495/1112/221 489/1108/221 500/1111/221 502/1113/221
f 491/1109/220 493/1106/220 499/1107/220 501/1110/220
f 485/1103/221 495/1112/221 502/1113/221 498/1104/221
f 503/1114/220 508/1115/220 507/1116/220 504/1117/220
f 505/1118/220 503/1114/220 504/1117/220 506/1119/220
f 491/1120/177 489/1121/177 507/1122/177 508/1123/177
f 485/1124/176 487/1125/176 505/1126/176 506/1127/176
f 495/1128/222 485/1129/222 506/978/222 504/1130/222
f 489/1131/223 495/1128/223 504/1130/223 507/1132/223
