# Blender 4.5.4 LTS
# www.blender.org
mtllib Projectile.mtl
o Proiectil
v 0.111315 -0.028865 -0.491267
v 0.111315 0.028777 -0.491361
v -0.111315 -0.028865 -0.491267
v -0.111315 0.028777 -0.491361
v -0.000000 0.108641 -0.491494
v -0.000000 -0.108729 -0.491134
v 0.131959 0.039524 -0.491381
v 0.131959 -0.039612 -0.491250
v -0.000000 0.131916 -0.491535
v -0.131958 -0.039612 -0.491250
v -0.131958 0.039524 -0.491381
v -0.000000 -0.132004 -0.491096
v 0.131959 0.039524 0.186513
v 0.131959 -0.039612 0.186643
v -0.000000 0.131916 0.186358
v -0.131958 -0.039612 0.186643
v -0.131958 0.039524 0.186513
v -0.000000 -0.132004 0.186797
v 0.111315 0.028777 0.186532
v 0.111315 -0.028865 0.186625
v -0.000000 0.108641 0.186399
v -0.111315 -0.028865 0.186625
v -0.111315 0.028777 0.186532
v -0.000000 -0.108729 0.186759
v 0.073797 0.022198 0.275655
v 0.073797 -0.022058 0.275728
v -0.000000 0.073867 0.275569
v -0.073796 -0.022058 0.275728
v -0.073796 0.022198 0.275655
v -0.000000 -0.073727 0.275814
v 0.062252 0.016188 0.275665
v 0.062252 -0.016048 0.275719
v -0.000000 0.060851 0.275591
v -0.062252 -0.016048 0.275719
v -0.062252 0.016188 0.275665
v -0.000000 -0.060711 0.275793
v 0.000000 0.000208 0.348541
vn -0.0001 -0.0016 -1.0000
vn -0.0000 -0.0017 -1.0000
vn 0.0001 -0.0016 -1.0000
vn -0.0000 -0.0016 -1.0000
vn 0.5829 -0.8125 -0.0000
vn 1.0000 -0.0000 -0.0000
vn -0.5829 -0.8125 -0.0000
vn -0.5736 0.8192 -0.0000
vn -0.5829 0.8125 -0.0000
vn 0.5735 0.8192 -0.0000
vn 0.5735 -0.8192 -0.0000
vn -1.0000 -0.0000 -0.0000
vn 0.5829 0.8125 -0.0000
vn -0.5736 -0.8192 -0.0000
vn -0.8760 -0.0008 -0.4823
vn 0.5343 0.7440 -0.4013
vn -0.8374 0.0009 0.5466
vn 0.5059 -0.7217 0.4725
vn 0.8760 -0.0008 -0.4823
vn 0.5057 0.7231 0.4705
vn 0.4826 -0.6735 -0.5599
vn -0.4413 -0.6293 0.6397
vn -0.7602 -0.0011 -0.6496
vn 0.4825 0.6716 -0.5624
vn -0.7025 0.0012 0.7117
vn 0.4413 -0.6293 0.6397
vn -0.5059 -0.7217 0.4725
vn 0.5342 -0.7452 -0.3993
vn 0.8374 0.0009 0.5466
vn -0.5342 -0.7452 -0.3993
vn -0.5057 0.7231 0.4705
vn -0.5343 0.7440 -0.4013
vn 0.7025 0.0012 0.7117
vn -0.4826 -0.6735 -0.5599
vn -0.4414 0.6315 0.6375
vn -0.4825 0.6716 -0.5624
vn 0.4414 0.6315 0.6375
vn 0.7602 -0.0011 -0.6496
vt 0.125000 0.500000
vt 0.125000 0.750000
vt 0.250000 0.500000
vt 0.375000 0.750000
vt 0.375000 0.500000
vt 0.250000 0.750000
s 0
usemtl Material.005
f 2/1/1 7/1/1 8/2/1 1/2/1
f 5/3/2 9/3/2 7/1/2 2/1/2
f 3/4/3 10/4/3 11/5/3 4/5/3
f 6/6/4 12/6/4 10/4/4 3/4/4
f 4/5/2 11/5/2 9/3/2 5/3/2
f 1/2/4 8/2/4 12/6/4 6/6/4
f 4/5/5 5/3/5 21/3/5 23/5/5
f 8/2/6 7/1/6 13/1/6 14/2/6
f 5/3/7 2/1/7 19/1/7 21/3/7
f 9/3/8 11/5/8 17/5/8 15/3/8
f 1/2/9 6/6/9 24/6/9 20/2/9
f 7/1/10 9/3/10 15/3/10 13/1/10
f 3/4/6 4/5/6 23/5/6 22/4/6
f 12/6/11 8/2/11 14/2/11 18/6/11
f 11/5/12 10/4/12 16/4/12 17/5/12
f 6/6/13 3/4/13 22/4/13 24/6/13
f 2/1/12 1/2/12 20/2/12 19/1/12
f 10/4/14 12/6/14 18/6/14 16/4/14
f 19/1/15 20/2/15 32/2/15 31/1/15
f 24/6/16 22/4/16 34/4/16 36/6/16
f 17/5/17 16/4/17 28/4/17 29/5/17
f 18/6/18 14/2/18 26/2/18 30/6/18
f 22/4/19 23/5/19 35/5/19 34/4/19
f 13/1/20 15/3/20 27/3/20 25/1/20
f 35/5/21 33/3/21 37/5/21
f 28/4/22 30/6/22 37/4/22
f 31/1/23 32/2/23 37/1/23
f 36/6/24 34/4/24 37/6/24
f 29/5/25 28/4/25 37/5/25
f 30/6/26 26/2/26 37/6/26
f 16/4/27 18/6/27 30/6/27 28/4/27
f 23/5/28 21/3/28 33/3/28 35/5/28
f 14/2/29 13/1/29 25/1/29 26/2/29
f 21/3/30 19/1/30 31/1/30 33/3/30
f 15/3/31 17/5/31 29/5/31 27/3/31
f 20/2/32 24/6/32 36/6/32 32/2/32
f 26/2/33 25/1/33 37/2/33
f 33/3/34 31/1/34 37/3/34
f 27/3/35 29/5/35 37/3/35
f 32/2/36 36/6/36 37/2/36
f 25/1/37 27/3/37 37/1/37
f 34/4/38 35/5/38 37/4/38
