# Blender 4.5.4 LTS
# www.blender.org
mtllib ciws.mtl
o ciws
v -1.001365 -1.643492 0.997424
v 0.998635 -1.643492 0.997424
v -1.001365 -1.643492 -1.002576
v 0.998635 -1.643492 -1.002576
v -1.392281 -1.643492 -0.002576
v 1.389552 -1.643492 -0.002576
v -0.001365 -1.643492 1.388340
v -0.001365 -1.643492 -1.393492
v -0.001365 -1.643492 -0.002576
v -1.392281 -0.977601 -0.002576
v -1.001365 -0.977601 0.997424
v -0.001365 -0.977601 1.388340
v 0.998635 -0.977601 0.997424
v 1.389552 -0.977601 -0.002576
v 0.998635 -0.977601 -1.002576
v -0.001365 -0.977601 -1.393492
v -1.001365 -0.977601 -1.002576
v -0.989906 -0.445802 -0.002576
v -0.989906 -0.570694 -0.002576
v -0.712077 -0.570694 0.708137
v -0.001364 -0.570694 0.985966
v 0.709348 -0.570694 0.708137
v 0.987177 -0.570694 -0.002576
v 0.709348 -0.570694 -0.713288
v -0.001364 -0.570694 -0.991117
v -0.712077 -0.570694 -0.713288
v -0.712077 -0.445802 0.708137
v -0.001364 -0.445802 0.985966
v 0.709348 -0.445802 0.708137
v 0.987177 -0.445802 -0.002576
v 0.709348 -0.445802 -0.713288
v -0.001364 -0.445802 -0.991117
v -0.712077 -0.445802 -0.713288
v -0.712077 -0.278721 0.708137
v 0.709348 -0.278721 0.708137
v 0.709348 -0.278721 -0.713288
v -0.712077 -0.278721 -0.713288
v -1.715018 -0.435144 -0.002576
v -1.370817 -0.443601 0.910155
v -0.001364 -0.445802 1.579669
v 1.368089 -0.443601 0.910155
v 1.712289 -0.435144 -0.002576
v 1.368089 -0.443601 -0.915307
v -0.001364 -0.445802 -1.584821
v -1.370817 -0.443601 -0.915307
v 1.368089 -0.280922 0.910155
v -1.370817 -0.280922 0.910155
v 1.368089 -0.280922 -0.915307
v -1.370817 -0.280922 -0.915307
v -0.782544 -0.278721 -0.533028
v -0.782544 -0.278721 0.527876
v 0.529092 -0.278721 0.778602
v -0.531820 -0.278721 0.778602
v 0.779815 -0.278721 0.527876
v 0.779815 -0.278721 -0.533028
v 0.529092 -0.278721 -0.783753
v -0.531820 -0.278721 -0.783753
v -0.360373 0.532299 -0.361582
v -0.360373 0.532299 0.356430
v 0.357645 0.532299 0.356430
v 0.357645 0.532299 -0.361582
v 1.538490 -0.031327 -0.533025
v 1.538490 -0.031327 0.527873
v 1.712289 -0.435094 -0.002576
v 0.529092 0.092094 1.336480
v -0.531820 0.092094 1.336480
v -0.001364 -0.445752 1.579669
v -1.541218 -0.031327 0.527873
v -1.541218 -0.031327 -0.533025
v -1.715018 -0.435094 -0.002576
v -0.531820 -0.026700 -1.341632
v 0.529092 -0.026700 -1.341632
v -0.001364 -0.445752 -1.584821
v 1.240952 0.280636 1.195380
v 0.709348 0.281027 0.708137
v 0.709348 0.281027 -0.713288
v 1.258635 0.280384 -1.160859
v -1.269141 0.280273 1.138259
v -0.712077 0.281027 0.708137
v -1.255969 0.280461 -1.172964
v -0.712077 0.281027 -0.713288
v 1.647944 0.274841 -0.287473
v 1.665628 0.274589 0.242648
v -1.642895 0.274952 0.299769
v -1.656068 0.274764 -0.275368
v -0.531820 0.281027 0.778602
v -0.531820 0.281027 1.495006
v 0.529092 0.281027 1.495006
v 0.529092 0.281027 0.778602
v -0.782544 0.281027 -0.533028
v -0.782544 0.281027 0.527876
v 0.779815 0.281027 0.527876
v 0.779815 0.281027 -0.533028
v -0.531820 0.281027 -1.341632
v -0.531820 0.281027 -0.783753
v 0.529092 0.281027 -0.783753
v 0.529092 0.281027 -1.341632
v 0.929272 1.212160 0.589165
v 0.630594 0.573137 0.529690
v 0.633530 1.527598 -0.366752
v 1.216340 0.571488 -0.686137
v -1.084675 0.678218 0.702806
v -0.633324 0.573137 0.529690
v -1.005494 1.318424 -0.527167
v -0.633324 0.573137 -0.534842
v 1.107789 1.317001 -0.328719
v 1.107789 1.317001 0.323568
v -1.110519 1.317001 0.323568
v -1.110519 1.317001 -0.328719
v -0.522844 1.384778 0.590656
v -0.620061 1.212873 0.722671
v 0.617331 1.212873 0.722671
v 0.520114 1.475814 0.590656
v -0.720320 1.526706 -0.207511
v -0.720320 1.526706 0.037209
v 0.717590 1.527423 0.104848
v 0.717590 1.527423 -0.185639
v -0.522844 1.319526 -0.733730
v -0.522844 1.526876 -0.595808
v 0.520114 1.527594 -0.595808
v 0.520115 1.319526 -0.733730
v 1.367859 0.569671 -0.399839
v 1.367859 0.569671 0.394687
v -1.370588 0.569671 0.394687
v -1.370588 0.569671 -0.399839
v -0.473041 0.573137 0.582463
v -0.584459 0.679322 0.916885
v 0.581730 0.679322 0.916885
v 0.470312 0.573137 0.582463
v -0.695982 0.573137 -0.399841
v -0.695982 0.573137 0.394689
v 0.693253 0.573137 0.394689
v 0.693253 0.573137 -0.399841
v -0.473041 0.573137 -1.005420
v -0.473041 0.573137 -0.587615
v 0.470312 0.573137 -0.587615
v 0.470312 0.573137 -1.005420
v -0.669971 1.526881 0.297059
v -0.932001 1.212160 0.589165
v -0.636259 1.526881 -0.388624
v -1.219070 0.571488 -0.686137
v 0.633530 1.527598 0.285961
v 1.081946 0.678218 0.702806
v 0.630594 0.573137 -0.534842
v 1.002764 1.318424 -0.527167
v -1.219070 0.571488 0.680986
v -0.473041 0.573137 1.000268
v 0.470312 0.573137 1.000268
v 1.216340 0.571488 0.680986
v -1.005494 1.318424 0.522015
v -0.522844 1.319526 0.728578
v 0.520115 1.319526 0.728578
v 1.002764 1.318424 0.522015
v -0.995801 0.794190 0.755717
v -0.686516 0.794873 0.888083
v 0.698053 0.812077 0.876196
v 0.975024 0.811466 0.757660
v -0.901402 1.124328 0.685453
v -0.708529 1.124769 0.768000
v 0.717766 1.107506 0.768659
v 0.890488 1.107111 0.694737
v -0.546590 1.777537 -0.599366
v -0.546590 0.471143 -0.596917
v 0.543737 0.471143 -0.596917
v 0.543737 1.777537 -0.599366
v 0.543737 1.777889 -0.399074
v -0.546590 1.777889 -0.399074
v -0.546590 0.471494 -0.396625
v 0.543737 0.471494 -0.396625
v 0.205200 1.214935 1.864570
v -0.208053 1.214935 1.864570
v -0.208053 0.801686 1.865497
v 0.205200 0.801686 1.865497
v 0.277196 1.286930 1.864408
v -0.280049 1.286930 1.864408
v -0.280049 0.729691 1.865659
v 0.277196 0.729691 1.865659
v -0.546590 1.016301 -0.598141
v 0.543737 1.016301 -0.598141
v -0.546590 1.016652 -0.397850
v 0.543737 1.016652 -0.397850
v -0.280049 1.008311 1.865034
v 0.277196 1.008311 1.865034
v -0.208053 1.008311 1.865034
v 0.205200 1.008311 1.865034
v -0.001426 1.777537 -0.599366
v -0.001426 0.471143 -0.596917
v -0.001426 1.777889 -0.399074
v -0.001426 0.471494 -0.396625
v -0.001427 1.286930 1.864408
v -0.001427 0.729691 1.865659
v -0.001427 1.214935 1.864570
v -0.001427 0.801686 1.865497
v -0.001427 1.008311 1.865034
v -0.001426 1.016301 -0.598141
v -0.001427 1.287446 2.158820
v -0.280049 1.287230 2.035520
v 0.277196 1.008594 2.027147
v 0.277196 1.287230 2.035520
v -0.001427 1.215120 1.970212
v -0.208053 1.215120 1.970212
v 0.205200 1.008496 1.970677
v 0.205200 1.215120 1.970212
v -0.280049 1.008594 2.027147
v -0.208053 1.008496 1.970677
v -0.151578 1.163539 1.605094
v -0.151578 1.054057 1.605340
v -0.042095 1.163539 1.605094
v -0.042095 1.054057 1.605340
v -0.174963 1.108799 1.605217
v -0.018709 1.108799 1.605217
v -0.096836 1.186924 1.605041
v -0.096836 1.030672 1.605392
v -0.096836 1.110310 2.909513
v -0.096836 1.172021 4.795453
v -0.137762 1.154538 4.795492
v -0.155245 1.113613 4.795585
v -0.137762 1.072688 4.795676
v -0.096836 1.055205 4.795715
v -0.055910 1.072688 4.795676
v -0.038427 1.113613 4.795585
v -0.055910 1.154538 4.795492
v 0.038061 1.163539 1.605094
v 0.038061 1.054057 1.605340
v 0.147545 1.163539 1.605094
v 0.147545 1.054057 1.605340
v 0.014676 1.108799 1.605217
v 0.170930 1.108799 1.605217
v 0.092803 1.186924 1.605041
v 0.092803 1.030672 1.605392
v 0.092803 1.110310 2.909513
v 0.092803 1.172021 4.795453
v 0.051877 1.154538 4.795492
v 0.034394 1.113613 4.795585
v 0.051877 1.072688 4.795676
v 0.092803 1.055205 4.795715
v 0.133729 1.072688 4.795676
v 0.151212 1.113613 4.795585
v 0.133729 1.154538 4.795492
v 0.038061 0.967004 1.605535
v 0.038061 0.857522 1.605781
v 0.147545 0.967004 1.605535
v 0.147545 0.857522 1.605781
v 0.014676 0.912263 1.605658
v 0.170930 0.912263 1.605658
v 0.092803 0.990389 1.605482
v 0.092803 0.834136 1.605833
v 0.092803 0.913774 2.909955
v 0.092803 0.975486 4.795895
v 0.051877 0.958003 4.795934
v 0.034394 0.917077 4.796026
v 0.051877 0.876152 4.796118
v 0.092803 0.858669 4.796157
v 0.133729 0.876152 4.796118
v 0.151212 0.917077 4.796026
v 0.133729 0.958003 4.795934
v -0.158474 0.967004 1.605535
v -0.158474 0.857522 1.605781
v -0.048991 0.967004 1.605535
v -0.048991 0.857522 1.605781
v -0.181860 0.912263 1.605658
v -0.025606 0.912263 1.605658
v -0.103733 0.990389 1.605482
v -0.103733 0.834136 1.605833
v -0.103733 0.913774 2.909955
v -0.103733 0.975486 4.795895
v -0.144659 0.958003 4.795934
v -0.162142 0.917077 4.796026
v -0.144659 0.876152 4.796118
v -0.103733 0.858669 4.796157
v -0.062807 0.876152 4.796119
v -0.045324 0.917077 4.796026
v -0.062807 0.958003 4.795934
v -0.048264 1.060709 1.792308
v -0.048264 0.966119 1.792521
v 0.046327 1.060709 1.792308
v 0.046327 0.966119 1.792521
v -0.068468 1.013414 1.792415
v 0.066531 1.013414 1.792415
v -0.000969 1.080913 1.792263
v -0.000969 0.945915 1.792567
v -0.000969 1.014926 3.096712
v -0.000969 1.061325 4.608717
v -0.031625 1.048229 4.608747
v -0.044721 1.017574 4.608815
v -0.031625 0.986918 4.608884
v -0.000969 0.973822 4.608913
v 0.029688 0.986918 4.608884
v 0.042784 1.017574 4.608815
v 0.029688 1.048229 4.608747
v -0.096836 1.191739 4.795409
v -0.151578 1.168354 4.795462
v -0.174963 1.113613 4.795585
v -0.151578 1.058872 4.795708
v -0.096836 1.035487 4.795759
v -0.042095 1.058872 4.795708
v -0.018709 1.113613 4.795585
v -0.042095 1.168354 4.795462
v 0.092803 1.191739 4.795409
v 0.038061 1.168354 4.795462
v 0.014676 1.113613 4.795585
v 0.038061 1.058872 4.795708
v 0.092803 1.035487 4.795759
v 0.147545 1.058872 4.795708
v 0.170930 1.113613 4.795585
v 0.147545 1.168354 4.795462
v 0.092803 0.995203 4.795850
v 0.038061 0.971819 4.795903
v 0.014676 0.917077 4.796026
v 0.038061 0.862337 4.796149
v 0.092803 0.838951 4.796201
v 0.147545 0.862337 4.796149
v 0.170930 0.917077 4.796026
v 0.147545 0.971819 4.795903
v -0.103733 0.995203 4.795850
v -0.158474 0.971819 4.795903
v -0.181860 0.917077 4.796026
v -0.158474 0.862337 4.796149
v -0.103733 0.838951 4.796201
v -0.048991 0.862337 4.796149
v -0.025606 0.917077 4.796026
v -0.048991 0.971819 4.795903
v -0.096836 1.113103 4.504104
v -0.038427 1.113103 4.504104
v -0.155245 1.113103 4.504104
v -0.096836 1.171511 4.503972
v -0.096836 1.054694 4.504234
v 0.092803 1.113103 4.504104
v 0.151212 1.113103 4.504104
v 0.034394 1.113103 4.504104
v 0.092803 1.171511 4.503972
v 0.092803 1.054694 4.504234
v 0.092803 0.916567 4.504545
v 0.151212 0.916567 4.504545
v 0.034394 0.916567 4.504545
v 0.092803 0.974976 4.504414
v 0.092803 0.858159 4.504676
v -0.103733 0.916567 4.504545
v -0.045324 0.916567 4.504545
v -0.162142 0.916567 4.504545
v -0.103733 0.974976 4.504414
v -0.103733 0.858159 4.504676
v -0.137762 1.154028 4.504011
v -0.137762 1.072178 4.504195
v -0.055910 1.072178 4.504195
v -0.055910 1.154028 4.504011
v 0.051877 1.154028 4.504011
v 0.051877 1.072178 4.504195
v 0.133729 1.072178 4.504195
v 0.133729 1.154028 4.504011
v 0.051877 0.957492 4.504452
v 0.051877 0.875642 4.504636
v 0.133729 0.875642 4.504636
v 0.133729 0.957492 4.504452
v -0.144659 0.957492 4.504452
v -0.144659 0.875642 4.504636
v -0.062807 0.875642 4.504636
v -0.062807 0.957492 4.504452
v 0.543737 1.561443 -0.609034
v 0.543737 0.471126 -0.606585
v -0.546591 0.471126 -0.606586
v -0.546591 1.561443 -0.609034
v -0.546591 1.560090 -1.381671
v 0.543737 1.560090 -1.381671
v 0.543737 0.469772 -1.379222
v -0.546591 0.469772 -1.379222
v -0.546591 2.311592 -0.610718
v 0.543737 2.311592 -0.610718
v -0.546591 2.310786 -1.070854
v 0.543737 2.310786 -1.070854
v -0.156791 3.123209 -0.818723
v 0.543737 3.123209 -0.818723
v -0.156791 3.122765 -1.072677
v 0.543737 3.122765 -1.072677
v -0.006798 1.015620 4.314949
v 0.231920 1.015620 4.471776
v -0.245517 1.015620 4.471776
v -0.006799 1.254335 4.471239
v -0.006799 0.776903 4.472311
v -0.174063 1.182880 4.471399
v -0.174063 0.848357 4.472151
v 0.160466 0.848357 4.472151
v 0.160466 1.182880 4.471399
v -0.006798 1.015725 4.531783
v 0.231920 1.015725 4.531783
v -0.245517 1.015725 4.531783
v -0.006799 1.254440 4.531245
v -0.006799 0.777008 4.532318
v -0.174063 1.182985 4.531406
v -0.174063 0.848462 4.532158
v 0.160466 0.848462 4.532158
v 0.160466 1.182985 4.531406
v -0.006798 1.015620 3.349615
v 0.231920 1.015620 3.349615
v -0.245517 1.015620 3.349615
v -0.006799 1.254335 3.349078
v -0.006799 0.776903 3.350150
v -0.174063 1.182880 3.349239
v -0.174063 0.848357 3.349990
v 0.160466 0.848357 3.349990
v 0.160466 1.182880 3.349239
v -0.006798 1.015725 3.409622
v 0.231920 1.015725 3.409622
v -0.245517 1.015725 3.409622
v -0.006799 1.254440 3.409085
v -0.006799 0.777008 3.410157
v -0.174063 1.182985 3.409245
v -0.174063 0.848462 3.409997
v 0.160466 0.848462 3.409997
v 0.160466 1.182985 3.409245
v -0.000969 1.085072 4.608664
v -0.048264 1.064868 4.608709
v -0.068468 1.017574 4.608815
v -0.048264 0.970279 4.608922
v -0.000969 0.950075 4.608967
v 0.046327 0.970279 4.608922
v 0.066531 1.017574 4.608815
v 0.046327 1.064868 4.608709
v -0.000969 1.017574 4.562501
v 0.042784 1.017574 4.562501
v -0.044721 1.017574 4.562501
v -0.000969 1.061325 4.562403
v -0.000969 0.973822 4.562599
v -0.031625 1.048229 4.562432
v -0.031625 0.986918 4.562570
v 0.029688 0.986918 4.562570
v 0.029688 1.048229 4.562432
vn -0.0000 -1.0000 -0.0000
vn 0.2678 0.6775 -0.6851
vn 0.2678 0.6775 0.6851
vn -0.2678 0.6775 -0.6851
vn 0.6851 0.6775 0.2678
vn 0.3641 -0.0000 0.9314
vn 0.3641 -0.0000 -0.9314
vn -0.9314 -0.0000 -0.3641
vn 0.9314 -0.0000 -0.3641
vn -0.9314 -0.0000 0.3641
vn -0.3641 -0.0000 0.9314
vn 0.9314 -0.0000 0.3641
vn -0.3641 -0.0000 -0.9314
vn -0.6851 0.6775 -0.2678
vn 0.6851 0.6775 -0.2678
vn -0.6851 0.6775 0.2678
vn -0.2678 0.6775 0.6851
vn -0.0095 -1.0000 0.0016
vn -0.0017 -1.0000 -0.0014
vn 0.0095 -1.0000 0.0016
vn 0.0095 -1.0000 -0.0016
vn -0.0017 -1.0000 0.0014
vn -0.0095 -1.0000 -0.0016
vn 0.0017 -1.0000 -0.0014
vn 0.0017 -1.0000 0.0014
vn -0.0000 1.0000 -0.0000
vn 0.9185 0.3954 -0.0000
vn -0.0000 0.4120 0.9112
vn -0.9185 0.3954 -0.0000
vn -0.0000 0.5019 -0.8649
vn -0.0000 0.8328 -0.5536
vn -0.8870 0.4617 -0.0000
vn 0.8870 0.4617 -0.0000
vn -0.0000 0.4617 0.8870
vn -0.0000 0.4617 -0.8870
vn -0.0000 0.9113 0.4117
vn -0.9427 -0.3337 0.0076
vn 0.9134 -0.0000 0.4071
vn -0.6028 0.5228 0.6028
vn -1.0000 -0.0000 -0.0000
vn -0.6028 0.5228 -0.6028
vn -0.9134 -0.0000 -0.4071
vn 0.6028 0.5228 0.6028
vn 0.6028 0.5228 -0.6028
vn 1.0000 -0.0000 -0.0000
vn 0.9316 -0.0513 -0.3600
vn 0.9316 -0.0513 0.3600
vn 0.4413 -0.0227 0.8971
vn -0.4413 -0.0227 0.8971
vn -0.9316 -0.0513 -0.3600
vn -0.9316 -0.0513 0.3600
vn 0.4418 -0.0280 -0.8967
vn -0.4418 -0.0280 -0.8967
vn 0.1902 0.8081 -0.5575
vn -0.2248 0.8421 0.4903
vn -0.9803 -0.1973 -0.0000
vn 0.7235 0.6044 -0.3336
vn 0.2810 -0.5640 0.7765
vn 0.9803 -0.1973 -0.0000
vn 0.7240 0.6042 0.3329
vn -0.7237 0.6043 -0.3333
vn -0.7263 0.6874 0.0069
vn -0.2810 -0.5640 0.7765
vn 0.9134 -0.0000 -0.4071
vn -0.3313 -0.3964 0.8562
vn 0.9325 -0.3611 -0.0104
vn 0.3208 -0.2199 -0.9213
vn -0.3128 -0.2317 -0.9211
vn 0.2870 -0.4511 0.8451
vn -0.9134 -0.0000 0.4071
vn -0.4734 0.8808 -0.0000
vn 0.4747 0.8802 -0.0000
vn -0.4191 0.8972 0.1390
vn -0.4176 0.8854 -0.2043
vn -0.1859 0.8594 0.4763
vn 0.3334 0.8175 0.4697
vn 0.3860 0.9030 0.1885
vn 0.4110 0.8892 -0.2010
vn 0.3978 0.7399 -0.5425
vn -0.3935 0.7252 -0.5650
vn 0.9588 -0.2841 -0.0000
vn -0.2810 -0.5640 -0.7765
vn 0.8343 -0.4240 -0.3523
vn -0.1850 0.8119 -0.5537
vn -0.9588 -0.2841 -0.0000
vn 0.2037 0.8549 0.4771
vn -0.7233 0.6045 0.3339
vn -0.8343 -0.4240 -0.3523
vn 0.2810 -0.5640 -0.7765
vn -0.8343 -0.4240 0.3523
vn 0.7140 0.7001 -0.0094
vn 0.8343 -0.4240 0.3523
vn 0.9444 0.3287 -0.0000
vn -0.9444 0.3287 -0.0000
vn 0.9979 0.0651 0.0076
vn -0.9978 0.0631 0.0177
vn 0.9997 0.0255 -0.0000
vn -0.9997 0.0255 -0.0000
vn 0.9978 0.0620 -0.0232
vn -0.9978 0.0620 -0.0232
vn 0.9600 -0.0543 -0.2747
vn -0.8346 0.3322 0.4395
vn 0.7368 -0.0496 -0.6743
vn 0.9054 -0.0616 0.4202
vn -0.8346 0.3322 -0.4395
vn 0.6883 -0.0334 0.7247
vn 0.1305 0.3468 0.9288
vn -0.7889 -0.0552 -0.6120
vn -0.7652 0.3357 0.5494
vn -0.9022 -0.1041 -0.4187
vn -0.9048 -0.0712 0.4199
vn -0.7168 -0.0385 0.6962
vn 0.8346 0.3322 0.4395
vn 0.8346 0.3322 -0.4395
vn 0.3766 0.2946 -0.8783
vn -0.3766 0.2946 -0.8783
vn -0.3765 0.2946 0.8783
vn 0.3765 0.2946 0.8783
vn -0.3766 0.2946 0.8783
vn 0.3766 0.2946 0.8783
vn -0.2982 0.6561 0.6933
vn -0.3905 -0.1173 0.9131
vn 0.7260 0.3354 0.6004
vn -0.0665 0.3452 0.9362
vn 0.3118 0.6138 0.7253
vn 0.3926 -0.0627 0.9176
vn -0.0000 -0.0022 -1.0000
vn -0.0000 -0.9936 0.1134
vn -0.0000 -1.0000 0.0018
vn -0.0000 1.0000 -0.0018
vn -0.0000 0.0022 1.0000
vn -0.0000 0.9773 0.2120
vn 0.9931 0.0002 0.1170
vn -0.9931 0.0003 0.1170
vn -0.0000 0.0023 1.0000
vn -0.0000 -1.0000 0.0017
vn -0.9931 0.0002 0.1170
vn 0.9931 0.0003 0.1170
vn -0.0000 -0.0016 -1.0000
vn 0.1179 -0.8771 0.4655
vn 0.6420 -0.0125 0.7666
vn -0.6420 -0.0125 0.7666
vn -0.1179 -0.8771 0.4655
vn -0.7059 0.7058 -0.0601
vn -0.7058 -0.7060 -0.0584
vn 0.7058 -0.7060 -0.0584
vn 0.7059 0.7058 -0.0601
vn 0.9196 -0.3929 0.0007
vn 0.9196 0.3929 -0.0007
vn -0.9196 -0.3929 0.0007
vn 0.3929 -0.9196 0.0016
vn -0.3928 -0.9196 0.0014
vn -0.9196 0.3929 -0.0006
vn 0.3928 -0.9196 0.0014
vn -0.3928 0.9196 -0.0014
vn 0.3928 0.9196 -0.0014
vn 0.9196 -0.3929 0.0006
vn 0.9196 0.3929 -0.0006
vn -0.9196 -0.3929 0.0006
vn -0.3928 0.9196 -0.0016
vn 0.3928 0.9196 -0.0016
vn -0.3929 -0.9196 0.0016
vn 0.3928 -0.9196 0.0016
vn -0.9196 0.3929 -0.0007
vn -0.3929 -0.9196 0.0014
vn 0.3929 -0.9196 0.0014
vn -0.3928 -0.9196 0.0016
vn -0.7062 0.7061 -0.0520
vn -0.7061 -0.7063 -0.0504
vn 0.7061 -0.7063 -0.0504
vn 0.7062 0.7061 -0.0520
vn 0.3928 0.9196 -0.0000
vn 0.3929 -0.9196 -0.0000
vn -0.3928 0.9196 -0.0000
vn 0.9196 -0.3929 -0.0000
vn -0.3929 0.9196 -0.0014
vn 0.3929 0.9196 -0.0014
vn -0.9015 0.4328 -0.0008
vn -0.0000 0.3825 -0.9239
vn -0.0000 1.0000 -0.0017
vn -0.0000 0.2483 0.9687
vn 0.3904 -0.3923 -0.8329
vn 0.3910 0.3891 -0.8341
vn -0.3910 0.3891 -0.8341
vn -0.3904 -0.3923 -0.8329
vn -0.3929 0.9196 -0.0016
vn -0.9196 0.3929 -0.0000
vn -0.9196 -0.3929 -0.0000
vn 0.9196 0.3928 -0.0000
vn -0.3929 -0.9196 -0.0000
vt 0.396332 0.124924
vt 0.272894 0.173347
vt 0.272894 0.069924
vt 0.348078 -0.000000
vt 0.519770 0.076500
vt 0.450385 0.000296
vt 0.519770 0.179924
vt 0.444586 0.249848
vt 0.342278 0.249552
vt 0.585306 0.192758
vt 0.583095 0.096366
vt 0.624067 0.096378
vt 0.625638 0.164885
vt 0.829478 0.647710
vt 0.758442 0.722264
vt 0.741587 0.685236
vt 0.792072 0.632250
vt 0.585306 0.000000
vt 0.625638 0.027890
vt 0.815671 0.192754
vt 0.815616 0.096134
vt 0.854437 0.096384
vt 0.854476 0.165052
vt 0.234641 0.410396
vt 0.233236 0.506783
vt 0.169844 0.506782
vt 0.171248 0.410395
vt 0.521980 0.192759
vt 0.519770 0.096367
vt 0.751852 0.000002
vt 0.752179 0.096217
vt 0.688744 0.096215
vt 0.688417 -0.000000
vt 0.752179 0.096134
vt 0.752234 0.000001
vt 0.815671 0.000000
vt 0.751852 0.192758
vt 0.688417 0.192756
vt 0.233236 0.314025
vt 0.169844 0.314025
vt 0.752234 0.192754
vt 0.521980 0.000001
vt 0.649413 0.028000
vt 0.649645 0.096381
vt 0.637747 0.096381
vt 0.637515 0.028000
vt 0.635944 0.096378
vt 0.637515 0.164885
vt 0.959483 0.848581
vt 0.958484 0.917084
vt 0.946595 0.917084
vt 0.947593 0.848581
vt 0.637515 0.027890
vt 0.854476 0.028060
vt 0.758442 0.472593
vt 0.831877 0.544294
vt 0.793778 0.558751
vt 0.741587 0.507792
vt 0.106306 0.248457
vt 0.178791 0.242679
vt 0.209167 0.305503
vt 0.116586 0.314025
vt 0.052767 0.198539
vt 0.001931 0.223477
vt 0.866374 0.028060
vt 0.866335 0.096383
vt 0.649413 0.164994
vt 0.637515 0.164994
vt 0.958485 0.780089
vt 0.946595 0.780089
vt 0.866374 0.165052
vt 0.096034 0.071351
vt 0.046807 0.125280
vt 0.001941 0.076679
vt 0.065706 0.008503
vt 0.168519 0.065573
vt 0.158248 -0.000000
vt 0.228017 0.188749
vt 0.222057 0.115491
vt 0.272894 0.090552
vt 0.272894 0.237345
vt 0.900178 0.956424
vt 0.831877 0.956340
vt 0.831877 0.887144
vt 0.900178 0.887227
vt 0.041183 0.374360
vt 0.041183 0.476605
vt 0.002693 0.425375
vt 0.571081 0.766179
vt 0.571082 0.868429
vt 0.519006 0.817309
vt 0.574139 0.413653
vt 0.574139 0.311406
vt 0.612749 0.362458
vt 0.873109 0.553440
vt 0.873107 0.655690
vt 0.831882 0.604557
vt 0.267694 0.906131
vt 0.216588 0.905842
vt 0.216588 0.803600
vt 0.267694 0.803889
vt 0.272894 0.806955
vt 0.350507 0.790258
vt 0.350507 0.892506
vt 0.272894 0.876156
vt 0.350507 0.790258
vt 0.427829 0.807043
vt 0.427829 0.876243
vt 0.350507 0.892505
vt 0.910602 0.862974
vt 0.831877 0.846458
vt 0.831877 0.777256
vt 0.910602 0.760725
vt 0.821101 0.832159
vt 0.741586 0.848670
vt 0.741586 0.746421
vt 0.821101 0.762957
vt 0.056332 0.899371
vt 0.001931 0.899458
vt 0.001931 0.797216
vt 0.056332 0.797129
vt 0.252490 0.487620
vt 0.235298 0.486296
vt 0.238579 0.432696
vt 0.255771 0.434021
vt 0.545047 0.391625
vt 0.545076 0.336189
vt 0.017428 0.513555
vt 0.070308 0.449037
vt 0.070944 0.541122
vt 0.910349 0.743353
vt 0.909701 0.736565
vt 0.445110 0.454193
vt 0.409785 0.507959
vt 0.391787 0.523237
vt 0.391787 0.454191
vt 0.743004 0.722265
vt 0.741985 0.729050
vt 0.597774 0.274634
vt 0.544199 0.249848
vt 0.936203 0.940520
vt 0.919026 0.941987
vt 0.915306 0.888417
vt 0.932484 0.886949
vt 0.910349 0.880348
vt 0.909701 0.887143
vt 0.743004 0.872843
vt 0.741985 0.866045
vt 0.480446 0.670034
vt 0.445110 0.616274
vt 0.498436 0.616264
vt 0.498448 0.685309
vt 0.445123 0.490020
vt 0.445110 0.472603
vt 0.498436 0.472593
vt 0.498449 0.490010
vt 0.444960 0.310483
vt 0.444901 0.327886
vt 0.391577 0.327884
vt 0.391636 0.310481
vt 0.421102 0.249849
vt 0.445110 0.303617
vt 0.391787 0.303615
vt 0.391787 0.249848
vt 0.002688 0.425375
vt 0.001931 0.337623
vt 0.017428 0.337623
vt 0.001931 0.513555
vt 0.519001 0.817309
vt 0.521615 0.685309
vt 0.537102 0.685309
vt 0.521617 0.949281
vt 0.537104 0.949281
vt 0.613271 0.274635
vt 0.612754 0.362458
vt 0.613271 0.450569
vt 0.597774 0.450568
vt 0.835870 0.736565
vt 0.831877 0.604557
vt 0.851340 0.736565
vt 0.835875 0.472593
vt 0.851346 0.472593
vt 0.903332 0.545026
vt 0.903332 0.472593
vt 0.934178 0.474642
vt 0.946595 0.551811
vt 0.099698 0.810342
vt 0.103306 0.889154
vt 0.056332 0.875301
vt 0.056332 0.797129
vt 0.364009 0.475529
vt 0.364009 0.435262
vt 0.070335 0.397957
vt 0.070917 0.314025
vt 0.098656 0.359803
vt 0.098462 0.387301
vt 0.234641 0.405085
vt 0.249930 0.406227
vt 0.526252 0.597319
vt 0.526259 0.637586
vt 0.098462 0.463875
vt 0.098656 0.491562
vt 0.516744 0.324311
vt 0.516444 0.296781
vt 0.516744 0.400886
vt 0.920926 0.860575
vt 0.936203 0.859306
vt 0.588499 0.868432
vt 0.589709 0.939487
vt 0.445141 0.592266
vt 0.498467 0.592256
vt 0.902372 0.655690
vt 0.903332 0.726008
vt 0.409527 0.974848
vt 0.392361 0.973226
vt 0.396101 0.919714
vt 0.413267 0.921336
vt 0.445134 0.609595
vt 0.498460 0.609585
vt 0.903275 0.483653
vt 0.902374 0.553440
vt 0.589537 0.697568
vt 0.588498 0.766182
vt 0.444901 0.430133
vt 0.391577 0.430131
vt 0.544228 0.472593
vt 0.441159 0.696218
vt 0.383775 0.684728
vt 0.377185 0.655941
vt 0.429171 0.643854
vt 0.444960 0.447477
vt 0.391636 0.447475
vt 0.293796 0.973226
vt 0.276626 0.974845
vt 0.272894 0.921332
vt 0.290065 0.919714
vt 0.235445 0.572568
vt 0.272894 0.562050
vt 0.272847 0.624580
vt 0.235427 0.596028
vt 0.253775 0.742722
vt 0.216588 0.764857
vt 0.216588 0.702327
vt 0.253775 0.714875
vt 0.230594 0.620939
vt 0.262788 0.643601
vt 0.227419 0.555209
vt 0.262864 0.543023
vt 0.216588 0.649849
vt 0.216617 0.663418
vt 0.261814 0.760073
vt 0.272691 0.789545
vt 0.272786 0.803600
vt 0.226631 0.783861
vt 0.261814 0.697502
vt 0.226631 0.683283
vt 0.272660 0.675531
vt 0.272786 0.663418
vt 0.216588 0.535353
vt 0.216723 0.523237
vt 0.526267 0.502787
vt 0.526280 0.579361
vt 0.392361 0.892505
vt 0.407630 0.893890
vt 0.526274 0.592333
vt 0.732973 0.851765
vt 0.732973 0.923383
vt 0.688511 0.929880
vt 0.702006 0.852963
vt 0.363823 0.417258
vt 0.363823 0.340683
vt 0.377185 0.788127
vt 0.377185 0.713787
vt 0.424601 0.696218
vt 0.424144 0.774318
vt 0.516444 0.428542
vt 0.402225 0.621346
vt 0.441159 0.612294
vt 0.363875 0.430243
vt 0.278525 0.893889
vt 0.293796 0.892506
vt 0.364009 0.322493
vt 0.364009 0.282225
vt 0.363875 0.327646
vt 0.526256 0.489737
vt 0.169694 0.394316
vt 0.169694 0.457182
vt 0.445334 0.394137
vt 0.445334 0.331271
vt 0.603582 0.598125
vt 0.597368 0.611419
vt 0.292864 0.449363
vt 0.277975 0.436069
vt 0.617117 0.521321
vt 0.617121 0.544906
vt 0.272894 0.389330
vt 0.272894 0.361334
vt 0.411586 0.545622
vt 0.419998 0.523237
vt 0.273043 0.321720
vt 0.292864 0.308428
vt 0.617135 0.569918
vt 0.445110 0.413307
vt 0.617119 0.503813
vt 0.445110 0.312189
vt 0.244986 0.314025
vt 0.255771 0.315446
vt 0.752384 0.935021
vt 0.756499 0.883182
vt 0.764842 0.891917
vt 0.762297 0.923969
vt 0.272948 0.406751
vt 0.270891 0.439729
vt 0.270891 0.492258
vt 0.263600 0.482358
vt 0.263600 0.449879
vt 0.272948 0.343844
vt 0.169844 0.476373
vt 0.169844 0.375256
vt 0.623579 0.851765
vt 0.669757 0.851768
vt 0.688512 0.924715
vt 0.617135 0.924715
vt 0.885136 0.000003
vt 0.931300 -0.000000
vt 0.937730 0.072950
vt 0.866374 0.072950
vt 0.800223 0.935021
vt 0.812934 0.945360
vt 0.741586 0.945360
vt 0.879087 0.135128
vt 0.926934 0.135128
vt 0.937735 0.145468
vt 0.866374 0.145468
vt 0.786332 0.883185
vt 0.747344 0.872843
vt 0.793503 0.872846
vt 0.922812 0.083290
vt 0.892973 0.083292
vt 0.885801 0.072954
vt 0.931968 0.072950
vt 0.783287 0.891918
vt 0.791876 0.923969
vt 0.896828 0.093700
vt 0.913350 0.093699
vt 0.915632 0.122402
vt 0.889139 0.122402
vt 0.255771 0.492149
vt 0.255771 0.439729
vt 0.263600 0.451702
vt 0.263600 0.480728
vt 0.669272 0.799524
vt 0.721410 0.799525
vt 0.721410 0.851765
vt 0.669272 0.851764
vt 0.789865 0.436340
vt 0.737728 0.436340
vt 0.763219 0.218558
vt 0.789865 0.218558
vt 0.669069 0.726575
vt 0.617135 0.726547
vt 0.617135 0.707243
vt 0.669069 0.707271
vt 0.789865 0.455563
vt 0.737728 0.455563
vt 0.325051 0.523237
vt 0.377185 0.523237
vt 0.377161 0.542436
vt 0.325028 0.542436
vt 0.685792 0.472593
vt 0.613271 0.472584
vt 0.613271 0.453280
vt 0.685792 0.453289
vt 0.539442 0.219612
vt 0.559114 0.219612
vt 0.559114 0.239527
vt 0.539442 0.239527
vt 0.351703 0.762038
vt 0.325059 0.762038
vt 0.660384 0.235050
vt 0.686927 0.235036
vt 0.641577 0.489055
vt 0.668119 0.489070
vt 0.628059 0.192759
vt 0.628059 0.212595
vt 0.617955 0.212601
vt 0.617956 0.192764
vt 0.346159 0.919359
vt 0.346159 0.939274
vt 0.336098 0.939274
vt 0.336098 0.919359
vt 0.559114 0.199698
vt 0.565968 0.192759
vt 0.565968 0.219612
vt 0.565968 0.246466
vt 0.539442 0.246465
vt 0.653673 0.208318
vt 0.646787 0.208318
vt 0.646787 0.192759
vt 0.653673 0.198179
vt 0.539442 0.199698
vt 0.539442 0.192759
vt 0.741587 0.707265
vt 0.694661 0.489084
vt 0.737728 0.453262
vt 0.713470 0.235022
vt 0.519770 0.219612
vt 0.519770 0.239526
vt 0.737728 0.472566
vt 0.741586 0.726568
vt 0.669272 0.726576
vt 0.721410 0.726577
vt 0.617135 0.726575
vt 0.617135 0.799523
vt 0.519770 0.199698
vt 0.351683 0.778440
vt 0.325024 0.790258
vt 0.272894 0.542436
vt 0.298414 0.762038
vt 0.272917 0.523237
vt 0.842002 0.455563
vt 0.842002 0.436340
vt 0.816511 0.218558
vt 0.617135 0.851763
vt 0.329694 0.946213
vt 0.317951 0.919359
vt 0.424601 0.754971
vt 0.424601 0.735146
vt 0.431488 0.728464
vt 0.431488 0.755166
vt 0.431485 0.761848
vt 0.431485 0.781672
vt 0.424601 0.781868
vt 0.424601 0.755166
vt 0.336098 0.899445
vt 0.329694 0.892506
vt 0.646787 0.208318
vt 0.639902 0.208318
vt 0.639902 0.198179
vt 0.646787 0.192759
vt 0.346159 0.899445
vt 0.607852 0.212596
vt 0.607852 0.192759
vt 0.617955 0.192764
vt 0.617955 0.212601
vt 0.298394 0.778440
vt 0.660384 0.218558
vt 0.686927 0.219412
vt 0.668119 0.473446
vt 0.694661 0.472593
vt 0.965481 0.019764
vt 0.972974 0.145209
vt 0.967749 0.145527
vt 0.965481 0.145684
vt 0.980422 0.144534
vt 0.975199 0.144905
vt 0.972974 0.145170
vt 0.972974 0.019764
vt 0.939955 0.145434
vt 0.937735 0.145468
vt 0.945316 0.019764
vt 0.945167 0.145419
vt 0.952621 0.145468
vt 0.950385 0.145434
vt 0.721410 0.782798
vt 0.725306 0.782785
vt 0.725306 0.810877
vt 0.721410 0.810890
vt 0.205052 0.506783
vt 0.208953 0.506792
vt 0.208953 0.534884
vt 0.205052 0.534875
vt 0.907245 0.705833
vt 0.911129 0.705843
vt 0.911129 0.733935
vt 0.907245 0.733926
vt 0.181586 0.506783
vt 0.185500 0.506824
vt 0.185500 0.534799
vt 0.181586 0.534758
vt 0.968084 0.454266
vt 0.962848 0.454321
vt 0.962848 0.148122
vt 0.968084 0.148067
vt 0.925735 0.859300
vt 0.920501 0.859306
vt 0.920501 0.551825
vt 0.925735 0.551819
vt 0.957613 0.454266
vt 0.957613 0.148067
vt 0.594930 0.685309
vt 0.600179 0.685432
vt 0.600179 0.991246
vt 0.594930 0.991123
vt 0.589709 0.685445
vt 0.589709 0.991259
vt 0.957025 0.780071
vt 0.951813 0.780089
vt 0.951813 0.472611
vt 0.957025 0.472593
vt 0.946595 0.780079
vt 0.946595 0.472601
vt 0.915306 0.859292
vt 0.915306 0.551811
vt 0.959483 0.780089
vt 0.966976 0.905535
vt 0.961751 0.905853
vt 0.959483 0.906010
vt 0.981870 0.904859
vt 0.976648 0.905231
vt 0.974423 0.905495
vt 0.974423 0.780089
vt 0.196899 0.921467
vt 0.194680 0.921370
vt 0.209540 0.796328
vt 0.202102 0.921760
vt 0.209540 0.922247
vt 0.207311 0.922081
vt 0.267524 0.520300
vt 0.263600 0.520208
vt 0.263600 0.492268
vt 0.267524 0.492360
vt 0.250295 0.515560
vt 0.246392 0.515662
vt 0.246392 0.487722
vt 0.250295 0.487620
vt 0.729207 0.782794
vt 0.729207 0.810886
vt 0.169844 0.506824
vt 0.173758 0.506783
vt 0.173758 0.534758
vt 0.169844 0.534799
vt 0.978554 0.454266
vt 0.973319 0.454321
vt 0.973319 0.148122
vt 0.978554 0.148067
vt 0.957613 0.455556
vt 0.952379 0.455562
vt 0.952379 0.148081
vt 0.957613 0.148075
vt 0.968084 0.148067
vt 0.605400 0.685309
vt 0.610649 0.685432
vt 0.610649 0.991246
vt 0.605400 0.991122
vt 0.600179 0.685445
vt 0.600179 0.991259
vt 0.936753 0.455545
vt 0.931542 0.455563
vt 0.931542 0.148085
vt 0.936753 0.148067
vt 0.926323 0.455553
vt 0.926323 0.148075
vt 0.947183 0.455548
vt 0.947183 0.148067
vt 0.734093 0.726575
vt 0.741587 0.852021
vt 0.736362 0.852339
vt 0.734093 0.852496
vt 0.974423 0.904859
vt 0.969200 0.905231
vt 0.966976 0.905496
vt 0.966976 0.780089
vt 0.182015 0.921998
vt 0.179795 0.922032
vt 0.187376 0.796328
vt 0.187226 0.921983
vt 0.194680 0.922032
vt 0.192445 0.921998
vt 0.189414 0.506783
vt 0.193328 0.506824
vt 0.193328 0.534799
vt 0.189414 0.534758
vt 0.812934 0.872848
vt 0.816847 0.872843
vt 0.816847 0.900935
vt 0.812934 0.900940
vt 0.263598 0.520089
vt 0.259695 0.520190
vt 0.259695 0.492251
vt 0.263598 0.492149
vt 0.721410 0.726588
vt 0.725306 0.726575
vt 0.725306 0.754667
vt 0.721410 0.754680
vt 0.977966 0.778791
vt 0.972731 0.778847
vt 0.972731 0.472648
vt 0.977966 0.472593
vt 0.936165 0.859300
vt 0.930931 0.859306
vt 0.930931 0.551825
vt 0.936165 0.551819
vt 0.967495 0.778791
vt 0.967495 0.472593
vt 0.983187 0.472593
vt 0.988436 0.472716
vt 0.988436 0.778529
vt 0.983187 0.778406
vt 0.977966 0.472729
vt 0.977966 0.778542
vt 0.926324 0.455545
vt 0.921112 0.455563
vt 0.921112 0.148085
vt 0.926324 0.148067
vt 0.915894 0.455553
vt 0.915894 0.148075
vt 0.925736 0.859292
vt 0.925736 0.551811
vt 0.903332 0.551811
vt 0.910825 0.677257
vt 0.905600 0.677575
vt 0.903332 0.677731
vt 0.741541 0.977266
vt 0.736318 0.977638
vt 0.734093 0.977902
vt 0.734093 0.852496
vt 0.257991 0.439695
vt 0.255771 0.439729
vt 0.263352 0.314025
vt 0.263203 0.439680
vt 0.270657 0.439729
vt 0.268421 0.439695
vt 0.197242 0.506783
vt 0.197242 0.534758
vt 0.820731 0.872852
vt 0.820731 0.900945
vt 0.903332 0.677737
vt 0.907245 0.677731
vt 0.907245 0.705824
vt 0.903332 0.705829
vt 0.242468 0.515570
vt 0.242468 0.487630
vt 0.967495 0.778791
vt 0.962260 0.778847
vt 0.962260 0.472648
vt 0.967495 0.472593
vt 0.946595 0.859300
vt 0.941360 0.859306
vt 0.941360 0.551825
vt 0.946595 0.551819
vt 0.957025 0.778791
vt 0.957025 0.472593
vt 0.983775 0.148067
vt 0.989024 0.148190
vt 0.989024 0.454004
vt 0.983775 0.453880
vt 0.978554 0.148203
vt 0.978554 0.454017
vt 0.947183 0.455545
vt 0.941972 0.455563
vt 0.941972 0.148085
vt 0.947183 0.148067
vt 0.936754 0.455553
vt 0.936754 0.148075
vt 0.936165 0.859292
vt 0.936165 0.551811
vt 0.610658 0.685309
vt 0.617135 0.810817
vt 0.612619 0.811055
vt 0.610658 0.811174
vt 0.215979 0.921180
vt 0.211464 0.921464
vt 0.209540 0.921677
vt 0.209540 0.796328
vt 0.954539 0.145438
vt 0.952621 0.145468
vt 0.959190 0.019764
vt 0.959042 0.145426
vt 0.965481 0.145468
vt 0.963550 0.145438
vt 0.251365 0.493529
vt 0.251289 0.490582
vt 0.255695 0.490582
vt 0.255771 0.493529
vt 0.251289 0.496483
vt 0.251320 0.493529
vt 0.255731 0.493529
vt 0.255700 0.496483
vt 0.251358 0.487620
vt 0.255764 0.487620
vt 0.255719 0.499438
vt 0.255733 0.502379
vt 0.251304 0.502379
vt 0.251289 0.499438
vt 0.997482 0.742899
vt 0.992959 0.742947
vt 0.992959 0.472641
vt 0.997482 0.472593
vt 0.830112 0.993711
vt 0.825589 0.993716
vt 0.825589 0.722277
vt 0.830112 0.722272
vt 0.988436 0.742899
vt 0.988436 0.472593
vt 0.993534 0.148067
vt 0.998070 0.148173
vt 0.998070 0.418141
vt 0.993534 0.418034
vt 0.989024 0.148185
vt 0.989024 0.418152
vt 0.441159 0.967654
vt 0.436656 0.967670
vt 0.436656 0.696234
vt 0.441159 0.696218
vt 0.432148 0.967661
vt 0.432148 0.696225
vt 0.821101 0.993703
vt 0.821101 0.722264
vt 0.570785 0.236791
vt 0.567712 0.239755
vt 0.565987 0.239008
vt 0.570097 0.235045
vt 0.577946 0.239888
vt 0.575025 0.236791
vt 0.575769 0.235045
vt 0.579676 0.239187
vt 0.574859 0.247138
vt 0.577932 0.244174
vt 0.579658 0.244920
vt 0.575547 0.248884
vt 0.567698 0.244041
vt 0.570619 0.247138
vt 0.569876 0.248884
vt 0.565968 0.244742
vt 0.219871 0.508529
vt 0.216798 0.511492
vt 0.215073 0.510746
vt 0.219183 0.506783
vt 0.227032 0.511626
vt 0.224111 0.508529
vt 0.224855 0.506783
vt 0.228762 0.510925
vt 0.223945 0.518875
vt 0.227018 0.515912
vt 0.228744 0.516658
vt 0.224633 0.520622
vt 0.216784 0.515779
vt 0.219705 0.518875
vt 0.218962 0.520622
vt 0.215054 0.516479
vt 0.584493 0.236791
vt 0.581420 0.239755
vt 0.579695 0.239008
vt 0.583805 0.235045
vt 0.591654 0.239888
vt 0.588733 0.236791
vt 0.589476 0.235045
vt 0.593384 0.239187
vt 0.588567 0.247138
vt 0.591640 0.244174
vt 0.593365 0.244921
vt 0.589255 0.248884
vt 0.581406 0.244041
vt 0.584327 0.247138
vt 0.583583 0.248884
vt 0.579676 0.244742
vt 0.598201 0.236791
vt 0.595127 0.239755
vt 0.593402 0.239008
vt 0.597513 0.235045
vt 0.605362 0.239888
vt 0.602440 0.236791
vt 0.603184 0.235045
vt 0.607092 0.239187
vt 0.602275 0.247138
vt 0.605348 0.244174
vt 0.607073 0.244921
vt 0.602962 0.248884
vt 0.595114 0.244041
vt 0.598035 0.247138
vt 0.597291 0.248884
vt 0.593384 0.244742
vt 0.658796 0.208278
vt 0.663907 0.210488
vt 0.660834 0.213452
vt 0.656594 0.213452
vt 0.653686 0.206069
vt 0.653672 0.210355
vt 0.656759 0.203105
vt 0.660999 0.203105
vt 0.663921 0.206202
vt 0.669044 0.197932
vt 0.674155 0.200142
vt 0.671082 0.203105
vt 0.666842 0.203105
vt 0.663934 0.195722
vt 0.663921 0.200008
vt 0.667007 0.192759
vt 0.671247 0.192759
vt 0.674169 0.195856
vt 0.658797 0.197932
vt 0.663907 0.200142
vt 0.660834 0.203105
vt 0.656594 0.203105
vt 0.653686 0.195722
vt 0.653673 0.200008
vt 0.656759 0.192759
vt 0.660999 0.192759
vt 0.663921 0.195856
vt 0.633183 0.209889
vt 0.638293 0.212099
vt 0.635220 0.215062
vt 0.630980 0.215062
vt 0.628073 0.207679
vt 0.628059 0.211965
vt 0.631146 0.204716
vt 0.635386 0.204716
vt 0.638307 0.207813
vt 0.238565 0.515661
vt 0.234641 0.515570
vt 0.234641 0.487630
vt 0.238565 0.487722
vt 0.903332 0.705838
vt 0.903332 0.733931
vt 0.201156 0.506824
vt 0.201156 0.534799
vt 0.725323 0.810891
vt 0.729207 0.810900
vt 0.729207 0.838993
vt 0.725323 0.838983
vt 0.185500 0.506824
vt 0.185500 0.534799
vt 0.725306 0.754680
vt 0.729207 0.754689
vt 0.729207 0.782781
vt 0.725306 0.782772
vt 0.201156 0.506796
vt 0.201156 0.534888
vt 0.271427 0.520198
vt 0.271427 0.492259
vt 0.255771 0.520098
vt 0.255771 0.492159
vt 0.721410 0.810896
vt 0.721410 0.838988
vt 0.177672 0.506824
vt 0.177672 0.534799
vt 0.911129 0.677741
vt 0.911129 0.705833
vt 0.729207 0.726584
vt 0.729207 0.754676
vt 0.721410 0.754693
vt 0.721410 0.782785
vt 0.242468 0.515560
vt 0.242468 0.487620
vt 0.106213 0.691715
vt 0.210487 0.691716
vt 0.210486 0.796328
vt 0.106211 0.796327
vt 0.106205 0.692646
vt 0.106211 0.797125
vt 0.001936 0.797129
vt 0.001931 0.692650
vt 0.842002 0.455563
vt 0.842002 0.350889
vt 0.915893 0.350848
vt 0.915893 0.455522
vt 0.519001 0.835307
vt 0.519001 0.939985
vt 0.445110 0.939946
vt 0.445110 0.835268
vt 0.106211 0.901412
vt 0.106211 0.796328
vt 0.179794 0.796328
vt 0.179794 0.901412
vt 0.842002 0.278873
vt 0.886007 0.278848
vt 0.861558 0.200581
vt 0.885845 0.200568
vt 0.001936 0.618934
vt 0.106211 0.618930
vt 0.106214 0.619741
vt 0.210488 0.619742
vt 0.474996 0.763264
vt 0.519001 0.763287
vt 0.293796 0.960017
vt 0.293796 0.892506
vt 0.317951 0.892536
vt 0.317951 0.960047
vt 0.106211 0.541122
vt 0.173207 0.541123
vt 0.474996 0.685309
vt 0.499283 0.685322
vt 0.039211 0.541125
vt 0.106207 0.541122
vt 0.370618 0.913992
vt 0.380447 0.934783
vt 0.363137 0.934783
vt 0.350579 0.922674
vt 0.392289 0.904613
vt 0.392361 0.922128
vt 0.379732 0.892505
vt 0.362422 0.892505
vt 0.350507 0.905160
vt 0.586910 0.213902
vt 0.607796 0.222934
vt 0.595236 0.235045
vt 0.577907 0.235045
vt 0.566025 0.204870
vt 0.565968 0.222388
vt 0.578584 0.192759
vt 0.595913 0.192759
vt 0.607852 0.205416
vt 0.210488 0.621673
vt 0.210532 0.605605
vt 0.216271 0.605608
vt 0.216227 0.621676
vt 0.216257 0.685962
vt 0.216227 0.701960
vt 0.210488 0.701963
vt 0.210518 0.685965
vt 0.430309 0.696225
vt 0.430702 0.712302
vt 0.424995 0.712295
vt 0.424601 0.696218
vt 0.216227 0.669844
vt 0.210488 0.669847
vt 0.216371 0.557243
vt 0.216203 0.573364
vt 0.210488 0.573364
vt 0.210656 0.557243
vt 0.430309 0.728464
vt 0.424601 0.728457
vt 0.216203 0.541122
vt 0.210488 0.541122
vt 0.210532 0.637722
vt 0.216271 0.637725
vt 0.077259 0.910292
vt 0.086271 0.931431
vt 0.068961 0.931431
vt 0.056404 0.919323
vt 0.098114 0.901262
vt 0.098186 0.918777
vt 0.085557 0.889154
vt 0.068247 0.889153
vt 0.056332 0.901808
vt 0.887316 0.166611
vt 0.908202 0.175643
vt 0.895642 0.187754
vt 0.878313 0.187754
vt 0.866431 0.157578
vt 0.866374 0.175096
vt 0.878990 0.145468
vt 0.896319 0.145468
vt 0.908258 0.158125
vt 0.210488 0.653793
vt 0.210532 0.637725
vt 0.216271 0.637728
vt 0.216227 0.653796
vt 0.216257 0.718080
vt 0.216227 0.734078
vt 0.210488 0.734081
vt 0.210518 0.718083
vt 0.214661 0.506790
vt 0.215054 0.522866
vt 0.209347 0.522859
vt 0.208953 0.506783
vt 0.216227 0.701963
vt 0.210488 0.701966
vt 0.216371 0.589485
vt 0.216203 0.605605
vt 0.210488 0.605605
vt 0.210656 0.589485
vt 0.214661 0.539029
vt 0.208953 0.539022
vt 0.216203 0.573364
vt 0.210488 0.573364
vt 0.210532 0.669841
vt 0.216271 0.669844
vt 0.632454 0.194862
vt 0.630152 0.197082
vt 0.628075 0.196183
vt 0.631626 0.192759
vt 0.637818 0.197182
vt 0.635630 0.194862
vt 0.636526 0.192759
vt 0.639902 0.196338
vt 0.635506 0.202612
vt 0.637808 0.200393
vt 0.639886 0.201291
vt 0.636334 0.204716
vt 0.630142 0.200293
vt 0.632330 0.202612
vt 0.631435 0.204716
vt 0.628059 0.201137
vt 0.643740 0.212193
vt 0.647568 0.213848
vt 0.645266 0.216068
vt 0.642090 0.216068
vt 0.639912 0.210538
vt 0.639902 0.213748
vt 0.642214 0.208318
vt 0.645390 0.208318
vt 0.647578 0.210638
vt 0.251293 0.511212
vt 0.251293 0.508258
vt 0.255723 0.508256
vt 0.255723 0.511210
vt 0.251304 0.505326
vt 0.255733 0.505324
vt 0.255732 0.505324
vt 0.251303 0.505324
vt 0.251320 0.499438
vt 0.255731 0.499438
s 0
usemtl Material.010
f 9/1/1 8/2/1 4/3/1 6/4/1
f 7/5/1 9/1/1 6/4/1 2/6/1
f 1/7/1 5/8/1 9/1/1 7/5/1
f 5/8/1 3/9/1 8/2/1 9/1/1
f 15/10/2 16/11/2 25/12/2 24/13/2
f 12/14/3 13/15/3 22/16/3 21/17/3
f 16/11/4 17/18/4 26/19/4 25/12/4
f 13/20/5 14/21/5 23/22/5 22/23/5
f 7/24/6 2/25/6 13/26/6 12/27/6
f 4/28/7 8/29/7 16/11/7 15/10/7
f 3/30/8 5/31/8 10/32/8 17/33/8
f 6/34/9 4/35/9 15/36/9 14/21/9
f 5/31/10 1/37/10 11/38/10 10/32/10
f 1/39/11 7/24/11 12/27/11 11/40/11
f 2/41/12 6/34/12 14/21/12 13/20/12
f 8/29/13 3/42/13 17/18/13 16/11/13
f 26/43/8 19/44/8 18/45/8 33/46/8
f 24/13/7 25/12/7 32/47/7 31/48/7
f 21/49/6 22/50/6 29/51/6 28/52/6
f 25/12/13 26/19/13 33/53/13 32/47/13
f 17/33/14 10/32/14 19/44/14 26/43/14
f 14/21/15 15/36/15 24/54/15 23/22/15
f 10/55/16 11/56/16 20/57/16 19/58/16
f 11/56/17 12/14/17 21/17/17 20/57/17
f 33/59/18 18/60/18 38/61/18 45/62/18
f 32/63/19 33/59/19 45/62/19 44/64/19
f 23/22/9 24/54/9 31/65/9 30/66/9
f 19/44/10 20/67/10 27/68/10 18/45/10
f 20/69/11 21/49/11 28/52/11 27/70/11
f 22/23/12 23/22/12 30/66/12 29/71/12
f 30/72/20 31/73/20 43/74/20 42/75/20
f 29/76/21 30/72/21 42/75/21 41/77/21
f 27/78/22 28/79/22 40/80/22 39/81/22
f 18/60/23 27/78/23 39/81/23 38/61/23
f 31/73/24 32/63/24 44/64/24 43/74/24
f 28/79/25 29/76/25 41/77/25 40/80/25
f 58/82/26 59/83/26 60/84/26 61/85/26
f 62/86/27 63/87/27 64/88/27
f 65/89/28 66/90/28 67/91/28
f 68/92/29 69/93/29 70/94/29
f 71/95/30 72/96/30 73/97/30
f 53/98/31 66/99/31 65/100/31 52/101/31
f 58/102/32 50/103/32 51/104/32 59/105/32
f 55/106/33 61/107/33 60/108/33 54/109/33
f 52/110/34 60/111/34 59/112/34 53/113/34
f 61/114/35 56/115/35 57/116/35 58/117/35
f 71/118/36 57/119/36 56/120/36 72/121/36
f 37/122/6 57/123/6 95/124/6 81/125/6
f 69/93/37 68/92/37 84/126/37 85/127/37
f 46/128/38 63/87/38 83/129/38 74/130/38
f 34/131/39 53/113/39 59/112/39 51/132/39
f 52/133/40 65/134/40 88/135/40 89/136/40
f 50/137/41 58/117/41 57/116/41 37/138/41
f 49/139/42 69/93/42 85/127/42 80/140/42
f 56/141/11 36/142/11 76/143/11 96/144/11
f 52/110/43 35/145/43 54/146/43 60/111/43
f 61/114/44 55/147/44 36/148/44 56/115/44
f 66/149/45 53/150/45 86/151/45 87/152/45
f 50/153/12 37/154/12 81/155/12 90/156/12
f 36/157/10 55/158/10 93/159/10 76/160/10
f 72/161/40 56/162/40 96/163/40 97/164/40
f 42/165/46 43/166/46 48/167/46 62/86/46 64/88/46
f 41/168/47 42/165/47 64/88/47 63/87/47 46/128/47
f 40/169/48 41/170/48 46/171/48 65/89/48 67/91/48
f 39/172/49 40/169/49 67/91/49 66/90/49 47/173/49
f 45/174/50 38/175/50 70/94/50 69/93/50 49/139/50
f 38/175/51 39/176/51 47/177/51 68/92/51 70/94/51
f 43/178/52 44/179/52 73/97/52 72/96/52 48/180/52
f 44/179/53 45/181/53 49/182/53 71/95/53 73/97/53
f 77/183/54 97/184/54 137/185/54 101/186/54
f 78/187/55 87/188/55 147/189/55 146/190/55
f 89/136/56 88/135/56 148/191/56 129/192/56
f 82/193/57 77/194/57 101/195/57 122/196/57
f 81/125/58 95/124/58 135/197/58 105/198/58
f 87/152/59 86/151/59 126/199/59 147/200/59
f 74/130/60 83/129/60 123/201/60 149/202/60
f 80/140/61 85/127/61 125/203/61 141/204/61
f 85/127/62 84/126/62 124/205/62 125/203/62
f 96/144/63 76/143/63 144/206/63 136/207/63
f 62/86/64 48/167/64 77/194/64 82/193/64
f 47/173/65 66/90/65 87/208/65 78/209/65
f 63/87/66 62/86/66 82/193/66 83/129/66
f 51/210/45 50/153/45 90/156/45 91/211/45
f 48/180/67 72/96/67 97/212/67 77/213/67
f 35/214/13 52/215/13 89/216/13 75/217/13
f 34/218/9 51/210/9 91/211/9 79/219/9
f 71/95/68 49/182/68 80/220/68 94/221/68
f 65/89/69 46/171/69 74/222/69 88/223/69
f 55/158/40 54/224/40 92/225/40 93/159/40
f 68/92/70 47/177/70 78/226/70 84/126/70
f 57/227/45 71/228/45 94/229/45 95/230/45
f 54/224/8 35/231/8 75/232/8 92/225/8
f 53/233/7 34/234/7 79/235/7 86/236/7
f 114/237/71 109/238/71 108/239/71 115/240/71
f 116/241/72 107/242/72 106/243/72 117/244/72
f 138/245/73 115/240/73 108/239/73 150/246/73
f 114/237/74 140/247/74 104/248/74 109/238/74
f 110/249/75 138/245/75 150/246/75 151/250/75
f 142/251/76 113/252/76 152/253/76 153/254/76
f 116/241/77 142/251/77 153/254/77 107/242/77
f 100/255/78 117/244/78 106/243/78 145/256/78
f 120/257/79 100/255/79 145/256/79 121/258/79
f 140/247/80 119/259/80 118/260/80 104/248/80
f 91/211/81 90/156/81 130/261/81 131/262/81
f 75/217/82 89/216/82 129/263/82 99/264/82
f 79/219/83 91/211/83 131/262/83 103/265/83
f 94/266/84 80/267/84 141/268/84 134/269/84
f 93/159/85 92/225/85 132/270/85 133/271/85
f 88/272/86 74/273/86 149/274/86 148/275/86
f 84/126/87 78/226/87 146/276/87 124/205/87
f 95/230/59 94/229/59 134/277/59 135/278/59
f 92/225/88 75/232/88 99/279/88 132/270/88
f 86/236/89 79/235/89 103/280/89 126/281/89
f 97/164/56 96/163/56 136/282/56 137/283/56
f 76/160/90 93/159/90 133/271/90 144/284/90
f 83/129/91 82/193/91 122/196/91 123/201/91
f 90/156/92 81/155/92 105/285/92 130/261/92
f 106/286/93 107/287/93 123/201/93 122/196/93
f 108/288/94 109/289/94 125/203/94 124/205/94
f 110/290/95 151/291/95 147/200/95 126/199/95
f 152/292/96 113/293/96 129/192/96 148/191/96
f 114/294/97 115/295/97 131/262/97 130/261/97
f 116/296/98 117/297/98 133/271/98 132/270/98
f 118/298/99 119/299/99 135/278/99 134/277/99
f 120/300/100 121/301/100 137/283/100 136/282/100
f 115/295/101 138/302/101 103/265/101 131/262/101
f 150/303/102 108/288/102 124/205/102 146/276/102
f 138/302/103 110/290/103 126/199/103 103/265/103
f 140/304/104 114/294/104 130/261/104 105/285/104
f 109/289/105 104/305/105 141/204/105 125/203/105
f 119/306/106 140/307/106 105/198/106 135/197/106
f 127/308/107 111/309/107 159/310/107 155/311/107
f 113/293/108 142/312/108 99/279/108 129/192/108
f 139/313/109 102/314/109 154/315/109 158/316/109
f 142/312/110 116/296/110 132/270/110 99/279/110
f 117/297/111 100/317/111 144/284/111 133/271/111
f 100/317/112 120/300/112 136/282/112 144/284/112
f 107/287/113 153/318/113 149/202/113 123/201/113
f 145/319/114 106/286/114 122/196/114 101/195/114
f 121/320/115 145/321/115 101/322/115 137/323/115
f 104/324/116 118/325/116 134/326/116 141/327/116
f 127/308/117 102/328/117 146/329/117 147/330/117
f 143/331/118 128/332/118 148/333/118 149/334/118
f 139/335/119 111/309/119 151/336/119 150/337/119
f 112/338/120 98/339/120 153/340/120 152/341/120
f 111/309/119 127/308/119 147/330/119 151/336/119
f 128/332/120 112/338/120 152/341/120 148/333/120
f 102/328/119 139/335/119 150/337/119 146/329/119
f 98/339/120 143/331/120 149/334/120 153/340/120
f 159/310/119 158/342/119 154/343/119 155/311/119
f 161/344/120 160/345/120 156/346/120 157/347/120
f 111/309/121 139/335/121 158/342/121 159/310/121
f 102/328/122 127/308/122 155/311/122 154/343/122
f 143/348/123 98/349/123 161/350/123 157/351/123
f 112/338/124 128/332/124 156/346/124 160/345/124
f 98/339/125 112/338/125 160/345/125 161/344/125
f 128/332/126 143/331/126 157/347/126 156/346/126
f 195/352/127 179/353/127 164/354/127 187/355/127
f 189/356/128 169/357/128 177/358/128 191/359/128
f 178/360/40 163/361/40 168/362/40 180/363/40
f 187/364/129 164/365/129 169/357/129 189/356/129
f 186/366/130 162/367/130 167/368/130 188/369/130
f 179/370/45 165/371/45 166/372/45 181/373/45
f 194/374/131 193/375/131 173/376/131 185/377/131
f 188/369/132 167/368/132 175/378/132 190/379/132
f 181/373/133 166/372/133 174/380/133 183/381/133
f 180/363/134 168/362/134 176/382/134 182/383/134
f 170/384/40 185/385/40 202/386/40 203/387/40
f 192/388/129 170/389/129 203/390/129 200/391/129
f 193/375/135 172/392/135 176/393/135 191/394/135
f 185/377/131 173/376/131 177/395/131 183/396/131
f 185/397/136 183/398/136 198/399/136 202/400/136
f 172/392/131 184/401/131 182/402/131 176/393/131
f 167/403/137 180/363/137 182/383/137 175/404/137
f 169/405/138 181/373/138 183/381/138 177/406/138
f 192/407/131 194/374/131 185/377/131 170/408/131
f 164/409/45 179/370/45 181/373/45 169/405/45
f 162/410/40 178/360/40 180/363/40 167/403/40
f 186/411/139 165/412/139 179/353/139 195/352/139
f 162/413/139 186/411/139 195/352/139 178/414/139
f 171/415/131 184/401/131 194/374/131 192/407/131
f 173/376/135 193/375/135 191/394/135 177/395/135
f 190/379/130 175/378/130 197/416/130 196/417/130
f 166/418/132 188/369/132 190/379/132 174/419/132
f 184/401/131 172/392/131 193/375/131 194/374/131
f 165/420/130 186/366/130 188/369/130 166/418/130
f 163/421/129 187/364/129 189/356/129 168/422/129
f 168/422/128 189/356/128 191/359/128 176/423/128
f 178/414/127 195/352/127 187/355/127 163/424/127
f 200/391/140 203/390/140 199/425/140 196/426/140
f 205/427/141 201/428/141 197/429/141 204/430/141
f 203/431/142 202/432/142 198/433/142 199/434/142
f 201/435/143 200/391/143 196/426/143 197/436/143
f 182/437/136 184/438/136 205/439/136 204/440/136
f 171/441/129 192/388/129 200/391/129 201/435/129
f 184/442/45 171/443/45 201/444/45 205/445/45
f 174/419/130 190/379/130 196/417/130 199/446/130
f 183/381/45 174/380/45 199/447/45 198/448/45
f 175/404/40 182/383/40 204/449/40 197/450/40
f 214/451/144 211/452/144 209/453/144 213/454/144
f 212/455/145 208/456/145 211/457/145 214/458/145
f 206/459/146 212/460/146 214/461/146 210/462/146
f 210/462/147 214/461/147 213/463/147 207/464/147
f 233/465/148 234/466/148 330/467/148 347/468/148
f 268/469/149 269/470/149 356/471/149 340/472/149
f 238/473/150 239/474/150 350/475/150 329/476/150
f 266/477/151 267/478/151 355/479/151 341/480/151
f 207/481/152 213/482/152 295/483/152 294/484/152
f 206/485/153 210/486/153 293/487/153 292/488/153
f 213/482/154 209/489/154 296/490/154 295/483/154
f 212/491/155 206/492/155 292/493/155 291/494/155
f 208/495/156 212/491/156 291/494/156 298/496/156
f 209/497/157 211/498/157 297/499/157 296/500/157
f 211/498/158 208/501/158 298/502/158 297/499/158
f 210/486/159 207/503/159 294/504/159 293/487/159
f 231/505/144 228/506/144 226/507/144 230/508/144
f 229/509/145 225/510/145 228/511/145 231/512/145
f 223/513/146 229/514/146 231/515/146 227/516/146
f 227/516/147 231/515/147 230/517/147 224/518/147
f 236/519/160 237/520/160 349/521/160 332/522/160
f 252/523/161 253/524/161 337/525/161 352/526/161
f 234/466/149 235/527/149 348/528/149 330/467/149
f 256/529/162 249/530/162 336/531/162 354/532/162
f 224/533/152 230/534/152 303/535/152 302/536/152
f 223/537/153 227/538/153 301/539/153 300/540/153
f 230/534/154 226/481/154 304/541/154 303/535/154
f 229/542/155 223/543/155 300/544/155 299/545/155
f 225/546/156 229/542/156 299/545/156 306/547/156
f 226/548/157 228/549/157 305/550/157 304/551/157
f 228/549/158 225/552/158 306/553/158 305/550/158
f 227/538/159 224/554/159 302/555/159 301/539/159
f 248/556/144 245/557/144 243/558/144 247/559/144
f 246/560/145 242/561/145 245/562/145 248/563/145
f 240/564/146 246/565/146 248/566/146 244/567/146
f 244/567/147 248/566/147 247/568/147 241/569/147
f 232/570/163 233/571/163 347/572/163 331/573/163
f 254/574/164 255/575/164 334/576/164 353/577/164
f 218/578/161 219/579/161 327/580/161 344/581/161
f 250/582/148 251/583/148 335/584/148 351/585/148
f 241/586/165 247/587/165 311/588/165 310/589/165
f 240/590/153 244/591/153 309/592/153 308/593/153
f 247/587/166 243/594/166 312/595/166 311/588/166
f 246/596/155 240/597/155 308/598/155 307/599/155
f 242/600/156 246/596/156 307/599/156 314/601/156
f 243/602/157 245/603/157 313/604/157 312/605/157
f 245/603/158 242/606/158 314/607/158 313/604/158
f 244/591/159 241/608/159 310/609/159 309/592/159
f 265/610/144 262/611/144 260/612/144 264/613/144
f 263/614/145 259/615/145 262/616/145 265/617/145
f 257/618/146 263/619/146 265/620/146 261/621/146
f 261/621/147 265/620/147 264/622/147 258/623/147
f 222/571/167 215/624/167 326/625/167 346/572/167
f 255/575/150 256/626/150 354/627/150 334/576/150
f 220/628/164 221/629/164 324/630/164 345/631/164
f 253/524/160 254/632/160 353/633/160 337/525/160
f 258/634/165 264/635/165 319/636/165 318/637/165
f 257/638/153 261/639/153 317/640/153 316/641/153
f 264/635/166 260/642/166 320/643/166 319/636/166
f 263/644/155 257/645/155 316/646/155 315/647/155
f 259/648/156 263/644/156 315/647/156 322/649/156
f 260/650/157 262/651/157 321/652/157 320/653/157
f 262/651/158 259/654/158 322/655/158 321/652/158
f 261/639/159 258/656/159 318/657/159 317/640/159
f 282/658/168 279/659/168 277/660/168 281/661/168
f 280/662/169 276/663/169 279/664/169 282/665/169
f 274/666/170 280/667/170 282/668/170 278/669/170
f 278/669/171 282/668/171 281/670/171 275/671/171
f 286/672/172 287/673/172 423/674/172 425/675/172
f 283/676/173 284/677/173 424/678/173 422/679/173
f 287/673/174 288/680/174 426/681/174 423/674/174
f 284/682/175 285/683/175 421/684/175 424/685/175
f 275/686/152 281/687/152 415/688/152 414/689/152
f 274/690/153 278/691/153 413/692/153 412/693/153
f 281/687/154 277/694/154 416/695/154 415/688/154
f 280/696/176 274/697/176 412/698/176 411/699/176
f 276/700/177 280/696/177 411/699/177 418/701/177
f 277/702/157 279/703/157 417/704/157 416/705/157
f 279/703/158 276/706/158 418/707/158 417/704/158
f 278/691/159 275/708/159 414/709/159 413/692/159
f 216/710/131 215/711/131 291/712/131 292/713/131
f 218/714/131 217/715/131 293/716/131 294/717/131
f 220/718/131 219/719/131 295/720/131 296/721/131
f 222/722/131 221/723/131 297/724/131 298/725/131
f 217/715/131 216/710/131 292/713/131 293/716/131
f 221/723/131 220/718/131 296/721/131 297/724/131
f 215/711/131 222/722/131 298/725/131 291/712/131
f 219/719/131 218/714/131 294/717/131 295/720/131
f 233/726/131 232/727/131 299/728/131 300/729/131
f 235/730/135 234/731/135 301/732/135 302/733/135
f 237/734/131 236/735/131 303/736/131 304/737/131
f 239/738/135 238/739/135 305/740/135 306/741/135
f 234/731/131 233/726/131 300/729/131 301/732/131
f 238/739/131 237/734/131 304/737/131 305/740/131
f 232/727/131 239/738/131 306/741/131 299/728/131
f 236/735/131 235/730/131 302/733/131 303/736/131
f 250/742/131 249/743/131 307/744/131 308/745/131
f 252/746/131 251/747/131 309/748/131 310/749/131
f 254/750/131 253/751/131 311/752/131 312/753/131
f 256/754/135 255/755/135 313/756/135 314/757/135
f 251/747/135 250/742/135 308/745/135 309/748/135
f 255/755/135 254/750/135 312/753/135 313/756/135
f 249/743/131 256/754/131 314/757/131 307/744/131
f 253/751/131 252/746/131 310/749/131 311/752/131
f 267/758/131 266/759/131 315/760/131 316/761/131
f 269/762/135 268/763/135 317/764/135 318/765/135
f 271/766/131 270/767/131 319/768/131 320/769/131
f 273/770/131 272/771/131 321/772/131 322/773/131
f 268/763/131 267/758/131 316/761/131 317/764/131
f 272/771/131 271/766/131 320/769/131 321/772/131
f 266/759/131 273/770/131 322/773/131 315/760/131
f 270/767/131 269/762/131 318/765/131 319/768/131
f 323/774/131 327/775/131 345/776/131 324/777/131
f 326/778/135 323/774/135 324/777/135 346/779/135
f 343/780/131 325/781/131 323/774/131 326/778/131
f 325/781/131 344/782/131 327/775/131 323/774/131
f 328/783/131 332/784/131 349/785/131 329/786/131
f 331/787/135 328/783/135 329/786/135 350/788/135
f 347/789/131 330/790/131 328/783/131 331/787/131
f 330/790/131 348/791/131 332/784/131 328/783/131
f 333/792/131 337/793/131 353/794/131 334/795/131
f 336/796/135 333/792/135 334/795/135 354/797/135
f 351/798/135 335/799/135 333/792/135 336/796/135
f 335/799/131 352/800/131 337/793/131 333/792/131
f 338/801/131 342/802/131 357/803/131 339/804/131
f 341/805/135 338/801/135 339/804/135 358/806/135
f 355/807/135 340/808/135 338/801/135 341/805/135
f 340/808/131 356/809/131 342/802/131 338/801/131
f 270/810/160 271/811/160 357/812/160 342/813/160
f 237/814/164 238/473/164 329/476/164 349/815/164
f 215/624/163 216/816/163 343/817/163 326/625/163
f 272/818/150 273/819/150 358/820/150 339/821/150
f 239/822/167 232/570/167 331/573/167 350/823/167
f 217/824/149 218/825/149 344/826/149 325/827/149
f 267/828/148 268/469/148 340/472/148 355/829/148
f 235/830/161 236/519/161 332/522/161 348/831/161
f 219/579/160 220/832/160 345/833/160 327/580/160
f 271/834/164 272/818/164 339/821/164 357/835/164
f 249/530/151 250/836/151 351/837/151 336/531/151
f 221/629/150 222/838/150 346/839/150 324/630/150
f 273/836/162 266/477/162 341/480/162 358/837/162
f 251/583/149 252/840/149 352/841/149 335/584/149
f 216/842/148 217/824/148 325/827/148 343/843/148
f 269/844/161 270/810/161 342/813/161 356/845/161
f 359/846/131 362/847/131 361/848/131 360/849/131
f 364/850/127 365/851/127 366/852/127 363/853/127
f 361/854/40 362/855/40 363/856/40 366/857/40
f 359/858/45 360/859/45 365/860/45 364/861/45
f 360/862/129 361/863/129 366/864/129 365/865/129
f 363/856/40 362/855/40 367/866/40 369/867/40
f 369/867/178 367/866/178 371/868/178 373/869/178
f 364/850/179 363/853/179 369/870/179 370/871/179
f 362/847/131 359/846/131 368/872/131 367/873/131
f 359/858/45 364/861/45 370/874/45 368/875/45
f 371/876/180 372/877/180 374/878/180 373/879/180
f 367/873/181 368/872/181 372/880/181 371/881/181
f 368/875/45 370/874/45 374/882/45 372/883/45
f 370/871/127 369/870/127 373/884/127 374/885/127
f 375/886/182 376/887/182 382/888/182 379/889/182
f 378/890/183 383/891/183 376/887/183 375/886/183
f 380/892/184 378/890/184 375/886/184 377/893/184
f 377/893/185 375/886/185 379/889/185 381/894/185
f 384/895/131 388/896/131 391/897/131 385/898/131
f 387/899/135 384/895/135 385/898/135 392/900/135
f 389/901/135 386/902/135 384/895/135 387/899/135
f 386/902/131 390/903/131 388/896/131 384/895/131
f 376/904/149 383/905/149 392/906/149 385/907/149
f 377/908/150 381/909/150 390/910/150 386/911/150
f 383/912/161 378/913/161 387/914/161 392/915/161
f 380/916/164 377/908/164 386/911/164 389/917/164
f 379/918/163 382/919/163 391/920/163 388/921/163
f 378/913/186 380/922/186 389/923/186 387/914/186
f 381/924/167 379/918/167 388/921/167 390/925/167
f 382/926/148 376/904/148 385/907/148 391/927/148
f 393/928/127 394/929/127 400/930/127 397/931/127
f 396/932/127 401/933/127 394/929/127 393/928/127
f 398/934/127 396/932/127 393/928/127 395/935/127
f 395/935/127 393/928/127 397/931/127 399/936/127
f 402/937/131 406/938/131 409/939/131 403/940/131
f 405/941/131 402/937/131 403/940/131 410/942/131
f 407/943/135 404/944/135 402/937/135 405/941/135
f 404/944/131 408/945/131 406/938/131 402/937/131
f 394/946/149 401/947/149 410/948/149 403/949/149
f 395/950/150 399/951/150 408/952/150 404/953/150
f 401/954/161 396/955/161 405/956/161 410/957/161
f 398/958/164 395/950/164 404/953/164 407/959/164
f 397/960/163 400/961/163 409/962/163 406/963/163
f 396/955/186 398/964/186 407/965/186 405/956/186
f 399/966/167 397/960/167 406/963/167 408/967/167
f 400/968/148 394/946/148 403/949/148 409/969/148
f 284/970/131 283/971/131 411/972/131 412/973/131
f 286/974/135 285/975/135 413/976/135 414/977/135
f 288/978/131 287/979/131 415/980/131 416/981/131
f 290/982/131 289/983/131 417/984/131 418/985/131
f 285/975/131 284/970/131 412/973/131 413/976/131
f 289/983/135 288/978/135 416/981/135 417/984/135
f 283/971/135 290/982/135 418/985/135 411/972/135
f 287/979/135 286/974/135 414/977/135 415/980/135
f 419/986/131 423/987/131 426/988/131 420/989/131
f 422/990/131 419/986/131 420/989/131 427/991/131
f 424/992/131 421/993/131 419/986/131 422/990/131
f 421/993/135 425/994/135 423/987/135 419/986/135
f 288/995/187 289/996/187 420/997/187 426/998/187
f 289/996/188 290/999/188 427/1000/188 420/997/188
f 285/683/189 286/1001/189 425/1002/189 421/684/189
f 290/1003/190 283/676/190 422/679/190 427/1004/190
