# Blender 4.5.4 LTS
# www.blender.org
mtllib water.mtl
o Water
v 3.434707 -0.832981 4.546516
v -5.810423 -0.772688 4.546516
v 3.434707 -0.796206 -4.698614
v -5.810423 -0.601178 -4.698614
v 3.632413 -1.034476 -0.076049
v -1.187858 -0.960110 4.744222
v -6.008129 -0.721003 -0.076049
v -1.187858 -0.640538 -4.896320
v -1.187858 -0.964326 -0.076049
v 3.632413 -0.833555 2.334087
v -3.597994 -0.745669 4.744222
v -6.008129 -0.899794 -2.486184
v 1.222277 -0.920165 -4.896320
v 3.632413 -0.625370 -2.486184
v 1.222277 -0.741623 4.744222
v -6.008129 -0.814658 2.334087
v -3.597994 -0.838837 -4.896320
v -1.187858 -0.525063 -2.486184
v -1.187858 -0.776847 2.334087
v 1.222277 -0.926343 -0.076049
v -3.597994 -0.823815 -0.076049
v -3.597994 -0.770539 2.334087
v 1.222277 -0.898586 2.334087
v 1.222277 -0.663627 -2.486184
v -3.597994 -0.852107 -2.486184
v 3.632413 -0.925195 3.539155
v -4.803061 -0.932937 4.744222
v -6.008129 -0.675354 -3.691252
v 2.427345 -0.771351 -4.896320
v 3.632413 -0.701927 -1.281116
v 0.017210 -0.821303 4.744222
v -6.008129 -0.852716 1.129019
v -2.392926 -0.855913 -4.896320
v -1.187858 -0.611795 -3.691252
v -1.187858 -0.718258 1.129019
v 2.427345 -0.938456 -0.076049
v -2.392926 -1.022098 -0.076049
v 3.632413 -0.931351 1.129019
v -2.392926 -0.817803 4.744222
v -6.008129 -0.757567 -1.281116
v 0.017210 -0.968087 -4.896320
v 3.632413 -0.707293 -3.691252
v 2.427345 -0.712659 4.744222
v -6.008129 -0.797531 3.539155
v -4.803061 -0.577465 -4.896320
v -1.187858 -1.024086 -1.281116
v -1.187858 -0.832292 3.539155
v 0.017210 -0.955189 -0.076049
v -4.803061 -0.732090 -0.076049
v -3.597994 -0.901727 1.129019
v -3.597994 -0.662845 3.539155
v -2.392926 -1.146570 2.334087
v -4.803061 -0.901801 2.334087
v 1.222277 -0.954480 1.129019
v 1.222277 -0.679917 3.539155
v 2.427345 -1.162701 2.334087
v 0.017210 -0.692313 2.334087
v 1.222277 -0.823234 -3.691252
v 1.222277 -0.893906 -1.281116
v 2.427345 -0.796516 -2.486184
v 0.017210 -0.582470 -2.486184
v -3.597993 -0.672635 -3.691252
v -3.597994 -0.893924 -1.281116
v -2.392926 -0.846019 -2.486184
v -4.803061 -0.925736 -2.486184
v -4.803061 -0.811396 -1.281116
v -2.392926 -1.066971 -1.281116
v -2.392926 -0.643994 -3.691252
v 0.017210 -0.919164 -1.281116
v 2.427345 -0.754484 -1.281116
v 2.427345 -0.865133 -3.691252
v 0.017210 -0.797314 3.539155
v 2.427345 -1.033090 3.539155
v 2.427345 -0.984906 1.129019
v -4.803061 -1.094623 3.539155
v -2.392926 -0.718556 3.539155
v -2.392926 -1.048103 1.129019
v -4.803061 -0.850981 1.129019
v 0.017210 -0.843828 1.129019
v 0.017210 -0.939187 -3.691252
v -4.803061 -0.736252 -3.691252
v 3.607307 -0.923239 4.116583
v -5.380490 -0.895636 4.719117
v -5.983024 -0.598201 -4.268681
v 3.004774 -0.822106 -4.871214
v 3.632413 -0.924778 -0.678583
v -0.585324 -0.945046 4.744222
v -6.008129 -0.728324 0.526485
v -1.790392 -0.709021 -4.896320
v -1.187858 -0.656259 -4.293786
v -1.187858 -0.811502 0.526485
v 3.029878 -0.862491 -0.076049
v -1.790392 -0.978599 -0.076049
v 3.632413 -0.726435 1.731553
v -2.995460 -0.765045 4.744222
v -6.008129 -0.873918 -1.883650
v 0.619743 -1.043191 -4.896320
v 3.632413 -0.708423 -3.088718
v 1.824811 -0.693913 4.744222
v -6.008129 -0.807632 2.936621
v -4.200528 -0.616853 -4.896320
v -1.187858 -0.820329 -1.883650
v -1.187858 -0.792800 2.936621
v 0.619744 -0.953668 -0.076049
v -4.200527 -0.713752 -0.076049
v -3.597994 -0.877103 0.526485
v -3.597994 -0.749816 2.936621
v -1.790392 -0.984448 2.334087
v -4.200527 -0.741225 2.334087
v 1.222277 -0.884230 0.526485
v 1.222277 -0.775359 2.936621
v 3.029878 -1.022717 2.334087
v 0.619744 -0.778383 2.334087
v 1.222277 -0.992449 -4.293786
v 1.222277 -0.737887 -1.883650
v 3.029878 -0.766317 -2.486184
v 0.619744 -0.629424 -2.486184
v -3.597994 -0.675071 -4.293786
v -3.597994 -0.963128 -1.883650
v -1.790392 -0.720341 -2.486184
v -4.200527 -0.797097 -2.486184
v 3.632413 -0.917967 2.936621
v -4.200528 -0.852589 4.744222
v -6.008129 -0.808895 -3.088718
v 1.824811 -0.814487 -4.896320
v 3.632413 -0.635413 -1.883650
v 0.619743 -0.749853 4.744222
v -6.008129 -0.859516 1.731553
v -2.995460 -0.909990 -4.896320
v -1.187858 -0.493536 -3.088718
v -1.187858 -0.769633 1.731553
v 1.824811 -1.019031 -0.076049
v -2.995460 -0.969832 -0.076049
v 3.632413 -1.041382 0.526485
v -1.790392 -0.896201 4.744222
v -6.008129 -0.702687 -0.678583
v -0.585324 -0.749111 -4.896320
v 3.607307 -0.760059 -4.268681
v 3.004774 -0.743663 4.719117
v -5.983024 -0.760875 4.116583
v -5.380490 -0.588787 -4.871214
v -1.187858 -1.070967 -0.678583
v -1.187858 -0.940213 4.141688
v -0.585324 -0.914849 -0.076049
v -5.405595 -0.766061 -0.076049
v -3.597994 -0.872414 1.731553
v -3.597993 -0.742787 4.141688
v -2.995460 -1.018218 2.334087
v -5.405595 -0.972461 2.334087
v 1.222277 -0.980846 1.731553
v 1.222277 -0.644993 4.141688
v 1.824811 -1.076539 2.334087
v -0.585324 -0.696884 2.334087
v 1.222277 -0.676467 -3.088718
v 1.222277 -1.012290 -0.678583
v 1.824811 -0.762481 -2.486184
v -0.585324 -0.529690 -2.486184
v -3.597994 -0.724898 -3.088718
v -3.597994 -0.828803 -0.678583
v -2.995460 -0.880259 -2.486184
v -5.405595 -0.965390 -2.486184
v -4.803061 -0.910373 -1.883650
v -4.803061 -0.704588 -0.678583
v -4.200527 -0.814572 -1.281116
v -5.405595 -0.831047 -1.281116
v -2.392926 -0.999318 -1.883650
v -2.392926 -1.043729 -0.678583
v -1.790392 -1.063086 -1.281116
v -2.995460 -0.960299 -1.281116
v -2.392926 -0.688532 -4.293786
v -2.392926 -0.730782 -3.088718
v -1.790392 -0.542448 -3.691252
v -2.995460 -0.720638 -3.691252
v 0.017210 -0.703732 -1.883650
v 0.017210 -0.996867 -0.678583
v 0.619744 -0.888770 -1.281116
v -0.585324 -0.987854 -1.281116
v 2.427345 -0.769880 -1.883650
v 2.427345 -0.861963 -0.678582
v 3.029878 -0.609526 -1.281116
v 1.824811 -0.838985 -1.281116
v 2.427345 -0.823460 -4.293786
v 2.427345 -0.864852 -3.088718
v 3.029878 -0.824876 -3.691252
v 1.824811 -0.802108 -3.691252
v 0.017210 -0.690052 2.936621
v 0.017210 -0.848597 4.141688
v 0.619744 -0.639686 3.539155
v -0.585324 -0.849409 3.539155
v 2.427345 -1.170781 2.936621
v 2.427345 -0.874328 4.141688
v 3.029878 -1.070581 3.539155
v 1.824811 -0.847399 3.539155
v 2.427345 -0.960433 0.526485
v 2.427345 -1.062752 1.731553
v 3.029878 -0.906739 1.129019
v 1.824811 -0.998841 1.129019
v -4.803061 -0.975012 2.936621
v -4.803061 -1.044171 4.141688
v -4.200527 -0.899269 3.539155
v -5.405595 -1.041262 3.539154
v -2.392926 -0.872199 2.936621
v -2.392926 -0.735544 4.141688
v -1.790392 -0.737223 3.539155
v -2.995460 -0.655509 3.539155
v -2.392926 -1.037394 0.526485
v -2.392926 -1.153411 1.731553
v -1.790392 -0.904015 1.129019
v -2.995460 -1.076588 1.129019
v -4.803061 -0.829206 0.526485
v -4.803061 -0.823622 1.731553
v -4.200527 -0.755324 1.129019
v -5.405595 -0.928916 1.129019
v 0.017210 -0.879134 0.526485
v 0.017210 -0.717378 1.731553
v 0.619744 -0.907463 1.129019
v -0.585324 -0.713070 1.129019
v 0.017210 -1.048822 -4.293786
v 0.017210 -0.701283 -3.088718
v 0.619744 -0.951576 -3.691252
v -0.585324 -0.768514 -3.691252
v -4.803061 -0.619074 -4.293786
v -4.803061 -0.849124 -3.088718
v -4.200527 -0.660280 -3.691252
v -5.405595 -0.787298 -3.691252
v -5.401412 -0.664677 -4.289602
v -0.585324 -0.842513 -4.293786
v -0.585324 -0.843199 0.526485
v -5.405595 -0.816609 0.526485
v -2.995460 -1.049396 0.526485
v -2.995460 -0.807156 2.936620
v -5.405595 -1.035120 2.936620
v 1.824811 -0.986275 0.526485
v 1.824811 -1.015794 2.936620
v -0.585324 -0.710317 2.936620
v 1.824811 -0.854946 -4.293786
v 1.824811 -0.783422 -1.883650
v -0.585324 -0.792102 -1.883650
v -2.995460 -0.760134 -4.293786
v -2.995460 -0.991560 -1.883650
v -5.405595 -0.968170 -1.883650
v -4.200527 -0.872295 -1.883650
v -4.200527 -0.749673 -0.678583
v -5.405595 -0.768347 -0.678583
v -1.790392 -0.901956 -1.883650
v -1.790392 -1.056612 -0.678583
v -2.995460 -0.925081 -0.678583
v -1.790392 -0.623307 -4.293786
v -1.790392 -0.561711 -3.088718
v -2.995460 -0.797739 -3.088718
v 0.619743 -0.747474 -1.883650
v 0.619743 -0.975915 -0.678583
v -0.585324 -1.048840 -0.678583
v 3.029878 -0.665071 -1.883650
v 3.029878 -0.719942 -0.678582
v 1.824811 -0.970044 -0.678583
v 3.025694 -0.814085 -4.289601
v 3.029878 -0.847621 -3.088718
v 1.824811 -0.727920 -3.088718
v 0.619743 -0.676185 2.936620
v 0.619744 -0.728299 4.141688
v -0.585324 -0.960982 4.141688
v 3.029878 -1.113066 2.936621
v 3.025694 -0.929939 4.137504
v 1.824811 -0.733418 4.141688
v 3.029878 -0.920662 0.526485
v 3.029878 -0.869929 1.731553
v 1.824811 -1.090203 1.731553
v -4.200527 -0.814826 2.936620
v -4.200527 -0.912564 4.141688
v -5.401411 -0.980840 4.137504
v -1.790392 -0.855513 2.936620
v -1.790392 -0.807951 4.141688
v -2.995460 -0.722501 4.141688
v -1.790392 -0.844942 0.526485
v -1.790392 -1.003527 1.731553
v -2.995460 -1.093897 1.731553
v -4.200527 -0.768930 0.526485
v -4.200527 -0.726268 1.731553
v -5.405595 -0.941827 1.731553
v 0.619743 -0.883430 0.526485
v 0.619743 -0.844743 1.731553
v -0.585324 -0.643129 1.731553
v 0.619743 -1.123578 -4.293786
v 0.619743 -0.730368 -3.088718
v -0.585324 -0.568374 -3.088718
v -4.200527 -0.593194 -4.293786
v -4.200527 -0.719569 -3.088718
v -5.405595 -0.903832 -3.088718
vn -0.0780 0.9777 0.1950
vn -0.0457 0.9942 0.0978
vn 0.0694 0.9940 0.0849
vn 0.1498 0.9741 0.1692
vn 0.2955 0.9445 -0.1439
vn 0.3297 0.9344 0.1350
vn 0.2367 0.9676 0.0876
vn 0.2725 0.9575 -0.0941
vn 0.1358 0.9815 -0.1347
vn 0.0627 0.9906 -0.1214
vn -0.0145 0.9830 -0.1831
vn 0.0216 0.9830 -0.1822
vn -0.0538 0.9924 0.1104
vn -0.0176 0.9924 0.1216
vn 0.1099 0.9928 0.0477
vn 0.1328 0.9726 0.1910
vn -0.0336 0.9989 0.0314
vn 0.0333 0.9964 0.0784
vn 0.2539 0.9614 0.1060
vn 0.2766 0.9601 0.0413
vn 0.1025 0.9643 -0.2443
vn 0.1472 0.9175 -0.3696
vn 0.2412 0.9530 -0.1833
vn 0.0407 0.9801 -0.1941
vn -0.0056 0.9946 0.1038
vn -0.1072 0.9880 0.1114
vn 0.3042 0.9516 0.0439
vn 0.3642 0.9313 -0.0031
vn -0.0330 0.9990 0.0307
vn -0.0880 0.9961 -0.0089
vn 0.1592 0.9853 -0.0612
vn 0.1203 0.9904 0.0681
vn 0.2643 0.9348 -0.2374
vn 0.1960 0.9797 -0.0428
vn 0.3246 0.9350 -0.1427
vn 0.3139 0.9275 -0.2031
vn -0.0587 0.9780 0.1999
vn -0.0206 0.9997 0.0093
vn -0.1336 0.9907 0.0242
vn -0.0536 0.9878 0.1464
vn 0.0262 0.9996 -0.0093
vn -0.0616 0.9952 0.0764
vn -0.1970 0.9761 0.0913
vn -0.1284 0.9753 -0.1797
vn -0.0810 0.9962 0.0332
vn 0.0170 0.9998 -0.0047
vn 0.1186 0.9899 0.0782
vn -0.0077 0.9849 0.1729
vn -0.1224 0.9393 0.3205
vn -0.0281 0.9525 0.3033
vn -0.0178 0.9074 0.4199
vn -0.0507 0.9480 0.3143
vn -0.1218 0.9901 -0.0690
vn -0.1003 0.9622 -0.2533
vn 0.1245 0.9602 -0.2499
vn 0.1097 0.9934 -0.0346
vn 0.0945 0.9951 0.0301
vn -0.0215 0.9765 0.2144
vn 0.0461 0.9824 0.1812
vn 0.0782 0.9935 -0.0828
vn -0.0629 0.9794 -0.1919
vn -0.0806 0.9967 -0.0104
vn 0.1315 0.9911 -0.0190
vn 0.1350 0.9696 -0.2040
vn 0.1391 0.9848 -0.1037
vn 0.1188 0.9813 0.1516
vn -0.1369 0.9894 0.0491
vn -0.0287 0.9912 -0.1289
vn 0.1550 0.9873 -0.0335
vn 0.1297 0.9858 -0.1064
vn 0.0396 0.9892 -0.1410
vn 0.0222 0.9997 -0.0070
vn -0.0808 0.9965 0.0209
vn -0.0684 0.9879 -0.1390
vn 0.1142 0.9888 -0.0965
vn 0.0915 0.9957 0.0132
vn -0.0954 0.9527 0.2885
vn -0.2089 0.9093 0.3598
vn -0.1756 0.9485 0.2636
vn -0.0823 0.9791 0.1859
vn 0.0001 0.9885 -0.1515
vn -0.0204 0.9992 0.0335
vn 0.0075 0.9997 -0.0247
vn -0.0253 0.9963 -0.0824
vn 0.1404 0.9899 0.0190
vn 0.1836 0.9818 -0.0476
vn 0.1333 0.9877 -0.0822
vn 0.1970 0.9799 0.0323
vn 0.0841 0.9911 -0.1031
vn -0.0294 0.9979 -0.0580
vn -0.1698 0.9644 -0.2026
vn -0.1364 0.9853 -0.1025
vn -0.2111 0.9655 0.1524
vn 0.0010 0.9966 -0.0819
vn -0.2183 0.9721 0.0856
vn -0.2320 0.9485 0.2156
vn -0.0826 0.9834 0.1614
vn -0.1173 0.9840 0.1338
vn 0.0992 0.9894 0.1062
vn 0.0823 0.9818 0.1709
vn -0.0036 0.9709 0.2395
vn 0.0202 0.9873 0.1576
vn 0.0736 0.9782 0.1943
vn 0.0106 0.9588 0.2838
vn 0.0075 0.9960 -0.0894
vn 0.0339 0.9852 0.1680
vn -0.0422 0.9899 0.1354
vn -0.0186 0.9984 -0.0530
vn -0.0096 0.9895 -0.1442
vn -0.0990 0.9886 0.1138
vn -0.0482 0.9949 0.0891
vn -0.0582 0.9790 -0.1955
vn 0.0520 0.9986 0.0091
vn -0.1398 0.9874 -0.0747
vn -0.1107 0.9883 -0.1049
vn -0.2026 0.9776 -0.0575
vn 0.2927 0.9359 0.1959
vn 0.2313 0.9377 0.2593
vn -0.2282 0.9581 0.1732
vn -0.1752 0.9687 0.1761
vn -0.1539 0.9828 0.1023
vn -0.1549 0.9691 0.1918
vn -0.0787 0.9762 0.2021
vn 0.0418 0.9987 -0.0306
vn -0.1428 0.9892 -0.0318
vn -0.0731 0.9969 -0.0295
vn 0.0342 0.9987 0.0366
vn -0.0414 0.9982 0.0438
vn -0.2245 0.9655 -0.1317
vn -0.2084 0.9779 0.0194
vn -0.0476 0.9987 0.0186
vn -0.0390 0.9916 -0.1231
vn 0.1404 0.9897 -0.0277
vn 0.1634 0.9847 -0.0608
vn 0.0247 0.9833 -0.1803
vn 0.1238 0.9922 0.0179
vn 0.1142 0.9876 -0.1081
vn 0.1761 0.9676 -0.1810
vn 0.0596 0.9945 -0.0862
vn -0.1407 0.9884 0.0580
vn -0.0754 0.9924 0.0973
vn -0.0357 0.9984 0.0445
vn -0.2233 0.9682 0.1124
vn -0.1571 0.9876 -0.0047
vn -0.1922 0.9807 -0.0352
vn -0.1340 0.9820 0.1327
vn 0.0309 0.9833 0.1791
vn 0.0047 1.0000 0.0033
vn -0.2718 0.9619 -0.0281
vn -0.3009 0.9438 0.1369
vn -0.1614 0.9836 0.0803
vn -0.0166 0.9889 -0.1479
vn 0.0294 0.9656 -0.2583
vn -0.1286 0.9841 -0.1226
vn 0.0742 0.9677 -0.2410
vn 0.0636 0.9578 -0.2803
vn 0.1296 0.9780 -0.1633
vn 0.2556 0.9429 -0.2134
vn 0.2062 0.9711 -0.1200
vn 0.0337 0.9983 0.0473
vn 0.1191 0.9877 -0.1016
vn 0.2357 0.9704 0.0524
vn -0.0954 0.9932 0.0661
vn -0.0974 0.9952 0.0087
vn -0.2605 0.9438 0.2036
vn -0.0963 0.9759 -0.1958
vn -0.2193 0.9751 0.0332
vn -0.2609 0.9448 0.1982
vn 0.0485 0.9963 0.0713
vn -0.0340 0.9897 0.1390
vn 0.1259 0.9873 0.0965
vn 0.2312 0.9698 -0.0772
vn -0.2427 0.9701 -0.0020
vn -0.0296 0.9986 0.0438
vn -0.2555 0.9597 0.1169
vn -0.2793 0.9467 0.1603
vn -0.2235 0.9736 -0.0461
vn -0.3186 0.9451 0.0731
vn -0.2617 0.9647 -0.0297
vn -0.1716 0.9754 -0.1386
vn 0.0882 0.9824 -0.1645
vn 0.0966 0.9911 -0.0918
vn 0.3646 0.9272 -0.0856
vn 0.3409 0.9307 -0.1327
vn 0.0268 0.9975 -0.0652
vn -0.2180 0.9717 -0.0911
vn -0.1393 0.9391 -0.3143
vn 0.0016 0.9755 -0.2201
vn 0.1600 0.9832 0.0882
vn 0.1834 0.9724 0.1442
vn 0.0752 0.9945 0.0724
vn 0.1230 0.9826 0.1390
vn 0.0542 0.9932 0.1029
vn 0.0629 0.9956 0.0694
vn -0.0227 0.9924 0.1210
vn -0.0008 0.9993 0.0377
vn -0.1789 0.9835 -0.0279
vn -0.0385 0.9722 -0.2311
vn -0.1913 0.9768 -0.0959
vn -0.2686 0.9617 0.0557
vn -0.3440 0.9389 -0.0092
vn -0.3266 0.9378 0.1174
vn -0.2338 0.9585 0.1629
vn -0.2506 0.9679 -0.0208
vn 0.1537 0.9858 -0.0675
vn 0.0256 0.9945 0.1012
vn 0.3124 0.9499 -0.0095
vn 0.3594 0.9232 -0.1360
vn 0.2067 0.9784 0.0089
vn 0.1775 0.9802 0.0882
vn -0.0646 0.9900 0.1251
vn -0.1283 0.9917 0.0067
vn 0.1437 0.9871 -0.0712
vn 0.2357 0.9707 -0.0470
vn -0.1580 0.9864 -0.0462
vn -0.2087 0.9751 0.0754
vn -0.1542 0.9840 0.0889
vn -0.1606 0.9869 -0.0118
vn 0.1304 0.9913 0.0162
vn 0.1954 0.9807 -0.0116
vn 0.0395 0.9962 0.0779
vn -0.0219 0.9954 -0.0928
vn 0.0023 0.9927 -0.1205
vn 0.0563 0.9984 -0.0093
vn 0.2065 0.9711 -0.1198
vn 0.1502 0.9882 -0.0298
vn 0.1547 0.9760 -0.1532
vn 0.1739 0.9819 -0.0745
vn 0.0577 0.9981 0.0238
vn 0.1656 0.9734 -0.1586
vn -0.1086 0.9940 -0.0153
vn -0.1687 0.9844 0.0498
vn -0.2029 0.9422 -0.2668
vn -0.2048 0.9710 0.1230
vn 0.1223 0.9837 0.1315
vn 0.0702 0.9714 -0.2270
vn -0.0163 0.9954 -0.0940
vn -0.1431 0.9466 -0.2890
vn 0.0321 0.9340 -0.3558
vn 0.0620 0.9819 -0.1791
vn 0.1510 0.9802 -0.1281
vn 0.2304 0.9146 -0.3324
vn 0.1827 0.9506 -0.2512
vn 0.0658 0.9978 -0.0059
vn 0.0778 0.9955 0.0534
vn 0.2418 0.9588 -0.1491
vn 0.0112 0.9998 0.0149
vn -0.0833 0.9851 0.1506
vn 0.0493 0.9847 0.1673
vn 0.0146 0.9956 0.0922
vn -0.1665 0.9761 0.1395
vn -0.2079 0.9702 0.1241
vn -0.0776 0.9905 0.1136
vn -0.0859 0.9787 0.1863
vn 0.1658 0.9656 0.2004
vn 0.1310 0.9835 0.1244
vt 0.875000 0.125000
vt 0.937500 0.125000
vt 0.937500 0.062500
vt 0.875000 0.062500
vt 1.000000 0.125000
vt 1.000000 0.062500
vt 1.000000 0.000000
vt 0.937500 0.000000
vt 0.875000 0.000000
vt 0.875000 0.625000
vt 0.937500 0.625000
vt 0.937500 0.562500
vt 0.875000 0.562500
vt 1.000000 0.625000
vt 1.000000 0.562500
vt 1.000000 0.500000
vt 0.937500 0.500000
vt 0.875000 0.500000
vt 0.375000 0.625000
vt 0.437500 0.625000
vt 0.437500 0.562500
vt 0.375000 0.562500
vt 0.500000 0.625000
vt 0.500000 0.562500
vt 0.500000 0.500000
vt 0.437500 0.500000
vt 0.375000 0.500000
vt 0.375000 0.125000
vt 0.437500 0.125000
vt 0.437500 0.062500
vt 0.375000 0.062500
vt 0.500000 0.125000
vt 0.500000 0.062500
vt 0.500000 0.000000
vt 0.437500 0.000000
vt 0.375000 0.000000
vt 0.375000 0.375000
vt 0.437500 0.375000
vt 0.437500 0.312500
vt 0.375000 0.312500
vt 0.500000 0.375000
vt 0.500000 0.312500
vt 0.500000 0.250000
vt 0.437500 0.250000
vt 0.375000 0.250000
vt 0.125000 0.375000
vt 0.187500 0.375000
vt 0.187500 0.312500
vt 0.125000 0.312500
vt 0.250000 0.375000
vt 0.250000 0.312500
vt 0.250000 0.250000
vt 0.187500 0.250000
vt 0.125000 0.250000
vt 0.125000 0.125000
vt 0.187500 0.125000
vt 0.187500 0.062500
vt 0.125000 0.062500
vt 0.250000 0.125000
vt 0.250000 0.062500
vt 0.250000 0.000000
vt 0.187500 0.000000
vt 0.125000 0.000000
vt 0.375000 0.875000
vt 0.437500 0.875000
vt 0.437500 0.812500
vt 0.375000 0.812500
vt 0.500000 0.875000
vt 0.500000 0.812500
vt 0.500000 0.750000
vt 0.437500 0.750000
vt 0.375000 0.750000
vt 0.125000 0.875000
vt 0.187500 0.875000
vt 0.187500 0.812500
vt 0.125000 0.812500
vt 0.250000 0.875000
vt 0.250000 0.812500
vt 0.250000 0.750000
vt 0.187500 0.750000
vt 0.125000 0.750000
vt 0.125000 0.625000
vt 0.187500 0.625000
vt 0.187500 0.562500
vt 0.125000 0.562500
vt 0.250000 0.625000
vt 0.250000 0.562500
vt 0.250000 0.500000
vt 0.187500 0.500000
vt 0.125000 0.500000
vt 0.875000 0.875000
vt 0.937500 0.875000
vt 0.937500 0.812500
vt 0.875000 0.812500
vt 1.000000 0.875000
vt 1.000000 0.812500
vt 1.000000 0.750000
vt 0.937500 0.750000
vt 0.875000 0.750000
vt 0.625000 0.875000
vt 0.687500 0.875000
vt 0.687500 0.812500
vt 0.625000 0.812500
vt 0.750000 0.875000
vt 0.750000 0.812500
vt 0.750000 0.750000
vt 0.687500 0.750000
vt 0.625000 0.750000
vt 0.625000 0.625000
vt 0.687500 0.625000
vt 0.687500 0.562500
vt 0.625000 0.562500
vt 0.750000 0.625000
vt 0.750000 0.562500
vt 0.750000 0.500000
vt 0.687500 0.500000
vt 0.625000 0.500000
vt 0.875000 0.375000
vt 0.937500 0.375000
vt 0.937500 0.312500
vt 0.875000 0.312500
vt 1.000000 0.375000
vt 1.000000 0.312500
vt 1.000000 0.250000
vt 0.937500 0.250000
vt 0.875000 0.250000
vt 0.625000 0.375000
vt 0.687500 0.375000
vt 0.687500 0.312500
vt 0.625000 0.312500
vt 0.750000 0.375000
vt 0.750000 0.312500
vt 0.750000 0.250000
vt 0.687500 0.250000
vt 0.625000 0.250000
vt 0.625000 0.125000
vt 0.687500 0.125000
vt 0.687500 0.062500
vt 0.625000 0.062500
vt 0.750000 0.125000
vt 0.750000 0.062500
vt 0.750000 0.000000
vt 0.687500 0.000000
vt 0.625000 0.000000
vt 0.687500 0.187500
vt 0.625000 0.187500
vt 0.750000 0.187500
vt 0.750000 0.125000
vt 0.625000 0.125000
vt 0.562500 0.250000
vt 0.562500 0.187500
vt 0.500000 0.187500
vt 0.562500 0.125000
vt 0.500000 0.125000
vt 0.562500 0.125000
vt 0.562500 0.062500
vt 0.562500 0.000000
vt 0.687500 0.437500
vt 0.625000 0.437500
vt 0.750000 0.437500
vt 0.562500 0.500000
vt 0.562500 0.437500
vt 0.500000 0.437500
vt 0.562500 0.375000
vt 0.562500 0.312500
vt 0.937500 0.437500
vt 0.875000 0.437500
vt 1.000000 0.437500
vt 0.812500 0.500000
vt 0.812500 0.437500
vt 0.875000 0.500000
vt 0.875000 0.437500
vt 0.875000 0.375000
vt 0.812500 0.375000
vt 0.812500 0.312500
vt 0.875000 0.312500
vt 0.875000 0.250000
vt 0.812500 0.250000
vt 0.687500 0.687500
vt 0.625000 0.687500
vt 0.750000 0.687500
vt 0.562500 0.750000
vt 0.562500 0.687500
vt 0.500000 0.687500
vt 0.562500 0.625000
vt 0.562500 0.562500
vt 0.625000 1.000000
vt 0.687500 1.000000
vt 0.687500 0.937500
vt 0.625000 0.937500
vt 0.750000 1.000000
vt 0.750000 0.937500
vt 0.687500 0.875000
vt 0.625000 0.875000
vt 0.500000 1.000000
vt 0.562500 1.000000
vt 0.562500 0.937500
vt 0.500000 0.937500
vt 0.562500 0.875000
vt 0.500000 0.875000
vt 0.562500 0.875000
vt 0.562500 0.812500
vt 0.875000 1.000000
vt 0.937500 1.000000
vt 0.937500 0.937500
vt 0.875000 0.937500
vt 1.000000 1.000000
vt 1.000000 0.937500
vt 0.812500 1.000000
vt 0.812500 0.937500
vt 0.812500 0.875000
vt 0.812500 0.875000
vt 0.812500 0.812500
vt 0.875000 0.875000
vt 0.812500 0.750000
vt 0.187500 0.687500
vt 0.125000 0.687500
vt 0.250000 0.687500
vt 0.000000 0.750000
vt 0.062500 0.750000
vt 0.062500 0.687500
vt 0.000000 0.687500
vt 0.125000 0.750000
vt 0.125000 0.625000
vt 0.062500 0.625000
vt 0.000000 0.625000
vt 0.062500 0.562500
vt 0.000000 0.562500
vt 0.125000 0.562500
vt 0.125000 0.500000
vt 0.062500 0.500000
vt 0.000000 0.500000
vt 0.125000 1.000000
vt 0.187500 1.000000
vt 0.187500 0.937500
vt 0.125000 0.937500
vt 0.250000 1.000000
vt 0.250000 0.937500
vt 0.187500 0.875000
vt 0.125000 0.875000
vt 0.000000 1.000000
vt 0.062500 1.000000
vt 0.062500 0.937500
vt 0.000000 0.937500
vt 0.062500 0.875000
vt 0.000000 0.875000
vt 0.062500 0.812500
vt 0.000000 0.812500
vt 0.125000 0.812500
vt 0.375000 1.000000
vt 0.437500 1.000000
vt 0.437500 0.937500
vt 0.375000 0.937500
vt 0.437500 0.875000
vt 0.312500 1.000000
vt 0.312500 0.937500
vt 0.312500 0.875000
vt 0.312500 0.875000
vt 0.312500 0.812500
vt 0.312500 0.750000
vt 0.187500 0.187500
vt 0.125000 0.187500
vt 0.250000 0.187500
vt 0.000000 0.250000
vt 0.062500 0.250000
vt 0.062500 0.187500
vt 0.000000 0.187500
vt 0.125000 0.250000
vt 0.125000 0.187500
vt 0.062500 0.125000
vt 0.000000 0.125000
vt 0.062500 0.062500
vt 0.000000 0.062500
vt 0.062500 0.000000
vt 0.000000 0.000000
vt 0.187500 0.437500
vt 0.125000 0.437500
vt 0.250000 0.437500
vt 0.062500 0.437500
vt 0.000000 0.437500
vt 0.125000 0.375000
vt 0.062500 0.375000
vt 0.000000 0.375000
vt 0.062500 0.312500
vt 0.000000 0.312500
vt 0.125000 0.312500
vt 0.437500 0.437500
vt 0.375000 0.437500
vt 0.312500 0.500000
vt 0.312500 0.437500
vt 0.312500 0.375000
vt 0.312500 0.312500
vt 0.312500 0.250000
vt 0.437500 0.187500
vt 0.375000 0.187500
vt 0.437500 0.125000
vt 0.312500 0.187500
vt 0.312500 0.125000
vt 0.312500 0.125000
vt 0.312500 0.062500
vt 0.312500 0.000000
vt 0.437500 0.687500
vt 0.375000 0.687500
vt 0.312500 0.687500
vt 0.312500 0.625000
vt 0.312500 0.562500
vt 0.937500 0.687500
vt 0.875000 0.687500
vt 1.000000 0.687500
vt 0.812500 0.687500
vt 0.875000 0.687500
vt 0.875000 0.625000
vt 0.812500 0.625000
vt 0.812500 0.562500
vt 0.875000 0.562500
vt 0.937500 0.187500
vt 0.875000 0.187500
vt 1.000000 0.187500
vt 0.812500 0.187500
vt 0.875000 0.187500
vt 0.875000 0.125000
vt 0.812500 0.125000
vt 0.812500 0.062500
vt 0.812500 0.000000
s 0
usemtl Material.001
f 81/1/1 222/2/1 226/3/1 225/4/1
f 222/2/2 45/5/2 141/6/2 226/3/2
f 226/3/3 141/6/3 4/7/3 84/8/3
f 225/4/4 226/3/4 84/8/4 28/9/4
f 80/10/5 218/11/5 227/12/5 221/13/5
f 218/11/6 41/14/6 137/15/6 227/12/6
f 227/12/7 137/15/7 8/16/7 90/17/7
f 221/13/8 227/12/8 90/17/8 34/18/8
f 79/19/9 214/20/9 228/21/9 217/22/9
f 214/20/10 48/23/10 144/24/10 228/21/10
f 228/21/11 144/24/11 9/25/11 91/26/11
f 217/22/12 228/21/12 91/26/12 35/27/12
f 78/28/13 210/29/13 229/30/13 213/31/13
f 210/29/14 49/32/14 145/33/14 229/30/14
f 229/30/15 145/33/15 7/34/15 88/35/15
f 213/31/16 229/30/16 88/35/16 32/36/16
f 77/37/17 206/38/17 230/39/17 209/40/17
f 206/38/18 37/41/18 133/42/18 230/39/18
f 230/39/19 133/42/19 21/43/19 106/44/19
f 209/40/20 230/39/20 106/44/20 50/45/20
f 76/46/21 202/47/21 231/48/21 205/49/21
f 202/47/22 52/50/22 148/51/22 231/48/22
f 231/48/23 148/51/23 22/52/23 107/53/23
f 205/49/24 231/48/24 107/53/24 51/54/24
f 75/55/25 198/56/25 232/57/25 201/58/25
f 198/56/26 53/59/26 149/60/26 232/57/26
f 232/57/27 149/60/27 16/61/27 100/62/27
f 201/58/28 232/57/28 100/62/28 44/63/28
f 74/64/29 194/65/29 233/66/29 197/67/29
f 194/65/30 36/68/30 132/69/30 233/66/30
f 233/66/31 132/69/31 20/70/31 110/71/31
f 197/67/32 233/66/32 110/71/32 54/72/32
f 73/73/33 190/74/33 234/75/33 193/76/33
f 190/74/34 56/77/34 152/78/34 234/75/34
f 234/75/35 152/78/35 23/79/35 111/80/35
f 193/76/36 234/75/36 111/80/36 55/81/36
f 72/82/37 186/83/37 235/84/37 189/85/37
f 186/83/38 57/86/38 153/87/38 235/84/38
f 235/84/39 153/87/39 19/88/39 103/89/39
f 189/85/40 235/84/40 103/89/40 47/90/40
f 71/91/41 182/92/41 236/93/41 185/94/41
f 182/92/42 29/95/42 125/96/42 236/93/42
f 236/93/43 125/96/43 13/97/43 114/98/43
f 185/94/44 236/93/44 114/98/44 58/99/44
f 70/100/45 178/101/45 237/102/45 181/103/45
f 178/101/46 60/104/46 156/105/46 237/102/46
f 237/102/47 156/105/47 24/106/47 115/107/47
f 181/103/48 237/102/48 115/107/48 59/108/48
f 69/109/49 174/110/49 238/111/49 177/112/49
f 174/110/50 61/113/50 157/114/50 238/111/50
f 238/111/51 157/114/51 18/115/51 102/116/51
f 177/112/52 238/111/52 102/116/52 46/117/52
f 68/118/53 170/119/53 239/120/53 173/121/53
f 170/119/54 33/122/54 129/123/54 239/120/54
f 239/120/55 129/123/55 17/124/55 118/125/55
f 173/121/56 239/120/56 118/125/56 62/126/56
f 67/127/57 166/128/57 240/129/57 169/130/57
f 166/128/58 64/131/58 160/132/58 240/129/58
f 240/129/59 160/132/59 25/133/59 119/134/59
f 169/130/60 240/129/60 119/134/60 63/135/60
f 66/136/61 162/137/61 241/138/61 165/139/61
f 162/137/62 65/140/62 161/141/62 241/138/62
f 241/138/63 161/141/63 12/142/63 96/143/63
f 165/139/64 241/138/64 96/143/64 40/144/64
f 63/135/65 119/134/65 242/145/65 164/146/65
f 119/134/66 25/133/66 121/147/66 242/145/66
f 242/145/67 121/147/67 65/148/67 162/137/67
f 164/146/68 242/145/68 162/137/68 66/149/68
f 21/43/69 159/150/69 243/151/69 105/152/69
f 159/150/70 63/135/70 164/146/70 243/151/70
f 243/151/71 164/146/71 66/149/71 163/153/71
f 105/152/72 243/151/72 163/153/72 49/154/72
f 49/32/73 163/155/73 244/156/73 145/33/73
f 163/155/74 66/136/74 165/139/74 244/156/74
f 244/156/75 165/139/75 40/144/75 136/157/75
f 145/33/76 244/156/76 136/157/76 7/34/76
f 46/117/77 102/116/77 245/158/77 168/159/77
f 102/116/78 18/115/78 120/160/78 245/158/78
f 245/158/79 120/160/79 64/131/79 166/128/79
f 168/159/80 245/158/80 166/128/80 67/127/80
f 9/25/81 142/161/81 246/162/81 93/163/81
f 142/161/82 46/117/82 168/159/82 246/162/82
f 246/162/83 168/159/83 67/127/83 167/164/83
f 93/163/84 246/162/84 167/164/84 37/41/84
f 37/41/85 167/164/85 247/165/85 133/42/85
f 167/164/86 67/127/86 169/130/86 247/165/86
f 247/165/87 169/130/87 63/135/87 159/150/87
f 133/42/88 247/165/88 159/150/88 21/43/88
f 34/18/89 90/17/89 248/166/89 172/167/89
f 90/17/90 8/16/90 89/168/90 248/166/90
f 248/166/91 89/168/91 33/122/91 170/119/91
f 172/167/92 248/166/92 170/119/92 68/118/92
f 18/115/93 130/169/93 249/170/93 120/160/93
f 130/169/94 34/171/94 172/172/94 249/170/94
f 249/170/95 172/172/95 68/173/95 171/174/95
f 120/160/96 249/170/96 171/174/96 64/131/96
f 64/131/97 171/174/97 250/175/97 160/132/97
f 171/174/98 68/173/98 173/176/98 250/175/98
f 250/175/99 173/176/99 62/177/99 158/178/99
f 160/132/100 250/175/100 158/178/100 25/133/100
f 59/108/101 115/107/101 251/179/101 176/180/101
f 115/107/102 24/106/102 117/181/102 251/179/102
f 251/179/103 117/181/103 61/113/103 174/110/103
f 176/180/104 251/179/104 174/110/104 69/109/104
f 20/70/105 155/182/105 252/183/105 104/184/105
f 155/182/106 59/108/106 176/180/106 252/183/106
f 252/183/107 176/180/107 69/109/107 175/185/107
f 104/184/108 252/183/108 175/185/108 48/23/108
f 48/23/109 175/185/109 253/186/109 144/24/109
f 175/185/110 69/109/110 177/112/110 253/186/110
f 253/186/111 177/112/111 46/117/111 142/161/111
f 144/24/112 253/186/112 142/161/112 9/25/112
f 30/187/113 126/188/113 254/189/113 180/190/113
f 126/188/114 14/191/114 116/192/114 254/189/114
f 254/189/115 116/192/115 60/104/115 178/193/115
f 180/190/116 254/189/116 178/193/116 70/194/116
f 5/195/117 86/196/117 255/197/117 92/198/117
f 86/196/118 30/187/118 180/190/118 255/197/118
f 255/197/119 180/190/119 70/194/119 179/199/119
f 92/198/120 255/197/120 179/199/120 36/200/120
f 36/68/121 179/201/121 256/202/121 132/69/121
f 179/201/122 70/100/122 181/103/122 256/202/122
f 256/202/123 181/103/123 59/108/123 155/182/123
f 132/69/124 256/202/124 155/182/124 20/70/124
f 42/203/125 138/204/125 257/205/125 184/206/125
f 138/204/126 3/207/126 85/208/126 257/205/126
f 257/205/127 85/208/127 29/95/127 182/92/127
f 184/206/128 257/205/128 182/92/128 71/91/128
f 14/191/129 98/209/129 258/210/129 116/192/129
f 98/209/130 42/203/130 184/206/130 258/210/130
f 258/210/131 184/206/131 71/91/131 183/211/131
f 116/192/132 258/210/132 183/211/132 60/104/132
f 60/104/133 183/212/133 259/213/133 156/105/133
f 183/212/134 71/214/134 185/94/134 259/213/134
f 259/213/135 185/94/135 58/99/135 154/215/135
f 156/105/136 259/213/136 154/215/136 24/106/136
f 55/81/137 111/80/137 260/216/137 188/217/137
f 111/80/138 23/79/138 113/218/138 260/216/138
f 260/216/139 113/218/139 57/86/139 186/83/139
f 188/217/140 260/216/140 186/83/140 72/82/140
f 15/219/141 151/220/141 261/221/141 127/222/141
f 151/220/142 55/223/142 188/217/142 261/221/142
f 261/221/143 188/217/143 72/224/143 187/225/143
f 127/222/144 261/221/144 187/225/144 31/226/144
f 31/226/145 187/225/145 262/227/145 87/228/145
f 187/225/146 72/224/146 189/229/146 262/227/146
f 262/227/147 189/229/147 47/230/147 143/231/147
f 87/228/148 262/227/148 143/231/148 6/232/148
f 26/233/149 122/234/149 263/235/149 192/236/149
f 122/234/150 10/237/150 112/238/150 263/235/150
f 263/235/151 112/238/151 56/77/151 190/239/151
f 192/236/152 263/235/152 190/239/152 73/240/152
f 1/241/153 82/242/153 264/243/153 139/244/153
f 82/242/154 26/233/154 192/236/154 264/243/154
f 264/243/155 192/236/155 73/240/155 191/245/155
f 139/244/156 264/243/156 191/245/156 43/246/156
f 43/246/157 191/245/157 265/247/157 99/248/157
f 191/245/158 73/240/158 193/249/158 265/247/158
f 265/247/159 193/249/159 55/223/159 151/220/159
f 99/248/160 265/247/160 151/220/160 15/219/160
f 38/250/161 134/251/161 266/252/161 196/253/161
f 134/251/162 5/195/162 92/198/162 266/252/162
f 266/252/163 92/198/163 36/200/163 194/254/163
f 196/253/164 266/252/164 194/254/164 74/64/164
f 10/237/165 94/255/165 267/256/165 112/238/165
f 94/255/166 38/250/166 196/253/166 267/256/166
f 267/256/167 196/253/167 74/64/167 195/257/167
f 112/238/168 267/256/168 195/257/168 56/77/168
f 56/77/169 195/258/169 268/259/169 152/78/169
f 195/258/170 74/64/170 197/67/170 268/259/170
f 268/259/171 197/67/171 54/72/171 150/260/171
f 152/78/172 268/259/172 150/260/172 23/79/172
f 51/54/173 107/53/173 269/261/173 200/262/173
f 107/53/174 22/52/174 109/263/174 269/261/174
f 269/261/175 109/263/175 53/59/175 198/56/175
f 200/262/176 269/261/176 198/56/176 75/55/176
f 11/264/177 147/265/177 270/266/177 123/267/177
f 147/265/178 51/268/178 200/269/178 270/266/178
f 270/266/179 200/269/179 75/55/179 199/270/179
f 123/267/180 270/266/180 199/270/180 27/271/180
f 27/271/181 199/270/181 271/272/181 83/273/181
f 199/270/182 75/55/182 201/58/182 271/272/182
f 271/272/183 201/58/183 44/63/183 140/274/183
f 83/273/184 271/272/184 140/274/184 2/275/184
f 47/90/185 103/89/185 272/276/185 204/277/185
f 103/89/186 19/88/186 108/278/186 272/276/186
f 272/276/187 108/278/187 52/50/187 202/47/187
f 204/277/188 272/276/188 202/47/188 76/46/188
f 6/232/189 143/231/189 273/279/189 135/280/189
f 143/231/190 47/230/190 204/277/190 273/279/190
f 273/279/191 204/277/191 76/281/191 203/282/191
f 135/280/192 273/279/192 203/282/192 39/283/192
f 39/283/193 203/282/193 274/284/193 95/285/193
f 203/282/194 76/281/194 205/286/194 274/284/194
f 274/284/195 205/286/195 51/268/195 147/265/195
f 95/285/196 274/284/196 147/265/196 11/264/196
f 35/27/197 91/26/197 275/287/197 208/288/197
f 91/26/198 9/25/198 93/163/198 275/287/198
f 275/287/199 93/163/199 37/41/199 206/38/199
f 208/288/200 275/287/200 206/38/200 77/37/200
f 19/88/201 131/289/201 276/290/201 108/278/201
f 131/289/202 35/27/202 208/288/202 276/290/202
f 276/290/203 208/288/203 77/37/203 207/291/203
f 108/278/204 276/290/204 207/291/204 52/50/204
f 52/50/205 207/291/205 277/292/205 148/51/205
f 207/291/206 77/37/206 209/40/206 277/292/206
f 277/292/207 209/40/207 50/45/207 146/293/207
f 148/51/208 277/292/208 146/293/208 22/52/208
f 50/45/209 106/44/209 278/294/209 212/295/209
f 106/44/210 21/43/210 105/152/210 278/294/210
f 278/294/211 105/152/211 49/154/211 210/296/211
f 212/295/212 278/294/212 210/296/212 78/28/212
f 22/52/213 146/293/213 279/297/213 109/263/213
f 146/293/214 50/45/214 212/295/214 279/297/214
f 279/297/215 212/295/215 78/28/215 211/298/215
f 109/263/216 279/297/216 211/298/216 53/59/216
f 53/59/217 211/299/217 280/300/217 149/60/217
f 211/299/218 78/28/218 213/31/218 280/300/218
f 280/300/219 213/31/219 32/36/219 128/301/219
f 149/60/220 280/300/220 128/301/220 16/61/220
f 54/72/221 110/71/221 281/302/221 216/303/221
f 110/71/222 20/70/222 104/184/222 281/302/222
f 281/302/223 104/184/223 48/23/223 214/20/223
f 216/303/224 281/302/224 214/20/224 79/19/224
f 23/79/225 150/260/225 282/304/225 113/218/225
f 150/260/226 54/72/226 216/303/226 282/304/226
f 282/304/227 216/303/227 79/19/227 215/305/227
f 113/218/228 282/304/228 215/305/228 57/86/228
f 57/86/229 215/305/229 283/306/229 153/87/229
f 215/305/230 79/19/230 217/22/230 283/306/230
f 283/306/231 217/22/231 35/27/231 131/289/231
f 153/87/232 283/306/232 131/289/232 19/88/232
f 58/99/233 114/98/233 284/307/233 220/308/233
f 114/98/234 13/97/234 97/309/234 284/307/234
f 284/307/235 97/309/235 41/14/235 218/11/235
f 220/308/236 284/307/236 218/11/236 80/10/236
f 24/106/237 154/215/237 285/310/237 117/181/237
f 154/215/238 58/99/238 220/311/238 285/310/238
f 285/310/239 220/311/239 80/312/239 219/313/239
f 117/181/240 285/310/240 219/313/240 61/113/240
f 61/113/241 219/313/241 286/314/241 157/114/241
f 219/313/242 80/312/242 221/315/242 286/314/242
f 286/314/243 221/315/243 34/171/243 130/169/243
f 157/114/244 286/314/244 130/169/244 18/115/244
f 62/126/245 118/125/245 287/316/245 224/317/245
f 118/125/246 17/124/246 101/318/246 287/316/246
f 287/316/247 101/318/247 45/5/247 222/2/247
f 224/317/248 287/316/248 222/2/248 81/1/248
f 25/133/249 158/178/249 288/319/249 121/147/249
f 158/178/250 62/177/250 224/320/250 288/319/250
f 288/319/251 224/320/251 81/321/251 223/322/251
f 121/147/252 288/319/252 223/322/252 65/148/252
f 65/140/253 223/322/253 289/323/253 161/141/253
f 223/322/254 81/1/254 225/4/254 289/323/254
f 289/323/255 225/4/255 28/9/255 124/324/255
f 161/141/256 289/323/256 124/324/256 12/142/256
