# Blender 4.5.4 LTS
# www.blender.org
mtllib Frigate.mtl
o Frigate
v -0.541458 -0.407645 -3.009753
v -0.514604 -0.390297 -4.046278
v 0.586192 -0.390059 -4.045671
v 0.613968 -0.407481 -3.008792
v -0.338462 0.133884 -3.029853
v 0.410487 0.134335 -3.028585
v -0.331658 0.120338 -3.524342
v -0.514103 -0.329889 -4.046694
v -0.443560 -0.026741 -3.781579
v -0.517401 -0.152009 -3.902378
v 0.585670 -0.329612 -4.046092
v 0.403288 0.120854 -3.523384
v 0.589055 -0.151646 -3.901740
v 0.515150 -0.026290 -3.780852
v 0.779967 -0.376127 -4.174617
v 0.776255 -0.648831 -4.183160
v 0.664219 -0.382166 -4.492741
v 0.623505 -0.649693 -4.493001
v 0.603685 -0.964413 -4.159648
v 0.460397 -0.964538 -4.484988
v 0.864363 -0.371849 -3.900892
v 0.862513 -0.648364 -3.900779
v 0.677459 -0.964908 -3.896255
v 0.556973 -0.382988 -4.689487
v 0.508834 -0.649165 -4.688384
v 0.361031 -0.963763 -4.675649
v 0.371471 -0.381012 -4.952350
v 0.386748 -0.651999 -4.907482
v 0.269190 -0.958044 -4.833916
v 0.022696 -0.360567 -5.438564
v 0.022696 -0.637963 -5.361068
v 0.022696 -0.963689 -5.101201
v 1.059836 -0.370167 -3.301319
v 1.089801 -0.651423 -3.300512
v 0.818652 -0.965025 -3.296707
v 1.199483 -0.375188 -2.818478
v 1.198266 -0.652211 -2.817750
v 0.881724 -0.966050 -2.814462
v 1.336410 -0.492087 -2.224918
v 1.282481 -0.656969 -2.224813
v 0.964911 -0.965992 -2.222799
v 1.407275 -0.578212 -1.635783
v 1.400058 -0.654300 -1.637076
v 1.025679 -0.964591 -1.636917
v 1.460487 -0.644591 -0.638994
v 1.163694 -0.964005 -0.640035
v 1.451195 -0.550366 1.192336
v 1.083662 -0.980075 1.158060
v 1.367570 -0.501977 4.647843
v 1.058068 -1.050443 4.637292
v 0.022696 -0.478539 5.933030
v 0.022696 -1.038874 5.465864
v 0.022695 -0.973443 1.175278
v 0.022695 -0.982670 -0.641966
v 0.022695 -0.971719 -1.639062
v 0.022696 -0.972512 -3.321372
v 0.022695 -0.970217 -2.241112
v 0.022696 -0.970718 -2.829235
v 0.022696 -0.973418 -3.888115
v 0.022696 -0.971786 -4.170092
v 0.022696 -0.975168 -4.522583
v 0.022696 -0.982665 -4.691999
v 0.022696 -0.987924 -4.846095
v -0.734576 -0.376127 -4.174616
v -0.730864 -0.648831 -4.183160
v -0.618828 -0.382166 -4.492741
v -0.578113 -0.649693 -4.493001
v -0.558294 -0.964413 -4.159649
v -0.415005 -0.964538 -4.484988
v -0.818972 -0.371849 -3.900892
v -0.817122 -0.648364 -3.900779
v -0.632069 -0.964908 -3.896255
v -0.511581 -0.382988 -4.689488
v -0.463442 -0.649165 -4.688384
v -0.315639 -0.963763 -4.675650
v -0.326080 -0.381012 -4.952351
v -0.341357 -0.651999 -4.907482
v -0.223798 -0.958044 -4.833916
v -1.014446 -0.370167 -3.301318
v -1.044410 -0.651423 -3.300511
v -0.773261 -0.965025 -3.296707
v -1.154093 -0.375188 -2.818477
v -1.152875 -0.652211 -2.817749
v -0.836334 -0.966050 -2.814462
v -1.291019 -0.492088 -2.224919
v -1.237090 -0.656969 -2.224813
v -0.919521 -0.965992 -2.222800
v -1.361884 -0.578212 -1.635783
v -1.354668 -0.654300 -1.637076
v -0.980289 -0.964592 -1.636916
v -1.415097 -0.644591 -0.638994
v -1.118305 -0.964005 -0.640036
v -1.405804 -0.550366 1.192337
v -1.038271 -0.980075 1.158060
v -1.322179 -0.501978 4.647844
v -1.012677 -1.050444 4.637293
v 0.676170 -0.372932 -4.156655
v 0.673451 -0.628127 -4.164672
v 0.569949 -0.372932 -4.466959
v 0.530445 -0.628127 -4.466959
v 0.533678 -0.878801 -4.146348
v 0.396378 -0.878801 -4.466959
v 0.754906 -0.372932 -3.889235
v 0.752570 -0.628127 -3.889505
v 0.606521 -0.878801 -3.888888
v 0.472690 -0.372932 -4.656618
v 0.424394 -0.628127 -4.656618
v 0.302107 -0.878801 -4.656618
v 0.295771 -0.372932 -4.907565
v 0.312116 -0.628127 -4.863585
v 0.220495 -0.878801 -4.803051
v 0.022696 -0.337402 -5.295554
v 0.022696 -0.589106 -5.235693
v 0.022696 -0.875974 -5.033458
v 0.933764 -0.372932 -3.293704
v 0.962580 -0.628127 -3.293974
v 0.742569 -0.878801 -3.293357
v 1.064058 -0.372932 -2.813632
v 1.062419 -0.628127 -2.813902
v 0.806186 -0.878801 -2.813285
v 1.192866 -0.481364 -2.221656
v 1.141933 -0.628127 -2.221926
v 0.884225 -0.878801 -2.221308
v 1.254570 -0.569282 -1.635541
v 1.250413 -0.628127 -1.635810
v 0.963274 -0.878801 -1.635193
v 1.296363 -0.628127 -0.640635
v 1.187156 -0.878801 -0.640018
v 1.311667 -0.519562 1.163757
v 1.088205 -0.887807 1.156694
v 1.262071 -0.461281 4.528746
v 1.047778 -0.928250 4.529576
v 0.022696 -0.475176 5.820976
v 0.022696 -0.926699 5.355750
v 0.022695 -0.884901 1.168457
v 0.022695 -0.894864 -0.641833
v 0.022695 -0.883920 -1.638680
v 0.022696 -0.884715 -3.321456
v 0.022695 -0.882422 -2.241061
v 0.022696 -0.882924 -2.829334
v 0.022696 -0.885619 -3.887944
v 0.022696 -0.883983 -4.170047
v 0.022696 -0.887339 -4.523364
v 0.022696 -0.894696 -4.692422
v 0.022696 -0.899672 -4.839965
v -0.630779 -0.372932 -4.156656
v -0.628060 -0.628127 -4.164672
v -0.524558 -0.372932 -4.466959
v -0.485054 -0.628127 -4.466959
v -0.488286 -0.878801 -4.146348
v -0.350986 -0.878801 -4.466959
v -0.709515 -0.372932 -3.889235
v -0.707179 -0.628127 -3.889506
v -0.561130 -0.878801 -3.888888
v -0.427299 -0.372932 -4.656618
v -0.379002 -0.628127 -4.656618
v -0.256716 -0.878801 -4.656618
v -0.250380 -0.372932 -4.907566
v -0.266724 -0.628127 -4.863586
v -0.175103 -0.878801 -4.803051
v -0.888373 -0.372932 -3.293704
v -0.917189 -0.628127 -3.293974
v -0.697179 -0.878801 -3.293357
v -1.018668 -0.372932 -2.813632
v -1.017029 -0.628127 -2.813902
v -0.760795 -0.878801 -2.813285
v -1.147476 -0.481364 -2.221655
v -1.096542 -0.628127 -2.221925
v -0.838834 -0.878801 -2.221309
v -1.209179 -0.569282 -1.635540
v -1.205023 -0.628127 -1.635810
v -0.917885 -0.878801 -1.635193
v -1.250974 -0.628127 -0.640635
v -1.141766 -0.878801 -0.640018
v -1.266277 -0.519562 1.163758
v -1.042815 -0.887807 1.156694
v -1.216680 -0.461281 4.528747
v -1.002387 -0.928250 4.529576
v -0.547584 -0.921953 -2.859346
v -0.305043 -0.583509 -3.117973
v -0.516413 -0.935952 -4.180758
v -0.293482 -0.577344 -3.905489
v 0.630441 -0.921979 -2.859062
v 0.387553 -0.583406 -3.116744
v 0.598079 -0.936055 -4.180375
v 0.375156 -0.577206 -3.904596
v -0.547346 -0.585368 -2.863241
v -0.514010 -0.574612 -4.184536
v 0.595830 -0.574464 -4.183852
v 0.630411 -0.585301 -2.862331
v -0.303911 -0.393523 -3.121586
v -0.292023 -0.379978 -3.908469
v 0.373852 -0.379552 -3.907247
v 0.386579 -0.393187 -3.119814
v 0.161760 -0.085548 -4.970785
v 0.174352 -0.141047 -3.513459
v 0.161482 -0.051565 -4.970088
v 0.174168 -0.095248 -3.513510
v 0.283164 -0.080632 -4.971348
v 0.346188 -0.135697 -3.501598
v 0.282794 -0.046477 -4.970644
v 0.345860 -0.089602 -3.501689
v 0.221240 -0.001902 -4.969393
v 0.259249 -0.038815 -3.507620
v 0.222781 -0.130367 -4.972035
v 0.260229 -0.192049 -3.507375
v 0.150280 -0.045719 -4.969904
v 0.150628 -0.092354 -4.970860
v 0.221055 0.011800 -4.969108
v 0.294713 -0.086558 -4.971529
v 0.294182 -0.039646 -4.970563
v 0.222927 -0.144172 -4.972315
v 0.258646 -0.049503 -3.575117
v 0.259458 -0.175920 -3.574994
v 0.187036 -0.098314 -3.579942
v 0.187183 -0.131745 -3.579922
v 0.331657 -0.127153 -3.570249
v 0.331428 -0.093539 -3.570292
v -0.204375 -0.081612 -4.971236
v -0.262581 -0.136562 -3.503515
v -0.203887 -0.047496 -4.970532
v -0.262229 -0.090516 -3.503600
v -0.083331 -0.086565 -4.970666
v -0.091259 -0.142024 -3.515628
v -0.083105 -0.052616 -4.969972
v -0.091112 -0.096281 -3.515672
v -0.142792 -0.002977 -4.969284
v -0.175996 -0.039846 -3.509646
v -0.144131 -0.131316 -4.971919
v -0.176850 -0.192910 -3.509427
v -0.215147 -0.040670 -4.970452
v -0.215762 -0.087533 -4.971417
v -0.142631 0.010712 -4.968998
v -0.072220 -0.093367 -4.970743
v -0.071942 -0.046782 -4.969789
v -0.144258 -0.145106 -4.972199
v -0.175467 -0.050529 -3.577079
v -0.176176 -0.176805 -3.576978
v -0.247957 -0.094465 -3.572162
v -0.248214 -0.128042 -3.572121
v -0.104141 -0.132730 -3.581996
v -0.104021 -0.099339 -3.582011
v 0.963274 -0.856210 -1.635193
v 1.187156 -0.856210 -0.640018
v 1.088205 -0.865214 1.156694
v 0.022695 -0.862309 1.168457
v 0.022695 -0.872272 -0.641833
v 0.022695 -0.861328 -2.975062
v -0.917885 -0.856210 -1.635193
v -1.141766 -0.856210 -0.640018
v -1.042815 -0.865214 1.156694
v 1.052783 0.505425 -0.505595
v 0.963275 0.269183 -0.980453
v 0.992315 0.461794 0.954402
v 0.022695 0.263084 1.602008
v 0.022695 0.473829 -0.796459
v 0.022695 0.264065 -1.430856
v -1.007393 0.505425 -0.505595
v -0.917884 0.269183 -0.980453
v -0.946925 0.461794 0.954402
v 0.022695 -0.862309 1.839113
v 1.088205 -0.865214 1.827351
v -1.042815 -0.865214 1.827351
v 0.022695 -0.299424 1.839113
v 1.088205 -0.302330 1.827351
v -1.042815 -0.302330 1.827351
v 0.022695 -0.862309 3.888630
v 1.088205 -0.865214 3.876868
v -1.042815 -0.865214 3.876867
v 0.022695 -0.299424 3.888630
v 1.088205 -0.302330 3.876868
v -1.042815 -0.302330 3.876867
v 0.766388 0.901819 0.962202
v 0.456011 1.099830 0.143157
v 0.022695 1.093801 0.858568
v 0.022695 0.865439 -0.394422
v -0.720998 0.901819 0.962202
v -0.802320 0.865969 -0.300444
v 0.022695 -0.862309 5.549722
v 1.088205 -0.865214 4.634648
v -1.042815 -0.865214 4.634647
v 0.022695 -0.299424 5.549722
v 1.088205 -0.302330 4.634648
v -1.042815 -0.302330 4.634647
v 0.022695 -0.139569 4.055011
v 1.088205 -0.142475 4.043249
v -1.042815 -0.142476 4.043249
v 0.022695 -0.139569 5.549722
v 1.088205 -0.142475 4.634648
v -1.042815 -0.142476 4.634647
v 0.022696 0.083684 4.055011
v 0.431912 0.080778 4.043248
v -0.386521 0.080778 4.043249
v 0.022696 0.083684 4.646410
v 0.431912 0.080778 4.634648
v -0.386521 0.080778 4.634647
v 0.022696 0.689789 4.055011
v 0.431912 0.686883 4.043248
v -0.386521 0.686883 4.043249
v 0.022696 0.689789 4.380003
v 0.431912 0.686883 4.368242
v -0.386521 0.686883 4.368241
v 1.088205 0.260179 1.156694
v 1.187156 0.269183 -0.640018
v 0.022695 0.253120 -1.023044
v -1.042815 0.260179 1.156694
v -1.141766 0.269183 -0.640018
v 0.424615 1.090739 0.851088
v 0.847710 0.865969 -0.300444
v 0.022695 1.086148 -0.167837
v -0.379224 1.090739 0.851088
v -0.410620 1.099830 0.143158
v 1.028490 0.435410 -0.483142
v 0.823385 0.795960 -0.278034
v -0.777995 0.795960 -0.278034
v -0.983100 0.435410 -0.483142
v 0.022695 0.408389 -0.753935
v 0.022695 0.800000 -0.351898
v 0.954424 0.404100 0.951107
v -0.909034 0.404099 0.951107
v 0.728497 0.844126 0.958907
v -0.683106 0.844126 0.958907
v 0.654650 1.093205 1.381123
v 0.713338 1.102211 -0.166021
v 0.022695 1.096111 1.797805
v 0.022695 1.088458 0.142019
v -0.609259 1.093205 1.381123
v -0.667947 1.102211 -0.166022
v 0.022695 1.252348 0.858568
v 0.022695 1.247005 0.142019
v 0.424615 1.249287 0.851088
v 0.456011 1.258376 0.143157
v -0.379224 1.249287 0.851088
v -0.410620 1.258376 0.143158
v -0.078074 1.173857 4.132144
v -0.285751 1.172382 4.126174
v -0.078074 1.173857 4.297078
v -0.285751 1.172382 4.291108
v -0.337216 2.000025 4.018353
v -0.337397 1.983531 4.018670
v -0.023685 1.983849 4.023279
v -0.023141 2.000340 4.023896
v -0.103795 2.419475 4.151832
v -0.260031 2.418365 4.147341
v -0.103795 2.419475 4.275912
v -0.260031 2.418365 4.271421
v -0.088738 2.451837 4.123181
v -0.274425 2.451015 4.118969
v -0.089532 2.451837 4.304403
v -0.275212 2.451015 4.299955
v -0.095284 2.636846 4.131392
v -0.268099 2.635604 4.127145
v -0.095869 2.636644 4.296078
v -0.268687 2.635801 4.291887
v -0.364101 -0.139493 3.677114
v -1.019494 -0.121447 3.137962
v -0.586108 -0.121199 2.586969
v 0.091002 -0.139322 3.098939
v -0.297167 0.219862 3.565256
v -0.001754 0.220331 3.190809
v -0.612195 0.304847 3.311053
v -1.019565 -0.058610 3.137500
v -0.821484 0.256731 3.236631
v -0.928141 0.126425 3.212346
v -0.586584 -0.058321 2.587017
v -0.322489 0.305384 2.943463
v -0.492508 0.126802 2.658533
v -0.443909 0.257200 2.756859
v -1.367999 0.103693 2.317973
v -0.573116 0.085978 2.935483
v -1.368050 0.127647 2.318153
v -0.573543 0.118248 2.935292
v -1.321696 0.107150 2.258439
v -0.502058 0.089886 2.855578
v -1.321781 0.131226 2.258666
v -0.502559 0.122366 2.855442
v -1.345181 0.162650 2.288911
v -0.538744 0.158082 2.895426
v -1.344804 0.072097 2.287989
v -0.537146 0.050111 2.895912
v -1.372312 0.131768 2.323654
v -1.372254 0.098897 2.323424
v -1.345227 0.172308 2.289021
v -1.317302 0.102973 2.252768
v -1.317426 0.136041 2.253090
v -1.344769 0.062366 2.287901
v -0.568274 0.149755 2.872593
v -0.566988 0.060678 2.872964
v -0.597495 0.115304 2.906201
v -0.597187 0.091747 2.906327
v -0.537574 0.095098 2.839042
v -0.537926 0.118783 2.838947
v -1.508714 0.106462 2.496669
v -0.736475 0.089254 3.152336
v -1.508468 0.130509 2.496475
v -0.736713 0.121699 3.151869
v -1.461985 0.102978 2.437757
v -0.675971 0.085262 3.064507
v -1.461843 0.126907 2.437690
v -0.676266 0.117495 3.064157
v -1.484806 0.161894 2.466801
v -0.706625 0.157331 3.107372
v -1.485533 0.071430 2.467288
v -0.705743 0.049479 3.108745
v -1.512804 0.135320 2.501966
v -1.513119 0.102287 2.502204
v -1.484720 0.171542 2.466742
v -1.457705 0.098185 2.432342
v -1.457522 0.131021 2.432266
v -1.485602 0.061709 2.467332
v -0.735693 0.149009 3.084009
v -0.735001 0.060031 3.085115
v -0.761048 0.118109 3.121365
v -0.760884 0.094449 3.121697
v -0.709866 0.091029 3.047945
v -0.710069 0.114558 3.047689
v -0.134124 2.016659 4.175048
v -0.134232 1.976347 4.175130
v -0.229593 1.975670 4.172389
v -0.229701 2.015981 4.172301
v -0.134232 1.976347 4.250865
v -0.134124 2.016659 4.250953
v -0.229701 2.015981 4.248206
v -0.229593 1.975670 4.248123
v -0.026798 1.983810 4.405049
v -0.026228 2.000302 4.404429
v -0.340327 2.000064 4.399820
v -0.340487 1.983570 4.399520
v -0.348117 2.068031 4.016695
v -0.353599 2.097502 4.018913
v -0.007255 2.099222 4.025939
v -0.013257 2.069775 4.022717
v -0.127109 2.109838 4.169677
v -0.124868 2.139598 4.167963
v -0.238958 2.138789 4.164683
v -0.236717 2.109059 4.166526
v -0.127109 2.109838 4.256727
v -0.124868 2.139598 4.258571
v -0.238957 2.138789 4.255291
v -0.236717 2.109059 4.253575
v -0.015955 2.068873 4.406867
v -0.009854 2.098327 4.403866
v -0.356221 2.098397 4.397778
v -0.350798 2.068933 4.400237
v -0.364101 -0.301078 3.677114
v -1.019494 -0.283031 3.137962
v -0.586108 -0.282784 2.586969
v 0.091002 -0.300906 3.098939
v 0.514604 -0.139493 1.960926
v 1.071775 -0.121447 2.601070
v 0.553210 -0.121199 3.072777
v -0.029875 -0.139322 2.455847
v 0.430088 0.219862 2.060171
v 0.076800 0.220331 2.380587
v 0.698722 0.304847 2.362985
v 1.071769 -0.058610 2.601537
v 0.892816 0.256731 2.471004
v 0.993985 0.126425 2.512599
v 0.553687 -0.058321 3.072808
v 0.352198 0.305384 2.677584
v 0.472739 0.126802 2.986715
v 0.441074 0.257200 2.881705
v 1.279829 0.103693 3.467414
v 0.598052 0.085978 2.726916
v 1.279908 0.127647 3.467245
v 0.598441 0.118248 2.727175
v 1.224315 0.107150 3.518468
v 0.514754 0.089886 2.793965
v 1.224436 0.131226 3.518259
v 0.515225 0.122366 2.794182
v 1.252516 0.162650 3.492301
v 0.557527 0.158082 2.760734
v 1.251992 0.072097 3.493148
v 0.556030 0.050111 2.759991
v 1.285021 0.131768 3.462525
v 1.284926 0.098897 3.462742
v 1.252580 0.172308 3.492199
v 1.219042 0.102973 3.523334
v 1.219218 0.136041 3.523036
v 1.251943 0.062366 3.493229
v 0.582872 0.149755 2.788139
v 0.581666 0.060678 2.787559
v 0.617250 0.115304 2.759828
v 0.616968 0.091747 2.759652
v 0.547045 0.095098 2.816149
v 0.547377 0.118783 2.816301
v 1.448165 0.106462 3.314458
v 0.795033 0.089254 2.540075
v 1.447891 0.130509 3.314609
v 0.795191 0.121699 2.540575
v 1.392334 0.102978 3.364829
v 0.720833 0.085262 2.616684
v 1.392183 0.126907 3.364871
v 0.721066 0.117495 2.617079
v 1.419646 0.161894 3.339961
v 0.758157 0.157331 2.579481
v 1.420443 0.071430 3.339601
v 0.757514 0.049479 2.577981
v 1.453075 0.135320 3.309911
v 1.453425 0.102287 3.309729
v 1.419551 0.171542 3.340004
v 1.387218 0.098185 3.369461
v 1.387025 0.131021 3.369506
v 1.420520 0.061709 3.339567
v 0.782958 0.149009 2.607332
v 0.782460 0.060031 2.606126
v 0.814144 0.118109 2.574684
v 0.814038 0.094449 2.574330
v 0.751521 0.091029 2.638626
v 0.751679 0.114558 2.638911
v 0.514604 -0.301078 1.960926
v 1.071775 -0.283031 2.601070
v 0.553210 -0.282784 3.072777
v -0.029875 -0.300906 2.455847
vn 0.0002 -0.9999 -0.0168
vn -0.0012 0.0368 0.9993
vn -0.0000 0.8682 -0.4963
vn 0.0002 0.6942 -0.7198
vn 0.0003 0.6300 -0.7766
vn -0.9519 0.3045 0.0334
vn -0.0006 0.9996 -0.0273
vn 0.0006 -0.0069 -1.0000
vn 0.9518 0.3050 0.0327
vn 0.9176 -0.0691 -0.3916
vn 0.8097 -0.4500 -0.3767
vn 0.8389 -0.4855 -0.2460
vn 0.9560 -0.0052 -0.2933
vn 0.7976 -0.4086 -0.4436
vn 0.8613 -0.1442 -0.4873
vn 0.7949 -0.4029 -0.4537
vn 0.8391 -0.0971 -0.5353
vn 0.6843 -0.4359 -0.5846
vn 0.7897 -0.1126 -0.6031
vn 0.7843 -0.5710 -0.2424
vn 0.9421 0.0469 -0.3319
vn 0.7229 -0.6786 -0.1298
vn 0.9674 0.0491 -0.2483
vn 0.6967 -0.7102 -0.1013
vn 0.9734 -0.1218 -0.1939
vn 0.6635 -0.7417 -0.0983
vn 0.9554 -0.2416 -0.1701
vn 0.6829 -0.7277 -0.0642
vn 0.7470 -0.6640 0.0327
vn 0.8220 -0.5694 0.0111
vn 0.9939 -0.0933 -0.0593
vn 0.5883 -0.4529 0.6700
vn -0.0158 -0.9997 -0.0175
vn 0.0055 -1.0000 -0.0018
vn 0.0120 -0.9999 -0.0060
vn 0.0058 -1.0000 -0.0004
vn 0.0049 -1.0000 0.0001
vn 0.0073 -1.0000 0.0003
vn 0.0110 -0.9999 -0.0007
vn 0.0129 -0.9999 -0.0056
vn 0.0176 -0.9998 0.0015
vn 0.0374 -0.9993 0.0083
vn 0.0844 -0.9961 -0.0263
vn 0.1244 -0.9878 -0.0938
vn -0.9176 -0.0691 -0.3916
vn -0.8097 -0.4500 -0.3767
vn -0.8389 -0.4855 -0.2460
vn -0.9560 -0.0052 -0.2933
vn -0.7976 -0.4086 -0.4436
vn -0.8613 -0.1442 -0.4873
vn -0.7949 -0.4029 -0.4537
vn -0.8391 -0.0971 -0.5353
vn -0.6843 -0.4359 -0.5846
vn -0.7897 -0.1126 -0.6031
vn -0.7843 -0.5710 -0.2424
vn -0.9421 0.0469 -0.3319
vn -0.7229 -0.6786 -0.1298
vn -0.9674 0.0491 -0.2483
vn -0.6967 -0.7102 -0.1013
vn -0.9734 -0.1218 -0.1939
vn -0.6635 -0.7417 -0.0983
vn -0.9554 -0.2416 -0.1701
vn -0.6829 -0.7277 -0.0642
vn -0.7470 -0.6640 0.0327
vn -0.8220 -0.5694 0.0111
vn -0.9939 -0.0933 -0.0593
vn -0.5883 -0.4529 0.6700
vn 0.0158 -0.9997 -0.0175
vn -0.0055 -1.0000 -0.0018
vn -0.0120 -0.9999 -0.0060
vn -0.0058 -1.0000 -0.0004
vn -0.0049 -1.0000 0.0001
vn -0.0073 -1.0000 0.0003
vn -0.0110 -0.9999 -0.0007
vn -0.0129 -0.9999 -0.0056
vn -0.0176 -0.9998 0.0015
vn -0.0374 -0.9993 0.0083
vn -0.0844 -0.9961 -0.0263
vn -0.1244 -0.9878 -0.0938
vn -0.9240 0.0705 0.3759
vn -0.8114 0.4565 0.3651
vn -0.8395 0.4877 0.2395
vn -0.9602 0.0050 0.2793
vn -0.8057 0.4120 0.4255
vn -0.8714 0.1499 0.4671
vn -0.8048 0.3967 0.4415
vn -0.8414 0.0985 0.5314
vn -0.6960 0.4076 0.5911
vn -0.7955 0.0969 0.5982
vn -0.7860 0.5745 0.2284
vn -0.9494 -0.0496 0.3100
vn -0.7194 0.6837 0.1225
vn -0.9711 -0.0520 0.2328
vn -0.6952 0.7129 0.0925
vn -0.9748 0.1272 0.1832
vn -0.6731 0.7317 0.1077
vn -0.9540 0.2552 0.1576
vn -0.7799 0.6169 0.1057
vn -0.8802 0.4734 -0.0335
vn -0.8856 0.4643 -0.0131
vn -0.9965 0.0702 0.0460
vn -0.6054 0.4671 -0.6444
vn 0.0065 0.9999 0.0109
vn -0.0059 1.0000 -0.0004
vn -0.0101 0.9999 0.0066
vn -0.0049 1.0000 0.0016
vn -0.0047 1.0000 -0.0001
vn -0.0066 1.0000 -0.0014
vn -0.0098 1.0000 0.0004
vn -0.0111 0.9999 0.0045
vn -0.0153 0.9999 -0.0019
vn -0.0358 0.9993 -0.0111
vn -0.0775 0.9970 0.0046
vn -0.1264 0.9846 0.1206
vn 0.9240 0.0705 0.3759
vn 0.8114 0.4565 0.3651
vn 0.8395 0.4877 0.2395
vn 0.9602 0.0050 0.2793
vn 0.8057 0.4120 0.4255
vn 0.8714 0.1499 0.4671
vn 0.8048 0.3967 0.4415
vn 0.8414 0.0985 0.5314
vn 0.6960 0.4076 0.5911
vn 0.7955 0.0969 0.5982
vn 0.7860 0.5745 0.2284
vn 0.9494 -0.0496 0.3100
vn 0.7194 0.6837 0.1225
vn 0.9711 -0.0520 0.2328
vn 0.6952 0.7129 0.0925
vn 0.9748 0.1272 0.1832
vn 0.6731 0.7317 0.1077
vn 0.9540 0.2552 0.1576
vn 0.7799 0.6169 0.1057
vn 0.8802 0.4734 -0.0335
vn 0.8856 0.4643 -0.0131
vn 0.9965 0.0702 0.0460
vn 0.6054 0.4671 -0.6444
vn -0.0065 0.9999 0.0109
vn 0.0059 1.0000 -0.0004
vn 0.0101 0.9999 0.0066
vn 0.0049 1.0000 0.0016
vn 0.0047 1.0000 -0.0001
vn 0.0066 1.0000 -0.0014
vn 0.0098 1.0000 0.0004
vn 0.0111 0.9999 0.0045
vn 0.0153 0.9999 -0.0019
vn 0.0358 0.9993 -0.0111
vn 0.0775 0.9970 0.0046
vn 0.1264 0.9846 0.1206
vn 0.0561 0.9980 -0.0294
vn 0.0084 0.9999 -0.0105
vn 0.0909 0.9946 -0.0502
vn 0.0854 0.9948 -0.0564
vn 0.2018 0.9761 -0.0810
vn -0.0160 0.9999 0.0036
vn -0.0017 1.0000 0.0057
vn 0.0508 0.9832 0.1755
vn 0.0672 0.9880 0.1387
vn 0.1589 0.9857 -0.0552
vn 0.2853 0.9584 -0.0094
vn 0.0795 0.9951 0.0588
vn 0.1309 0.9831 0.1276
vn -0.0561 0.9980 -0.0294
vn -0.0084 0.9999 -0.0105
vn -0.0909 0.9946 -0.0502
vn -0.0854 0.9948 -0.0564
vn -0.2018 0.9761 -0.0810
vn 0.0160 0.9999 0.0036
vn 0.0017 1.0000 0.0057
vn -0.0508 0.9832 0.1755
vn -0.0672 0.9880 0.1387
vn -0.1589 0.9857 -0.0552
vn -0.2853 0.9584 -0.0094
vn -0.0795 0.9951 0.0588
vn -0.1309 0.9831 0.1276
vn -0.9997 0.0035 -0.0244
vn 0.0005 -0.0100 -0.9999
vn 0.9997 0.0030 -0.0253
vn -0.0005 0.0106 0.9999
vn -0.0001 -0.9999 0.0106
vn -0.9999 0.0064 -0.0148
vn 0.0015 1.0000 0.0081
vn -0.0002 1.0000 0.0098
vn -0.0014 1.0000 0.0081
vn -0.0001 1.0000 0.0074
vn -0.0006 0.9999 0.0173
vn -0.0022 0.0176 0.9998
vn 0.0016 -0.0143 -0.9999
vn 0.9999 0.0056 -0.0159
vn -0.9999 -0.0059 0.0161
vn 0.5388 0.8424 0.0124
vn 0.9994 0.0096 -0.0348
vn -0.5446 -0.8385 -0.0163
vn -0.5504 -0.8348 -0.0113
vn -0.0699 0.0011 0.9976
vn -0.0677 0.0012 0.9977
vn 0.6004 -0.7987 -0.0406
vn 0.5863 -0.8089 -0.0445
vn -0.5909 0.8058 0.0402
vn -0.0057 0.0205 -0.9998
vn -0.0056 0.0207 -0.9998
vn -0.0052 0.0205 -0.9998
vn -0.0053 0.0202 -0.9998
vn -0.0053 0.0207 -0.9998
vn -0.0056 0.0202 -0.9998
vn 0.0659 -0.0006 -0.9978
vn 0.0676 -0.0005 -0.9977
vn -0.9994 -0.0092 0.0343
vn 0.9998 0.0065 -0.0181
vn 0.5549 0.8318 0.0150
vn -0.5970 0.8010 0.0445
vn -0.9994 0.0107 -0.0316
vn 0.5915 0.8054 0.0383
vn 0.9999 -0.0047 0.0130
vn -0.5874 -0.8082 -0.0426
vn -0.6010 -0.7983 -0.0387
vn 0.0694 0.0011 0.9976
vn 0.0716 0.0010 0.9974
vn 0.5518 -0.8339 -0.0131
vn 0.5451 -0.8381 -0.0181
vn -0.5404 0.8413 0.0140
vn 0.0053 0.0205 -0.9998
vn 0.0054 0.0207 -0.9998
vn 0.0057 0.0204 -0.9998
vn 0.0056 0.0203 -0.9998
vn 0.0057 0.0207 -0.9998
vn 0.0054 0.0203 -0.9998
vn -0.0692 -0.0004 -0.9976
vn -0.0675 -0.0005 -0.9977
vn -0.9999 0.0053 -0.0148
vn 0.9995 -0.0113 0.0310
vn 0.5977 0.8006 0.0426
vn -0.5555 0.8314 0.0168
vn 0.0059 -1.0000 0.0004
vn 0.0127 -0.9999 -0.0041
vn -0.0059 -1.0000 0.0004
vn -0.0127 -0.9999 -0.0041
vn -0.0336 0.0350 -0.9988
vn -0.0180 0.9996 0.0200
vn 0.9005 0.4339 -0.0306
vn 0.0180 0.9996 0.0200
vn 0.5606 0.5787 -0.5923
vn -0.1663 0.6192 0.7674
vn 0.9441 0.0921 -0.3165
vn 0.1663 0.6192 0.7674
vn -0.9441 0.0921 -0.3165
vn 0.9985 -0.0000 0.0550
vn -0.5606 0.5787 -0.5923
vn -0.9985 -0.0000 0.0550
vn 0.0027 -1.0000 -0.0000
vn -0.0027 1.0000 -0.0000
vn 1.0000 -0.0000 -0.0000
vn -0.0027 -1.0000 -0.0000
vn -1.0000 -0.0000 -0.0000
vn 0.0027 1.0000 -0.0000
vn 0.0186 -0.0000 0.9998
vn -0.9990 -0.0000 0.0443
vn 0.0911 -0.4437 -0.8915
vn 0.4499 -0.1066 0.8867
vn 0.0336 0.0350 -0.9988
vn -0.4499 -0.1066 0.8867
vn 0.6515 -0.0000 0.7586
vn -0.6515 -0.0000 0.7586
vn 0.0057 0.7211 -0.6928
vn 0.2005 0.9283 0.3132
vn -0.3221 0.9467 -0.0000
vn -0.0057 0.7211 -0.6928
vn 0.0292 0.4022 0.9151
vn -0.0160 -0.0236 -0.9996
vn 0.3220 0.9467 -0.0000
vn -0.2005 0.9283 0.3132
vn 0.0160 -0.0236 -0.9996
vn 0.0071 1.0000 -0.0000
vn -0.0295 0.1628 0.9862
vn -0.0287 -0.0000 -0.9996
vn -0.0292 0.4022 0.9151
vn 0.0287 -0.0000 -0.9996
vn 0.8807 0.4710 0.0507
vn 0.2119 0.6434 -0.7356
vn -0.8807 0.4710 0.0507
vn -0.2119 0.6434 -0.7356
vn 0.8874 0.4592 0.0398
vn 0.0423 0.6270 -0.7779
vn -0.8874 0.4592 0.0398
vn -0.0423 0.6270 -0.7779
vn 0.8898 0.4554 0.0302
vn -0.8898 0.4554 0.0302
vn -0.8851 0.4624 0.0531
vn 0.8851 0.4624 0.0531
vn 0.1354 0.6444 -0.7526
vn -0.1354 0.6444 -0.7526
vn -0.9008 -0.4272 0.0779
vn 0.2490 0.4548 0.8551
vn -0.9005 0.4339 -0.0306
vn -0.0911 -0.4437 -0.8915
vn 0.9008 -0.4272 0.0779
vn -0.2490 0.4548 0.8551
vn -0.0133 0.9999 0.0075
vn 0.0042 1.0000 -0.0039
vn -0.0244 0.9997 -0.0100
vn 0.0133 0.9999 0.0075
vn -0.0042 1.0000 -0.0039
vn 0.0244 0.9997 -0.0100
vn -0.0099 0.9999 0.0024
vn 0.0099 0.9999 0.0024
vn -0.0186 -0.0000 0.9998
vn 0.0026 -0.0000 -1.0000
vn 0.9990 -0.0000 0.0443
vn -0.0026 -0.0000 -1.0000
vn 0.0033 -0.9987 -0.0502
vn 0.0272 0.1628 -0.9863
vn 0.9790 0.2038 -0.0000
vn -0.9791 0.2032 -0.0000
vn -0.1446 0.9895 -0.0011
vn -0.0003 0.9945 -0.1052
vn -0.9999 0.0103 -0.0081
vn -0.0162 0.0101 0.9998
vn 0.0162 0.0087 -0.9998
vn 0.1476 0.9890 0.0011
vn 0.9994 -0.0337 0.0081
vn -0.0159 -0.6595 0.7516
vn 0.9109 -0.4126 0.0024
vn 0.0228 -0.6594 -0.7515
vn -0.9109 -0.4126 -0.0024
vn 0.9994 0.0348 0.0040
vn -0.0060 1.0000 -0.0000
vn -0.0243 0.0443 0.9987
vn -0.9994 0.0348 -0.0040
vn 0.0233 0.0443 -0.9987
vn 0.7858 -0.0000 0.6185
vn 0.7847 0.0454 0.6182
vn -0.1756 0.9749 -0.1371
vn -0.6263 0.6045 -0.4923
vn -0.6627 0.5381 -0.5209
vn -0.5488 0.2375 0.8015
vn 0.1607 0.9787 0.1281
vn -0.7860 -0.0054 -0.6182
vn 0.6517 0.2378 -0.7202
vn -0.6080 -0.0050 0.7939
vn 0.3599 0.8094 -0.4641
vn 0.5946 0.0080 -0.8040
vn -0.3667 -0.8051 0.4663
vn -0.3664 -0.8008 0.4738
vn 0.7463 0.0140 0.6655
vn 0.7475 0.0141 0.6641
vn 0.3836 -0.7611 -0.5231
vn 0.3719 -0.7726 -0.5146
vn -0.3780 0.7689 0.5156
vn -0.7895 0.0029 -0.6137
vn -0.7895 0.0031 -0.6138
vn -0.7893 0.0030 -0.6139
vn -0.7894 0.0028 -0.6139
vn -0.7893 0.0032 -0.6139
vn -0.7895 0.0028 -0.6137
vn -0.7486 -0.0136 -0.6628
vn -0.7476 -0.0135 -0.6640
vn -0.5951 -0.0077 0.8036
vn 0.6068 0.0055 -0.7949
vn 0.3721 0.7974 -0.4752
vn -0.3786 0.7638 0.5227
vn -0.6418 0.0090 0.7668
vn 0.4127 0.7684 -0.4890
vn 0.6288 -0.0040 -0.7776
vn -0.4135 -0.7717 0.4833
vn -0.4186 -0.7606 0.4963
vn 0.8231 0.0140 0.5677
vn 0.8242 0.0139 0.5661
vn 0.3754 -0.7997 -0.4686
vn 0.3674 -0.8046 -0.4664
vn -0.3676 0.8082 0.4602
vn -0.7835 0.0030 -0.6214
vn -0.7835 0.0031 -0.6214
vn -0.7833 0.0029 -0.6217
vn -0.7833 0.0028 -0.6217
vn -0.7833 0.0031 -0.6216
vn -0.7835 0.0028 -0.6214
vn -0.8230 -0.0134 -0.5678
vn -0.8222 -0.0135 -0.5691
vn -0.6300 0.0045 0.7766
vn 0.6412 -0.0096 -0.7673
vn 0.4196 0.7632 -0.4914
vn -0.3748 0.7969 0.4737
vn -0.0041 0.9944 0.1052
vn 0.0012 -0.9987 0.0502
vn -0.0719 -0.9974 -0.0004
vn 0.0685 -0.9977 0.0004
vn -0.9833 -0.1820 -0.0064
vn 0.9976 0.0698 -0.0000
vn 0.0283 0.0554 -0.9981
vn -0.0071 0.9620 0.2729
vn 0.0186 0.0918 -0.9956
vn -0.9976 0.0697 -0.0000
vn -0.0291 0.0554 0.9980
vn 0.0008 0.9620 -0.2730
vn 0.0074 -0.9646 -0.2635
vn 0.9795 -0.2013 0.0063
vn -0.0186 0.0925 0.9955
vn 0.3311 0.9436 0.0036
vn -0.3388 -0.9409 -0.0037
vn -0.0000 -0.9646 0.2636
vn -0.3322 0.9432 -0.0037
vn 0.3386 -0.9409 0.0037
vn 0.0291 -0.0597 -0.9978
vn 0.9972 -0.0751 -0.0000
vn -0.9972 -0.0752 -0.0000
vn -0.0283 -0.0597 0.9978
vn -0.0166 -0.9998 -0.0134
vn -0.7860 -0.0000 -0.6182
vn 0.6031 -0.0000 -0.7977
vn -0.6353 -0.0000 0.7723
vn -0.6726 -0.0000 -0.7400
vn -0.6716 0.0454 -0.7395
vn 0.1505 0.9749 0.1643
vn 0.5362 0.6045 0.5891
vn 0.5674 0.5381 0.6234
vn 0.6738 0.2375 -0.6997
vn -0.1373 0.9787 -0.1529
vn 0.6729 -0.0054 0.7397
vn -0.7619 0.2378 0.6025
vn 0.7310 -0.0050 -0.6824
vn -0.4317 0.8094 0.3982
vn -0.7194 0.0080 0.6946
vn 0.4388 -0.8051 -0.3992
vn 0.4397 -0.8008 -0.4067
vn -0.6259 0.0140 -0.7798
vn -0.6274 0.0141 -0.7786
vn -0.4649 -0.7611 0.4524
vn -0.4519 -0.7726 0.4460
vn 0.4581 0.7689 -0.4460
vn 0.6771 0.0029 0.7359
vn 0.6771 0.0031 0.7359
vn 0.6769 0.0030 0.7361
vn 0.6769 0.0028 0.7361
vn 0.6769 0.0032 0.7361
vn 0.6771 0.0028 0.7359
vn 0.6287 -0.0136 0.7775
vn 0.6275 -0.0135 0.7785
vn 0.7198 -0.0076 -0.6941
vn -0.7299 0.0055 0.6835
vn -0.4455 0.7974 0.4071
vn 0.4599 0.7638 -0.4529
vn 0.7598 0.0090 -0.6500
vn -0.4880 0.7684 0.4140
vn -0.7488 -0.0040 0.6628
vn 0.4878 -0.7717 -0.4082
vn 0.4949 -0.7606 -0.4202
vn -0.7179 0.0140 -0.6960
vn -0.7192 0.0139 -0.6946
vn -0.4477 -0.7997 0.4000
vn -0.4395 -0.8047 0.3992
vn 0.4387 0.8081 -0.3930
vn 0.6699 0.0030 0.7424
vn 0.6699 0.0032 0.7424
vn 0.6696 0.0029 0.7427
vn 0.6696 0.0027 0.7427
vn 0.6697 0.0032 0.7427
vn 0.6699 0.0028 0.7425
vn 0.7178 -0.0134 0.6962
vn 0.7167 -0.0135 0.6973
vn 0.7498 0.0044 -0.6617
vn -0.7593 -0.0096 0.6506
vn -0.4951 0.7632 0.4153
vn 0.4480 0.7969 -0.4052
vn 0.0141 -0.9998 0.0160
vn 0.6729 -0.0000 0.7397
vn -0.7268 -0.0000 0.6869
vn 0.7543 -0.0000 -0.6565
vt 0.160243 0.905416
vt 0.133808 0.905416
vt 0.133808 0.878573
vt 0.160243 0.878573
vt 0.260409 0.901900
vt 0.260409 0.928743
vt 0.252272 0.924189
vt 0.252272 0.906455
vt 0.089968 0.886282
vt 0.089968 0.904016
vt 0.083301 0.906786
vt 0.083301 0.883513
vt 0.080155 0.908571
vt 0.080155 0.881727
vt 0.260409 0.928744
vt 0.264318 0.901900
vt 0.264318 0.928744
vt 0.244396 0.901900
vt 0.244396 0.928344
vt 0.236174 0.928351
vt 0.234724 0.915205
vt 0.236067 0.908552
vt 0.239028 0.905443
vt 0.243058 0.901900
vt 0.103092 0.886282
vt 0.103092 0.904016
vt 0.265655 0.901900
vt 0.265655 0.928744
vt 0.225052 0.928344
vt 0.225052 0.901900
vt 0.226390 0.901900
vt 0.230420 0.905443
vt 0.233381 0.908552
vt 0.234724 0.915205
vt 0.233275 0.928351
vt 0.311863 0.592854
vt 0.304122 0.592575
vt 0.304057 0.580803
vt 0.311639 0.580771
vt 0.295212 0.593511
vt 0.295163 0.581151
vt 0.304186 0.603300
vt 0.295245 0.603515
vt 0.312033 0.603250
vt 0.295163 0.573906
vt 0.304050 0.573379
vt 0.311591 0.573296
vt 0.295307 0.567891
vt 0.303943 0.565055
vt 0.311628 0.563305
vt 0.189574 0.562043
vt 0.183887 0.565071
vt 0.171963 0.554930
vt 0.171963 0.544816
vt 0.304344 0.547805
vt 0.312200 0.544816
vt 0.304212 0.626099
vt 0.295366 0.626283
vt 0.312200 0.626020
vt 0.198633 0.623426
vt 0.207571 0.623040
vt 0.208650 0.641366
vt 0.198870 0.641732
vt 0.312153 0.644358
vt 0.304291 0.644432
vt 0.208803 0.663876
vt 0.199646 0.664190
vt 0.308958 0.666918
vt 0.304288 0.666947
vt 0.210117 0.686183
vt 0.201009 0.686428
vt 0.306646 0.689302
vt 0.304488 0.689266
vt 0.295735 0.689311
vt 0.304994 0.727161
vt 0.295956 0.727168
vt 0.307868 0.800347
vt 0.296350 0.800425
vt 0.308256 0.881760
vt 0.296719 0.881521
vt 0.419565 0.864455
vt 0.407971 0.870850
vt 0.407286 0.834383
vt 0.419728 0.834417
vt 0.202001 0.878573
vt 0.171963 0.877877
vt 0.171963 0.798582
vt 0.202627 0.797502
vt 0.171963 0.724208
vt 0.204250 0.724267
vt 0.171963 0.686352
vt 0.171963 0.663498
vt 0.171963 0.641175
vt 0.171963 0.622496
vt 0.171963 0.600984
vt 0.196919 0.600668
vt 0.171963 0.590279
vt 0.194864 0.590670
vt 0.171963 0.576902
vt 0.190212 0.578321
vt 0.171963 0.570477
vt 0.186816 0.571083
vt 0.171963 0.564632
vt 0.278462 0.592854
vt 0.278686 0.580771
vt 0.286269 0.580804
vt 0.286203 0.592575
vt 0.295162 0.581151
vt 0.295113 0.593511
vt 0.295081 0.603515
vt 0.286140 0.603301
vt 0.278293 0.603250
vt 0.286276 0.573379
vt 0.295163 0.573906
vt 0.278735 0.573296
vt 0.286383 0.565055
vt 0.295018 0.567891
vt 0.278697 0.563305
vt 0.154351 0.562043
vt 0.160038 0.565071
vt 0.278126 0.544816
vt 0.285981 0.547805
vt 0.294960 0.626283
vt 0.286114 0.626099
vt 0.278126 0.626020
vt 0.145292 0.623426
vt 0.145055 0.641732
vt 0.135275 0.641366
vt 0.136355 0.623040
vt 0.286034 0.644432
vt 0.278173 0.644358
vt 0.144279 0.664190
vt 0.135123 0.663876
vt 0.286037 0.666947
vt 0.281367 0.666918
vt 0.142916 0.686428
vt 0.133808 0.686183
vt 0.285838 0.689266
vt 0.283679 0.689302
vt 0.294590 0.689311
vt 0.294370 0.727168
vt 0.285332 0.727161
vt 0.293975 0.800425
vt 0.282458 0.800347
vt 0.293606 0.881521
vt 0.282070 0.881760
vt 0.419728 0.804378
vt 0.408169 0.797921
vt 0.141924 0.878573
vt 0.141298 0.797502
vt 0.139675 0.724267
vt 0.147006 0.600668
vt 0.149061 0.590670
vt 0.153714 0.578321
vt 0.157109 0.571083
vt 0.312681 0.588032
vt 0.312801 0.576254
vt 0.320053 0.576319
vt 0.319927 0.587790
vt 0.327201 0.576388
vt 0.327068 0.588555
vt 0.326971 0.598328
vt 0.319824 0.598235
vt 0.312580 0.598183
vt 0.320137 0.569122
vt 0.327283 0.569192
vt 0.312882 0.569057
vt 0.320226 0.561269
vt 0.327348 0.563636
vt 0.313002 0.559538
vt 0.244701 0.929894
vt 0.244396 0.915882
vt 0.252272 0.916065
vt 0.251841 0.925346
vt 0.312200 0.544816
vt 0.319324 0.547150
vt 0.326764 0.620938
vt 0.319607 0.620843
vt 0.312370 0.620792
vt 0.220011 0.610885
vt 0.219585 0.629113
vt 0.211683 0.628992
vt 0.212773 0.610764
vt 0.319443 0.639070
vt 0.312200 0.639017
vt 0.218820 0.651589
vt 0.211402 0.651468
vt 0.319247 0.661547
vt 0.315073 0.661519
vt 0.217756 0.673843
vt 0.210117 0.673722
vt 0.319047 0.683800
vt 0.317376 0.683796
vt 0.326206 0.683896
vt 0.325863 0.721679
vt 0.318728 0.721589
vt 0.325239 0.794910
vt 0.315353 0.794793
vt 0.324567 0.872993
vt 0.314681 0.872877
vt 0.415260 0.623347
vt 0.414998 0.596404
vt 0.425041 0.596404
vt 0.425041 0.628905
vt 0.217179 0.862930
vt 0.216574 0.784852
vt 0.244122 0.785953
vt 0.244122 0.862022
vt 0.214902 0.711628
vt 0.244122 0.711565
vt 0.244122 0.673713
vt 0.244122 0.650841
vt 0.244122 0.628505
vt 0.244122 0.609821
vt 0.221882 0.588274
vt 0.244122 0.588313
vt 0.224008 0.578499
vt 0.244122 0.577601
vt 0.228586 0.566326
vt 0.244122 0.564188
vt 0.231948 0.559125
vt 0.244122 0.557771
vt 0.234833 0.553565
vt 0.244122 0.552171
vt 0.244122 0.544816
vt 0.342015 0.588032
vt 0.334769 0.587790
vt 0.334643 0.576319
vt 0.341896 0.576254
vt 0.327628 0.588555
vt 0.327496 0.576388
vt 0.334872 0.598235
vt 0.327725 0.598328
vt 0.342116 0.598183
vt 0.327413 0.569192
vt 0.334560 0.569122
vt 0.341815 0.569057
vt 0.334471 0.561269
vt 0.341694 0.559537
vt 0.245350 0.901900
vt 0.252272 0.906774
vt 0.335373 0.547150
vt 0.342497 0.544816
vt 0.335089 0.620843
vt 0.327932 0.620938
vt 0.342326 0.620792
vt 0.268233 0.610885
vt 0.275470 0.610764
vt 0.276560 0.628992
vt 0.268658 0.629113
vt 0.342497 0.639017
vt 0.335253 0.639070
vt 0.276841 0.651468
vt 0.269423 0.651589
vt 0.339624 0.661519
vt 0.335449 0.661547
vt 0.278126 0.673722
vt 0.270487 0.673843
vt 0.337320 0.683796
vt 0.335649 0.683800
vt 0.328490 0.683896
vt 0.335969 0.721589
vt 0.328834 0.721679
vt 0.339343 0.794793
vt 0.329457 0.794910
vt 0.340015 0.872877
vt 0.330129 0.872993
vt 0.415260 0.569461
vt 0.425041 0.563903
vt 0.271065 0.862930
vt 0.271669 0.784852
vt 0.273342 0.711628
vt 0.266361 0.588274
vt 0.264235 0.578499
vt 0.259657 0.566326
vt 0.256295 0.559125
vt 0.253410 0.553565
vt 0.065423 0.592812
vt 0.068557 0.580735
vt 0.072601 0.581711
vt 0.069583 0.593492
vt 0.063237 0.603203
vt 0.067448 0.603646
vt 0.071781 0.573266
vt 0.075694 0.574510
vt 0.078494 0.563284
vt 0.082156 0.564982
vt 0.095366 0.544816
vt 0.095366 0.550236
vt 0.060683 0.625967
vt 0.064913 0.626257
vt 0.058569 0.644301
vt 0.062815 0.644485
vt 0.056925 0.666884
vt 0.061140 0.667003
vt 0.057010 0.689286
vt 0.061244 0.689291
vt 0.058218 0.800319
vt 0.058434 0.727158
vt 0.062669 0.727089
vt 0.062261 0.800275
vt 0.058902 0.881727
vt 0.062865 0.878354
vt 0.095366 0.881687
vt 0.095366 0.878354
vt 0.122175 0.580735
vt 0.125310 0.592812
vt 0.121149 0.593492
vt 0.118131 0.581711
vt 0.127496 0.603203
vt 0.123284 0.603646
vt 0.118952 0.573265
vt 0.115039 0.574510
vt 0.112238 0.563284
vt 0.108576 0.564981
vt 0.130049 0.625967
vt 0.125820 0.626257
vt 0.132164 0.644301
vt 0.127917 0.644485
vt 0.133808 0.666884
vt 0.129592 0.667003
vt 0.133723 0.689286
vt 0.129488 0.689291
vt 0.132299 0.727158
vt 0.132515 0.800319
vt 0.128472 0.800275
vt 0.128064 0.727089
vt 0.131831 0.881727
vt 0.127868 0.878354
vt 0.443217 0.686440
vt 0.435360 0.686440
vt 0.435360 0.652714
vt 0.443217 0.652714
vt 0.438384 0.737831
vt 0.430531 0.737831
vt 0.430531 0.698861
vt 0.438384 0.698861
vt 0.435620 0.613320
vt 0.443477 0.613320
vt 0.443477 0.647046
vt 0.435620 0.647046
vt 0.435276 0.751959
vt 0.443078 0.751959
vt 0.443078 0.790928
vt 0.435276 0.790928
vt 0.277553 0.862930
vt 0.277553 0.901900
vt 0.243840 0.901900
vt 0.243840 0.862930
vt 0.177299 0.907985
vt 0.177299 0.928089
vt 0.172898 0.928089
vt 0.172898 0.907985
vt 0.237030 0.870800
vt 0.216927 0.870800
vt 0.210117 0.862930
vt 0.216927 0.894030
vt 0.210117 0.901900
vt 0.237030 0.894030
vt 0.243840 0.901900
vt 0.389192 0.652136
vt 0.389192 0.628905
vt 0.409295 0.628905
vt 0.409295 0.652136
vt 0.164613 0.907985
vt 0.164613 0.931215
vt 0.160243 0.931215
vt 0.160243 0.907985
vt 0.442783 0.728239
vt 0.442783 0.751469
vt 0.438384 0.751469
vt 0.438384 0.728239
vt 0.181701 0.907985
vt 0.181701 0.928089
vt 0.209978 0.878573
vt 0.209978 0.907938
vt 0.209267 0.907939
vt 0.209267 0.878574
vt 0.443698 0.593264
vt 0.443698 0.563903
vt 0.445720 0.563916
vt 0.445720 0.593278
vt 0.444967 0.870851
vt 0.444967 0.900216
vt 0.444255 0.900215
vt 0.444255 0.870850
vt 0.440407 0.728239
vt 0.440407 0.698886
vt 0.442429 0.698861
vt 0.442429 0.728215
vt 0.444135 0.727077
vt 0.442429 0.727098
vt 0.442429 0.698882
vt 0.444135 0.698861
vt 0.066196 0.910183
vt 0.066196 0.912367
vt 0.065542 0.912634
vt 0.064015 0.911073
vt 0.064669 0.908622
vt 0.064015 0.908888
vt 0.445841 0.727098
vt 0.445841 0.698882
vt 0.438384 0.728215
vt 0.438384 0.698861
vt 0.441675 0.593278
vt 0.441675 0.563916
vt 0.060198 0.912350
vt 0.060716 0.912350
vt 0.060813 0.912667
vt 0.060102 0.912667
vt 0.059481 0.910644
vt 0.059271 0.910644
vt 0.060716 0.908938
vt 0.060198 0.908938
vt 0.060102 0.908622
vt 0.060813 0.908622
vt 0.061434 0.910644
vt 0.061643 0.910644
vt 0.070178 0.909916
vt 0.071502 0.908622
vt 0.071979 0.908822
vt 0.071979 0.910673
vt 0.070178 0.911767
vt 0.070656 0.911968
vt 0.277553 0.862931
vt 0.278071 0.862930
vt 0.278071 0.891157
vt 0.277553 0.891158
vt 0.380948 0.888333
vt 0.381466 0.888334
vt 0.381466 0.916560
vt 0.380948 0.916560
vt 0.444923 0.680949
vt 0.443217 0.680938
vt 0.444923 0.652726
vt 0.446630 0.680938
vt 0.446630 0.652714
vt 0.407271 0.896348
vt 0.407271 0.925713
vt 0.406560 0.925714
vt 0.406560 0.896349
vt 0.444195 0.825168
vt 0.444195 0.795806
vt 0.446217 0.795819
vt 0.446217 0.825181
vt 0.444967 0.900217
vt 0.444967 0.929582
vt 0.444255 0.929581
vt 0.444255 0.900216
vt 0.131563 0.911105
vt 0.131563 0.881752
vt 0.133586 0.881727
vt 0.133586 0.911081
vt 0.443878 0.853396
vt 0.442172 0.853418
vt 0.442172 0.825202
vt 0.443878 0.825181
vt 0.068378 0.910183
vt 0.068378 0.912367
vt 0.067724 0.912634
vt 0.066196 0.911073
vt 0.066851 0.908622
vt 0.066196 0.908888
vt 0.445585 0.853418
vt 0.445585 0.825202
vt 0.129541 0.911081
vt 0.129541 0.881727
vt 0.442172 0.825181
vt 0.442172 0.795819
vt 0.062570 0.912350
vt 0.063088 0.912350
vt 0.063185 0.912667
vt 0.062473 0.912667
vt 0.061852 0.910644
vt 0.061643 0.910644
vt 0.063088 0.908938
vt 0.062570 0.908938
vt 0.062473 0.908622
vt 0.063185 0.908622
vt 0.063806 0.910644
vt 0.064015 0.910644
vt 0.068378 0.909916
vt 0.069701 0.908622
vt 0.070178 0.908822
vt 0.070178 0.910673
vt 0.068378 0.911767
vt 0.068855 0.911968
vt 0.277553 0.891158
vt 0.278071 0.891158
vt 0.278071 0.919384
vt 0.277553 0.919385
vt 0.445585 0.825181
vt 0.446103 0.825182
vt 0.446103 0.853408
vt 0.445585 0.853408
vt 0.444784 0.780194
vt 0.443078 0.780183
vt 0.444784 0.751970
vt 0.446490 0.780183
vt 0.446490 0.751959
vt 0.271879 0.775662
vt 0.271895 0.774975
vt 0.273342 0.711628
vt 0.244122 0.768703
vt 0.226723 0.768064
vt 0.262573 0.728794
vt 0.261520 0.768064
vt 0.244122 0.711565
vt 0.216349 0.774975
vt 0.216364 0.775662
vt 0.214902 0.711628
vt 0.225670 0.728794
vt 0.244122 0.728814
vt 0.244122 0.785954
vt 0.271669 0.784852
vt 0.271669 0.784852
vt 0.271669 0.784852
vt 0.244122 0.785953
vt 0.271669 0.784852
vt 0.271669 0.784852
vt 0.244122 0.785954
vt 0.244122 0.785954
vt 0.244122 0.785954
vt 0.244122 0.785954
s 0
usemtl Material.002
f 3/1/1 4/2/1 1/3/1 2/4/1
f 1/5/2 4/6/2 6/7/2 5/8/2
f 7/9/3 12/10/3 14/11/3 9/12/3
f 9/12/4 14/11/4 13/13/4 10/14/4
f 10/15/5 13/5/5 11/16/5 8/17/5
f 2/18/6 1/19/6 5/20/6 7/21/6 9/22/6 10/23/6 8/24/6
f 12/10/7 7/9/7 5/25/7 6/26/7
f 3/27/8 2/28/8 8/17/8 11/16/8
f 4/29/9 3/30/9 11/31/9 13/32/9 14/33/9 12/34/9 6/35/9
f 15/36/10 16/37/10 18/38/10 17/39/10
f 18/38/11 16/37/11 19/40/11 20/41/11
f 19/40/12 16/37/12 22/42/12 23/43/12
f 16/37/13 15/36/13 21/44/13 22/42/13
f 18/38/14 20/41/14 26/45/14 25/46/14
f 17/39/15 18/38/15 25/46/15 24/47/15
f 25/46/16 26/45/16 29/48/16 28/49/16
f 24/47/17 25/46/17 28/49/17 27/50/17
f 28/51/18 29/52/18 32/53/18 31/54/18
f 27/50/19 28/49/19 31/55/19 30/56/19
f 23/43/20 22/42/20 34/57/20 35/58/20
f 22/42/21 21/44/21 33/59/21 34/57/21
f 35/60/22 34/61/22 37/62/22 38/63/22
f 34/57/23 33/59/23 36/64/23 37/65/23
f 38/63/24 37/62/24 40/66/24 41/67/24
f 37/65/25 36/64/25 39/68/25 40/69/25
f 41/67/26 40/66/26 43/70/26 44/71/26
f 40/69/27 39/68/27 42/72/27 43/73/27
f 44/74/28 43/73/28 45/75/28 46/76/28
f 46/76/29 45/75/29 47/77/29 48/78/29
f 48/78/30 47/77/30 49/79/30 50/80/30
f 43/73/31 42/72/31 45/75/31
f 50/81/32 49/82/32 51/83/32 52/84/32
f 50/85/33 52/86/33 53/87/33 48/88/33
f 48/88/34 53/87/34 54/89/34 46/90/34
f 46/90/35 54/89/35 55/91/35 44/71/35
f 44/71/36 55/91/36 57/92/36 41/67/36
f 41/67/37 57/92/37 58/93/37 38/63/37
f 38/63/38 58/93/38 56/94/38 35/60/38
f 35/60/39 56/94/39 59/95/39 23/96/39
f 23/96/40 59/95/40 60/97/40 19/98/40
f 19/98/41 60/97/41 61/99/41 20/100/41
f 20/100/42 61/99/42 62/101/42 26/102/42
f 26/102/43 62/101/43 63/103/43 29/52/43
f 29/52/44 63/103/44 32/53/44
f 64/104/45 66/105/45 67/106/45 65/107/45
f 67/106/46 69/108/46 68/109/46 65/107/46
f 68/109/47 72/110/47 71/111/47 65/107/47
f 65/107/48 71/111/48 70/112/48 64/104/48
f 67/106/49 74/113/49 75/114/49 69/108/49
f 66/105/50 73/115/50 74/113/50 67/106/50
f 74/113/51 77/116/51 78/117/51 75/114/51
f 73/115/52 76/118/52 77/116/52 74/113/52
f 77/119/53 31/54/53 32/53/53 78/120/53
f 76/118/54 30/121/54 31/122/54 77/116/54
f 72/110/55 81/123/55 80/124/55 71/111/55
f 71/111/56 80/124/56 79/125/56 70/112/56
f 81/126/57 84/127/57 83/128/57 80/129/57
f 80/124/58 83/130/58 82/131/58 79/125/58
f 84/127/59 87/132/59 86/133/59 83/128/59
f 83/130/60 86/134/60 85/135/60 82/131/60
f 87/132/61 90/136/61 89/137/61 86/133/61
f 86/134/62 89/138/62 88/139/62 85/135/62
f 90/140/63 92/141/63 91/142/63 89/138/63
f 92/141/64 94/143/64 93/144/64 91/142/64
f 94/143/65 96/145/65 95/146/65 93/144/65
f 89/138/66 91/142/66 88/139/66
f 96/147/67 52/84/67 51/83/67 95/148/67
f 96/149/68 94/150/68 53/87/68 52/86/68
f 94/150/69 92/151/69 54/89/69 53/87/69
f 92/151/70 90/136/70 55/91/70 54/89/70
f 90/136/71 87/132/71 57/92/71 55/91/71
f 87/132/72 84/127/72 58/93/72 57/92/72
f 84/127/73 81/126/73 56/94/73 58/93/73
f 81/126/74 72/152/74 59/95/74 56/94/74
f 72/152/75 68/153/75 60/97/75 59/95/75
f 68/153/76 69/154/76 61/99/76 60/97/76
f 69/154/77 75/155/77 62/101/77 61/99/77
f 75/155/78 78/120/78 63/103/78 62/101/78
f 78/120/79 32/53/79 63/103/79
f 97/156/80 99/157/80 100/158/80 98/159/80
f 100/158/81 102/160/81 101/161/81 98/159/81
f 101/161/82 105/162/82 104/163/82 98/159/82
f 98/159/83 104/163/83 103/164/83 97/156/83
f 100/158/84 107/165/84 108/166/84 102/160/84
f 99/157/85 106/167/85 107/165/85 100/158/85
f 107/165/86 110/168/86 111/169/86 108/166/86
f 106/167/87 109/170/87 110/168/87 107/165/87
f 110/171/88 113/172/88 114/173/88 111/174/88
f 109/170/89 112/175/89 113/176/89 110/168/89
f 105/162/90 117/177/90 116/178/90 104/163/90
f 104/163/91 116/178/91 115/179/91 103/164/91
f 117/180/92 120/181/92 119/182/92 116/183/92
f 116/178/93 119/184/93 118/185/93 115/179/93
f 120/181/94 123/186/94 122/187/94 119/182/94
f 119/184/95 122/188/95 121/189/95 118/185/95
f 123/186/96 126/190/96 125/191/96 122/187/96
f 122/188/97 125/192/97 124/193/97 121/189/97
f 126/194/98 128/195/98 127/196/98 125/192/98
f 128/195/99 130/197/99 129/198/99 127/196/99
f 130/197/100 132/199/100 131/200/100 129/198/100
f 125/192/101 127/196/101 124/193/101
f 132/201/102 134/202/102 133/203/102 131/204/102
f 132/205/103 130/206/103 135/207/103 134/208/103
f 130/206/104 128/209/104 136/210/104 135/207/104
f 128/209/105 126/190/105 137/211/105 136/210/105
f 126/190/106 123/186/106 139/212/106 137/211/106
f 123/186/107 120/181/107 140/213/107 139/212/107
f 120/181/108 117/180/108 138/214/108 140/213/108
f 117/180/109 105/215/109 141/216/109 138/214/109
f 105/215/110 101/217/110 142/218/110 141/216/110
f 101/217/111 102/219/111 143/220/111 142/218/111
f 102/219/112 108/221/112 144/222/112 143/220/112
f 108/221/113 111/223/113 145/224/113 144/222/113
f 111/223/114 114/225/114 145/224/114
f 146/226/115 147/227/115 149/228/115 148/229/115
f 149/228/116 147/227/116 150/230/116 151/231/116
f 150/230/117 147/227/117 153/232/117 154/233/117
f 147/227/118 146/226/118 152/234/118 153/232/118
f 149/228/119 151/231/119 157/235/119 156/236/119
f 148/229/120 149/228/120 156/236/120 155/237/120
f 156/236/121 157/235/121 160/169/121 159/238/121
f 155/237/122 156/236/122 159/238/122 158/239/122
f 159/240/123 160/241/123 114/173/123 113/172/123
f 158/239/124 159/238/124 113/242/124 112/243/124
f 154/233/125 153/232/125 162/244/125 163/245/125
f 153/232/126 152/234/126 161/246/126 162/244/126
f 163/247/127 162/248/127 165/249/127 166/250/127
f 162/244/128 161/246/128 164/251/128 165/252/128
f 166/250/129 165/249/129 168/253/129 169/254/129
f 165/252/130 164/251/130 167/255/130 168/256/130
f 169/254/131 168/253/131 171/257/131 172/258/131
f 168/256/132 167/255/132 170/259/132 171/260/132
f 172/261/133 171/260/133 173/262/133 174/263/133
f 174/263/134 173/262/134 175/264/134 176/265/134
f 176/265/135 175/264/135 177/266/135 178/267/135
f 171/260/136 170/259/136 173/262/136
f 178/268/137 177/269/137 133/203/137 134/202/137
f 178/270/138 134/208/138 135/207/138 176/271/138
f 176/271/139 135/207/139 136/210/139 174/272/139
f 174/272/140 136/210/140 137/211/140 172/258/140
f 172/258/141 137/211/141 139/212/141 169/254/141
f 169/254/142 139/212/142 140/213/142 166/250/142
f 166/250/143 140/213/143 138/214/143 163/247/143
f 163/247/144 138/214/144 141/216/144 154/273/144
f 154/273/145 141/216/145 142/218/145 150/274/145
f 150/274/146 142/218/146 143/220/146 151/275/146
f 151/275/147 143/220/147 144/222/147 157/276/147
f 157/276/148 144/222/148 145/224/148 160/277/148
f 160/277/149 145/224/149 114/225/149
f 15/278/150 17/279/150 99/280/150 97/281/150
f 21/282/151 15/278/151 97/281/151 103/283/151
f 17/279/152 24/284/152 106/285/152 99/280/152
f 24/284/153 27/286/153 109/287/153 106/285/153
f 27/286/154 30/288/154 112/289/154 109/287/154
f 33/290/155 21/282/155 103/283/155 115/291/155
f 36/292/156 33/290/156 115/291/156 118/293/156
f 39/294/157 36/292/157 118/293/157 121/295/157
f 42/296/158 39/294/158 121/295/158 124/297/158
f 47/298/159 45/299/159 127/300/159 129/301/159
f 49/302/160 47/298/160 129/301/160 131/303/160
f 45/299/161 42/296/161 124/297/161 127/300/161
f 51/304/162 49/302/162 131/303/162 133/305/162
f 66/306/163 64/307/163 146/308/163 148/309/163
f 64/307/164 70/310/164 152/311/164 146/308/164
f 73/312/165 66/306/165 148/309/165 155/313/165
f 76/314/166 73/312/166 155/313/166 158/315/166
f 30/288/167 76/314/167 158/315/167 112/289/167
f 70/310/168 79/316/168 161/317/168 152/311/168
f 79/316/169 82/318/169 164/319/169 161/317/169
f 82/318/170 85/320/170 167/321/170 164/319/170
f 85/320/171 88/322/171 170/323/171 167/321/171
f 91/324/172 93/325/172 175/326/172 173/327/172
f 93/325/173 95/328/173 177/329/173 175/326/173
f 88/322/174 91/324/174 173/327/174 170/323/174
f 95/328/175 51/304/175 133/305/175 177/329/175
f 179/330/176 187/331/176 188/332/176 181/333/176
f 181/334/177 188/335/177 189/336/177 185/337/177
f 185/338/178 189/339/178 190/340/178 183/341/178
f 183/342/179 190/343/179 187/344/179 179/345/179
f 181/346/180 185/347/180 183/348/180 179/349/180
f 182/350/181 180/351/181 191/352/181 192/353/181
f 180/354/182 182/355/182 188/356/182 187/349/182
f 182/355/183 186/357/183 189/358/183 188/356/183
f 186/357/184 184/359/184 190/360/184 189/358/184
f 184/359/185 180/354/185 187/349/185 190/360/185
f 193/361/186 192/362/186 191/363/186 194/364/186
f 180/365/187 184/366/187 194/367/187 191/368/187
f 186/369/188 182/370/188 192/371/188 193/372/188
f 184/351/189 186/350/189 193/373/189 194/374/189
f 208/375/190 196/376/190 198/377/190 207/378/190
f 209/379/191 204/380/191 202/381/191 211/382/191
f 211/383/192 202/384/192 200/385/192 210/386/192
f 212/387/193 206/388/193 196/389/193 208/390/193
f 203/391/194 201/392/194 218/393/194 213/394/194
f 204/395/195 198/396/195 196/397/195 206/398/195
f 202/399/196 204/395/196 206/398/196 200/400/196
f 197/401/197 203/391/197 213/394/197 215/402/197
f 210/403/198 200/404/198 206/388/198 212/387/198
f 207/405/199 198/406/199 204/380/199 209/379/199
f 197/407/200 195/408/200 208/409/200 207/410/200
f 203/411/201 197/407/201 207/410/201 209/412/201
f 199/413/202 201/414/202 211/415/202 210/416/202
f 205/417/203 199/413/203 210/416/203 212/418/203
f 201/414/204 203/411/204 209/412/204 211/415/204
f 195/408/205 205/417/205 212/418/205 208/409/205
f 213/419/206 218/420/206 217/421/206 214/422/206
f 215/423/207 213/419/207 214/422/207 216/424/207
f 201/425/208 199/426/208 217/427/208 218/428/208
f 195/429/209 197/430/209 215/431/209 216/432/209
f 205/433/210 195/434/210 216/333/210 214/435/210
f 199/436/211 205/433/211 214/435/211 217/437/211
f 232/438/212 220/439/212 222/440/212 231/441/212
f 233/442/213 228/443/213 226/444/213 235/445/213
f 235/446/214 226/447/214 224/448/214 234/449/214
f 236/450/215 230/451/215 220/452/215 232/453/215
f 227/454/216 225/455/216 242/456/216 237/457/216
f 228/458/217 222/459/217 220/460/217 230/461/217
f 226/462/218 228/458/218 230/461/218 224/463/218
f 221/464/219 227/454/219 237/457/219 239/465/219
f 234/466/220 224/467/220 230/451/220 236/450/220
f 231/468/221 222/469/221 228/443/221 233/442/221
f 221/470/222 219/471/222 232/472/222 231/473/222
f 227/474/223 221/470/223 231/473/223 233/475/223
f 223/476/224 225/477/224 235/478/224 234/479/224
f 229/480/225 223/476/225 234/479/225 236/481/225
f 225/477/226 227/474/226 233/475/226 235/478/226
f 219/471/227 229/480/227 236/481/227 232/472/227
f 237/482/228 242/483/228 241/484/228 238/485/228
f 239/486/229 237/482/229 238/485/229 240/487/229
f 225/488/230 223/489/230 241/490/230 242/491/230
f 219/492/231 221/493/231 239/494/231 240/495/231
f 229/496/232 219/497/232 240/343/232 238/498/232
f 223/499/233 229/496/233 238/498/233 241/500/233
f 245/206/234 246/207/234 247/210/234 244/209/234
f 244/209/235 247/210/235 248/211/235 243/190/235
f 251/271/236 250/272/236 247/210/236 246/207/236
f 250/272/237 249/258/237 248/211/237 247/210/237
f 260/501/238 277/502/238 322/502/238 320/501/238
f 304/209/239 253/190/239 257/211/239 305/210/239
f 258/503/240 260/501/240 320/501/240 316/503/240
f 307/272/241 305/210/241 257/211/241 259/258/241
f 243/190/242 248/211/242 257/211/242 253/190/242
f 255/207/243 306/271/243 266/271/243 264/207/243
f 244/209/244 243/190/244 253/190/244 304/209/244
f 303/206/245 255/207/245 264/207/245 265/206/245
f 249/258/246 250/272/246 307/272/246 259/258/246
f 245/206/247 244/209/247 304/209/247 303/206/247
f 248/211/248 249/258/248 259/258/248 257/211/248
f 250/272/249 251/271/249 306/271/249 307/272/249
f 263/271/250 261/207/250 267/207/250 269/271/250
f 264/207/251 266/271/251 272/271/251 270/207/251
f 245/206/252 303/206/252 265/206/252 262/206/252
f 246/207/253 245/206/253 262/206/253 261/207/253
f 251/271/250 246/207/250 261/207/250 263/271/250
f 306/271/254 251/271/254 263/271/254 266/271/254
f 268/206/252 271/206/252 283/206/252 280/206/252
f 272/271/254 269/271/254 281/271/254 284/271/254
f 266/271/254 263/271/254 269/271/254 272/271/254
f 262/206/252 265/206/252 271/206/252 268/206/252
f 265/206/255 264/207/255 270/207/255 271/206/255
f 261/207/253 262/206/253 268/206/253 267/207/253
f 275/504/256 308/505/256 331/505/256 329/504/256
f 312/506/257 311/507/257 333/507/257 334/506/257
f 276/508/258 309/209/258 314/209/258 318/508/258
f 255/207/259 303/206/259 323/206/259 325/207/259
f 273/509/260 254/510/260 319/510/260 321/509/260
f 306/271/261 255/207/261 325/207/261 327/271/261
f 279/207/262 280/206/262 283/206/262 282/207/262
f 281/271/263 279/207/263 282/207/263 284/271/263
f 270/207/264 272/271/264 287/271/264 285/207/264
f 267/207/253 268/206/253 280/206/253 279/207/253
f 284/271/263 282/207/263 288/207/263 290/271/263
f 269/271/250 267/207/250 279/207/250 281/271/250
f 288/207/265 289/206/265 295/206/265 294/207/265
f 287/271/266 290/271/266 296/271/266 293/271/266
f 283/206/252 271/206/252 286/206/252 289/206/252
f 282/207/262 283/206/262 289/206/262 288/207/262
f 271/206/267 270/207/267 285/207/267 286/206/267
f 272/271/254 284/271/254 290/271/254 287/271/254
f 294/207/268 295/206/268 301/206/268 300/207/268
f 293/271/254 296/271/254 302/271/254 299/271/254
f 286/206/269 285/207/269 291/207/269 292/206/269
f 289/206/270 286/206/270 292/206/270 295/206/270
f 290/271/271 288/207/271 294/207/271 296/271/271
f 285/207/272 287/271/272 293/271/272 291/207/272
f 298/206/273 297/207/273 300/207/273 301/206/273
f 302/271/274 300/207/274 337/207/274 338/271/274
f 292/206/275 291/207/275 297/207/275 298/206/275
f 295/206/252 292/206/252 298/206/252 301/206/252
f 296/271/276 294/207/276 300/207/276 302/271/276
f 291/207/277 293/271/277 299/271/277 297/207/277
f 252/511/278 254/510/278 303/206/278 304/209/278
f 256/508/279 252/511/279 304/209/279 305/210/279
f 260/501/280 258/503/280 307/272/280 306/271/280
f 258/503/281 256/508/281 305/210/281 307/272/281
f 273/509/282 309/209/282 324/209/282 323/206/282
f 309/209/283 276/508/283 310/210/283 324/209/283
f 278/503/284 277/502/284 327/271/284 328/272/284
f 276/508/285 278/503/285 328/272/285 310/210/285
f 254/510/286 273/509/286 323/206/286 303/206/286
f 277/502/287 260/501/287 306/271/287 327/271/287
f 316/503/288 320/501/288 322/502/288 315/503/288
f 319/510/289 313/511/289 314/209/289 321/509/289
f 313/511/290 317/508/290 318/508/290 314/209/290
f 317/508/291 316/503/291 315/503/291 318/508/291
f 277/502/292 278/503/292 315/503/292 322/502/292
f 256/508/293 258/503/293 316/503/293 317/508/293
f 254/510/294 252/511/294 313/511/294 319/510/294
f 278/503/295 276/508/295 318/508/295 315/503/295
f 309/209/296 273/509/296 321/509/296 314/209/296
f 252/511/297 256/508/297 317/508/297 313/511/297
f 274/512/298 308/505/298 323/206/298 324/209/298
f 308/505/299 275/504/299 325/207/299 323/206/299
f 326/513/300 274/512/300 324/209/300 310/210/300
f 311/507/301 312/506/301 328/272/301 327/271/301
f 275/504/302 311/507/302 327/271/302 325/207/302
f 312/506/303 326/513/303 310/210/303 328/272/303
f 331/505/304 332/512/304 330/513/304 329/504/304
f 333/507/305 329/504/305 330/513/305 334/506/305
f 311/507/306 275/504/306 329/504/306 333/507/306
f 274/512/307 326/513/307 330/513/307 332/512/307
f 308/505/308 274/512/308 332/512/308 331/505/308
f 326/513/309 312/506/309 334/506/309 330/513/309
f 418/514/310 419/515/310 340/515/310 341/514/310
f 297/207/311 299/271/311 336/271/311 335/207/311
f 300/207/312 297/207/312 335/207/312 337/207/312
f 299/271/313 302/271/313 338/271/313 336/271/313
f 423/516/314 420/271/314 339/271/314 427/516/314
f 420/271/315 417/514/315 342/514/315 339/271/315
f 427/516/316 339/271/316 340/515/316 428/517/316
f 426/518/317 427/516/317 428/517/317 425/207/317
f 341/514/318 340/515/318 339/271/318 342/514/318
f 417/514/319 422/518/319 426/518/319 342/514/319
f 342/514/320 426/518/320 425/207/320 341/514/320
f 346/271/321 345/207/321 349/207/321 350/271/321
f 345/207/322 343/207/322 347/207/322 349/207/322
f 343/207/323 344/271/323 348/271/323 347/207/323
f 344/271/324 346/271/324 350/271/324 348/271/324
f 349/207/325 347/207/325 351/207/325 353/207/325
f 351/207/326 352/271/326 354/271/326 353/207/326
f 350/271/327 349/207/327 353/207/327 354/271/327
f 348/271/328 350/271/328 354/271/328 352/271/328
f 347/207/329 348/271/329 352/271/329 351/207/329
f 358/6/330 355/5/330 445/5/330 448/6/330
f 355/5/331 358/6/331 360/7/331 359/8/331
f 361/9/332 366/10/332 368/11/332 363/12/332
f 363/12/333 368/11/333 367/13/333 364/14/333
f 364/15/334 367/5/334 365/16/334 362/17/334
f 356/18/335 355/19/335 359/20/335 361/21/335 363/22/335 364/23/335 362/24/335
f 366/10/336 361/9/336 359/25/336 360/26/336
f 357/27/337 356/28/337 362/17/337 365/16/337
f 358/29/338 357/30/338 365/31/338 367/32/338 368/33/338 366/34/338 360/35/338
f 382/375/339 370/376/339 372/377/339 381/378/339
f 383/379/340 378/380/340 376/381/340 385/382/340
f 385/383/341 376/384/341 374/385/341 384/386/341
f 386/387/342 380/388/342 370/389/342 382/390/342
f 377/391/343 375/392/343 392/393/343 387/394/343
f 378/395/344 372/396/344 370/397/344 380/398/344
f 376/399/345 378/395/345 380/398/345 374/400/345
f 371/401/346 377/391/346 387/394/346 389/402/346
f 384/403/347 374/404/347 380/388/347 386/387/347
f 381/405/348 372/406/348 378/380/348 383/379/348
f 371/407/349 369/408/349 382/409/349 381/410/349
f 377/411/350 371/407/350 381/410/350 383/412/350
f 373/413/351 375/414/351 385/415/351 384/416/351
f 379/417/352 373/413/352 384/416/352 386/418/352
f 375/414/353 377/411/353 383/412/353 385/415/353
f 369/408/354 379/417/354 386/418/354 382/409/354
f 387/419/355 392/420/355 391/421/355 388/422/355
f 389/423/356 387/419/356 388/422/356 390/424/356
f 375/425/357 373/426/357 391/427/357 392/428/357
f 369/429/358 371/430/358 389/431/358 390/432/358
f 379/433/359 369/434/359 390/333/359 388/435/359
f 373/436/360 379/433/360 388/435/360 391/437/360
f 406/438/361 394/439/361 396/440/361 405/441/361
f 407/442/362 402/443/362 400/444/362 409/445/362
f 409/446/363 400/447/363 398/448/363 408/449/363
f 410/450/364 404/451/364 394/452/364 406/453/364
f 401/454/365 399/455/365 416/456/365 411/457/365
f 402/458/366 396/459/366 394/460/366 404/461/366
f 400/462/367 402/458/367 404/461/367 398/463/367
f 395/464/368 401/454/368 411/457/368 413/465/368
f 408/466/369 398/467/369 404/451/369 410/450/369
f 405/468/370 396/469/370 402/443/370 407/442/370
f 395/470/371 393/471/371 406/472/371 405/473/371
f 401/474/372 395/470/372 405/473/372 407/475/372
f 397/476/373 399/477/373 409/478/373 408/479/373
f 403/480/374 397/476/374 408/479/374 410/481/374
f 399/477/375 401/474/375 407/475/375 409/478/375
f 393/471/376 403/480/376 410/481/376 406/472/376
f 411/482/377 416/483/377 415/484/377 412/485/377
f 413/486/378 411/482/378 412/485/378 414/487/378
f 399/488/379 397/489/379 415/490/379 416/491/379
f 393/492/380 395/493/380 413/494/380 414/495/380
f 403/496/381 393/497/381 414/343/381 412/498/381
f 397/499/382 403/496/382 412/498/382 415/500/382
f 422/518/383 423/516/383 427/516/383 426/518/383
f 424/517/384 421/207/384 425/207/384 428/517/384
f 419/515/385 424/517/385 428/517/385 340/515/385
f 421/207/386 418/514/386 341/514/386 425/207/386
f 443/519/387 430/515/387 429/515/387 444/520/387
f 337/207/388 335/207/388 418/514/388 421/207/388
f 335/207/389 336/271/389 419/515/389 418/514/389
f 438/521/390 439/519/390 443/519/390 442/521/390
f 430/515/391 431/522/391 432/523/391 429/515/391
f 336/271/392 338/271/392 424/517/392 419/515/392
f 338/271/393 337/207/393 421/207/393 424/517/393
f 435/515/394 434/522/394 431/522/394 430/515/394
f 440/520/395 437/524/395 441/524/395 444/520/395
f 431/522/396 442/521/396 441/524/396 432/523/396
f 442/521/397 443/519/397 444/520/397 441/524/397
f 434/522/398 438/521/398 442/521/398 431/522/398
f 437/524/399 433/523/399 432/523/399 441/524/399
f 433/523/400 436/515/400 429/515/400 432/523/400
f 439/519/401 435/515/401 430/515/401 443/519/401
f 436/515/402 440/520/402 444/520/402 429/515/402
f 417/514/403 420/271/403 436/515/403 433/523/403
f 438/521/404 434/522/404 343/207/404 345/207/404
f 422/518/404 417/514/404 433/523/404 437/524/404
f 434/522/403 435/515/403 344/271/403 343/207/403
f 435/515/405 439/519/405 346/271/405 344/271/405
f 420/271/405 423/516/405 440/520/405 436/515/405
f 439/519/406 438/521/406 345/207/406 346/271/406
f 423/516/406 422/518/406 437/524/406 440/520/406
f 447/1/407 448/2/407 445/3/407 446/4/407
f 356/28/408 357/27/408 447/27/408 446/28/408
f 357/30/409 358/29/409 448/29/409 447/30/409
f 355/19/410 356/18/410 446/18/410 445/19/410
f 452/6/411 449/5/411 511/5/411 514/6/411
f 449/5/412 452/6/412 454/7/412 453/8/412
f 455/9/413 460/10/413 462/11/413 457/12/413
f 457/12/414 462/11/414 461/13/414 458/14/414
f 458/15/415 461/5/415 459/16/415 456/17/415
f 450/18/416 449/19/416 453/20/416 455/21/416 457/22/416 458/23/416 456/24/416
f 460/10/417 455/9/417 453/25/417 454/26/417
f 451/27/418 450/28/418 456/17/418 459/16/418
f 452/29/419 451/30/419 459/31/419 461/32/419 462/33/419 460/34/419 454/35/419
f 476/375/420 464/376/420 466/377/420 475/378/420
f 477/379/421 472/380/421 470/381/421 479/382/421
f 479/383/422 470/384/422 468/385/422 478/386/422
f 480/387/423 474/388/423 464/389/423 476/390/423
f 471/391/424 469/392/424 486/393/424 481/394/424
f 472/395/425 466/396/425 464/397/425 474/398/425
f 470/399/426 472/395/426 474/398/426 468/400/426
f 465/401/427 471/391/427 481/394/427 483/402/427
f 478/403/428 468/404/428 474/388/428 480/387/428
f 475/405/429 466/406/429 472/380/429 477/379/429
f 465/407/430 463/408/430 476/409/430 475/410/430
f 471/411/431 465/407/431 475/410/431 477/412/431
f 467/413/432 469/414/432 479/415/432 478/416/432
f 473/417/433 467/413/433 478/416/433 480/418/433
f 469/414/434 471/411/434 477/412/434 479/415/434
f 463/408/435 473/417/435 480/418/435 476/409/435
f 481/419/436 486/420/436 485/421/436 482/422/436
f 483/423/437 481/419/437 482/422/437 484/424/437
f 469/425/438 467/426/438 485/427/438 486/428/438
f 463/429/439 465/430/439 483/431/439 484/432/439
f 473/433/440 463/434/440 484/333/440 482/435/440
f 467/436/441 473/433/441 482/435/441 485/437/441
f 500/438/442 488/439/442 490/440/442 499/441/442
f 501/442/443 496/443/443 494/444/443 503/445/443
f 503/446/444 494/447/444 492/448/444 502/449/444
f 504/450/445 498/451/445 488/452/445 500/453/445
f 495/454/446 493/455/446 510/456/446 505/457/446
f 496/458/447 490/459/447 488/460/447 498/461/447
f 494/462/448 496/458/448 498/461/448 492/463/448
f 489/464/449 495/454/449 505/457/449 507/465/449
f 502/466/450 492/467/450 498/451/450 504/450/450
f 499/468/451 490/469/451 496/443/451 501/442/451
f 489/470/452 487/471/452 500/472/452 499/473/452
f 495/474/453 489/470/453 499/473/453 501/475/453
f 491/476/454 493/477/454 503/478/454 502/479/454
f 497/480/455 491/476/455 502/479/455 504/481/455
f 493/477/456 495/474/456 501/475/456 503/478/456
f 487/471/457 497/480/457 504/481/457 500/472/457
f 505/482/458 510/483/458 509/484/458 506/485/458
f 507/486/459 505/482/459 506/485/459 508/487/459
f 493/488/460 491/489/460 509/490/460 510/491/460
f 487/492/461 489/493/461 507/494/461 508/495/461
f 497/496/462 487/497/462 508/343/462 506/498/462
f 491/499/463 497/496/463 506/498/463 509/500/463
f 513/1/464 514/2/464 511/3/464 512/4/464
f 450/28/465 451/27/465 513/27/465 512/28/465
f 451/30/466 452/29/466 514/29/466 513/30/466
f 449/19/467 450/18/467 512/18/467 511/19/467
