# Blender 4.5.4 LTS
# www.blender.org
mtllib bomb.mtl
o Cube.004
v -1.585028 0.201538 -0.443865
v -0.443865 0.201538 -1.585028
v -0.443865 -0.201538 -1.585028
v -1.585028 -0.201538 -0.443865
v -0.443865 0.201538 1.585028
v -1.585028 0.201538 0.443865
v -1.585028 -0.201538 0.443865
v -0.443865 -0.201538 1.585028
v -0.201538 -1.000000 0.201538
v -0.201538 -0.201538 1.000000
v -1.000000 -0.201538 0.201538
v -0.201538 0.201538 1.000000
v -0.201538 1.000000 0.201538
v -1.000000 0.201538 0.201538
v -0.201538 -1.000000 -0.201538
v -1.000000 -0.201538 -0.201538
v -0.201538 -0.201538 -1.000000
v -0.201538 1.000000 -0.201538
v -0.201538 0.201538 -1.000000
v -1.000000 0.201538 -0.201538
v 0.201538 -1.000000 0.201538
v 1.000000 -0.201538 0.201538
v 0.201538 -0.201538 1.000000
v 0.201538 1.000000 0.201538
v 0.201538 0.201538 1.000000
v 1.000000 0.201538 0.201538
v 0.201538 -1.000000 -0.201538
v 0.201538 -0.201538 -1.000000
v 1.000000 -0.201538 -0.201538
v 0.201538 1.000000 -0.201538
v 1.000000 0.201538 -0.201538
v 0.201538 0.201538 -1.000000
v 1.585028 -0.201538 0.443865
v 0.443865 -0.201538 1.585028
v 0.443865 0.201538 1.585028
v 1.585028 0.201538 0.443865
v 0.443865 -0.201538 -1.585028
v 1.585028 -0.201538 -0.443865
v 1.585028 0.201538 -0.443865
v 0.443865 0.201538 -1.585028
v -1.489631 -0.691169 0.691169
v -0.691169 -1.489631 0.691169
v -0.691169 -0.691169 1.489631
v -1.489631 0.691169 0.691169
v -0.691169 0.691169 1.489631
v -0.691169 1.489631 0.691169
v -0.691169 -0.691169 -1.489631
v -0.691169 -1.489631 -0.691169
v -1.489631 -0.691169 -0.691169
v -1.489631 0.691169 -0.691169
v -0.691169 1.489631 -0.691169
v -0.691169 0.691169 -1.489631
v 0.691169 -0.691169 1.489631
v 0.691169 -1.489631 0.691169
v 1.489631 -0.691169 0.691169
v 1.489631 0.691169 0.691169
v 0.691169 1.489631 0.691169
v 0.691169 0.691169 1.489631
v 1.489631 -0.691169 -0.691169
v 0.691169 -1.489631 -0.691169
v 0.691169 -0.691169 -1.489631
v 0.691169 0.691169 -1.489631
v 0.691169 1.489631 -0.691169
v 1.489631 0.691169 -0.691169
vn -1.0000 -0.0000 -0.0000
vn 0.7071 -0.0000 -0.7071
vn -0.7071 -0.0000 -0.7071
vn -0.7071 -0.0000 0.7071
vn -0.0000 -0.0000 1.0000
vn 0.7071 -0.0000 0.7071
vn 0.4082 -0.8165 -0.4082
vn -0.4082 0.8165 -0.4082
vn 0.4082 0.4082 -0.8165
vn -0.4082 -0.4082 -0.8165
vn 0.4082 0.4082 0.8165
vn -0.4082 -0.4082 0.8165
vn 0.4082 0.8165 0.4082
vn -0.8165 0.4082 -0.4082
vn -0.7071 -0.7071 -0.0000
vn -0.0000 -1.0000 -0.0000
vn -0.7071 0.7071 -0.0000
vn -0.0000 1.0000 -0.0000
vn -0.0000 -0.7071 -0.7071
vn -0.0000 0.7071 -0.7071
vn 0.7071 -0.7071 -0.0000
vn 0.7071 0.7071 -0.0000
vn -0.0000 -0.7071 0.7071
vn -0.0000 0.7071 0.7071
vn -0.0000 -0.0000 -1.0000
vn 1.0000 -0.0000 -0.0000
vn -0.5774 -0.5774 0.5774
vn -0.5774 0.5774 0.5774
vn -0.5774 -0.5774 -0.5774
vn -0.5774 0.5774 -0.5774
vn 0.5774 -0.5774 0.5774
vn 0.5774 0.5774 0.5774
vn 0.5774 -0.5774 -0.5774
vn 0.5774 0.5774 -0.5774
vn 0.8165 -0.4082 0.4082
vn -0.8165 0.4082 0.4082
vn -0.4082 0.4082 0.8165
vn -0.4082 0.8165 0.4082
vn 0.4082 -0.8165 0.4082
vn 0.8165 0.4082 -0.4082
vn -0.4082 -0.8165 0.4082
vn 0.4082 -0.4082 0.8165
vn -0.4082 -0.8165 -0.4082
vn 0.8165 0.4082 0.4082
vn -0.8165 -0.4082 -0.4082
vn -0.8165 -0.4082 0.4082
vn -0.4082 0.4082 -0.8165
vn 0.4082 0.8165 -0.4082
vn 0.4082 -0.4082 -0.8165
vn 0.8165 -0.4082 -0.4082
vt 0.474808 0.099808
vt 0.525192 0.099808
vt 0.525192 0.150192
vt 0.474808 0.150192
vt 0.525192 0.565894
vt 0.440894 0.599808
vt 0.351066 0.462063
vt 0.525192 0.400192
vt 0.525192 0.315894
vt 0.474808 0.349808
vt 0.474808 0.000000
vt 0.525192 0.000000
vt 0.351066 0.787937
vt 0.525192 0.849808
vt 0.525192 0.900192
vt 0.474808 0.900192
vt 0.440894 0.650192
vt 0.525192 0.684106
vt 0.125000 0.599808
vt 0.224808 0.500000
vt 0.662937 0.773934
vt 0.125000 0.650192
vt 0.224808 0.650192
vt 0.662937 0.476066
vt 0.224808 0.599808
vt 0.625000 0.099808
vt 0.625000 0.212318
vt 0.275192 0.599808
vt 0.275192 0.650192
vt 0.224808 0.750000
vt 0.625000 0.900192
vt 0.775192 0.599808
vt 0.775192 0.650192
s 0
usemtl Material.011
f 7/1/1 6/2/1 1/3/1 4/4/1
f 39/5/2 38/6/2 37/7/2 40/8/2
f 2/9/3 3/10/3 4/4/3 1/3/3
f 8/11/4 5/12/4 6/2/4 7/1/4
f 34/13/5 35/14/5 5/15/5 8/16/5
f 35/14/6 34/13/6 33/17/6 36/18/6
f 31/5/7 32/8/7 62/8/7 64/5/7
f 16/19/8 17/20/8 47/20/8 49/19/8
f 26/18/9 24/21/9 57/21/9 56/18/9
f 11/22/10 9/23/10 42/23/10 41/22/10
f 30/24/11 31/5/11 64/5/11 63/24/11
f 15/25/12 16/19/12 49/19/12 48/25/12
f 22/17/13 23/13/13 53/13/13 55/17/13
f 32/8/14 30/24/14 63/24/14 62/8/14
f 15/25/15 9/23/15 11/22/15 16/19/15
f 16/19/16 11/22/16 7/22/16 4/19/16
f 13/26/17 18/27/17 20/3/17 14/2/17
f 25/14/18 12/15/18 5/15/18 35/14/18
f 27/28/19 15/25/19 17/20/19 28/7/19
f 18/27/20 30/24/20 32/8/20 19/9/20
f 26/18/18 25/14/18 35/14/18 36/18/18
f 21/29/21 27/28/21 29/6/21 22/17/21
f 30/24/22 24/21/22 26/18/22 31/5/22
f 22/17/16 29/6/16 38/6/16 33/17/16
f 9/23/23 21/29/23 23/13/23 10/30/23
f 24/21/24 13/31/24 12/15/24 25/14/24
f 15/25/16 27/28/16 21/29/16 9/23/16
f 11/22/16 10/30/16 8/30/16 7/22/16
f 32/8/18 31/5/18 39/5/18 40/8/18
f 30/24/18 18/32/18 13/33/18 24/21/18
f 17/20/16 16/19/16 4/19/16 3/20/16
f 10/30/16 23/13/16 34/13/16 8/30/16
f 3/10/25 2/9/25 40/8/25 37/7/25
f 38/6/26 39/5/26 36/18/26 33/17/26
f 12/12/18 14/2/18 6/2/18 5/12/18
f 28/7/16 17/20/16 3/20/16 37/7/16
f 20/3/18 19/9/18 2/9/18 1/3/18
f 31/5/18 26/18/18 36/18/18 39/5/18
f 29/6/16 28/7/16 37/7/16 38/6/16
f 19/9/18 32/8/18 40/8/18 2/9/18
f 23/13/16 22/17/16 33/17/16 34/13/16
f 14/2/18 20/3/18 1/3/18 6/2/18
f 42/23/27 43/30/27 41/22/27
f 45/12/28 46/26/28 44/2/28
f 48/25/29 49/19/29 47/20/29
f 51/27/30 52/9/30 50/3/30
f 54/29/31 55/17/31 53/13/31
f 57/21/32 58/14/32 56/18/32
f 60/28/33 61/7/33 59/6/33
f 63/24/34 64/5/34 62/8/34
f 9/23/35 10/30/35 43/30/35 42/23/35
f 24/21/36 25/14/36 58/14/36 57/21/36
f 20/3/37 18/27/37 51/27/37 50/3/37
f 10/30/38 11/22/38 41/22/38 43/30/38
f 25/14/39 26/18/39 56/18/39 58/14/39
f 18/27/40 19/9/40 52/9/40 51/27/40
f 14/2/41 12/12/41 45/12/41 44/2/41
f 29/6/42 27/28/42 60/28/42 59/6/42
f 19/9/43 20/3/43 50/3/43 52/9/43
f 12/15/44 13/31/44 46/31/44 45/15/44
f 27/28/45 28/7/45 61/7/45 60/28/45
f 23/13/46 21/29/46 54/29/46 53/13/46
f 13/26/47 14/2/47 44/2/47 46/26/47
f 28/7/48 29/6/48 59/6/48 61/7/48
f 21/29/49 22/17/49 55/17/49 54/29/49
f 17/20/50 15/25/50 48/25/50 47/20/50
