# Blender 4.5.4 LTS
# www.blender.org
mtllib pikeman.mtl
o Cube.001
v -0.785527 5.683263 -0.211525
v -0.785527 5.683263 -1.181282
v 0.168410 5.508817 -0.211525
v 0.168410 5.508817 -1.181282
v -0.977272 5.225408 -0.105270
v -0.870935 5.806898 -0.696403
v -0.977272 5.225408 -1.287536
v -0.289445 5.700561 -1.287536
v 0.185708 5.012734 -1.287536
v 0.292045 5.594224 -0.696403
v 0.185708 5.012734 -0.105270
v -0.289445 5.700561 -0.105271
v -1.196619 5.265520 -0.696403
v -0.395782 5.119071 -1.510520
v 0.405055 4.972622 -0.696403
v -0.395782 5.119071 0.117714
v -0.249333 5.919908 -0.696403
v -0.995249 5.127103 -0.105270
v -0.995249 5.127103 -1.287536
v 0.167731 4.914429 -1.287536
v 0.167731 4.914429 -0.105270
v -1.214596 5.167214 -0.696403
v -0.413759 5.020765 -1.510520
v 0.387078 4.874317 -0.696403
v -0.413759 5.020765 0.117714
v -1.372540 5.008770 0.244580
v -1.372540 5.008770 -1.637387
v 0.478727 4.670230 -1.637387
v 0.478727 4.670230 0.244580
v -1.721704 5.072621 -0.696403
v -0.446907 4.839500 -1.992340
v 0.827890 4.606379 -0.696403
v -0.446907 4.839500 0.599534
v -1.491710 4.917061 0.345309
v -1.491710 4.917061 -1.738115
v 0.557728 4.542281 -1.738115
v 0.557728 4.542281 0.345309
v -1.878250 4.987747 -0.696403
v -0.466991 4.729671 -2.131065
v 0.944268 4.471595 -0.696403
v -0.466991 4.729671 0.738259
v -1.036327 5.236207 -0.045236
v -1.280135 5.280792 -0.696403
v -1.036327 5.236207 -1.347571
v -0.395782 5.119071 -1.595422
v 0.244764 5.001935 -1.347571
v 0.488572 4.957350 -0.696403
v 0.244764 5.001935 -0.045236
v -0.395782 5.119071 0.202616
v -1.054304 5.137902 -0.045236
v -1.298113 5.182487 -0.696403
v -1.054304 5.137902 -1.347571
v -0.413759 5.020765 -1.595422
v 0.226786 4.903629 -1.347571
v 0.470595 4.859044 -0.696403
v 0.226787 4.903629 -0.045236
v -0.413759 5.020765 0.202616
v 0.077293 5.447568 -1.161556
v -0.170860 4.000706 -1.089009
v 0.077293 5.447568 -0.238957
v -0.170860 4.000706 -0.311504
v -0.739982 5.447568 -1.161556
v -0.678213 4.000706 -1.089009
v -0.739982 5.447568 -0.238957
v -0.678213 4.000706 -0.311504
v -1.080312 4.000706 -0.700256
v 0.086598 5.447569 -0.700256
v -0.857553 5.447568 -0.700256
v -0.170860 4.000706 -0.700256
v 0.132945 4.660343 -1.390254
v -0.857553 4.663949 -0.010259
v 0.132945 4.660343 -0.010259
v -0.857553 4.663949 -1.390254
v 0.132945 4.660343 -0.700256
v -1.184407 4.663949 -0.700256
v -0.667628 2.595923 -2.065053
v -0.847850 3.432792 -1.634985
v 0.373738 2.595923 -2.065053
v 0.295316 3.504966 -1.568357
v -0.549387 1.307355 -1.540942
v -0.239187 1.307355 -1.452854
v -1.297423 2.588567 -1.336806
v -1.006077 3.731367 -1.185478
v 0.355285 2.842465 -0.987177
v 0.437123 3.731366 -1.185478
v -0.963971 1.307355 -1.301541
v -0.174482 1.307355 -0.968312
v -1.271775 3.177626 -0.695068
v 0.355285 2.842465 -0.695068
v -0.174482 1.307355 -0.697103
v -1.501002 2.588567 -0.695068
v 0.437123 3.731366 -0.695068
v -1.132023 1.307355 -0.697103
v -0.667628 0.659487 -1.655455
v 0.058957 0.659487 -1.563885
v -1.006077 0.659488 -1.403023
v 0.058957 0.659487 -1.229596
v 0.058957 0.659487 -0.697564
v -1.200461 0.659487 -0.697564
v -0.408813 2.629282 -2.830554
v 0.114923 2.629282 -2.830554
v 0.024331 0.946565 -2.541814
v -0.318221 0.946565 -2.541814
v 0.024331 0.946565 -3.026677
v -0.318221 0.946565 -3.026677
v -0.369973 0.136992 -2.994593
v 0.076083 0.136992 -2.994593
v -0.369973 0.147688 -2.714652
v 0.076083 0.177638 -2.714652
v -0.843732 -0.238033 -1.975213
v -0.105661 -0.464147 -1.975213
v -1.142598 -0.556821 -1.388337
v -0.105661 -0.756762 -1.429062
v -0.105661 -0.756762 -0.829793
v -1.291571 -0.544062 -0.829793
v 0.199035 1.798968 -2.275733
v 0.069627 1.815648 -3.003720
v -0.363517 1.815648 -3.003720
v -0.492924 1.798968 -2.275733
v -0.897409 4.016308 -1.197031
v -0.705142 3.842793 -1.860254
v -0.957151 3.144306 -2.229845
v 0.159517 3.840477 -1.861873
v 0.408399 2.831111 -2.112430
v -1.275824 4.016788 -0.695068
v 0.116611 4.003172 -1.201599
v 0.116611 4.004106 -0.695068
v -0.475087 3.954442 -2.466149
v -0.477429 2.895645 -2.942371
v 0.183539 2.895645 -2.942371
v 0.087853 3.954442 -2.380702
v 0.035199 0.100192 -2.089394
v -0.927352 0.100193 -2.089394
v 0.193945 -0.253599 -1.429062
v -1.265801 -0.253598 -1.429062
v 0.193945 -0.253599 -0.700256
v -1.460185 -0.253599 -0.700256
v -0.284654 -2.089819 -1.765567
v -0.985286 -1.616650 -1.743605
v -0.284654 -2.008813 -2.086091
v -0.830337 -1.616650 -2.086091
v -0.284654 -2.195048 -1.170878
v -1.062522 -1.616649 -1.170878
v -0.142525 -3.277529 -1.783914
v -0.723459 -2.991915 -1.766169
v -0.143084 -3.077119 -2.042891
v -0.598822 -2.991915 -2.042891
v -0.142525 -3.077119 -1.376032
v -0.785864 -2.991915 -1.376032
v 0.073246 -3.255148 -1.784147
v -0.930164 -2.991915 -1.828055
v 0.009325 -2.991915 -2.195629
v -0.715949 -2.991915 -2.224105
v 0.010048 -2.991915 -1.223459
v -0.950045 -2.991915 -1.236025
v -0.771194 -3.496410 -1.397106
v -0.148710 -3.564946 -1.390603
v -0.607231 -3.504421 -2.047267
v -0.146903 -3.563554 -2.033582
v -0.739987 -3.514553 -1.774563
v -0.128072 -3.767224 -1.782582
v -0.017949 -3.490888 -1.251456
v -0.920823 -3.489188 -1.260945
v -0.875289 -3.512731 -1.811626
v 0.010100 -3.751672 -1.784079
v -0.692264 -3.496409 -2.187461
v -0.018655 -3.490913 -2.167589
v -0.128073 -4.318375 -1.782582
v -0.739987 -4.318375 -1.774563
v -0.148710 -4.318375 -1.390603
v -0.771194 -4.318375 -1.397106
v -0.607231 -4.318375 -2.047267
v -0.146903 -4.318375 -2.033582
v -1.798837 -3.909285 -1.851760
v -1.763351 -3.891141 -1.474682
v -1.715975 -3.899153 -2.143524
v -1.798837 -4.318374 -1.851760
v -1.763351 -4.318374 -1.474682
v -1.715975 -4.318375 -2.143524
v -0.526123 -0.099061 -3.064204
v 0.232233 -0.099061 -3.064204
v -0.526123 -0.048773 -2.645041
v 0.232233 -0.007792 -2.645041
v -0.518514 -0.452852 -3.003913
v 0.224624 -0.452853 -3.003913
v -0.518514 -0.429298 -2.705332
v 0.224624 -0.397969 -2.705332
v -0.667628 2.595923 0.664540
v -0.847850 3.432792 0.234472
v 0.373738 2.595923 0.664540
v 0.295316 3.504966 0.167844
v -0.549387 1.307355 0.140429
v -0.239187 1.307355 0.052341
v -1.297423 2.588567 -0.063707
v -1.006077 3.731367 -0.215035
v 0.355285 2.842465 -0.413336
v 0.437123 3.731366 -0.215035
v -0.963971 1.307355 -0.098972
v -0.174482 1.307355 -0.432201
v -1.271775 3.177626 -0.705445
v 0.355285 2.842465 -0.705445
v -0.174482 1.307355 -0.703410
v -1.501002 2.588567 -0.705445
v 0.437123 3.731366 -0.705445
v -1.132023 1.307355 -0.703410
v -0.667628 0.659487 0.254942
v 0.058957 0.659487 0.163372
v -1.006077 0.659488 0.002510
v 0.058957 0.659487 -0.170917
v 0.058957 0.659487 -0.702949
v -1.200461 0.659487 -0.702949
v -0.408813 2.629282 1.430042
v 0.114923 2.629282 1.430042
v 0.024331 0.946565 1.141302
v -0.318221 0.946565 1.141302
v 0.024331 0.946565 1.626164
v -0.318221 0.946565 1.626164
v -0.369973 0.136992 1.594080
v 0.076083 0.136992 1.594080
v -0.369973 0.147688 1.314139
v 0.076083 0.177638 1.314139
v -0.843732 -0.238033 0.574700
v -0.105661 -0.464147 0.574700
v -1.142598 -0.556821 -0.012176
v -0.105661 -0.756762 0.028549
v -0.105661 -0.756762 -0.570720
v -1.291571 -0.544062 -0.570720
v 0.199035 1.798968 0.875220
v 0.069627 1.815648 1.603207
v -0.363517 1.815648 1.603207
v -0.492924 1.798968 0.875220
v -0.897409 4.016308 -0.203482
v -0.705142 3.842793 0.459741
v -0.957151 3.144306 0.829332
v 0.159517 3.840477 0.461360
v 0.408399 2.831111 0.711917
v -1.275824 4.016788 -0.705445
v 0.116611 4.003172 -0.198914
v 0.116611 4.004106 -0.705445
v -0.475087 3.954442 1.065636
v -0.477429 2.895645 1.541859
v 0.183539 2.895645 1.541859
v 0.087853 3.954442 0.980189
v 0.035199 0.100192 0.688881
v -0.927352 0.100193 0.688881
v 0.193945 -0.253599 0.028549
v -1.265801 -0.253598 0.028549
v -0.284654 -2.089819 0.365054
v -0.985286 -1.616650 0.343092
v -0.284654 -2.008813 0.685578
v -0.830337 -1.616650 0.685578
v -0.284654 -2.195048 -0.229635
v -1.062522 -1.616649 -0.229635
v -0.142525 -3.277530 0.383401
v -0.723459 -2.991915 0.365656
v -0.143084 -3.077119 0.642378
v -0.598822 -2.991915 0.642378
v -0.142525 -3.077119 -0.024481
v -0.785864 -2.991915 -0.024481
v 0.073246 -3.255149 0.383634
v -0.930164 -2.991915 0.427542
v 0.009325 -2.991915 0.795116
v -0.715949 -2.991915 0.823592
v 0.010048 -2.991915 -0.177054
v -0.950045 -2.991915 -0.164488
v -0.771194 -3.496410 -0.003407
v -0.148710 -3.897940 -0.009910
v -0.607231 -3.504421 0.646755
v -0.146903 -3.563555 0.633069
v -0.739987 -3.514553 0.374050
v -0.128072 -3.767224 0.382069
v -0.017949 -3.838440 -0.149057
v -0.920823 -3.489188 -0.139568
v -0.875289 -3.512731 0.411113
v 0.010100 -3.751672 0.383566
v -0.692264 -3.496409 0.786948
v -0.018655 -3.490913 0.767076
v -0.128073 -4.318375 0.382069
v -0.739987 -4.318375 0.374050
v -0.148710 -4.318375 -0.009910
v -0.771194 -4.318375 -0.003407
v -0.607231 -4.318375 0.646755
v -0.146903 -4.318375 0.633069
v -1.798837 -3.909285 0.451247
v -1.763351 -3.891141 0.074169
v -1.715975 -3.899153 0.743011
v -1.798837 -4.318374 0.451247
v -1.763351 -4.318374 0.074169
v -1.715975 -4.318375 0.743011
v -0.526123 -0.099061 1.663691
v 0.232233 -0.099061 1.663691
v -0.526123 -0.048773 1.244529
v 0.232233 -0.007792 1.244529
v -0.518514 -0.452852 1.603400
v 0.224624 -0.452853 1.603400
v -0.518514 -0.429298 1.304819
v 0.224624 -0.397969 1.304819
vn -0.8317 0.4632 0.3061
vn -0.8317 0.4632 -0.3061
vn -0.2460 0.3561 -0.9015
vn 0.3561 0.2460 -0.9015
vn 0.9418 0.1389 -0.3061
vn 0.9418 0.1389 0.3061
vn 0.3561 0.2460 0.9015
vn -0.2460 0.3561 0.9015
vn 0.4632 0.8317 -0.3061
vn -0.1389 0.9418 -0.3061
vn -0.1389 0.9418 0.3061
vn 0.4632 0.8317 0.3061
vn 0.1799 0.9837 -0.0000
vn -0.1799 -0.9837 -0.0000
vn 0.2979 0.8865 -0.3540
vn -0.1817 0.9742 -0.1335
vn 0.2979 0.8865 0.3540
vn 0.5148 0.8469 -0.1335
vn 0.0352 0.9346 -0.3540
vn -0.1817 0.9742 0.1335
vn 0.0352 0.9346 0.3540
vn 0.5148 0.8469 0.1335
vn 0.3628 0.7043 -0.6102
vn -0.4638 0.8555 -0.2302
vn 0.3628 0.7043 0.6102
vn 0.7366 0.6360 -0.2302
vn -0.0900 0.7871 -0.6102
vn -0.4638 0.8555 0.2302
vn -0.0900 0.7871 0.6102
vn 0.7366 0.6360 0.2302
vn -0.3499 0.0640 -0.9346
vn 0.9193 -0.1681 0.3557
vn 0.9193 -0.1681 -0.3557
vn -0.9193 0.1681 -0.3557
vn -0.3499 0.0640 0.9346
vn -0.9193 0.1681 0.3557
vn 0.3499 -0.0640 0.9346
vn 0.3499 -0.0640 -0.9346
vn -0.0000 1.0000 -0.0000
vn 0.0006 0.2795 0.9601
vn -0.8893 0.3023 -0.3433
vn -0.0000 -1.0000 -0.0000
vn 0.9978 0.0658 0.0081
vn 0.0006 0.2795 -0.9601
vn 0.9978 0.0658 -0.0081
vn -0.8893 0.3023 0.3433
vn -0.7927 -0.2910 0.5357
vn 0.9083 -0.4183 -0.0000
vn -0.0010 -0.4144 -0.9101
vn -0.7927 -0.2910 -0.5357
vn -0.0010 -0.4144 0.9101
vn -0.7865 0.2143 -0.5792
vn 0.0593 -0.4122 -0.9091
vn -0.6536 -0.2689 -0.7075
vn 0.9289 -0.3690 0.0307
vn -0.9260 -0.2574 -0.2761
vn 0.1676 0.1916 -0.9671
vn -0.0000 -0.0000 1.0000
vn 0.9960 0.0128 -0.0882
vn -0.9244 0.2986 -0.2371
vn 0.9958 -0.0917 -0.0000
vn -0.8140 -0.4725 -0.3379
vn 0.9453 -0.3262 -0.0000
vn 0.0414 0.6444 -0.7635
vn -0.7999 0.4170 -0.4316
vn -0.5355 0.2029 -0.8198
vn 0.9153 0.3963 -0.0723
vn 0.9408 0.3390 -0.0000
vn -0.9587 0.1027 -0.2653
vn -0.9756 -0.0639 0.2102
vn -0.8549 0.0743 -0.5135
vn 0.9853 0.1707 -0.0066
vn 0.9134 -0.2814 -0.2942
vn -0.0000 0.0264 -0.9997
vn 0.9978 0.0657 -0.0035
vn -0.9883 -0.1084 -0.1069
vn 0.9883 -0.1084 -0.1069
vn -0.0000 -0.2980 0.9546
vn 0.0082 -0.2153 0.9765
vn -0.9979 0.0643 -0.0009
vn -0.0000 -0.0396 -0.9992
vn -0.9011 0.0197 -0.4332
vn -0.9745 -0.1134 -0.1936
vn -0.9297 0.2684 -0.2520
vn 0.9892 0.1462 -0.0000
vn 0.9853 0.1292 -0.1113
vn -0.0000 -0.0029 1.0000
vn -0.0000 -0.2556 0.9668
vn 0.9648 -0.0714 -0.2532
vn -0.9648 -0.0714 -0.2532
vn -0.0000 0.2082 -0.9781
vn 0.0072 0.9695 -0.2450
vn 0.0107 0.9999 0.0026
vn 0.9564 0.2300 -0.1798
vn 0.0625 0.4415 -0.8951
vn -0.0099 0.9807 0.1953
vn -0.8111 0.3448 -0.4725
vn 0.6474 0.7621 -0.0007
vn -0.0000 -0.3871 -0.9221
vn 0.8310 0.4908 -0.2619
vn -0.9065 0.2015 -0.3710
vn -0.0323 -0.2432 -0.9694
vn 0.8623 -0.3903 -0.3226
vn -0.7288 -0.3736 -0.5739
vn 0.8592 -0.5116 -0.0000
vn -0.8862 -0.4008 -0.2324
vn -0.0230 -0.3068 0.9515
vn -0.8990 -0.1643 -0.4059
vn -0.9737 -0.1789 -0.1412
vn 0.0354 0.0736 -0.9967
vn -0.1058 -0.2627 0.9591
vn 0.9920 -0.1254 -0.0111
vn 0.9920 -0.1157 -0.0499
vn -0.0182 -0.0381 -0.9991
vn -0.0908 -0.1944 0.9767
vn 0.9904 0.1374 -0.0130
vn 0.9903 0.1252 0.0598
vn -0.0039 0.8223 0.5690
vn -0.0822 0.8968 -0.4347
vn 0.0532 0.9593 -0.2773
vn 0.0635 0.9654 0.2530
vn -0.0119 -0.0531 0.9985
vn 0.0347 -0.0644 -0.9973
vn -0.8846 -0.0914 -0.4572
vn -0.9951 -0.0817 -0.0553
vn 0.9797 -0.0947 -0.1766
vn 0.9874 -0.0940 0.1274
vn 0.9986 -0.0000 0.0526
vn 0.9972 -0.0000 -0.0748
vn -0.0471 -0.9589 0.2799
vn -0.0166 -0.9989 0.0435
vn 0.0667 -0.8907 0.4496
vn -0.0085 -0.9990 -0.0449
vn -0.0321 -0.8077 -0.5888
vn -0.0368 -0.9571 -0.2873
vn -0.0104 -0.0000 0.9999
vn 0.0297 -0.0000 -0.9996
vn 0.0865 -0.0000 -0.9963
vn -0.9620 -0.0000 -0.2732
vn -0.9956 -0.0000 0.0937
vn -0.3341 0.9379 -0.0939
vn -0.3561 0.9335 -0.0429
vn -0.0780 -0.0000 0.9970
vn -0.0202 0.3424 0.9393
vn -0.8097 0.5846 -0.0510
vn -0.0000 0.2829 -0.9592
vn 0.7985 0.5916 -0.1116
vn -0.9998 -0.0207 0.0021
vn -0.0000 -0.1680 -0.9858
vn 0.0074 -0.1546 0.9880
vn 0.9998 -0.0205 0.0042
vn -0.7865 0.2143 0.5792
vn 0.0593 -0.4122 0.9091
vn -0.6536 -0.2689 0.7075
vn 0.9289 -0.3690 -0.0307
vn -0.9260 -0.2574 0.2761
vn 0.1676 0.1916 0.9671
vn -0.0000 -0.0000 -1.0000
vn 0.9960 0.0128 0.0882
vn -0.9244 0.2986 0.2371
vn -0.8140 -0.4725 0.3379
vn 0.0414 0.6444 0.7635
vn -0.7999 0.4170 0.4316
vn -0.5355 0.2029 0.8198
vn 0.9153 0.3963 0.0723
vn -0.9587 0.1027 0.2653
vn -0.9756 -0.0639 -0.2102
vn -0.8549 0.0743 0.5135
vn 0.9853 0.1707 0.0066
vn 0.9134 -0.2814 0.2942
vn -0.0000 0.0264 0.9997
vn 0.9978 0.0657 0.0035
vn -0.9883 -0.1084 0.1069
vn 0.9883 -0.1084 0.1069
vn -0.0000 -0.2980 -0.9546
vn 0.0082 -0.2153 -0.9765
vn -0.9979 0.0643 0.0009
vn -0.0000 -0.0396 0.9992
vn -0.9011 0.0197 0.4332
vn -0.9745 -0.1134 0.1936
vn -0.9297 0.2684 0.2520
vn 0.9853 0.1292 0.1113
vn -0.0000 -0.0029 -1.0000
vn -0.0000 -0.2556 -0.9668
vn 0.9648 -0.0714 0.2532
vn -0.9648 -0.0714 0.2532
vn -0.0000 0.2082 0.9781
vn 0.0072 0.9695 0.2450
vn 0.0107 0.9999 -0.0026
vn 0.9564 0.2300 0.1798
vn 0.0625 0.4415 0.8951
vn -0.0099 0.9807 -0.1953
vn -0.8111 0.3448 0.4725
vn 0.6474 0.7621 0.0007
vn -0.0000 -0.3871 0.9221
vn 0.8310 0.4908 0.2619
vn -0.9065 0.2015 0.3710
vn -0.0323 -0.2432 0.9694
vn 0.8623 -0.3903 0.3226
vn -0.7288 -0.3736 0.5739
vn -0.8862 -0.4008 0.2324
vn -0.0230 -0.3068 -0.9515
vn -0.8990 -0.1643 0.4059
vn -0.9737 -0.1789 0.1412
vn 0.0354 0.0736 0.9967
vn -0.1058 -0.2627 -0.9591
vn 0.9920 -0.1254 0.0111
vn 0.9920 -0.1157 0.0499
vn -0.0182 -0.0381 0.9991
vn -0.0908 -0.1944 -0.9767
vn 0.9904 0.1374 0.0130
vn 0.9903 0.1252 -0.0598
vn -0.0039 0.8223 -0.5690
vn -0.0822 0.8968 0.4347
vn 0.0532 0.9593 0.2773
vn 0.0635 0.9654 -0.2530
vn -0.0192 -0.0394 -0.9990
vn 0.0347 -0.0644 0.9973
vn -0.8846 -0.0914 0.4572
vn -0.9951 -0.0817 0.0553
vn 0.9797 -0.0947 0.1766
vn 0.9931 -0.0694 -0.0941
vn 0.9986 -0.0000 -0.0526
vn 0.9972 -0.0000 0.0748
vn -0.4356 -0.8812 -0.1837
vn -0.0166 -0.9989 -0.0435
vn 0.3555 -0.9139 0.1962
vn -0.0085 -0.9990 0.0449
vn -0.0321 -0.8077 0.5888
vn -0.0368 -0.9571 0.2873
vn -0.0104 -0.0000 -0.9999
vn 0.0297 -0.0000 0.9996
vn 0.0865 -0.0000 0.9963
vn -0.9620 -0.0000 0.2732
vn -0.9956 -0.0000 -0.0937
vn -0.3341 0.9379 0.0939
vn -0.3561 0.9335 0.0429
vn -0.0780 -0.0000 -0.9970
vn -0.0202 0.3424 -0.9393
vn -0.8097 0.5846 0.0510
vn -0.0000 0.2829 0.9592
vn 0.7985 0.5916 0.1116
vn -0.9998 -0.0207 -0.0021
vn -0.0000 -0.1680 0.9858
vn 0.0074 -0.1546 -0.9880
vn 0.9998 -0.0205 -0.0042
vt 0.854209 0.091692
vt 0.881872 0.098121
vt 0.889369 0.127456
vt 0.856679 0.127456
vt 0.881872 0.156791
vt 0.854209 0.163219
vt 0.885065 0.693916
vt 0.855950 0.687359
vt 0.849320 0.658138
vt 0.884633 0.658396
vt 0.855950 0.628698
vt 0.885065 0.622400
vt 0.873407 0.321201
vt 0.843835 0.313367
vt 0.839655 0.283801
vt 0.876786 0.285558
vt 0.846606 0.254762
vt 0.876786 0.249754
vt 0.848699 0.724175
vt 0.877814 0.730473
vt 0.884444 0.759913
vt 0.849130 0.760170
vt 0.877814 0.789134
vt 0.848699 0.795691
vt 0.806752 0.180809
vt 0.835203 0.179327
vt 0.826630 0.214128
vt 0.794289 0.208392
vt 0.863627 0.190896
vt 0.863627 0.220689
vt 0.853382 0.248665
vt 0.822712 0.249754
vt 0.796507 0.238578
vt 0.781272 0.728985
vt 0.753034 0.753973
vt 0.748411 0.751827
vt 0.779469 0.724175
vt 0.781475 0.627206
vt 0.753063 0.652348
vt 0.748411 0.650221
vt 0.779661 0.622400
vt 0.778134 0.820952
vt 0.815839 0.821229
vt 0.817641 0.826038
vt 0.776060 0.825608
vt 0.753176 0.690530
vt 0.748411 0.692328
vt 0.753147 0.792123
vt 0.748411 0.793898
vt 0.818977 0.729262
vt 0.821051 0.724606
vt 0.778318 0.719268
vt 0.776231 0.723937
vt 0.816256 0.719369
vt 0.818070 0.724175
vt 0.811045 0.694906
vt 0.825207 0.682449
vt 0.837748 0.689085
vt 0.815206 0.708916
vt 0.779729 0.680255
vt 0.792185 0.694712
vt 0.785183 0.708606
vt 0.765355 0.685593
vt 0.812750 0.648908
vt 0.793890 0.648714
vt 0.787898 0.635385
vt 0.817920 0.635694
vt 0.825207 0.663365
vt 0.837748 0.658708
vt 0.779729 0.661172
vt 0.765355 0.655216
vt 0.841068 0.691104
vt 0.816112 0.713057
vt 0.782876 0.712715
vt 0.760926 0.687238
vt 0.785881 0.631656
vt 0.819117 0.631998
vt 0.621898 0.672800
vt 0.624591 0.615871
vt 0.632345 0.615871
vt 0.629364 0.678894
vt 0.760926 0.653609
vt 0.621898 0.558942
vt 0.629364 0.552848
vt 0.640703 0.631626
vt 0.640223 0.592501
vt 0.646266 0.592504
vt 0.646746 0.631630
vt 0.634225 0.592243
vt 0.632345 0.552848
vt 0.638343 0.552848
vt 0.640223 0.592243
vt 0.632345 0.631639
vt 0.638343 0.631639
vt 0.358503 0.593120
vt 0.355758 0.632515
vt 0.349814 0.632515
vt 0.352559 0.593120
vt 0.356337 0.672169
vt 0.355857 0.711294
vt 0.349814 0.711298
vt 0.350294 0.672172
vt 0.355758 0.553724
vt 0.349814 0.553724
vt 0.355857 0.632515
vt 0.349814 0.632519
vt 0.640703 0.552847
vt 0.646746 0.552851
vt 0.819413 0.627308
vt 0.821500 0.622638
vt 0.844076 0.796241
vt 0.848699 0.798387
vt 0.844555 0.656045
vt 0.849320 0.654247
vt 0.843964 0.758091
vt 0.848699 0.756316
vt 0.844668 0.694228
vt 0.849320 0.696355
vt 0.494575 0.459084
vt 0.494575 0.461564
vt 0.493364 0.461255
vt 0.493364 0.459109
vt 0.507642 0.429809
vt 0.507780 0.427764
vt 0.509926 0.427764
vt 0.510243 0.429800
vt 0.478252 0.460305
vt 0.478252 0.458251
vt 0.479463 0.458252
vt 0.480064 0.460308
vt 0.502306 0.462748
vt 0.502306 0.460362
vt 0.503326 0.460362
vt 0.503326 0.461693
vt 0.497628 0.460270
vt 0.497628 0.458212
vt 0.498839 0.458214
vt 0.499440 0.460270
vt 0.486252 0.459288
vt 0.486568 0.457252
vt 0.488714 0.457252
vt 0.488853 0.459298
vt 0.495816 0.460270
vt 0.496417 0.458214
vt 0.501285 0.461693
vt 0.501285 0.460362
vt 0.476440 0.460308
vt 0.477040 0.458252
vt 0.495786 0.459109
vt 0.495786 0.461255
vt 0.477231 0.462051
vt 0.478252 0.462048
vt 0.496607 0.462043
vt 0.497628 0.462043
vt 0.486731 0.461056
vt 0.488063 0.461056
vt 0.498649 0.462043
vt 0.479273 0.462051
vt 0.508431 0.431568
vt 0.509763 0.431568
vt 0.403216 0.635333
vt 0.410866 0.694394
vt 0.387671 0.678862
vt 0.365562 0.635497
vt 0.685413 0.091692
vt 0.748411 0.091692
vt 0.711728 0.170886
vt 0.692901 0.170701
vt 0.377802 0.595127
vt 0.405235 0.569040
vt 0.564680 0.175999
vt 0.629847 0.160973
vt 0.631270 0.255469
vt 0.601956 0.255772
vt 0.436397 0.635465
vt 0.436487 0.569160
vt 0.729664 0.229282
vt 0.685645 0.229091
vt 0.301474 0.662405
vt 0.301474 0.553724
vt 0.323134 0.567084
vt 0.349814 0.646987
vt 0.594567 0.121258
vt 0.617689 0.107039
vt 0.436307 0.665883
vt 0.647359 0.106951
vt 0.647519 0.160920
vt 0.347966 0.176185
vt 0.301648 0.178016
vt 0.311716 0.144813
vt 0.354778 0.160077
vt 0.647678 0.255420
vt 0.727846 0.261999
vt 0.669616 0.261999
vt 0.261192 0.314453
vt 0.276464 0.314564
vt 0.302617 0.348428
vt 0.262604 0.369649
vt 0.667988 0.171203
vt 0.665346 0.229619
vt 0.615634 0.313312
vt 0.595410 0.313372
vt 0.647822 0.313216
vt 0.218657 0.255639
vt 0.255226 0.255780
vt 0.218512 0.314290
vt 0.372007 0.637033
vt 0.393528 0.679246
vt 0.382129 0.699825
vt 0.363631 0.664656
vt 0.416107 0.694365
vt 0.440872 0.666612
vt 0.440747 0.708847
vt 0.415484 0.708687
vt 0.561771 0.161684
vt 0.576750 0.101496
vt 0.518364 0.174985
vt 0.511551 0.158686
vt 0.758337 0.219885
vt 0.784540 0.219885
vt 0.781763 0.272385
vt 0.761040 0.272385
vt 0.506802 0.276971
vt 0.536136 0.276884
vt 0.525825 0.325646
vt 0.508889 0.325697
vt 0.314251 0.226303
vt 0.358297 0.225449
vt 0.359531 0.278041
vt 0.330197 0.277954
vt 0.508034 0.224317
vt 0.552079 0.224761
vt 0.185919 0.602352
vt 0.227779 0.602352
vt 0.217045 0.654449
vt 0.196322 0.654449
vt 0.220075 0.703761
vt 0.193090 0.703761
vt 0.357445 0.327004
vt 0.340509 0.326954
vt 0.784897 0.321402
vt 0.757912 0.321402
vt 0.260086 0.388010
vt 0.295649 0.368887
vt 0.302057 0.470485
vt 0.281337 0.470393
vt 0.226297 0.387109
vt 0.246687 0.470276
vt 0.218512 0.369481
vt 0.647822 0.367924
vt 0.603729 0.368055
vt 0.563718 0.347332
vt 0.529977 0.552848
vt 0.606166 0.552848
vt 0.621898 0.608062
vt 0.521831 0.608061
vt 0.175478 0.553724
vt 0.238476 0.553724
vt 0.755737 0.171053
vt 0.787421 0.171053
vt 0.378441 0.752139
vt 0.430752 0.752237
vt 0.442434 0.792362
vt 0.381083 0.792086
vt 0.465328 0.822731
vt 0.381083 0.822731
vt 0.545342 0.094944
vt 0.751515 0.154713
vt 0.752015 0.091692
vt 0.786130 0.091871
vt 0.791500 0.154713
vt 0.382809 0.720751
vt 0.416866 0.715581
vt 0.289480 0.102538
vt 0.326156 0.095936
vt 0.361614 0.822731
vt 0.361614 0.793061
vt 0.616668 0.091692
vt 0.719391 0.296360
vt 0.674746 0.282688
vt 0.603823 0.399449
vt 0.570728 0.381871
vt 0.640078 0.399341
vt 0.611614 0.625895
vt 0.539877 0.638756
vt 0.299198 0.553724
vt 0.282456 0.553651
vt 0.258853 0.553569
vt 0.708450 0.383972
vt 0.675438 0.383972
vt 0.597553 0.709622
vt 0.550495 0.709622
vt 0.619653 0.470086
vt 0.583675 0.470193
vt 0.564283 0.470251
vt 0.717011 0.467216
vt 0.689441 0.467216
vt 0.580706 0.793205
vt 0.541787 0.793205
vt 0.607488 0.552725
vt 0.582811 0.552799
vt 0.567143 0.552847
vt 0.844715 0.552096
vt 0.829057 0.551537
vt 0.829509 0.538490
vt 0.854260 0.543191
vt 0.804394 0.550708
vt 0.795478 0.541173
vt 0.803087 0.589608
vt 0.794289 0.599251
vt 0.843789 0.579652
vt 0.854509 0.587102
vt 0.826804 0.586627
vt 0.830126 0.599251
vt 0.889399 0.826039
vt 0.889399 0.884111
vt 0.859279 0.882352
vt 0.859171 0.827739
vt 0.876786 0.293650
vt 0.876786 0.249754
vt 0.907018 0.251398
vt 0.907365 0.292162
vt 0.206998 0.882373
vt 0.206958 0.906334
vt 0.176432 0.904120
vt 0.175478 0.881382
vt 0.206998 0.846555
vt 0.176907 0.848066
vt 0.694861 0.901553
vt 0.694861 0.876657
vt 0.726900 0.876928
vt 0.725111 0.900115
vt 0.695362 0.842739
vt 0.725582 0.844692
vt 0.253703 0.847832
vt 0.277418 0.846555
vt 0.277418 0.891813
vt 0.253703 0.893090
vt 0.238517 0.846676
vt 0.238517 0.891934
vt 0.757227 0.873975
vt 0.794836 0.873257
vt 0.802964 0.881439
vt 0.748411 0.882477
vt 0.758492 0.851092
vt 0.750249 0.849092
vt 0.795449 0.849514
vt 0.803791 0.849177
vt 0.765992 0.834364
vt 0.760582 0.826039
vt 0.793802 0.834371
vt 0.801284 0.826039
vt 0.623457 0.830416
vt 0.620384 0.793553
vt 0.644133 0.793205
vt 0.646373 0.830754
vt 0.606440 0.823600
vt 0.605320 0.795813
vt 0.839588 0.249754
vt 0.839655 0.287407
vt 0.794356 0.287498
vt 0.794289 0.249845
vt 0.794289 0.470837
vt 0.794289 0.442978
vt 0.839585 0.443496
vt 0.839585 0.471355
vt 0.623277 0.894566
vt 0.605320 0.890837
vt 0.838642 0.538490
vt 0.817211 0.538245
vt 0.643342 0.701719
vt 0.644154 0.719362
vt 0.622711 0.719624
vt 0.621898 0.701981
vt 0.644154 0.678894
vt 0.622710 0.679156
vt 0.445264 0.829300
vt 0.462396 0.822731
vt 0.462396 0.889948
vt 0.444376 0.893410
vt 0.645887 0.890885
vt 0.422349 0.829208
vt 0.421835 0.889300
vt 0.815721 0.347422
vt 0.794289 0.347465
vt 0.229575 0.717888
vt 0.183698 0.717887
vt 0.361614 0.341267
vt 0.336255 0.341192
vt 0.794289 0.335529
vt 0.748411 0.335529
vt 0.530077 0.339372
vt 0.504718 0.339448
vt 0.357904 0.362662
vt 0.339840 0.362608
vt 0.793862 0.357046
vt 0.748905 0.357046
vt 0.229082 0.739405
vt 0.184125 0.739405
vt 0.526493 0.360780
vt 0.508429 0.360834
vt 0.470006 0.635333
vt 0.507660 0.635497
vt 0.485552 0.678862
vt 0.462356 0.694394
vt 0.710820 0.467216
vt 0.703332 0.546225
vt 0.684505 0.546409
vt 0.647822 0.467216
vt 0.495482 0.595162
vt 0.467987 0.569040
vt 0.444756 0.175999
vt 0.407481 0.255772
vt 0.378167 0.255469
vt 0.379589 0.160973
vt 0.436826 0.635465
vt 0.436735 0.569160
vt 0.710589 0.604614
vt 0.666569 0.604806
vt 0.349814 0.771085
vt 0.301474 0.755668
vt 0.328154 0.675765
vt 0.349814 0.662405
vt 0.391747 0.107039
vt 0.414869 0.121258
vt 0.436916 0.665883
vt 0.361917 0.160920
vt 0.362078 0.106951
vt 0.089058 0.176185
vt 0.082246 0.160077
vt 0.125309 0.144813
vt 0.135377 0.178016
vt 0.361759 0.255420
vt 0.726617 0.637522
vt 0.668387 0.637522
vt 0.175832 0.314453
vt 0.174420 0.369649
vt 0.134407 0.348428
vt 0.160561 0.314564
vt 0.728245 0.546726
vt 0.730887 0.605143
vt 0.414026 0.313372
vt 0.393802 0.313312
vt 0.361614 0.313216
vt 0.218367 0.255639
vt 0.181799 0.255780
vt 0.510330 0.637033
vt 0.518705 0.664656
vt 0.500207 0.699825
vt 0.488809 0.679246
vt 0.466229 0.694365
vt 0.466853 0.708687
vt 0.441589 0.708847
vt 0.441465 0.666612
vt 0.432686 0.101496
vt 0.447665 0.161684
vt 0.497886 0.158686
vt 0.491072 0.174985
vt 0.784363 0.485239
vt 0.781660 0.537739
vt 0.760937 0.537739
vt 0.758160 0.485239
vt 0.502634 0.276971
vt 0.500548 0.325697
vt 0.483611 0.325646
vt 0.473300 0.276884
vt 0.122773 0.226303
vt 0.106828 0.277954
vt 0.077494 0.278041
vt 0.078727 0.225449
vt 0.501402 0.224317
vt 0.457357 0.224761
vt 0.291033 0.602352
vt 0.280630 0.654449
vt 0.259907 0.654449
vt 0.249173 0.602352
vt 0.283862 0.703761
vt 0.256877 0.703761
vt 0.096516 0.326954
vt 0.079579 0.327004
vt 0.784788 0.586756
vt 0.757803 0.586756
vt 0.176938 0.388010
vt 0.155687 0.470393
vt 0.134967 0.470485
vt 0.141376 0.368886
vt 0.210727 0.387109
vt 0.190337 0.470276
vt 0.405707 0.368055
vt 0.361614 0.367924
vt 0.445719 0.347332
vt 0.167332 0.553724
vt 0.175478 0.608938
vt 0.075410 0.608939
vt 0.091142 0.553724
vt 0.301474 0.553724
vt 0.238476 0.553724
vt 0.786962 0.436407
vt 0.755279 0.436407
vt 0.192304 0.809997
vt 0.194947 0.770050
vt 0.256298 0.769774
vt 0.244616 0.809899
vt 0.194947 0.739405
vt 0.279192 0.739405
vt 0.464094 0.094944
vt 0.791185 0.420067
vt 0.751199 0.420067
vt 0.756570 0.357225
vt 0.790685 0.357046
vt 0.230730 0.846555
vt 0.196672 0.841386
vt 0.110868 0.095936
vt 0.147544 0.102538
vt 0.175478 0.739405
vt 0.175478 0.769075
vt 0.392768 0.091692
vt 0.676843 0.671883
vt 0.721487 0.658211
vt 0.405613 0.399449
vt 0.438708 0.381871
vt 0.369358 0.399341
vt 0.085694 0.626772
vt 0.157431 0.639633
vt 0.154568 0.553651
vt 0.137827 0.553724
vt 0.178171 0.553569
vt 0.720795 0.759495
vt 0.687783 0.759495
vt 0.146813 0.710499
vt 0.099755 0.710499
vt 0.425761 0.470193
vt 0.389783 0.470086
vt 0.445153 0.470251
vt 0.706792 0.842739
vt 0.679222 0.842739
vt 0.155522 0.794082
vt 0.116602 0.794082
vt 0.426625 0.552799
vt 0.401948 0.552725
vt 0.442293 0.552847
vt 0.371408 0.836337
vt 0.361864 0.827431
vt 0.386614 0.822731
vt 0.387067 0.835777
vt 0.420645 0.825414
vt 0.411729 0.834949
vt 0.421835 0.883491
vt 0.413036 0.873848
vt 0.372334 0.863893
vt 0.361614 0.871343
vt 0.389319 0.870867
vt 0.385997 0.883491
vt 0.863627 0.179327
vt 0.893854 0.181026
vt 0.893747 0.235640
vt 0.863627 0.237399
vt 0.495906 0.914308
vt 0.465328 0.912820
vt 0.465674 0.872056
vt 0.495906 0.870412
vt 0.238517 0.881382
vt 0.237563 0.904120
vt 0.207037 0.906334
vt 0.237088 0.848066
vt 0.886548 0.597304
vt 0.856298 0.595867
vt 0.854509 0.572679
vt 0.886548 0.572409
vt 0.855827 0.540443
vt 0.886047 0.538490
vt 0.325189 0.859996
vt 0.325189 0.905254
vt 0.301474 0.903977
vt 0.301474 0.858719
vt 0.340374 0.858840
vt 0.340374 0.904098
vt 0.850356 0.873975
vt 0.859171 0.882477
vt 0.804619 0.881439
vt 0.812747 0.873257
vt 0.849090 0.851092
vt 0.857334 0.849092
vt 0.812133 0.849514
vt 0.841590 0.834364
vt 0.847001 0.826039
vt 0.806298 0.826039
vt 0.813780 0.834371
vt 0.862501 0.384676
vt 0.839585 0.385014
vt 0.841826 0.347465
vt 0.865574 0.347813
vt 0.879519 0.377860
vt 0.880638 0.350072
vt 0.465395 0.715581
vt 0.510695 0.715671
vt 0.510628 0.753324
vt 0.465328 0.753234
vt 0.839585 0.375324
vt 0.794289 0.375842
vt 0.794289 0.347983
vt 0.839585 0.347465
vt 0.880638 0.445097
vt 0.862682 0.448825
vt 0.816663 0.442732
vt 0.795232 0.442978
vt 0.622711 0.742449
vt 0.644154 0.742710
vt 0.643342 0.760353
vt 0.621898 0.760092
vt 0.621898 0.719624
vt 0.643342 0.719886
vt 0.436104 0.831041
vt 0.436940 0.891482
vt 0.419952 0.888218
vt 0.419952 0.824848
vt 0.840071 0.445144
vt 0.457706 0.830954
vt 0.458192 0.887607
vt 0.510695 0.813291
vt 0.489262 0.813249
vt 0.293254 0.717888
vt 0.247376 0.717888
vt 0.100769 0.341192
vt 0.075410 0.341267
vt 0.794289 0.600883
vt 0.748411 0.600883
vt 0.504718 0.339448
vt 0.479359 0.339372
vt 0.097185 0.362608
vt 0.079121 0.362662
vt 0.793795 0.622400
vt 0.748838 0.622400
vt 0.292827 0.739405
vt 0.247870 0.739405
vt 0.501007 0.360834
vt 0.482943 0.360780
s 0
usemtl Material.001
f 5/1/1 1/2/1 6/3/1 13/4/1
f 13/4/2 6/3/2 2/5/2 7/6/2
f 7/7/3 2/8/3 8/9/3 14/10/3
f 14/10/4 8/9/4 4/11/4 9/12/4
f 9/13/5 4/14/5 10/15/5 15/16/5
f 15/16/6 10/15/6 3/17/6 11/18/6
f 11/19/7 3/20/7 12/21/7 16/22/7
f 16/22/8 12/21/8 1/23/8 5/24/8
f 4/25/9 8/26/9 17/27/9 10/28/9
f 8/26/10 2/29/10 6/30/10 17/27/10
f 17/27/11 6/30/11 1/31/11 12/32/11
f 10/28/12 17/27/12 12/32/12 3/33/12
f 16/34/13 5/35/13 42/36/13 49/37/13
f 23/38/14 19/39/14 52/40/14 53/41/14
f 7/42/13 14/43/13 45/44/13 44/45/13
f 19/39/14 22/46/14 51/47/14 52/40/14
f 13/48/13 7/42/13 44/45/13 43/49/13
f 11/50/13 16/34/13 49/37/13 48/51/13
f 22/46/14 18/52/14 50/53/14 51/47/14
f 18/52/14 25/54/14 57/55/14 50/53/14
f 23/56/15 20/57/15 28/58/15 31/59/15
f 22/60/16 19/61/16 27/62/16 30/63/16
f 21/64/17 25/65/17 33/66/17 29/67/17
f 20/57/18 24/68/18 32/69/18 28/58/18
f 19/61/19 23/56/19 31/59/19 27/62/19
f 18/70/20 22/60/20 30/63/20 26/71/20
f 25/65/21 18/70/21 26/71/21 33/66/21
f 24/68/22 21/64/22 29/67/22 32/69/22
f 31/59/23 28/58/23 36/72/23 39/73/23
f 30/63/24 27/62/24 35/74/24 38/75/24
f 29/67/25 33/66/25 41/76/25 37/77/25
f 28/78/26 32/79/26 40/80/26 36/81/26
f 27/62/27 31/59/27 39/73/27 35/74/27
f 26/71/28 30/63/28 38/75/28 34/82/28
f 33/66/29 26/71/29 34/82/29 41/76/29
f 32/79/30 29/83/30 37/84/30 40/80/30
f 44/85/31 45/86/31 53/87/31 52/88/31
f 47/89/32 48/90/32 56/91/32 55/92/32
f 46/93/33 47/89/33 55/92/33 54/94/33
f 43/95/34 44/96/34 52/97/34 51/98/34
f 49/99/35 42/100/35 50/101/35 57/102/35
f 42/103/36 43/95/36 51/98/36 50/104/36
f 48/105/37 49/99/37 57/102/37 56/106/37
f 45/86/38 46/107/38 54/108/38 53/87/38
f 20/109/14 23/38/14 53/41/14 54/110/14
f 14/43/13 9/111/13 46/112/13 45/44/13
f 24/113/14 20/109/14 54/110/14 55/114/14
f 9/111/13 15/115/13 47/116/13 46/112/13
f 21/117/14 24/113/14 55/114/14 56/118/14
f 25/54/14 21/117/14 56/118/14 57/55/14
f 5/35/13 13/48/13 43/49/13 42/36/13
f 15/115/13 11/50/13 48/51/13 47/116/13
f 67/119/39 68/120/39 64/121/39 60/122/39
f 72/123/40 60/124/40 64/125/40 71/126/40
f 75/127/41 68/128/41 62/129/41 73/130/41
f 66/131/42 69/132/42 61/133/42 65/134/42
f 74/135/43 67/136/43 60/137/43 72/138/43
f 73/139/44 62/140/44 58/141/44 70/142/44
f 70/143/45 58/144/45 67/136/45 74/135/45
f 63/145/42 59/146/42 69/132/42 66/131/42
f 71/147/46 64/148/46 68/128/46 75/127/46
f 58/149/39 62/150/39 68/120/39 67/119/39
f 65/151/47 71/147/47 75/127/47 66/152/47
f 59/153/48 70/143/48 74/135/48 69/154/48
f 63/155/49 73/139/49 70/142/49 59/156/49
f 69/154/48 74/135/48 72/138/48 61/157/48
f 66/152/50 75/127/50 73/130/50 63/158/50
f 61/159/51 72/123/51 71/126/51 65/160/51
f 82/161/52 83/162/52 77/163/52 76/164/52
f 76/165/53 78/166/53 81/167/53 80/168/53
f 82/169/54 76/170/54 80/161/54 86/164/54
f 78/171/55 84/172/55 87/173/55 81/174/55
f 91/175/56 82/161/56 86/170/56 93/176/56
f 80/168/57 81/167/57 95/177/57 94/178/57
f 88/179/58 92/180/58 127/181/58 125/182/58
f 78/171/59 79/183/59 85/184/59 84/172/59
f 91/175/60 88/185/60 83/162/60 82/161/60
f 84/172/61 85/184/61 92/186/61 89/187/61
f 100/188/62 76/189/62 122/190/62 129/191/62
f 84/172/63 89/187/63 90/192/63 87/173/63
f 94/178/64 95/177/64 132/193/64 133/194/64
f 96/195/65 94/196/65 133/197/65 135/198/65
f 86/199/66 80/168/66 94/178/66 96/200/66
f 81/174/67 87/173/67 97/201/67 95/202/67
f 87/173/68 90/192/68 98/203/68 97/201/68
f 93/204/69 86/205/69 96/195/69 99/206/69
f 76/207/70 77/208/70 121/209/70 122/210/70
f 83/211/71 88/212/71 125/213/71 120/214/71
f 79/183/72 78/171/72 124/215/72 123/216/72
f 78/171/73 101/217/73 130/218/73 124/215/73
f 118/219/74 117/220/74 104/221/74 105/222/74
f 104/223/75 102/224/75 109/225/75 107/226/75
f 119/227/76 118/228/76 105/229/76 103/230/76
f 117/231/77 116/232/77 102/224/77 104/223/77
f 116/233/78 119/234/78 103/235/78 102/236/78
f 102/236/79 103/235/79 108/237/79 109/238/79
f 103/230/80 105/229/80 106/239/80 108/240/80
f 105/222/81 104/221/81 107/241/81 106/242/81
f 112/243/82 110/244/82 141/245/82 139/246/82
f 115/247/83 112/243/83 139/246/83 143/248/83
f 99/206/84 96/195/84 135/198/84 137/249/84
f 97/201/85 98/203/85 136/250/85 134/251/85
f 95/202/86 97/201/86 134/251/86 132/252/86
f 98/253/87 99/254/87 137/255/87 136/256/87
f 78/257/88 76/258/88 119/234/88 116/233/88
f 101/217/89 78/171/89 116/232/89 117/231/89
f 76/189/90 100/188/90 118/228/90 119/227/90
f 100/259/91 101/260/91 117/220/91 118/219/91
f 123/261/92 121/262/92 120/263/92 126/264/92
f 126/264/93 120/263/93 125/265/93 127/266/93
f 123/216/94 124/215/94 130/218/94 131/267/94
f 129/268/95 128/269/95 131/270/95 130/271/95
f 121/262/96 123/261/96 131/272/96 128/273/96
f 122/190/97 121/274/97 128/275/97 129/191/97
f 92/276/98 85/277/98 126/264/98 127/266/98
f 101/260/99 100/259/99 129/268/99 130/271/99
f 85/184/100 79/183/100 123/216/100 126/278/100
f 77/208/101 83/211/101 120/214/101 121/209/101
f 111/279/102 110/280/102 133/194/102 132/193/102
f 113/281/103 111/282/103 132/252/103 134/251/103
f 110/244/104 112/243/104 135/198/104 133/197/104
f 114/283/105 113/281/105 134/251/105 136/250/105
f 112/243/106 115/247/106 137/249/106 135/198/106
f 115/284/107 114/285/107 136/256/107 137/255/107
f 139/246/108 141/245/108 147/286/108 145/287/108
f 143/248/109 139/246/109 145/287/109 149/288/109
f 110/280/110 111/279/110 140/289/110 141/290/110
f 114/285/111 115/284/111 143/291/111 142/292/111
f 113/281/112 114/283/112 142/293/112 138/294/112
f 111/282/113 113/281/113 138/294/113 140/295/113
f 141/290/114 140/289/114 146/296/114 147/297/114
f 142/292/115 143/291/115 149/298/115 148/299/115
f 138/294/116 142/293/116 148/300/116 144/301/116
f 140/295/117 138/294/117 144/301/117 146/302/117
f 146/303/118 144/304/118 150/305/118 152/306/118
f 144/304/119 148/307/119 154/308/119 150/305/119
f 148/307/120 149/309/120 155/310/120 154/308/120
f 147/311/121 146/303/121 152/306/121 153/312/121
f 145/313/39 147/311/39 153/312/39 151/314/39
f 149/309/39 145/313/39 151/314/39 155/310/39
f 154/315/122 155/316/122 163/317/122 162/318/122
f 153/319/123 152/320/123 167/321/123 166/322/123
f 151/323/124 153/324/124 166/325/124 164/326/124
f 155/327/125 151/323/125 164/326/125 163/328/125
f 152/329/126 150/330/126 165/331/126 167/332/126
f 150/330/127 154/333/127 162/334/127 165/331/127
f 161/335/128 157/336/128 170/337/128 168/338/128
f 159/339/129 161/335/129 168/338/129 173/340/129
f 156/341/130 157/342/130 162/343/130 163/344/130
f 160/345/131 156/341/131 163/344/131 164/346/131
f 157/342/132 161/347/132 165/348/132 162/343/132
f 158/349/133 160/345/133 164/346/133 166/350/133
f 161/347/134 159/351/134 167/352/134 165/348/134
f 159/351/135 158/349/135 166/350/135 167/352/135
f 169/353/42 168/354/42 170/355/42 171/356/42
f 172/357/42 173/358/42 168/354/42 169/353/42
f 157/359/136 156/360/136 171/361/136 170/362/136
f 158/363/137 159/364/137 173/365/137 172/366/137
f 172/357/42 169/353/42 177/367/42 179/368/42
f 158/363/138 172/366/138 179/369/138 176/370/138
f 174/371/139 176/372/139 179/373/139 177/374/139
f 175/375/140 174/371/140 177/374/140 178/376/140
f 160/377/141 158/378/141 176/379/141 174/380/141
f 169/353/42 171/356/42 178/381/42 177/367/42
f 156/382/142 160/377/142 174/380/142 175/383/142
f 171/361/143 156/360/143 175/384/143 178/385/143
f 109/238/144 108/237/144 182/386/144 183/387/144
f 108/240/145 106/239/145 180/388/145 182/389/145
f 106/242/146 107/241/146 181/390/146 180/391/146
f 107/226/147 109/225/147 183/392/147 181/393/147
f 182/389/148 180/388/148 184/394/148 186/395/148
f 180/391/149 181/390/149 185/396/149 184/397/149
f 183/387/150 182/386/150 186/398/150 187/399/150
f 181/393/151 183/392/151 187/400/151 185/401/151
f 194/402/152 188/403/152 189/404/152 195/405/152
f 188/406/153 192/407/153 193/408/153 190/409/153
f 194/410/154 198/403/154 192/402/154 188/411/154
f 190/412/155 193/413/155 199/414/155 196/415/155
f 203/416/156 205/417/156 198/411/156 194/402/156
f 192/407/157 206/418/157 207/419/157 193/408/157
f 200/420/158 237/421/158 239/422/158 204/423/158
f 190/412/159 196/415/159 197/424/159 191/425/159
f 203/416/160 194/402/160 195/405/160 200/426/160
f 196/415/61 201/427/61 204/428/61 197/424/61
f 212/429/161 241/430/161 234/431/161 188/432/161
f 196/415/63 199/414/63 202/433/63 201/427/63
f 206/418/162 245/434/162 244/435/162 207/419/162
f 208/436/163 247/437/163 245/438/163 206/439/163
f 198/440/164 208/441/164 206/418/164 192/407/164
f 193/413/165 207/442/165 209/443/165 199/414/165
f 199/414/68 209/443/68 210/444/68 202/433/68
f 205/445/166 211/206/166 208/436/166 198/446/166
f 188/447/167 234/448/167 233/449/167 189/450/167
f 195/451/168 232/452/168 237/453/168 200/454/168
f 191/425/169 235/455/169 236/456/169 190/412/169
f 190/412/170 236/456/170 242/457/170 213/458/170
f 230/459/171 217/460/171 216/461/171 229/462/171
f 216/463/172 219/464/172 221/465/172 214/466/172
f 231/467/173 215/468/173 217/469/173 230/470/173
f 229/471/174 216/463/174 214/466/174 228/472/174
f 228/473/175 214/474/175 215/475/175 231/476/175
f 214/474/176 221/477/176 220/478/176 215/475/176
f 215/468/177 220/479/177 218/480/177 217/469/177
f 217/460/178 218/481/178 219/482/178 216/461/178
f 224/483/179 249/484/179 251/485/179 222/486/179
f 227/487/180 253/488/180 249/484/180 224/483/180
f 211/206/181 137/249/181 247/437/181 208/436/181
f 209/443/85 246/489/85 136/490/85 210/444/85
f 207/442/182 244/491/182 246/489/182 209/443/182
f 210/492/183 136/493/183 137/494/183 211/495/183
f 190/496/184 228/473/184 231/476/184 188/497/184
f 213/458/185 229/471/185 228/472/185 190/412/185
f 188/432/186 231/467/186 230/470/186 212/429/186
f 212/498/187 230/459/187 229/462/187 213/499/187
f 235/500/188 238/501/188 232/502/188 233/503/188
f 238/501/189 239/504/189 237/505/189 232/502/189
f 235/455/190 243/506/190 242/457/190 236/456/190
f 241/507/191 242/508/191 243/509/191 240/510/191
f 233/503/192 240/511/192 243/512/192 235/500/192
f 234/431/193 241/430/193 240/513/193 233/514/193
f 204/515/194 239/504/194 238/501/194 197/516/194
f 213/499/195 242/508/195 241/507/195 212/498/195
f 197/424/196 238/517/196 235/455/196 191/425/196
f 189/450/197 233/449/197 232/452/197 195/451/197
f 223/518/198 244/435/198 245/434/198 222/519/198
f 225/520/199 246/489/199 244/491/199 223/521/199
f 222/486/200 245/438/200 247/437/200 224/483/200
f 226/522/105 136/490/105 246/489/105 225/520/105
f 224/483/201 247/437/201 137/249/201 227/487/201
f 227/523/202 137/494/202 136/493/202 226/524/202
f 249/484/203 255/525/203 257/526/203 251/485/203
f 253/488/204 259/527/204 255/525/204 249/484/204
f 222/519/205 251/528/205 250/529/205 223/518/205
f 226/524/206 252/530/206 253/531/206 227/523/206
f 225/520/207 248/532/207 252/533/207 226/522/207
f 223/521/208 250/534/208 248/532/208 225/520/208
f 251/528/209 257/535/209 256/536/209 250/529/209
f 252/530/210 258/537/210 259/538/210 253/531/210
f 248/532/211 254/539/211 258/540/211 252/533/211
f 250/534/212 256/541/212 254/539/212 248/532/212
f 256/542/213 262/543/213 260/544/213 254/545/213
f 254/545/214 260/544/214 264/546/214 258/547/214
f 258/547/215 264/546/215 265/548/215 259/549/215
f 257/550/216 263/551/216 262/543/216 256/542/216
f 255/552/39 261/553/39 263/551/39 257/550/39
f 259/549/39 265/548/39 261/553/39 255/552/39
f 264/554/217 272/555/217 273/556/217 265/557/217
f 263/558/218 276/559/218 277/560/218 262/561/218
f 261/323/219 274/562/219 276/563/219 263/564/219
f 265/327/220 273/565/220 274/562/220 261/323/220
f 262/566/221 277/567/221 275/568/221 260/569/221
f 260/569/222 275/568/222 272/570/222 264/571/222
f 271/572/223 278/573/223 280/574/223 267/575/223
f 269/576/224 283/577/224 278/573/224 271/572/224
f 266/578/225 273/579/225 272/580/225 267/581/225
f 270/582/226 274/583/226 273/579/226 266/578/226
f 267/581/227 272/580/227 275/348/227 271/584/227
f 268/585/228 276/586/228 274/583/228 270/582/228
f 271/584/229 275/348/229 277/587/229 269/588/229
f 269/588/230 277/587/230 276/586/230 268/585/230
f 279/589/42 281/590/42 280/591/42 278/592/42
f 282/593/42 279/589/42 278/592/42 283/594/42
f 267/595/231 280/596/231 281/597/231 266/598/231
f 268/599/232 282/600/232 283/601/232 269/602/232
f 282/593/42 289/603/42 287/604/42 279/589/42
f 268/599/233 286/605/233 289/606/233 282/600/233
f 284/607/234 287/608/234 289/609/234 286/610/234
f 285/611/235 288/612/235 287/608/235 284/607/235
f 270/613/236 284/614/236 286/615/236 268/616/236
f 279/589/42 287/604/42 288/617/42 281/590/42
f 266/618/237 285/619/237 284/614/237 270/613/237
f 281/597/238 288/620/238 285/621/238 266/598/238
f 221/477/239 293/622/239 292/623/239 220/478/239
f 220/479/240 292/624/240 290/625/240 218/480/240
f 218/481/241 290/626/241 291/627/241 219/482/241
f 219/464/242 291/628/242 293/629/242 221/465/242
f 292/624/243 296/630/243 294/631/243 290/625/243
f 290/626/244 294/632/244 295/633/244 291/627/244
f 293/622/245 297/634/245 296/635/245 292/623/245
f 291/628/246 295/636/246 297/637/246 293/629/246
