# Blender 4.5.4 LTS
# www.blender.org
mtllib AircraftCarrier.mtl
o Cube
v 1.887220 -0.358143 3.988133
v 1.887220 -0.041941 3.988133
v 1.887220 -0.358143 2.240668
v 1.887220 -0.041941 2.240668
v 2.563047 -0.358143 3.988133
v 2.563047 -0.041941 3.988133
v 2.563047 -0.358143 2.240668
v 2.563047 -0.041941 2.240668
v 1.887220 0.619913 3.988133
v 1.887220 0.619913 2.240668
v 2.563047 0.619913 3.988133
v 2.563047 0.619913 2.240668
v 1.887220 0.466436 3.988133
v 1.887220 0.466436 2.240668
v 2.563047 0.466436 3.988133
v 2.563047 0.466436 2.240668
v 1.421043 0.619913 3.988133
v 1.421043 0.619913 2.240668
v 1.421043 0.466436 3.988133
v 1.421043 0.466436 2.240668
v 1.887220 1.012064 3.988133
v 1.887220 1.012064 2.240668
v 2.448665 1.012064 3.804219
v 2.448665 1.012064 2.424582
v 1.549603 1.012064 3.804219
v 1.549603 1.012064 2.424582
v 1.873045 1.012064 2.424582
v 2.563047 1.012064 2.240668
v 2.563047 1.012064 3.988133
v 1.873045 1.012064 3.804219
v 1.421043 1.012064 3.988133
v 1.421043 1.012064 2.240668
v 1.873045 1.296299 3.804219
v 1.873045 1.296299 2.424582
v 2.448665 1.296299 2.424582
v 2.448665 1.296299 3.804219
v 1.549603 1.296299 3.804219
v 1.549603 1.296299 2.424582
v 1.873045 1.408796 3.804219
v 1.873045 1.408796 2.424582
v 2.448665 1.408796 2.424582
v 2.448665 1.408796 3.804219
v 1.549603 1.408796 3.804219
v 1.549603 1.408796 2.424582
v 2.695641 1.289337 2.055923
v 2.695641 1.415758 2.055923
v 1.862638 1.289337 1.938594
v 2.695641 1.289337 4.172878
v 1.862638 1.289337 4.290208
v 1.313033 1.289337 4.172878
v 1.313033 1.289337 2.055923
v 1.862638 1.415758 1.938594
v 2.695641 1.415758 4.172878
v 1.862638 1.415758 4.290208
v 1.313033 1.415758 4.172878
v 1.313033 1.415758 2.055923
v 1.873045 2.052011 3.804219
v 1.873045 2.052011 2.424582
v 2.448665 2.052011 2.424582
v 2.448665 2.052011 3.804219
v 1.549603 2.052011 3.804219
v 1.549603 2.052011 2.424582
v 1.873045 2.174133 3.804219
v 1.873045 2.174133 2.424582
v 2.448665 2.174133 2.424582
v 2.448665 2.174133 3.804219
v 1.549603 2.174133 3.804219
v 1.549603 2.174133 2.424582
v 2.686900 2.053079 2.060986
v 2.686900 2.173065 2.060986
v 1.874514 2.053079 1.905394
v 2.686900 2.053079 4.167814
v 1.874514 2.053079 4.323411
v 1.309898 2.053079 4.167814
v 1.309898 2.053079 2.060986
v 1.874514 2.173065 1.905394
v 2.686900 2.173065 4.167814
v 1.874514 2.173065 4.323411
v 1.309898 2.173065 4.167814
v 1.309898 2.173065 2.060986
v 1.938204 2.318166 3.269496
v 1.938204 2.318166 2.959302
v 2.067625 2.318166 2.959302
v 2.067625 2.318166 3.269496
v 1.865482 2.318166 3.269496
v 1.865482 2.318166 2.959302
v 1.938394 2.774498 3.267939
v 1.938394 2.774498 2.960858
v 2.066516 2.774498 2.960858
v 2.066516 2.774498 3.267939
v 1.866402 2.774498 3.267939
v 1.866402 2.774498 2.960858
v 1.921102 2.997684 3.409848
v 1.921102 2.997684 2.818950
v 2.167639 2.997684 2.818950
v 2.167639 2.997684 3.409848
v 1.782571 2.997684 3.409848
v 1.782571 2.997684 2.818950
v 1.921102 3.039558 3.409848
v 1.921102 3.039558 2.818950
v 1.992550 3.039560 3.067148
v 1.992550 3.039560 3.161647
v 1.931314 3.039560 3.161647
v 1.931314 3.039560 3.067148
v 1.947447 3.039560 3.067148
v 2.167639 3.039558 2.818950
v 2.167639 3.039558 3.409848
v 1.947447 3.039560 3.161647
v 1.782571 3.039558 3.409848
v 1.782571 3.039558 2.818950
v 1.939578 3.662378 3.200150
v 1.939578 3.662378 3.028645
v 2.021435 3.662378 3.028645
v 2.021435 3.662378 3.200150
v 1.910297 3.662378 3.200150
v 1.910297 3.662378 3.028645
v 1.948663 1.484413 3.804219
v 2.373047 1.484413 3.804219
v 2.373047 1.976394 3.804219
v 1.948663 1.976394 3.804219
v 1.625219 1.484413 3.804219
v 1.797428 1.484413 3.804219
v 1.797428 1.976394 3.804219
v 1.625219 1.976394 3.804219
v 2.373047 1.484413 2.424582
v 1.948663 1.484413 2.424582
v 1.948663 1.976394 2.424582
v 2.373047 1.976394 2.424582
v 1.797428 1.484413 2.424582
v 1.625219 1.484413 2.424582
v 1.625219 1.976394 2.424582
v 1.797428 1.976394 2.424582
v 1.549603 1.484413 2.539666
v 1.549603 1.484413 3.689136
v 1.549603 1.976394 3.689136
v 1.549603 1.976394 2.539666
v 2.448665 1.484413 3.689136
v 2.448665 1.484413 2.539666
v 2.448665 1.976394 2.539666
v 2.448665 1.976394 3.689136
v 2.373047 1.484413 3.720714
v 1.948663 1.484413 3.720714
v 1.948663 1.976394 3.720714
v 2.373047 1.976394 3.720714
v 1.797428 1.484413 3.720714
v 1.625219 1.484413 3.720714
v 1.625219 1.976394 3.720714
v 1.797428 1.976394 3.720714
v 1.948663 1.484413 2.508086
v 2.373047 1.484413 2.508086
v 2.373047 1.976394 2.508086
v 1.948663 1.976394 2.508086
v 1.797428 1.484413 2.508086
v 1.625219 1.484413 2.508086
v 1.797428 1.976394 2.508086
v 1.625219 1.976394 2.508086
v 1.604470 1.484413 3.689136
v 1.604470 1.484413 2.539666
v 1.604470 1.976394 2.539666
v 1.604470 1.976394 3.689136
v 2.393796 1.484413 2.539666
v 2.393796 1.484413 3.689136
v 2.393796 1.976394 3.689136
v 2.393796 1.976394 2.539666
v 2.408779 -0.826575 -4.534072
v 1.945000 -1.075953 -4.516489
v 0.841892 -1.569273 -4.497331
v 2.383009 -0.826575 -3.624208
v 1.936696 -1.075953 -3.625125
v 0.830508 -1.570761 -3.625547
v 1.964025 -1.075953 -2.799963
v 0.830073 -1.570741 -2.804430
v 2.021346 -1.075953 -1.105792
v 0.829222 -1.570790 -1.105955
v 2.020465 -1.075953 2.192586
v 0.829058 -1.570815 2.192282
v 1.983494 -1.075953 5.830254
v 0.826279 -1.573328 5.821524
v 0.440113 -1.075953 5.836924
v 0.440113 -1.585812 5.794116
v 0.440113 -1.584929 2.192194
v 0.440113 -1.584929 -1.105731
v 0.440113 -1.584929 -2.804136
v 0.440113 -1.584929 -3.620901
v 0.440113 -1.584929 -4.489942
v 2.390610 -0.826575 -2.804845
v 2.341311 -0.826575 -1.104951
v 2.317250 -0.826575 2.192738
v 2.301373 -0.826575 5.827952
v 0.440113 -0.826575 5.836909
v 2.474986 -0.437628 -4.541116
v 2.473738 -0.440716 -3.622781
v 2.472627 -0.445797 -2.803318
v 2.469700 -0.456400 -1.104505
v 2.465694 -0.466864 2.192645
v 2.463559 -0.470593 5.836909
v 0.440113 -0.409815 5.836909
v 1.553864 -0.826575 -5.609483
v 1.384510 -1.075953 -5.578428
v 0.871270 -1.566475 -5.558069
v 0.440113 -1.584894 -5.549291
v 1.619736 -0.444866 -5.607770
v 1.157974 -0.826575 -8.781186
v 1.097545 -1.075953 -8.264894
v 0.889135 -1.562407 -8.117986
v 1.322897 -0.473789 -8.809104
v 0.440113 -0.826575 -9.244805
v 0.440113 -1.075953 -8.809319
v 0.440113 -1.576060 -8.582696
v 0.440113 -0.504906 -9.547587
v 2.656418 -0.268532 -4.481813
v 2.656418 -0.268532 5.855842
v 1.671768 -0.268532 -5.535631
v 1.671768 -0.268532 -9.563231
v -1.528553 -0.826575 -4.534072
v -1.064774 -1.075953 -4.516489
v 0.038334 -1.569273 -4.497331
v -1.502783 -0.826575 -3.624208
v -1.056471 -1.075953 -3.625125
v 0.049717 -1.570761 -3.625547
v -1.083799 -1.075953 -2.799963
v 0.050152 -1.570741 -2.804430
v -1.141121 -1.075953 -1.105792
v 0.051006 -1.570790 -1.105955
v -1.140238 -1.075953 2.192586
v 0.051167 -1.570815 2.192282
v -1.103268 -1.075953 5.830254
v 0.053947 -1.573328 5.821524
v -1.510384 -0.826575 -2.804845
v -1.461084 -0.826575 -1.104951
v -1.437025 -0.826575 2.192738
v -1.421146 -0.826575 5.827952
v -1.594759 -0.437628 -4.541116
v -1.593512 -0.440716 -3.622781
v -1.592400 -0.445799 -2.803318
v -1.589474 -0.456400 -1.104505
v -1.585468 -0.466864 2.192645
v -1.583332 -0.470593 5.836909
v -0.673637 -0.826575 -5.609483
v -0.504284 -1.075953 -5.578428
v 0.008955 -1.566475 -5.558069
v -0.739510 -0.444868 -5.607770
v -0.277748 -0.826575 -8.781186
v -0.217319 -1.075953 -8.264894
v -0.008909 -1.562407 -8.117986
v -0.442671 -0.473789 -8.809104
v -1.776192 -0.268532 -4.481813
v -1.776192 -0.268532 5.855842
v -0.791542 -0.268532 -5.535631
v -0.791542 -0.268532 -9.563231
v 2.271441 -0.738901 -4.489942
v 1.865884 -0.957016 -4.489942
v 0.796755 -1.422282 -4.489942
v 2.250467 -0.738901 -3.624292
v 1.869235 -0.957016 -3.624624
v 0.796755 -1.422282 -3.625301
v 1.892431 -0.957016 -2.799201
v 0.796755 -1.422282 -2.803985
v 1.943473 -0.957016 -1.105731
v 0.796755 -1.422282 -1.105731
v 1.942076 -0.957016 2.192194
v 0.796755 -1.422282 2.192194
v 1.902530 -0.957016 5.687260
v 0.796755 -1.422282 5.688313
v 0.440113 -0.957016 5.687260
v 0.440113 -1.435183 5.647440
v 0.440113 -1.435183 2.192194
v 0.440113 -1.435183 -1.105731
v 0.440113 -1.435183 -2.804136
v 0.440113 -1.435183 -3.620901
v 0.440113 -1.435183 -4.489942
v 2.260067 -0.738901 -2.804588
v 2.213485 -0.738901 -1.105731
v 2.191627 -0.738793 2.192194
v 2.169497 -0.738793 5.687260
v 0.440113 -0.738793 5.687260
v 2.327281 -0.409924 -4.489942
v 2.327281 -0.409924 -3.623239
v 2.327281 -0.409924 -2.803880
v 2.327281 -0.409924 -1.105731
v 2.327281 -0.409815 2.192194
v 2.327281 -0.409815 5.687260
v 0.440113 -0.409815 5.687260
v 1.423379 -0.738901 -5.549156
v 1.278496 -0.957016 -5.549156
v 0.796755 -1.422282 -5.549156
v 0.440113 -1.435183 -5.549156
v 1.479218 -0.409924 -5.549156
v 1.044925 -0.738901 -8.716083
v 0.991885 -0.957016 -8.202266
v 0.796755 -1.422282 -8.068490
v 1.192607 -0.409924 -8.739255
v 0.440113 -0.738901 -9.124455
v 0.440113 -0.957016 -8.673669
v 0.440113 -1.422282 -8.459004
v 0.440113 -0.409924 -9.394959
v 2.656418 -0.418181 -4.481813
v 2.656418 -0.418181 5.855842
v 0.440113 -0.418181 -4.481813
v 0.440113 -0.418181 5.855842
v 1.671768 -0.418181 -5.535631
v 0.440113 -0.418181 -5.535631
v 1.671768 -0.418181 -9.563231
v 0.440113 -0.418181 -9.563231
v -1.391216 -0.738901 -4.489942
v -0.985659 -0.957018 -4.489942
v 0.083471 -1.422282 -4.489942
v -1.370241 -0.738901 -3.624292
v -0.989010 -0.957018 -3.624624
v 0.083471 -1.422282 -3.625301
v -1.012205 -0.957018 -2.799201
v 0.083471 -1.422282 -2.803985
v -1.063248 -0.957018 -1.105731
v 0.083471 -1.422282 -1.105731
v -1.061850 -0.957018 2.192194
v 0.083471 -1.422282 2.192194
v -1.022303 -0.957018 5.687260
v 0.083471 -1.422282 5.688313
v -1.379841 -0.738901 -2.804588
v -1.333260 -0.738901 -1.105731
v -1.311399 -0.738793 2.192194
v -1.289270 -0.738793 5.687260
v -1.447054 -0.409924 -4.489942
v -1.447054 -0.409924 -3.623239
v -1.447054 -0.409924 -2.803880
v -1.447054 -0.409924 -1.105731
v -1.447054 -0.409815 2.192194
v -1.447054 -0.409815 5.687260
v -0.543152 -0.738901 -5.549156
v -0.398270 -0.957016 -5.549156
v 0.083471 -1.422282 -5.549156
v -0.598991 -0.409924 -5.549156
v -0.164700 -0.738901 -8.716083
v -0.111658 -0.957016 -8.202266
v 0.083471 -1.422282 -8.068490
v -0.312382 -0.409924 -8.739255
v -1.776192 -0.418181 -4.481813
v -1.776192 -0.418181 5.855842
v -0.791542 -0.418181 -5.535631
v -0.791542 -0.418181 -9.563231
v -0.623156 -0.232798 -4.481813
v -0.712925 -0.232798 -4.481813
v -0.130831 -0.232798 -5.535631
v -0.220600 -0.232798 -5.535631
v -0.712849 -0.232798 5.855842
v -0.623230 -0.232798 5.855842
v -0.130905 -0.232798 -9.563231
v -0.220524 -0.232798 -9.563231
v 1.593150 -0.232798 -4.481813
v 1.503381 -0.232798 -4.481813
v 1.100825 -0.232798 -5.535631
v 1.011056 -0.232798 -5.535631
v 1.503456 -0.232798 5.855842
v 1.593075 -0.232798 5.855842
v 1.100750 -0.232798 -9.563231
v 1.011131 -0.232798 -9.563231
v 1.503381 -0.268532 -4.481813
v 1.593150 -0.268532 -4.481813
v 1.593075 -0.268532 5.855842
v 1.503456 -0.268532 5.855842
v 1.011056 -0.268532 -5.535631
v 1.100825 -0.268532 -5.535631
v 1.011131 -0.268532 -9.563231
v 1.100750 -0.268532 -9.563231
v 1.593150 -0.418181 -4.481813
v 1.503381 -0.418181 -4.481813
v 1.503456 -0.418181 5.855842
v 1.593075 -0.418181 5.855842
v 1.100825 -0.418181 -5.535631
v 1.011056 -0.418181 -5.535631
v 1.100750 -0.418181 -9.563231
v 1.011131 -0.418181 -9.563231
v -0.712925 -0.268532 -4.481813
v -0.623156 -0.268532 -4.481813
v -0.623230 -0.268532 5.855842
v -0.712849 -0.268532 5.855842
v -0.220600 -0.268532 -5.535631
v -0.130831 -0.268532 -5.535631
v -0.220524 -0.268532 -9.563231
v -0.130905 -0.268532 -9.563231
v -0.623156 -0.418181 -4.481813
v -0.712925 -0.418181 -4.481813
v -0.712849 -0.418181 5.855842
v -0.623230 -0.418181 5.855842
v -0.130831 -0.418181 -5.535631
v -0.220600 -0.418181 -5.535631
v -0.130905 -0.418181 -9.563231
v -0.220524 -0.418181 -9.563231
v 0.481504 -0.268532 -4.481813
v 0.398722 -0.268532 -4.481813
v 0.481504 -0.268532 5.855842
v 0.398722 -0.268532 5.855842
v 0.440113 -0.309923 5.855842
v 0.481504 -0.268532 -5.535631
v 0.398722 -0.268532 -5.535631
v 0.398722 -0.268532 -9.563231
v 0.481504 -0.268532 -9.563231
v 0.440113 -0.309923 -9.563231
v 1.671768 -0.268532 -7.549432
v -0.791542 -0.268532 -7.549432
v 1.671768 -0.418181 -7.549432
v 0.440113 -0.418181 -7.549432
v 1.011093 -0.232798 -7.549432
v -0.791542 -0.418181 -7.549432
v -0.220562 -0.232798 -7.549432
v 1.100787 -0.232798 -7.549432
v -0.130867 -0.232798 -7.549432
v 1.100787 -0.418181 -7.549432
v 1.011093 -0.418181 -7.549432
v 1.100787 -0.268532 -7.549432
v 1.011093 -0.268532 -7.549432
v -0.220562 -0.418181 -7.549432
v -0.130867 -0.418181 -7.549432
v -0.220562 -0.268532 -7.549432
v -0.130867 -0.268532 -7.549432
v 0.398722 -0.268532 -7.549432
v 0.481504 -0.268532 -7.549432
v 2.656418 -0.268532 0.687016
v -1.776192 -0.268532 0.687016
v -0.712887 -0.232798 0.687014
v 2.656418 -0.418181 0.687016
v 0.440113 -0.418181 0.687016
v -1.776192 -0.418181 0.687016
v -0.623192 -0.232798 0.687016
v 1.593113 -0.232798 0.687016
v 1.503418 -0.232798 0.687014
v 1.503418 -0.418181 0.687016
v 1.593113 -0.418181 0.687014
v 1.503418 -0.268532 0.687014
v 1.593113 -0.268532 0.687016
v -0.623192 -0.418181 0.687014
v -0.712887 -0.418181 0.687016
v -0.623192 -0.268532 0.687016
v -0.712887 -0.268532 0.687014
v 0.481504 -0.268532 0.687016
v 0.398722 -0.268532 0.687014
v 2.656418 -0.268532 -1.897399
v -1.776192 -0.268532 -1.897399
v 2.656418 -0.418181 -1.897399
v 0.440113 -0.418181 -1.897399
v -1.776192 -0.418181 -1.897399
v -0.623173 -0.232798 -1.897399
v 1.593131 -0.232798 -1.897399
v 1.503399 -0.418181 -1.897399
v 1.593131 -0.268532 -1.897399
v -0.712906 -0.418181 -1.897399
v -0.623173 -0.268532 -1.897399
v 0.481504 -0.268532 -1.897399
v -0.712906 -0.232798 -1.897399
v 1.503399 -0.232798 -1.897399
v 1.593131 -0.418181 -1.897399
v 1.503399 -0.268532 -1.897399
v -0.623173 -0.418181 -1.897399
v -0.712906 -0.268532 -1.897399
v 0.398722 -0.268532 -1.897399
v -0.712868 -0.232798 3.271429
v 1.503437 -0.232798 3.271429
v 1.593094 -0.418181 3.271429
v 1.503437 -0.268532 3.271429
v -0.623211 -0.418181 3.271429
v -0.712868 -0.268532 3.271429
v 0.398722 -0.268532 3.271429
v 2.656418 -0.268532 3.271429
v -1.776192 -0.268532 3.271429
v 2.656418 -0.418181 3.271429
v 0.440113 -0.418181 3.271429
v -1.776192 -0.418181 3.271429
v -0.623211 -0.232798 3.271429
v 1.593094 -0.232798 3.271429
v 1.503437 -0.418181 3.271429
v 1.593094 -0.268532 3.271429
v -0.712868 -0.418181 3.271429
v -0.623211 -0.268532 3.271429
v 0.481504 -0.268532 3.271429
v 2.656418 -0.268532 -3.189607
v -1.776192 -0.268532 -3.189607
v 2.656418 -0.418181 -3.189607
v 0.440113 -0.418181 -3.189607
v -1.776192 -0.418181 -3.189607
v -0.623163 -0.232798 -3.189607
v 1.593141 -0.232798 -3.189607
v 1.503389 -0.418181 -3.189607
v 1.593141 -0.268532 -3.189607
v -0.712915 -0.418181 -3.189607
v -0.623163 -0.268532 -3.189607
v 0.481504 -0.268532 -3.189607
v -0.712915 -0.232798 -3.189607
v 1.503389 -0.232798 -3.189607
v 1.593141 -0.418181 -3.189607
v 1.503389 -0.268532 -3.189607
v -0.623163 -0.418181 -3.189607
v -0.712915 -0.268532 -3.189607
v 0.398722 -0.268532 -3.189607
v -0.712858 -0.232798 4.563635
v 1.503447 -0.232798 4.563635
v 1.593084 -0.418181 4.563635
v 1.503447 -0.268532 4.563635
v -0.623220 -0.418181 4.563635
v -0.712858 -0.268532 4.563635
v 0.398722 -0.268532 4.563635
v 2.656418 -0.268532 4.563635
v -1.776192 -0.268532 4.563635
v 2.656418 -0.418181 4.563635
v 0.440113 -0.418181 4.563635
v -1.776192 -0.418181 4.563635
v -0.623220 -0.232798 4.563635
v 1.593084 -0.232798 4.563635
v 1.503447 -0.418181 4.563635
v 1.593084 -0.268532 4.563635
v -0.712858 -0.418181 4.563635
v -0.623220 -0.268532 4.563635
v 0.481504 -0.268532 4.563635
v 0.481504 -0.244402 -3.189607
v 0.481504 -0.244402 -4.481813
v 0.398722 -0.244402 -4.481813
v 0.481504 -0.244402 -5.535631
v 0.398722 -0.244402 -5.535631
v 0.398722 -0.244402 -7.549432
v 0.481504 -0.244402 -7.549432
v 0.398722 -0.244402 -1.897399
v 0.398722 -0.244402 0.687014
v 0.481504 -0.244402 0.687016
v 0.481504 -0.244402 -1.897399
v 0.481504 -0.244402 4.563635
v 0.481504 -0.244402 3.271429
v 0.398722 -0.244402 3.271429
v 0.398722 -0.244402 -3.189607
v 0.398722 -0.244402 4.563635
v -1.073099 -0.095396 2.361296
v -1.056953 -0.051314 2.457363
v -0.675999 -0.084221 2.131042
v -0.330688 -0.022808 1.952924
v -0.319132 -0.294922 2.108351
v -0.386187 0.025190 2.169840
v -0.893782 -0.300387 2.635303
v -0.979925 -0.020312 2.714296
v -1.213791 -0.118445 2.286323
v -1.212620 -0.095307 2.287606
v -0.570835 -0.101980 1.906961
v -0.569170 -0.054186 1.908482
v -1.325106 -0.170172 2.156785
v -1.325077 -0.147665 2.156758
v -0.974413 -0.143870 1.845090
v -0.974195 -0.121487 1.844890
v -0.264336 -0.106135 1.830225
v -0.237804 -0.045143 1.875764
v -0.152542 -0.225136 1.955590
v -0.134743 -0.106135 1.729195
v -0.151094 -0.038758 1.806261
v -0.033701 -0.174866 1.846613
v 0.133608 -0.029276 1.693191
v 0.304548 -0.099076 1.478774
v 0.304548 -0.090750 1.478774
v 0.408816 -0.099035 1.440825
v 0.408816 -0.088989 1.440825
v -1.398029 -0.126240 2.754449
v -1.398439 -0.106310 2.754100
v -1.226778 -0.214033 2.940515
v -1.112305 -0.068598 2.836048
v 0.330770 -0.074333 1.512393
v -1.479280 -0.198530 1.996806
v -1.479280 -0.176089 1.996806
v -1.267788 -0.152857 1.802868
v -1.267818 -0.130413 1.802894
v -1.561512 -0.145111 1.827831
v -1.634087 -0.122194 1.827987
v -1.510450 -0.135142 1.781008
v -1.517439 -0.095494 1.721022
v -1.676535 -0.099123 1.781699
v -1.676535 -0.077276 1.781699
v -1.635702 -0.099247 1.744256
v -1.635702 -0.077269 1.744256
v -1.444628 -0.139000 2.817855
v -1.444731 -0.119412 2.817770
v -1.378811 -0.163754 3.080073
v -1.378811 -0.078053 3.080073
v -1.711161 -0.221626 2.803012
v -1.711161 -0.200779 2.803012
v -1.796021 -0.194115 2.997932
v -1.796021 -0.117367 2.997932
v -0.636301 -0.095396 2.837634
v -0.730612 -0.051314 2.813243
v -0.372583 -0.084221 2.461921
v -0.165285 -0.022808 2.133299
v -0.573765 -0.118445 2.984275
v -0.574945 -0.095307 2.983000
v -0.140251 -0.101980 2.376521
v -0.141623 -0.054186 2.374730
v -0.454370 -0.159708 3.106405
v -0.454317 -0.137808 3.106356
v -0.113422 -0.136507 2.783868
v -0.113251 -0.115118 2.783710
v -0.037310 -0.106135 2.077799
v -0.080385 -0.045143 2.047431
v 0.074543 -0.106135 1.957426
v -0.003647 -0.038758 1.967055
v 0.361998 -0.099076 1.541424
v 0.361998 -0.090750 1.541424
v -1.056223 -0.126383 3.127018
v -1.055929 -0.106459 3.127429
v -0.302988 -0.178942 3.197583
v -0.308283 -0.176089 3.273800
v -0.146235 -0.144093 3.053901
v -0.096766 -0.130413 3.079840
v -0.153477 -0.142872 3.442619
v -0.153477 -0.122194 3.442619
v -0.036829 -0.116726 3.335654
v -0.036829 -0.095494 3.335654
v -0.111031 -0.099123 3.488907
v -0.111031 -0.077276 3.488907
v -0.070198 -0.099247 3.451465
v -0.070198 -0.077269 3.451465
v -1.123402 -0.139002 3.168155
v -1.123325 -0.119414 3.168265
v -1.131516 -0.221626 3.435126
v -1.131516 -0.200779 3.435126
v -1.333040 -0.194115 3.502820
v -1.333040 -0.117367 3.502820
v -0.387011 -0.049008 1.948834
v -0.448845 0.027395 2.227298
v -0.263796 -0.083691 1.830735
v -0.134687 -0.083691 1.729251
v 0.234747 -0.055880 1.600447
v -0.166079 -0.049008 2.189763
v -0.037771 -0.083691 2.077218
v 0.074493 -0.083691 1.957365
v -0.237331 -0.002430 1.890723
v -0.112844 0.095032 1.919186
v -0.261459 0.113416 2.055466
v 0.100653 0.006174 1.723410
v -0.095247 -0.002430 2.045668
v -0.311050 0.019903 1.980735
v -0.124853 0.003956 1.808034
v -0.191296 0.019903 2.111331
v -0.003145 0.003956 1.940759
v -0.389275 -0.097462 1.946149
v -1.060743 -0.095171 2.453229
v -1.168051 -0.117212 2.244461
v -0.852856 -0.087429 2.072464
v -1.268744 -0.168244 2.105172
v -1.003376 -0.142225 1.892992
v -1.439770 -0.193629 1.960592
v -1.293873 -0.159636 1.849433
v -1.517439 -0.116726 1.721022
v -1.634087 -0.142872 1.827987
v -0.163599 -0.097462 2.192252
v -0.726822 -0.095171 2.817376
v -0.527943 -0.117212 2.942174
v -0.329288 -0.087429 2.642975
v -0.398243 -0.154753 3.054865
v -0.163683 -0.132864 2.808613
v -0.096943 -0.152857 3.080003
v -0.308283 -0.198530 3.273800
v -0.853094 -0.121451 2.067922
v -1.167961 -0.163117 2.244380
v -1.003660 -0.188126 1.893252
v -1.268909 -0.212208 2.105323
v -1.293798 -0.204165 1.849364
v -1.439770 -0.235800 1.960592
v -0.324238 -0.121451 2.643105
v -0.527868 -0.163117 2.942107
v -0.163942 -0.178786 2.808852
v -0.398081 -0.198729 3.054718
v -0.678064 -0.130516 2.128661
v -1.075003 -0.139906 2.358387
v -1.510450 -0.172886 1.781008
v -1.561512 -0.181626 1.827831
v -0.370390 -0.130516 2.464184
v -0.633568 -0.139906 2.839781
v -0.146170 -0.189154 3.053841
v -0.303143 -0.222693 3.197726
v -0.859737 -0.205540 2.058338
v -1.168095 -0.229792 2.244501
v -1.003902 -0.262043 1.893474
v -1.268429 -0.276058 2.104884
v -1.293644 -0.272246 1.849224
v -1.439770 -0.292517 1.960592
v -0.316355 -0.205540 2.651551
v -0.527933 -0.229704 2.942165
v -0.164248 -0.253521 2.809132
v -0.397633 -0.262915 3.054306
v -0.692854 -0.206166 2.124093
v -1.075027 -0.209837 2.358349
v -0.367117 -0.206166 2.479313
v -0.633532 -0.209837 2.839809
v -0.146021 -0.258433 3.053706
v -0.303112 -0.281670 3.197697
v -0.812588 -0.119211 2.046139
v -0.636080 -0.134581 2.100132
v -1.262398 -0.201109 1.820550
v -0.973293 -0.187176 1.865386
v -0.299479 -0.119213 2.604988
v -0.338360 -0.134587 2.424809
v -0.114464 -0.187638 3.024748
v -0.133457 -0.177920 2.780877
v -0.823717 -0.203583 2.038230
v -0.652262 -0.209433 2.095362
v -1.262320 -0.271746 1.820478
v -0.974892 -0.262110 1.866852
v -0.293093 -0.203583 2.617248
v -0.335009 -0.209437 2.441342
v -0.114382 -0.258301 3.024672
v -0.135075 -0.253565 2.782361
v -1.395163 -0.188818 2.756977
v -1.226778 -0.241270 2.940515
v -1.444435 -0.199608 2.817999
v -1.348635 -0.223765 3.052400
v -1.058453 -0.188914 3.124048
v -1.123535 -0.199608 3.167946
v -1.413069 -0.126528 2.739421
v -1.413477 -0.106623 2.739044
v -1.459885 -0.138815 2.803176
v -1.459990 -0.119232 2.803082
v -1.042574 -0.126663 3.143284
v -1.042253 -0.106764 3.143692
v -1.110100 -0.138817 3.184619
v -1.110016 -0.119236 3.184729
v -1.617056 0.233803 2.681884
v -1.518307 0.226835 2.567454
v -1.002850 0.233803 3.351688
v -0.880312 0.226835 3.263198
v -1.646244 0.234178 2.653833
v -1.547495 0.227211 2.539402
v -0.977427 0.234178 3.383192
v -0.854889 0.227211 3.294702
v -0.931942 -0.090716 3.040609
v -0.915354 -0.092858 3.058087
v -1.298292 -0.090193 2.641747
v -1.314209 -0.092413 2.623678
v -0.878029 0.013515 3.059597
v -0.859875 0.011408 3.079112
v -1.312801 0.013859 2.585898
v -1.330637 0.011644 2.566031
v -0.880613 -0.085272 3.000140
v -0.862898 -0.087872 3.018431
v -1.256065 -0.085203 2.590786
v -1.272678 -0.087904 2.571518
v -0.874325 -0.043659 3.006402
v -0.856609 -0.046259 3.024694
v -1.261955 -0.043627 2.583724
v -1.278568 -0.046328 2.564456
v -1.073099 -0.095396 0.225218
v -1.056953 -0.051314 0.321284
v -0.675999 -0.084221 -0.005037
v -0.330688 -0.022808 -0.183153
v -0.319132 -0.294922 -0.027727
v -0.386187 0.025190 0.033763
v -0.893782 -0.300387 0.499224
v -0.979925 -0.020312 0.578217
v -1.213791 -0.118445 0.150246
v -1.212620 -0.095307 0.151528
v -0.570835 -0.101980 -0.229116
v -0.569170 -0.054186 -0.227596
v -1.325106 -0.170172 0.020707
v -1.325077 -0.147665 0.020680
v -0.974413 -0.143870 -0.290988
v -0.974195 -0.121487 -0.291189
v -0.264336 -0.106135 -0.305852
v -0.237804 -0.045143 -0.260314
v -0.152542 -0.225136 -0.180488
v -0.134743 -0.106135 -0.406883
v -0.151094 -0.038758 -0.329818
v -0.033701 -0.174866 -0.289466
v 0.133608 -0.029276 -0.442888
v 0.304548 -0.099076 -0.657304
v 0.304548 -0.090750 -0.657304
v 0.408816 -0.099035 -0.695253
v 0.408816 -0.088989 -0.695253
v -1.398029 -0.126240 0.618371
v -1.398439 -0.106310 0.618022
v -1.226778 -0.214033 0.804438
v -1.112305 -0.068598 0.699969
v 0.330770 -0.074333 -0.623685
v -1.479280 -0.198530 -0.139272
v -1.479280 -0.176089 -0.139272
v -1.267788 -0.152857 -0.333211
v -1.267818 -0.130413 -0.333183
v -1.561512 -0.145111 -0.308248
v -1.634087 -0.122194 -0.308092
v -1.510450 -0.135142 -0.355070
v -1.517439 -0.095494 -0.415056
v -1.676535 -0.099123 -0.354379
v -1.676535 -0.077276 -0.354379
v -1.635702 -0.099247 -0.391822
v -1.635702 -0.077269 -0.391822
v -1.444628 -0.139000 0.681777
v -1.444731 -0.119412 0.681691
v -1.378811 -0.163754 0.943995
v -1.378811 -0.078053 0.943995
v -1.711161 -0.221626 0.666934
v -1.711161 -0.200779 0.666934
v -1.796021 -0.194115 0.861853
v -1.796021 -0.117367 0.861853
v -0.636301 -0.095396 0.701556
v -0.730612 -0.051314 0.677165
v -0.372583 -0.084221 0.325844
v -0.165285 -0.022808 -0.002778
v -0.573765 -0.118445 0.848197
v -0.574945 -0.095307 0.846923
v -0.140251 -0.101980 0.240443
v -0.141623 -0.054186 0.238652
v -0.454370 -0.159708 0.970326
v -0.454317 -0.137808 0.970278
v -0.113422 -0.136507 0.647790
v -0.113251 -0.115118 0.647631
v -0.037310 -0.106135 -0.058278
v -0.080385 -0.045143 -0.088647
v 0.074543 -0.106135 -0.178653
v -0.003647 -0.038758 -0.169023
v 0.361998 -0.099076 -0.594653
v 0.361998 -0.090750 -0.594653
v -1.056223 -0.126383 0.990941
v -1.055929 -0.106459 0.991351
v -0.302988 -0.178942 1.061505
v -0.308283 -0.176089 1.137723
v -0.146235 -0.144093 0.917822
v -0.096766 -0.130413 0.943762
v -0.153477 -0.142872 1.306540
v -0.153477 -0.122194 1.306540
v -0.036829 -0.116726 1.199576
v -0.036829 -0.095494 1.199576
v -0.111031 -0.099123 1.352830
v -0.111031 -0.077276 1.352830
v -0.070198 -0.099247 1.315386
v -0.070198 -0.077269 1.315386
v -1.123402 -0.139002 1.032076
v -1.123325 -0.119414 1.032187
v -1.131516 -0.221626 1.299048
v -1.131516 -0.200779 1.299048
v -1.333040 -0.194115 1.366742
v -1.333040 -0.117367 1.366742
v -0.387011 -0.049008 -0.187244
v -0.448845 0.027395 0.091220
v -0.263796 -0.083691 -0.305343
v -0.134687 -0.083691 -0.406827
v 0.234747 -0.055880 -0.535631
v -0.166079 -0.049008 0.053685
v -0.037771 -0.083691 -0.058860
v 0.074493 -0.083691 -0.178714
v -0.237331 -0.002430 -0.245355
v -0.112844 0.095032 -0.216892
v -0.261459 0.113416 -0.080612
v 0.100653 0.006174 -0.412668
v -0.095247 -0.002430 -0.090410
v -0.311050 0.019903 -0.155343
v -0.124853 0.003956 -0.328044
v -0.191296 0.019903 -0.024747
v -0.003145 0.003956 -0.195320
v -0.389275 -0.097462 -0.189929
v -1.060743 -0.095171 0.317153
v -1.168051 -0.117212 0.108382
v -0.852856 -0.087429 -0.063613
v -1.268744 -0.168244 -0.030906
v -1.003376 -0.142225 -0.243087
v -1.439770 -0.193629 -0.175487
v -1.293873 -0.159636 -0.286645
v -1.517439 -0.116726 -0.415056
v -1.634087 -0.142872 -0.308092
v -0.163599 -0.097462 0.056174
v -0.726822 -0.095171 0.681298
v -0.527943 -0.117212 0.806098
v -0.329288 -0.087429 0.506898
v -0.398243 -0.154753 0.918788
v -0.163683 -0.132864 0.672536
v -0.096943 -0.152857 0.943925
v -0.308283 -0.198530 1.137723
v -0.853094 -0.121451 -0.068157
v -1.167961 -0.163117 0.108302
v -1.003660 -0.188126 -0.242826
v -1.268909 -0.212208 -0.030755
v -1.293798 -0.204165 -0.286714
v -1.439770 -0.235800 -0.175487
v -0.324238 -0.121451 0.507027
v -0.527868 -0.163117 0.806029
v -0.163942 -0.178786 0.672774
v -0.398081 -0.198729 0.918639
v -0.678064 -0.130516 -0.007417
v -1.075003 -0.139906 0.222310
v -1.510450 -0.172886 -0.355070
v -1.561512 -0.181626 -0.308248
v -0.370390 -0.130516 0.328107
v -0.633568 -0.139906 0.703704
v -0.146170 -0.189154 0.917763
v -0.303143 -0.222693 1.061648
v -0.859737 -0.205540 -0.077739
v -1.168095 -0.229792 0.108422
v -1.003902 -0.262043 -0.242605
v -1.268429 -0.276058 -0.031194
v -1.293644 -0.272246 -0.286855
v -1.439770 -0.292517 -0.175487
v -0.316355 -0.205540 0.515473
v -0.527933 -0.229704 0.806088
v -0.164248 -0.253521 0.673054
v -0.397633 -0.262915 0.918229
v -0.692854 -0.206166 -0.011985
v -1.075027 -0.209837 0.222272
v -0.367117 -0.206166 0.343236
v -0.633532 -0.209837 0.703732
v -0.146021 -0.258433 0.917628
v -0.303112 -0.281670 1.061619
v -0.812588 -0.119211 -0.089939
v -0.636080 -0.134581 -0.035947
v -1.262398 -0.201109 -0.315528
v -0.973293 -0.187176 -0.270692
v -0.299479 -0.119213 0.468911
v -0.338360 -0.134587 0.288729
v -0.114464 -0.187638 0.888671
v -0.133457 -0.177920 0.644799
v -0.823717 -0.203583 -0.097848
v -0.652262 -0.209433 -0.040716
v -1.262320 -0.271746 -0.315601
v -0.974892 -0.262110 -0.269225
v -0.293093 -0.203583 0.481171
v -0.335009 -0.209437 0.305264
v -0.114382 -0.258301 0.888594
v -0.135075 -0.253565 0.646283
v -1.395163 -0.188818 0.620900
v -1.226778 -0.241270 0.804438
v -1.444435 -0.199608 0.681922
v -1.348635 -0.223765 0.916323
v -1.058453 -0.188914 0.987969
v -1.123535 -0.199608 1.031869
v -1.413069 -0.126528 0.603345
v -1.413477 -0.106623 0.602965
v -1.459885 -0.138815 0.667098
v -1.459990 -0.119232 0.667004
v -1.042574 -0.126663 1.007207
v -1.042253 -0.106764 1.007615
v -1.110100 -0.138817 1.048541
v -1.110016 -0.119236 1.048651
v -1.617056 0.233803 0.545806
v -1.518307 0.226835 0.431376
v -1.002850 0.233803 1.215609
v -0.880312 0.226835 1.127120
v -1.646244 0.234178 0.517754
v -1.547495 0.227211 0.403325
v -0.977427 0.234178 1.247113
v -0.854889 0.227211 1.158623
v -0.931942 -0.090716 0.904532
v -0.915354 -0.092858 0.922009
v -1.298292 -0.090193 0.505669
v -1.314209 -0.092413 0.487601
v -0.878029 0.013515 0.923520
v -0.859875 0.011408 0.943034
v -1.312801 0.013859 0.449820
v -1.330637 0.011644 0.429953
v -0.880613 -0.085272 0.864062
v -0.862898 -0.087872 0.882353
v -1.256065 -0.085203 0.454709
v -1.272678 -0.087904 0.435441
v -0.874325 -0.043659 0.870324
v -0.856609 -0.046259 0.888615
v -1.261955 -0.043627 0.447646
v -1.278568 -0.046328 0.428378
v -1.073099 -0.095396 -1.974151
v -1.056953 -0.051314 -1.878085
v -0.675999 -0.084221 -2.204406
v -0.330688 -0.022808 -2.382524
v -0.319132 -0.294922 -2.227098
v -0.386187 0.025190 -2.165609
v -0.893782 -0.300387 -1.700145
v -0.979925 -0.020312 -1.621152
v -1.213791 -0.118445 -2.049123
v -1.212620 -0.095307 -2.047842
v -0.570835 -0.101980 -2.428487
v -0.569170 -0.054186 -2.426965
v -1.325106 -0.170172 -2.178663
v -1.325077 -0.147665 -2.178689
v -0.974413 -0.143870 -2.490360
v -0.974195 -0.121487 -2.490558
v -0.264336 -0.106135 -2.505224
v -0.237804 -0.045143 -2.459684
v -0.152542 -0.225136 -2.379858
v -0.134743 -0.106135 -2.606252
v -0.151094 -0.038758 -2.529188
v -0.033701 -0.174866 -2.488836
v 0.133608 -0.029276 -2.642257
v 0.304548 -0.099076 -2.856674
v 0.304548 -0.090750 -2.856674
v 0.408816 -0.099035 -2.894622
v 0.408816 -0.088989 -2.894622
v -1.398029 -0.126240 -1.580999
v -1.398439 -0.106310 -1.581348
v -1.226778 -0.214033 -1.394933
v -1.112305 -0.068598 -1.499400
v 0.330770 -0.074333 -2.823055
v -1.479280 -0.198530 -2.338642
v -1.479280 -0.176089 -2.338642
v -1.267788 -0.152857 -2.532581
v -1.267818 -0.130413 -2.532552
v -1.561512 -0.145111 -2.507617
v -1.634087 -0.122194 -2.507461
v -1.510450 -0.135142 -2.554439
v -1.517439 -0.095494 -2.614427
v -1.676535 -0.099123 -2.553749
v -1.676535 -0.077276 -2.553749
v -1.635702 -0.099247 -2.591192
v -1.635702 -0.077269 -2.591192
v -1.444628 -0.139000 -1.517593
v -1.444731 -0.119412 -1.517679
v -1.378811 -0.163754 -1.255374
v -1.378811 -0.078053 -1.255374
v -1.711161 -0.221626 -1.532436
v -1.711161 -0.200779 -1.532436
v -1.796021 -0.194115 -1.337516
v -1.796021 -0.117367 -1.337516
v -0.636301 -0.095396 -1.497814
v -0.730612 -0.051314 -1.522205
v -0.372583 -0.084221 -1.873525
v -0.165285 -0.022808 -2.202148
v -0.573765 -0.118445 -1.351173
v -0.574945 -0.095307 -1.352447
v -0.140251 -0.101980 -1.958927
v -0.141623 -0.054186 -1.960718
v -0.454370 -0.159708 -1.229043
v -0.454317 -0.137808 -1.229093
v -0.113422 -0.136507 -1.551580
v -0.113251 -0.115118 -1.551738
v -0.037310 -0.106135 -2.257648
v -0.080385 -0.045143 -2.288017
v 0.074543 -0.106135 -2.378023
v -0.003647 -0.038758 -2.368394
v 0.361998 -0.099076 -2.794023
v 0.361998 -0.090750 -2.794023
v -1.056223 -0.126383 -1.208429
v -1.055929 -0.106459 -1.208021
v -0.302988 -0.178942 -1.137864
v -0.308283 -0.176089 -1.061647
v -0.146235 -0.144093 -1.281547
v -0.096766 -0.130413 -1.255607
v -0.153477 -0.142872 -0.892829
v -0.153477 -0.122194 -0.892829
v -0.036829 -0.116726 -0.999793
v -0.036829 -0.095494 -0.999793
v -0.111031 -0.099123 -0.846540
v -0.111031 -0.077276 -0.846540
v -0.070198 -0.099247 -0.883983
v -0.070198 -0.077269 -0.883983
v -1.123402 -0.139002 -1.167293
v -1.123325 -0.119414 -1.167184
v -1.131516 -0.221626 -0.900321
v -1.131516 -0.200779 -0.900321
v -1.333040 -0.194115 -0.832628
v -1.333040 -0.117367 -0.832628
v -0.387011 -0.049008 -2.386613
v -0.448845 0.027395 -2.108150
v -0.263796 -0.083691 -2.504713
v -0.134687 -0.083691 -2.606197
v 0.234747 -0.055880 -2.735000
v -0.166079 -0.049008 -2.145685
v -0.037771 -0.083691 -2.258230
v 0.074493 -0.083691 -2.378084
v -0.237331 -0.002430 -2.444725
v -0.112844 0.095032 -2.416261
v -0.261459 0.113416 -2.279981
v 0.100653 0.006174 -2.612037
v -0.095247 -0.002430 -2.289781
v -0.311050 0.019903 -2.354713
v -0.124853 0.003956 -2.527414
v -0.191296 0.019903 -2.224119
v -0.003145 0.003956 -2.394689
v -0.389275 -0.097462 -2.389299
v -1.060743 -0.095171 -1.882219
v -1.168051 -0.117212 -2.090988
v -0.852856 -0.087429 -2.262985
v -1.268744 -0.168244 -2.230278
v -1.003376 -0.142225 -2.442457
v -1.439770 -0.193629 -2.374856
v -1.293873 -0.159636 -2.486015
v -1.517439 -0.116726 -2.614427
v -1.634087 -0.142872 -2.507461
v -0.163599 -0.097462 -2.143196
v -0.726822 -0.095171 -1.518072
v -0.527943 -0.117212 -1.393274
v -0.329288 -0.087429 -1.692472
v -0.398243 -0.154753 -1.280582
v -0.163683 -0.132864 -1.526834
v -0.096943 -0.152857 -1.255445
v -0.308283 -0.198530 -1.061647
v -0.853094 -0.121451 -2.267526
v -1.167961 -0.163117 -2.091068
v -1.003660 -0.188126 -2.442195
v -1.268909 -0.212208 -2.230125
v -1.293798 -0.204165 -2.486084
v -1.439770 -0.235800 -2.374856
v -0.324238 -0.121451 -1.692342
v -0.527868 -0.163117 -1.393342
v -0.163942 -0.178786 -1.526597
v -0.398081 -0.198729 -1.280731
v -0.678064 -0.130516 -2.206789
v -1.075003 -0.139906 -1.977060
v -1.510450 -0.172886 -2.554439
v -1.561512 -0.181626 -2.507617
v -0.370390 -0.130516 -1.871263
v -0.633568 -0.139906 -1.495666
v -0.146170 -0.189154 -1.281606
v -0.303143 -0.222693 -1.137721
v -0.859737 -0.205540 -2.277111
v -1.168095 -0.229792 -2.090948
v -1.003902 -0.262043 -2.441974
v -1.268429 -0.276058 -2.230564
v -1.293644 -0.272246 -2.486225
v -1.439770 -0.292517 -2.374856
v -0.316355 -0.205540 -1.683896
v -0.527933 -0.229704 -1.393283
v -0.164248 -0.253521 -1.526315
v -0.397633 -0.262915 -1.281143
v -0.692854 -0.206166 -2.211355
v -1.075027 -0.209837 -1.977098
v -0.367117 -0.206166 -1.856134
v -0.633532 -0.209837 -1.495639
v -0.146021 -0.258433 -1.281741
v -0.303112 -0.281670 -1.137752
v -0.812588 -0.119211 -2.289308
v -0.636080 -0.134581 -2.235317
v -1.262398 -0.201109 -2.514898
v -0.973293 -0.187176 -2.470062
v -0.299479 -0.119213 -1.730461
v -0.338360 -0.134587 -1.910640
v -0.114464 -0.187638 -1.310701
v -0.133457 -0.177920 -1.554571
v -0.823717 -0.203583 -2.297218
v -0.652262 -0.209433 -2.240085
v -1.262320 -0.271746 -2.514970
v -0.974892 -0.262110 -2.468595
v -0.293093 -0.203583 -1.718200
v -0.335009 -0.209437 -1.894105
v -0.114382 -0.258301 -1.310775
v -0.135075 -0.253565 -1.553087
v -1.395163 -0.188818 -1.578472
v -1.226778 -0.241270 -1.394933
v -1.444435 -0.199608 -1.517448
v -1.348635 -0.223765 -1.283048
v -1.058453 -0.188914 -1.211400
v -1.123535 -0.199608 -1.167501
v -1.413069 -0.126528 -1.596027
v -1.413477 -0.106623 -1.596404
v -1.459885 -0.138815 -1.532272
v -1.459990 -0.119232 -1.532365
v -1.042574 -0.126663 -1.192163
v -1.042253 -0.106764 -1.191755
v -1.110100 -0.138817 -1.150829
v -1.110016 -0.119236 -1.150718
v -1.617056 0.233803 -1.653564
v -1.518307 0.226835 -1.767993
v -1.002850 0.233803 -0.983760
v -0.880312 0.226835 -1.072250
v -1.646244 0.234178 -1.681615
v -1.547495 0.227211 -1.796045
v -0.977427 0.234178 -0.952257
v -0.854889 0.227211 -1.040746
v -0.931942 -0.090716 -1.294839
v -0.915354 -0.092858 -1.277360
v -1.298292 -0.090193 -1.693700
v -1.314209 -0.092413 -1.711770
v -0.878029 0.013515 -1.275850
v -0.859875 0.011408 -1.256336
v -1.312801 0.013859 -1.749549
v -1.330637 0.011644 -1.769416
v -0.880613 -0.085272 -1.335307
v -0.862898 -0.087872 -1.317016
v -1.256065 -0.085203 -1.744661
v -1.272678 -0.087904 -1.763929
v -0.874325 -0.043659 -1.329046
v -0.856609 -0.046259 -1.310754
v -1.261955 -0.043627 -1.751724
v -1.278568 -0.046328 -1.770992
vn -1.0000 -0.0000 -0.0000
vn -0.0000 -0.0000 -1.0000
vn 1.0000 -0.0000 -0.0000
vn -0.0000 -0.0000 1.0000
vn -0.0000 -1.0000 -0.0000
vn -0.0000 1.0000 -0.0000
vn 0.0294 0.9996 -0.0000
vn -0.0282 -0.9996 -0.0000
vn 0.0021 -0.9999 -0.0157
vn -0.0013 0.9999 -0.0159
vn -0.0013 -0.9999 0.0159
vn 0.0021 0.9999 0.0157
vn -0.2088 -0.0000 0.9780
vn 0.1395 -0.0000 0.9902
vn 0.1395 -0.0000 -0.9902
vn -0.2088 -0.0000 -0.9780
vn 0.0021 -0.9999 0.0157
vn -0.0013 0.9999 0.0159
vn -0.0013 -0.9999 -0.0159
vn 0.0021 0.9999 -0.0157
vn -0.0282 0.9996 -0.0000
vn 0.0294 -0.9996 -0.0000
vn 0.0045 1.0000 -0.0000
vn -0.0004 1.0000 0.0023
vn -0.0000 0.9656 -0.2601
vn -0.0000 0.9656 0.2601
vn 0.0003 -1.0000 0.0023
vn 0.0003 1.0000 -0.0023
vn -0.0004 -1.0000 -0.0023
vn -0.0045 1.0000 -0.0000
vn -0.2657 -0.0000 0.9641
vn 0.1881 -0.0000 0.9821
vn 0.1881 -0.0000 -0.9821
vn -0.2657 -0.0000 -0.9641
vn -0.0045 -1.0000 -0.0000
vn -0.0004 1.0000 -0.0023
vn 0.0003 -1.0000 -0.0023
vn 0.0003 1.0000 0.0023
vn -0.0004 -1.0000 0.0023
vn 0.0045 -1.0000 -0.0000
vn -0.0000 0.0034 1.0000
vn -0.4149 0.9099 -0.0000
vn 0.3536 0.9354 -0.0000
vn -0.9361 -0.3516 -0.0000
vn -0.0000 -0.5366 -0.8439
vn -0.0000 0.0034 -1.0000
vn -1.0000 0.0020 -0.0000
vn 1.0000 0.0024 -0.0000
vn 0.9109 -0.4127 -0.0000
vn -0.0000 -0.5366 0.8439
vn 0.9989 -0.0463 -0.0000
vn -0.9994 -0.0337 -0.0000
vn -0.0000 -0.0617 0.9981
vn -0.0000 -0.0617 -0.9981
vn 0.4083 -0.9128 0.0038
vn 0.4807 -0.8768 0.0091
vn 0.4041 -0.9147 -0.0066
vn 0.4960 -0.8682 -0.0105
vn 0.3915 -0.9202 -0.0065
vn 0.3835 -0.9235 0.0001
vn 0.3892 -0.9212 0.0018
vn -0.0105 -0.0391 0.9992
vn 0.0343 -0.9994 -0.0005
vn 0.0363 -0.9993 -0.0000
vn 0.0376 -0.9993 -0.0006
vn 0.5555 -0.8315 -0.0013
vn 0.0046 0.0017 1.0000
vn 0.6288 -0.7776 0.0024
vn 0.6301 -0.7765 0.0046
vn 0.9173 -0.3982 0.0021
vn 0.0021 -0.0120 0.9999
vn 0.9800 -0.1984 0.0141
vn 0.9755 -0.2198 -0.0045
vn 0.9628 -0.2698 0.0140
vn 0.9350 -0.3546 0.0034
vn 0.5574 -0.7436 -0.3692
vn 0.0409 -0.9992 -0.0008
vn 0.7743 -0.1370 -0.6178
vn 0.5132 -0.8484 -0.1295
vn 0.9480 -0.3015 -0.1017
vn 0.8003 -0.5982 -0.0415
vn 0.0375 -0.9993 -0.0022
vn 0.8575 -0.5047 -0.1000
vn 0.3118 -0.8496 -0.4254
vn 0.5347 -0.4738 -0.6997
vn 0.6235 -0.3886 -0.6784
vn 0.9060 -0.0000 0.4233
vn -0.4083 -0.9128 0.0038
vn -0.4807 -0.8768 0.0091
vn -0.4041 -0.9147 -0.0066
vn -0.4960 -0.8682 -0.0105
vn -0.3915 -0.9202 -0.0065
vn -0.3835 -0.9235 0.0001
vn -0.3892 -0.9212 0.0018
vn 0.0105 -0.0391 0.9992
vn -0.0343 -0.9994 -0.0005
vn -0.0363 -0.9993 -0.0000
vn -0.0376 -0.9993 -0.0006
vn -0.5555 -0.8315 -0.0013
vn -0.0046 0.0017 1.0000
vn -0.6288 -0.7776 0.0024
vn -0.6301 -0.7765 0.0046
vn -0.9173 -0.3982 0.0021
vn -0.0021 -0.0120 0.9999
vn -0.9800 -0.1984 0.0141
vn -0.9755 -0.2198 -0.0045
vn -0.9628 -0.2698 0.0140
vn -0.9350 -0.3546 0.0034
vn -0.5574 -0.7436 -0.3692
vn -0.0409 -0.9992 -0.0008
vn -0.7743 -0.1370 -0.6178
vn -0.5132 -0.8484 -0.1295
vn -0.9480 -0.3015 -0.1017
vn -0.8003 -0.5982 -0.0415
vn -0.0375 -0.9993 -0.0022
vn -0.8575 -0.5047 -0.1000
vn -0.3118 -0.8496 -0.4254
vn -0.5347 -0.4738 -0.6997
vn -0.6235 -0.3886 -0.6784
vn -0.3985 0.9172 0.0008
vn -0.4849 0.8746 -0.0049
vn -0.3944 0.9189 0.0056
vn -0.5033 0.8641 0.0100
vn -0.3833 0.9236 0.0058
vn -0.3762 0.9266 -0.0001
vn -0.3820 0.9242 -0.0022
vn 0.0224 0.0149 -0.9996
vn -0.0362 0.9993 -0.0000
vn -0.5646 0.8253 0.0007
vn -0.6431 0.7658 -0.0023
vn -0.6454 0.7638 -0.0057
vn -0.9133 0.4073 -0.0029
vn -0.9802 0.1976 -0.0119
vn -0.9769 0.2138 0.0057
vn -0.9641 0.2652 -0.0132
vn -0.9350 0.3545 -0.0031
vn -0.5725 0.7224 0.3879
vn -0.7739 0.1314 0.6196
vn -0.5093 0.8489 0.1412
vn -0.9496 0.2972 0.0993
vn -0.8048 0.5918 0.0446
vn -0.0194 0.9998 0.0024
vn -0.8578 0.5046 0.0980
vn -0.2899 0.8779 0.3811
vn -0.5541 0.4398 0.7068
vn -0.6355 0.3841 0.6698
vn -0.9060 -0.0000 0.4233
vn 0.3985 0.9172 0.0008
vn 0.4849 0.8746 -0.0049
vn 0.3944 0.9189 0.0056
vn 0.5033 0.8641 0.0100
vn 0.3833 0.9236 0.0058
vn 0.3762 0.9266 -0.0001
vn 0.3820 0.9242 -0.0022
vn -0.0224 0.0149 -0.9996
vn 0.0362 0.9993 -0.0000
vn 0.5646 0.8253 0.0007
vn 0.6431 0.7658 -0.0023
vn 0.6454 0.7638 -0.0057
vn 0.9133 0.4073 -0.0029
vn 0.9802 0.1976 -0.0119
vn 0.9769 0.2138 0.0057
vn 0.9641 0.2652 -0.0132
vn 0.9350 0.3545 -0.0031
vn 0.5725 0.7224 0.3879
vn 0.7739 0.1314 0.6196
vn 0.5093 0.8489 0.1412
vn 0.9496 0.2972 0.0993
vn 0.8048 0.5918 0.0446
vn 0.0194 0.9998 0.0024
vn 0.8578 0.5046 0.0980
vn 0.2899 0.8779 0.3811
vn 0.5541 0.4398 0.7068
vn 0.6355 0.3841 0.6698
vn -0.9060 -0.0000 -0.4233
vn 0.1953 0.9807 0.0018
vn 0.2227 0.9749 0.0032
vn 0.3459 0.9383 0.0017
vn 0.3939 0.9191 0.0006
vn 0.0152 0.9812 0.1923
vn 0.2751 0.9614 0.0032
vn 0.1619 0.9778 -0.1330
vn 0.3282 0.9440 -0.0342
vn 0.3338 0.8486 -0.4104
vn 0.7307 -0.0000 -0.6827
vn -0.1953 0.9807 0.0018
vn -0.2227 0.9749 0.0032
vn -0.3459 0.9383 0.0017
vn -0.3939 0.9191 0.0006
vn -0.0152 0.9812 0.1923
vn -0.2751 0.9614 0.0032
vn -0.1619 0.9778 -0.1330
vn -0.3282 0.9440 -0.0342
vn -0.3338 0.8486 -0.4104
vn -0.7307 -0.0000 -0.6827
vn 0.9060 -0.0000 -0.4233
vn -0.0909 0.9921 -0.0860
vn -0.1998 0.9797 0.0155
vn -0.1955 0.9626 -0.1876
vn -0.4428 -0.7189 -0.5358
vn -0.6793 0.0598 -0.7314
vn -0.1694 0.9743 -0.1488
vn -0.8157 -0.0721 -0.5740
vn 0.2126 0.0340 -0.9765
vn -0.7370 -0.0001 0.6759
vn -0.0977 0.9947 0.0327
vn 0.9974 -0.0023 -0.0718
vn 0.1514 0.0146 -0.9884
vn -0.7588 0.0020 0.6513
vn 0.6868 0.3284 0.6484
vn -0.7339 0.6052 -0.3085
vn -0.3722 -0.7322 -0.5704
vn -0.1731 -0.9210 -0.3489
vn -0.6163 0.0181 -0.7873
vn -0.2218 -0.8558 -0.4673
vn -0.3420 -0.0000 -0.9397
vn -0.1906 0.9093 -0.3700
vn -0.4953 0.0025 -0.8687
vn 0.7657 0.0014 -0.6432
vn -0.6646 0.0793 -0.7430
vn 0.6760 -0.0009 0.7369
vn -0.3777 -0.8617 -0.3389
vn -0.1407 0.9285 -0.3436
vn 0.0404 0.9606 0.2751
vn 0.3214 0.0722 -0.9442
vn 0.1421 -0.0044 -0.9898
vn -0.7201 0.0009 0.6939
vn -0.1928 -0.0000 -0.9812
vn 0.3012 0.0011 -0.9536
vn 0.3117 0.0008 -0.9502
vn -0.7370 -0.0000 0.6759
vn -0.6759 -0.0000 -0.7370
vn 0.2695 0.8507 0.4513
vn -0.2634 -0.8576 -0.4417
vn -0.1309 0.9550 -0.2660
vn 0.6756 -0.0014 0.7373
vn -0.1465 0.9862 -0.0767
vn -0.3477 -0.2925 0.8908
vn -0.9169 -0.0000 -0.3992
vn 0.1613 -0.9868 0.0127
vn 0.0561 -0.0020 -0.9984
vn -0.1932 -0.0000 0.9812
vn 0.0778 0.9921 0.0980
vn -0.0325 0.9796 0.1983
vn 0.1700 0.9626 0.2110
vn 0.4956 -0.7189 0.4875
vn 0.6700 0.0598 0.7400
vn 0.1110 0.9809 0.1595
vn -0.8324 -0.0001 0.5541
vn 0.9913 0.0340 -0.1274
vn -0.0117 0.9928 0.1189
vn -0.7750 -0.0053 0.6319
vn 0.9977 0.0155 -0.0657
vn -0.7146 0.0027 0.6996
vn -0.3477 0.3294 -0.8778
vn 0.2439 0.6052 0.7578
vn 0.5361 -0.7322 0.4201
vn 0.3327 -0.9210 0.2026
vn 0.7311 0.0181 0.6821
vn 0.4464 -0.8558 0.2614
vn 0.9066 -0.0000 0.4219
vn 0.3521 0.9093 0.2219
vn 0.8227 0.0025 0.5685
vn 0.1196 -0.9876 -0.1013
vn 0.6821 0.0798 0.7269
vn 0.3048 -0.8617 0.4056
vn 0.3302 0.9285 0.1699
vn -0.2706 0.9606 -0.0641
vn 0.9984 -0.0084 -0.0560
vn -0.7533 0.0016 0.6576
vn 0.9609 -0.0000 0.2769
vn 0.2734 -0.9594 0.0690
vn 0.9737 -0.0048 -0.2279
vn 0.6759 -0.0000 0.7370
vn -0.4263 0.8507 -0.3075
vn 0.4173 -0.8576 0.3006
vn 0.2539 0.9550 0.1533
vn 0.0643 0.9861 0.1530
vn 0.7372 0.0045 -0.6757
vn 0.3184 -0.0000 0.9479
vn 0.0013 -0.9868 -0.1617
vn 0.9995 -0.0020 0.0299
vn -0.9942 -0.0000 0.1076
vn -0.3164 0.8997 -0.3009
vn -0.2892 0.7842 -0.5490
vn -0.2363 0.8260 -0.5117
vn -0.4125 0.7666 -0.4920
vn 0.2724 0.8997 0.3412
vn 0.5220 0.7842 0.3356
vn 0.4894 0.8260 0.2797
vn 0.4545 0.7666 0.4535
vn -0.3077 0.7520 -0.5829
vn -0.4400 0.7030 -0.5588
vn 0.5541 0.7520 0.3569
vn 0.5187 0.7030 0.4866
vn 0.6314 0.4729 0.6146
vn -0.5866 0.3284 -0.7402
vn -0.5577 0.4728 -0.6822
vn 0.8445 0.3294 0.4223
vn -0.0849 -0.9872 -0.1349
vn 0.1465 -0.9888 0.0291
vn -0.0001 -0.9969 0.0790
vn 0.2117 -0.9569 0.1988
vn 0.0845 -0.9767 0.1973
vn 0.1168 -0.9919 0.0503
vn 0.0489 -0.9985 -0.0258
vn -0.0438 -0.9609 -0.2734
vn -0.0654 -0.9602 -0.2717
vn -0.0494 -0.9700 -0.2382
vn 0.1271 -0.9872 0.0963
vn -0.0165 -0.9888 -0.1484
vn -0.0787 -0.9969 -0.0067
vn -0.1220 -0.9728 -0.1971
vn -0.1714 -0.9820 -0.0795
vn -0.0245 -0.9661 -0.2572
vn -0.0086 -0.9812 -0.1927
vn -0.1230 -0.9915 -0.0428
vn 0.8114 0.0748 0.5797
vn 0.2249 -0.9588 0.1735
vn -0.6449 -0.0054 0.7643
vn -0.0549 -0.9489 -0.3108
vn -0.7669 -0.1643 -0.6204
vn -0.1163 -0.9722 -0.2034
vn -0.6061 0.0001 -0.7954
vn -0.8100 0.0011 0.5864
vn -0.6955 -0.0051 0.7185
vn 0.7564 0.0301 -0.6534
vn 0.9671 0.0800 -0.2416
vn -0.6462 0.0026 0.7632
vn -0.6562 -0.0035 0.7546
vn 0.1491 -0.0024 -0.9888
vn 0.7186 0.0399 -0.6943
vn 0.5014 -0.0721 0.8622
vn 0.6757 -0.0000 0.7372
vn 0.0562 -0.9981 0.0260
vn 0.0664 -0.9976 -0.0214
vn -0.0209 -0.9981 -0.0580
vn 0.0176 -0.9977 -0.0660
vn 0.5522 -0.1643 0.8174
vn -0.7242 -0.0001 -0.6896
vn 0.5110 -0.0791 0.8559
vn -0.7747 0.0013 0.6323
vn -0.8344 -0.0052 0.5512
vn 0.8218 0.1376 0.5529
vn -0.0457 0.9973 -0.0571
vn -0.5075 0.0767 -0.8582
vn -0.8085 -0.0791 -0.5831
vn 0.6244 -0.0002 0.7811
vn -0.6957 0.0006 0.7183
vn 0.9748 0.0194 -0.2223
vn 0.1567 -0.0111 -0.9876
vn 0.3054 0.0234 -0.9519
vn 0.9966 -0.0112 -0.0817
vn -0.0535 0.9985 0.0122
vn 0.0004 -0.9998 0.0185
vn 0.6761 -0.0000 0.7368
vn -0.0184 -0.9998 -0.0020
vn -0.0156 -0.9997 -0.0186
vn -0.4813 0.1406 -0.8652
vn 0.0529 0.9973 0.0505
vn -0.0006 0.9992 0.0411
vn -0.6761 -0.0000 -0.7368
vn 0.0304 -0.9992 0.0253
vn -0.1351 -0.9862 -0.0954
vn 0.0832 -0.9862 0.1429
vn -0.7887 -0.0329 -0.6139
vn -0.9174 -0.2925 0.2698
vn 0.7367 0.0041 -0.6762
vn 0.5445 -0.0321 0.8381
vn -0.8058 -0.0176 -0.5919
vn 0.5222 -0.0165 0.8527
vn -0.6934 -0.0004 0.7205
vn -0.4879 0.5321 -0.6919
vn 0.5414 0.5289 0.6535
vn 0.7071 0.0016 -0.7071
vn -0.7777 -0.0003 0.6286
vn 0.1128 -0.9873 -0.1116
vn 0.0390 0.9989 -0.0272
vn 0.0304 0.9989 -0.0365
vn 0.0420 -0.9931 -0.1097
vn -0.6922 -0.0611 0.7191
vn 0.4756 -0.5644 0.6747
vn -0.7763 -0.0611 0.6275
vn -0.6315 -0.5643 -0.5318
vn 0.6475 0.5320 0.5456
vn 0.6116 0.3844 0.6915
vn -0.0011 -0.9915 -0.1304
vn -0.5887 0.5260 -0.6138
vn 0.1150 -0.9929 -0.0315
vn 0.5973 0.5249 -0.6063
vn 0.6556 0.5255 -0.5422
vn -0.5335 -0.5572 -0.6363
vn 0.5730 -0.5544 0.6036
vn 0.7181 -0.0038 -0.6960
vn 0.7576 -0.0035 -0.6527
vn 0.6720 -0.4010 0.6226
vn 0.5928 0.5476 -0.5906
vn 0.1318 -0.9911 0.0158
vn -0.6168 -0.3966 -0.6799
vn -0.6841 0.3892 -0.6169
vn 0.6410 0.5452 -0.5403
vn 0.1514 0.0145 -0.9884
vn 0.6756 -0.0013 0.7373
vn -0.7146 0.0026 0.6996
vn 0.6314 0.4728 0.6146
vn -0.5867 0.3285 -0.7402
vn 0.1271 -0.9872 0.0962
vn -0.6562 -0.0036 0.7546
vn 0.1491 -0.0025 -0.9888
vn -0.6758 -0.0000 -0.7370
vn -0.7777 -0.0004 0.6286
vn 0.7180 -0.0038 -0.6960
vn 0.7576 -0.0036 -0.6527
vn 0.7657 0.0014 -0.6431
vn 0.1421 -0.0043 -0.9898
vn 0.7311 0.0181 0.6820
vn -0.5867 0.3284 -0.7402
vn -0.5577 0.4729 -0.6822
vn -0.6061 0.0002 -0.7954
vn -0.8100 0.0012 0.5864
vn -0.6955 -0.0051 0.7186
vn 0.7564 0.0300 -0.6534
vn 0.5014 -0.0722 0.8622
vn -0.8058 -0.0175 -0.5919
vn 0.5222 -0.0166 0.8527
vn -0.4879 0.5322 -0.6919
vn -0.7778 -0.0003 0.6286
vn -0.7763 -0.0611 0.6274
vt 0.375000 0.000000
vt 0.625000 0.000000
vt 0.625000 0.250000
vt 0.375000 0.250000
vt 0.625000 0.500000
vt 0.375000 0.500000
vt 0.625000 0.750000
vt 0.375000 0.750000
vt 0.625000 1.000000
vt 0.375000 1.000000
vt 0.125000 0.500000
vt 0.125000 0.750000
vt 0.697976 0.707046
vt 0.697976 0.542954
vt 0.875000 0.542954
vt 0.875000 0.707046
vt 0.875000 0.500000
vt 0.875000 0.707046
vt 0.875000 0.750000
vt 0.875000 0.556642
vt 0.875000 0.693358
vt 0.721231 0.542954
vt 0.721231 0.542954
vt 0.721231 0.707046
vt 0.721231 0.707046
vt 0.875000 0.707046
vt 0.754254 0.673921
vt 0.754254 0.576079
vt 0.875000 0.576079
vt 0.875000 0.673921
vt 0.851745 0.707046
vt 0.851745 0.542954
vt 0.851745 0.542954
vt 0.875000 0.542954
vt 0.875000 0.693358
vt 0.697976 0.556642
vt 0.697976 0.693358
vt 0.697976 0.556642
vt 0.697976 0.693358
vt 1.000000 0.000000
vt 0.000000 0.000000
vt 0.750000 0.750000
vt 0.750000 0.500000
vt 0.250000 0.500000
vt 0.250000 0.750000
vt 0.125000 0.721349
vt 0.125000 0.532294
vt 0.125000 0.541456
vt 0.125000 0.548358
vt 0.837043 0.500000
vt 0.826731 0.500000
vt 0.841526 0.500000
vt 0.749728 0.500000
vt 0.625000 0.375000
vt 0.375000 0.375000
vt 0.125000 0.535290
vt 0.125000 0.576460
vt 0.125000 0.552782
vt 0.375000 0.875000
vt 0.625000 0.875000
vt 0.125000 0.702505
vt 0.125000 0.709122
vt 0.125000 0.721349
vt 0.125000 0.715917
vt 0.754740 0.500000
vt 0.841526 0.500000
vt 0.125000 0.699521
vt 0.125000 0.675590
vt 0.125000 0.541456
vt 0.125000 0.535290
s 0
usemtl Material.006
f 1/1/1 2/2/1 4/3/1 3/4/1
f 3/4/2 4/3/2 8/5/2 7/6/2
f 7/6/3 8/5/3 6/7/3 5/8/3
f 5/8/4 6/7/4 2/9/4 1/10/4
f 3/11/5 7/6/5 5/8/5 1/12/5
f 13/9/4 9/9/4 17/9/4 19/9/4
f 13/9/4 15/7/4 11/7/4 9/9/4
f 16/5/2 14/3/2 10/3/2 12/5/2
f 15/7/3 16/5/3 12/5/3 11/7/3
f 6/7/3 8/5/3 16/5/3 15/7/3
f 8/5/2 4/3/2 14/3/2 16/5/2
f 2/9/4 6/7/4 15/7/4 13/9/4
f 4/3/1 2/2/1 13/2/1 14/3/1
f 20/3/1 19/2/1 17/2/1 18/3/1
f 14/3/5 13/2/5 19/2/5 20/3/5
f 10/3/2 14/3/2 20/3/2 18/3/2
f 23/13/3 24/14/3 35/14/3 36/13/3
f 26/15/1 25/16/1 37/16/1 38/15/1
f 11/7/3 12/5/3 28/5/3 29/7/3
f 17/9/4 9/9/4 21/9/4 31/9/4
f 18/3/1 17/2/1 31/2/1 32/3/1
f 9/9/4 11/7/4 29/7/4 21/9/4
f 27/15/6 24/14/6 28/5/6 22/17/6
f 24/14/6 23/13/6 29/7/6 28/5/6
f 23/13/6 30/18/6 21/19/6 29/7/6
f 25/16/6 26/15/6 32/17/6 31/19/6
f 30/18/6 25/16/6 31/19/6 21/19/6
f 26/15/6 27/15/6 22/17/6 32/17/6
f 28/5/2 12/5/2 10/3/2 22/3/2
f 22/3/2 10/3/2 18/3/2 32/3/2
f 43/16/7 44/15/7 56/15/7 55/16/7
f 36/13/8 35/14/8 45/14/8 48/13/8
f 25/16/4 30/18/4 33/18/4 37/16/4
f 30/18/4 23/13/4 36/13/4 33/18/4
f 24/14/2 27/15/2 34/15/2 35/14/2
f 27/15/2 26/15/2 38/15/2 34/15/2
f 122/18/1 123/18/1 148/18/1 145/18/1
f 133/20/6 134/21/6 157/21/6 158/20/6
f 37/16/9 33/18/9 49/18/9 50/16/9
f 42/13/10 39/18/10 54/18/10 53/13/10
f 35/14/11 34/15/11 47/15/11 45/14/11
f 44/15/12 40/15/12 52/15/12 56/15/12
f 50/16/13 49/18/13 54/18/13 55/16/13
f 48/13/3 45/14/3 46/14/3 53/13/3
f 49/18/14 48/13/14 53/13/14 54/18/14
f 45/14/15 47/15/15 52/15/15 46/14/15
f 47/15/16 51/15/16 56/15/16 52/15/16
f 51/15/1 50/16/1 55/16/1 56/15/1
f 34/15/17 38/15/17 51/15/17 47/15/17
f 40/15/18 41/14/18 46/14/18 52/15/18
f 33/18/19 36/13/19 48/13/19 49/18/19
f 39/18/20 43/16/20 55/16/20 54/18/20
f 41/14/21 42/13/21 53/13/21 46/14/21
f 38/15/22 37/16/22 50/16/22 51/15/22
f 65/14/23 66/13/23 77/13/23 70/14/23
f 63/18/24 67/16/24 79/16/24 78/18/24
f 128/22/1 125/23/1 150/23/1 151/22/1
f 118/24/1 119/25/1 144/25/1 141/24/1
f 129/15/6 130/15/6 154/15/6 153/15/6
f 124/26/3 121/26/3 146/26/3 147/26/3
f 65/14/25 64/15/25 82/15/25 83/14/25
f 63/18/26 66/13/26 84/13/26 81/18/26
f 57/18/27 60/13/27 72/13/27 73/18/27
f 64/15/28 65/14/28 70/14/28 76/15/28
f 58/15/29 62/15/29 75/15/29 71/15/29
f 67/16/30 68/15/30 80/15/30 79/16/30
f 74/16/31 73/18/31 78/18/31 79/16/31
f 72/13/3 69/14/3 70/14/3 77/13/3
f 73/18/32 72/13/32 77/13/32 78/18/32
f 69/14/33 71/15/33 76/15/33 70/14/33
f 71/15/34 75/15/34 80/15/34 76/15/34
f 75/15/1 74/16/1 79/16/1 80/15/1
f 62/15/35 61/16/35 74/16/35 75/15/35
f 68/15/36 64/15/36 76/15/36 80/15/36
f 59/14/37 58/15/37 71/15/37 69/14/37
f 66/13/38 63/18/38 78/18/38 77/13/38
f 61/16/39 57/18/39 73/18/39 74/16/39
f 60/13/40 59/14/40 69/14/40 72/13/40
f 81/18/41 84/13/41 90/13/41 87/18/41
f 85/16/41 81/18/41 87/18/41 91/16/41
f 64/15/25 68/15/25 86/15/25 82/15/25
f 68/15/42 67/16/42 85/16/42 86/15/42
f 66/13/43 65/14/43 83/14/43 84/13/43
f 67/16/26 63/18/26 81/18/26 85/16/26
f 92/15/44 91/16/44 97/16/44 98/15/44
f 88/15/45 92/15/45 98/15/45 94/15/45
f 83/14/46 82/15/46 88/15/46 89/14/46
f 82/15/46 86/15/46 92/15/46 88/15/46
f 86/15/47 85/16/47 91/16/47 92/15/47
f 84/13/48 83/14/48 89/14/48 90/13/48
f 98/15/1 97/16/1 109/16/1 110/15/1
f 94/15/2 98/15/2 110/15/2 100/15/2
f 90/13/49 89/14/49 95/14/49 96/13/49
f 91/16/50 87/18/50 93/18/50 97/16/50
f 87/18/50 90/13/50 96/13/50 93/18/50
f 89/14/45 88/15/45 94/15/45 95/14/45
f 102/27/51 101/28/51 113/28/51 114/27/51
f 104/29/52 103/30/52 115/30/52 116/29/52
f 96/13/3 95/14/3 106/14/3 107/13/3
f 97/16/4 93/18/4 99/18/4 109/16/4
f 93/18/4 96/13/4 107/13/4 99/18/4
f 95/14/2 94/15/2 100/15/2 106/14/2
f 105/29/6 101/28/6 106/14/6 100/15/6
f 101/28/6 102/27/6 107/13/6 106/14/6
f 102/27/6 108/30/6 99/18/6 107/13/6
f 103/30/6 104/29/6 110/15/6 109/16/6
f 108/30/6 103/30/6 109/16/6 99/18/6
f 104/29/6 105/29/6 100/15/6 110/15/6
f 113/28/6 112/29/6 111/30/6 114/27/6
f 111/30/6 112/29/6 116/29/6 115/30/6
f 103/30/53 108/30/53 111/30/53 115/30/53
f 108/30/53 102/27/53 114/27/53 111/30/53
f 101/28/54 105/29/54 112/29/54 113/28/54
f 105/29/54 104/29/54 116/29/54 112/29/54
f 39/18/4 42/13/4 118/24/4 117/31/4
f 42/13/4 60/13/4 119/25/4 118/24/4
f 60/13/4 57/18/4 120/31/4 119/25/4
f 57/18/4 39/18/4 117/31/4 120/31/4
f 43/16/4 39/18/4 122/18/4 121/26/4
f 39/18/4 57/18/4 123/18/4 122/18/4
f 57/18/4 61/16/4 124/26/4 123/18/4
f 61/16/4 43/16/4 121/26/4 124/26/4
f 41/14/2 40/15/2 126/32/2 125/23/2
f 40/15/2 58/15/2 127/33/2 126/32/2
f 58/15/2 59/14/2 128/22/2 127/33/2
f 59/14/2 41/14/2 125/23/2 128/22/2
f 40/15/2 44/15/2 130/15/2 129/15/2
f 44/15/2 62/15/2 131/34/2 130/15/2
f 62/15/2 58/15/2 132/15/2 131/34/2
f 58/15/2 40/15/2 129/15/2 132/15/2
f 44/15/1 43/16/1 134/21/1 133/20/1
f 43/16/1 61/16/1 135/35/1 134/21/1
f 61/16/1 62/15/1 136/20/1 135/35/1
f 62/15/1 44/15/1 133/20/1 136/20/1
f 42/13/3 41/14/3 138/36/3 137/37/3
f 41/14/3 59/14/3 139/38/3 138/36/3
f 59/14/3 60/13/3 140/39/3 139/38/3
f 60/13/3 42/13/3 137/37/3 140/39/3
f 142/31/4 141/24/4 144/25/4 143/31/4
f 146/26/4 145/18/4 148/18/4 147/26/4
f 150/23/2 149/32/2 152/33/2 151/22/2
f 153/15/2 154/15/2 156/34/2 155/15/2
f 158/20/1 157/21/1 160/35/1 159/20/1
f 162/37/3 161/36/3 164/38/3 163/39/3
f 132/15/1 129/15/1 153/15/1 155/15/1
f 137/37/6 138/36/6 161/36/6 162/37/6
f 119/25/5 120/31/5 143/31/5 144/25/5
f 126/32/3 127/33/3 152/33/3 149/32/3
f 136/20/4 133/20/4 158/20/4 159/20/4
f 123/18/5 124/26/5 147/26/5 148/18/5
f 130/15/3 131/34/3 156/34/3 154/15/3
f 140/39/2 137/37/2 162/37/2 163/39/2
f 127/33/5 128/22/5 151/22/5 152/33/5
f 134/21/2 135/35/2 160/35/2 157/21/2
f 131/34/5 132/15/5 155/15/5 156/34/5
f 138/36/4 139/38/4 164/38/4 161/36/4
f 135/35/5 136/20/5 159/20/5 160/35/5
f 139/38/5 140/39/5 163/39/5 164/38/5
f 117/31/6 118/24/6 141/24/6 142/31/6
f 121/26/6 122/18/6 145/18/6 146/26/6
f 120/31/3 117/31/3 142/31/3 143/31/3
f 125/23/6 126/32/6 149/32/6 150/23/6
f 167/40/55 166/40/55 169/40/55 170/40/55
f 166/40/56 165/41/56 168/41/56 169/40/56
f 170/40/57 169/40/57 171/40/57 172/40/57
f 171/40/58 169/40/58 168/40/58 186/40/58
f 172/40/59 171/40/59 173/40/59 174/40/59
f 174/40/60 173/40/60 175/40/60 176/40/60
f 176/40/61 175/40/61 177/40/61 178/40/61
f 178/40/62 177/40/62 179/40/62 180/40/62
f 178/40/63 180/40/63 181/40/63 176/40/63
f 176/40/64 181/40/64 182/40/64 174/40/64
f 174/40/64 182/40/64 183/40/64 172/40/64
f 172/40/64 183/40/64 184/40/64 170/40/64
f 170/40/65 184/40/65 185/40/65 167/40/65
f 173/40/66 171/40/66 186/40/66 187/40/66
f 179/40/67 177/40/67 189/40/67 190/40/67
f 175/40/68 173/40/68 187/40/68 188/40/68
f 177/40/69 175/40/69 188/40/69 189/40/69
f 189/40/70 188/40/70 195/40/70 196/40/70
f 190/40/71 189/40/71 196/40/71 197/40/71
f 168/41/72 165/41/72 191/41/72 192/41/72
f 186/40/73 168/40/73 192/40/73 193/40/73
f 187/40/74 186/40/74 193/40/74 194/40/74
f 188/40/75 187/40/75 194/40/75 195/40/75
f 165/41/76 166/40/76 199/40/76 198/41/76
f 167/40/77 185/40/77 201/40/77 200/40/77
f 191/41/78 165/41/78 198/41/78 202/41/78
f 166/40/79 167/40/79 200/40/79 199/40/79
f 202/41/80 198/41/80 203/41/80 206/41/80
f 199/40/81 200/40/81 205/40/81 204/40/81
f 200/40/82 201/40/82 209/40/82 205/40/82
f 198/41/83 199/40/83 204/40/83 203/41/83
f 203/41/84 204/40/84 208/40/84 207/41/84
f 206/41/85 203/41/85 207/41/85 210/41/85
f 204/40/86 205/40/86 209/40/86 208/40/86
f 374/41/87 378/41/87 343/41/87 341/41/87
f 344/41/6 342/41/6 341/41/6 343/41/6
f 217/40/88 220/40/88 219/40/88 216/40/88
f 216/40/89 219/40/89 218/41/89 215/41/89
f 220/40/90 222/40/90 221/40/90 219/40/90
f 221/40/91 229/40/91 218/40/91 219/40/91
f 222/40/92 224/40/92 223/40/92 221/40/92
f 224/40/93 226/40/93 225/40/93 223/40/93
f 226/40/94 228/40/94 227/40/94 225/40/94
f 228/40/95 180/40/95 179/40/95 227/40/95
f 228/40/96 226/40/96 181/40/96 180/40/96
f 226/40/97 224/40/97 182/40/97 181/40/97
f 224/40/97 222/40/97 183/40/97 182/40/97
f 222/40/97 220/40/97 184/40/97 183/40/97
f 220/40/98 217/40/98 185/40/98 184/40/98
f 223/40/99 230/40/99 229/40/99 221/40/99
f 179/40/100 190/40/100 232/40/100 227/40/100
f 225/40/101 231/40/101 230/40/101 223/40/101
f 227/40/102 232/40/102 231/40/102 225/40/102
f 232/40/103 238/40/103 237/40/103 231/40/103
f 190/40/104 197/40/104 238/40/104 232/40/104
f 218/41/105 234/41/105 233/41/105 215/41/105
f 229/40/106 235/40/106 234/40/106 218/40/106
f 230/40/107 236/40/107 235/40/107 229/40/107
f 231/40/108 237/40/108 236/40/108 230/40/108
f 215/41/109 239/41/109 240/40/109 216/40/109
f 217/40/110 241/40/110 201/40/110 185/40/110
f 233/41/111 242/41/111 239/41/111 215/41/111
f 216/40/112 240/40/112 241/40/112 217/40/112
f 242/41/113 246/41/113 243/41/113 239/41/113
f 240/40/114 244/40/114 245/40/114 241/40/114
f 241/40/115 245/40/115 209/40/115 201/40/115
f 239/41/116 243/41/116 244/40/116 240/40/116
f 243/41/117 207/41/117 208/40/117 244/40/117
f 246/41/118 210/41/118 207/41/118 243/41/118
f 244/40/119 208/40/119 209/40/119 245/40/119
f 364/41/2 363/41/2 356/41/2 355/41/2
f 376/41/4 375/41/4 346/41/4 345/41/4
f 405/41/6 344/41/6 343/41/6 407/41/6
f 253/40/120 256/40/120 255/40/120 252/40/120
f 252/40/121 255/40/121 254/41/121 251/41/121
f 256/40/122 258/40/122 257/40/122 255/40/122
f 257/40/123 272/40/123 254/40/123 255/40/123
f 258/40/124 260/40/124 259/40/124 257/40/124
f 260/40/125 262/40/125 261/40/125 259/40/125
f 262/40/126 264/40/126 263/40/126 261/40/126
f 264/40/127 266/40/127 265/40/127 263/40/127
f 264/40/128 262/40/128 267/40/128 266/40/128
f 262/40/128 260/40/128 268/40/128 267/40/128
f 260/40/128 258/40/128 269/40/128 268/40/128
f 258/40/128 256/40/128 270/40/128 269/40/128
f 256/40/128 253/40/128 271/40/128 270/40/128
f 259/40/129 273/40/129 272/40/129 257/40/129
f 265/40/2 276/40/2 275/40/2 263/40/2
f 261/40/130 274/40/130 273/40/130 259/40/130
f 263/40/131 275/40/131 274/40/131 261/40/131
f 275/40/132 282/40/132 281/40/132 274/40/132
f 276/40/2 283/40/2 282/40/2 275/40/2
f 254/41/133 278/41/133 277/41/133 251/41/133
f 272/40/134 279/40/134 278/40/134 254/40/134
f 273/40/135 280/40/135 279/40/135 272/40/135
f 274/40/136 281/40/136 280/40/136 273/40/136
f 251/41/137 284/41/137 285/40/137 252/40/137
f 253/40/128 286/40/128 287/40/128 271/40/128
f 277/41/138 288/41/138 284/41/138 251/41/138
f 252/40/139 285/40/139 286/40/139 253/40/139
f 288/41/140 292/41/140 289/41/140 284/41/140
f 285/40/141 290/40/141 291/40/141 286/40/141
f 286/40/142 291/40/142 295/40/142 287/40/142
f 284/41/143 289/41/143 290/40/143 285/40/143
f 289/41/144 293/41/144 294/40/144 290/40/144
f 292/41/145 296/41/145 293/41/145 289/41/145
f 290/40/146 294/40/146 295/40/146 291/40/146
f 361/41/147 357/41/147 350/41/147 352/41/147
f 480/41/6 341/41/6 342/41/6 487/41/6
f 349/41/6 351/41/6 352/41/6 350/41/6
f 307/40/148 306/40/148 309/40/148 310/40/148
f 306/40/149 305/41/149 308/41/149 309/40/149
f 310/40/150 309/40/150 311/40/150 312/40/150
f 311/40/151 309/40/151 308/40/151 319/40/151
f 312/40/152 311/40/152 313/40/152 314/40/152
f 314/40/153 313/40/153 315/40/153 316/40/153
f 316/40/154 315/40/154 317/40/154 318/40/154
f 318/40/155 317/40/155 265/40/155 266/40/155
f 318/40/156 266/40/156 267/40/156 316/40/156
f 316/40/156 267/40/156 268/40/156 314/40/156
f 314/40/156 268/40/156 269/40/156 312/40/156
f 312/40/156 269/40/156 270/40/156 310/40/156
f 310/40/156 270/40/156 271/40/156 307/40/156
f 313/40/157 311/40/157 319/40/157 320/40/157
f 265/40/2 317/40/2 322/40/2 276/40/2
f 315/40/158 313/40/158 320/40/158 321/40/158
f 317/40/159 315/40/159 321/40/159 322/40/159
f 322/40/160 321/40/160 327/40/160 328/40/160
f 276/40/2 322/40/2 328/40/2 283/40/2
f 308/41/161 305/41/161 323/41/161 324/41/161
f 319/40/162 308/40/162 324/40/162 325/40/162
f 320/40/163 319/40/163 325/40/163 326/40/163
f 321/40/164 320/40/164 326/40/164 327/40/164
f 305/41/165 306/40/165 330/40/165 329/41/165
f 307/40/156 271/40/156 287/40/156 331/40/156
f 323/41/166 305/41/166 329/41/166 332/41/166
f 306/40/167 307/40/167 331/40/167 330/40/167
f 332/41/168 329/41/168 333/41/168 336/41/168
f 330/40/169 331/40/169 335/40/169 334/40/169
f 331/40/170 287/40/170 295/40/170 335/40/170
f 329/41/171 330/40/171 334/40/171 333/41/171
f 333/41/172 334/40/172 294/40/172 293/41/172
f 336/41/173 333/41/173 293/41/173 296/41/173
f 334/40/174 335/40/174 295/40/174 294/40/174
f 377/41/175 373/41/175 342/41/175 344/41/175
f 192/41/176 191/41/176 277/41/176 278/41/176
f 193/40/177 192/40/177 278/40/177 279/40/177
f 195/40/178 194/40/178 280/40/178 281/40/178
f 196/40/179 195/40/179 281/40/179 282/40/179
f 197/40/180 196/40/180 282/40/180 283/40/180
f 194/40/181 193/40/181 279/40/181 280/40/181
f 191/41/182 202/41/182 288/41/182 277/41/182
f 202/41/183 206/41/183 292/41/183 288/41/183
f 206/41/184 210/41/184 296/41/184 292/41/184
f 501/41/3 212/41/3 298/41/3 503/41/3
f 213/41/185 211/41/185 297/41/185 301/41/185
f 380/41/2 379/41/2 348/41/2 347/41/2
f 399/41/3 213/41/3 301/41/3 401/41/3
f 233/41/186 234/41/186 324/41/186 323/41/186
f 234/40/187 235/40/187 325/40/187 324/40/187
f 236/40/188 237/40/188 327/40/188 326/40/188
f 237/40/189 238/40/189 328/40/189 327/40/189
f 238/40/190 197/40/190 283/40/190 328/40/190
f 235/40/191 236/40/191 326/40/191 325/40/191
f 242/41/192 233/41/192 323/41/192 332/41/192
f 246/41/193 242/41/193 332/41/193 336/41/193
f 210/41/194 246/41/194 336/41/194 296/41/194
f 476/41/1 247/41/1 337/41/1 479/41/1
f 247/41/195 249/41/195 339/41/195 337/41/195
f 400/41/1 250/41/1 340/41/1 404/41/1
f 410/41/3 364/41/3 355/41/3 406/41/3
f 485/41/3 374/41/3 341/41/3 480/41/3
f 483/41/3 358/41/3 349/41/3 481/41/3
f 497/41/1 360/41/1 353/41/1 495/41/1
f 406/41/6 355/41/6 356/41/6 403/41/6
f 495/41/6 353/41/6 354/41/6 507/41/6
f 364/41/2 371/41/2 372/41/2 363/41/2
f 360/41/4 367/41/4 368/41/4 359/41/4
f 408/41/5 369/41/5 370/41/5 409/41/5
f 369/41/5 365/41/5 366/41/5 370/41/5
f 482/41/5 366/41/5 365/41/5 489/41/5
f 358/41/196 362/41/196 351/41/196 349/41/196
f 415/41/3 380/41/3 347/41/3 407/41/3
f 360/41/4 359/41/4 354/41/4 353/41/4
f 380/41/2 387/41/2 388/41/2 379/41/2
f 376/41/4 383/41/4 384/41/4 375/41/4
f 412/41/5 388/41/5 387/41/5 413/41/5
f 382/41/5 386/41/5 385/41/5 381/41/5
f 498/41/5 384/41/5 383/41/5 510/41/5
f 411/41/1 361/41/1 352/41/1 403/41/1
f 414/41/1 377/41/1 344/41/1 405/41/1
f 499/41/1 376/41/1 345/41/1 494/41/1
f 475/41/6 211/41/6 358/41/6 483/41/6
f 358/41/6 211/41/6 213/41/6 362/41/6
f 212/41/4 359/41/4 368/41/4 298/41/4
f 410/41/6 399/41/6 214/41/6 364/41/6
f 364/41/2 214/41/2 303/41/2 371/41/2
f 299/41/5 302/41/5 370/41/5 366/41/5
f 477/41/5 489/41/5 365/41/5 297/41/5
f 365/41/5 369/41/5 301/41/5 297/41/5
f 482/41/5 478/41/5 299/41/5 366/41/5
f 402/41/5 304/41/5 372/41/5 409/41/5
f 408/41/5 371/41/5 303/41/5 401/41/5
f 476/41/6 492/41/6 373/41/6 247/41/6
f 373/41/6 377/41/6 249/41/6 247/41/6
f 376/41/4 248/41/4 338/41/4 383/41/4
f 414/41/6 379/41/6 250/41/6 400/41/6
f 250/41/2 379/41/2 388/41/2 340/41/2
f 299/41/5 381/41/5 385/41/5 302/41/5
f 479/41/5 337/41/5 382/41/5 484/41/5
f 491/41/5 381/41/5 299/41/5 478/41/5
f 382/41/5 337/41/5 339/41/5 386/41/5
f 412/41/5 404/41/5 340/41/5 388/41/5
f 402/41/5 413/41/5 387/41/5 304/41/5
f 391/41/4 392/41/4 393/41/4
f 396/41/2 397/41/2 398/41/2
f 455/41/1 436/41/1 521/41/1 520/41/1
f 395/41/6 390/41/6 389/41/6 394/41/6
f 486/41/3 389/41/3 514/41/3 513/41/3
f 485/41/6 493/41/6 390/41/6 374/41/6
f 490/41/6 357/41/6 389/41/6 486/41/6
f 390/41/6 395/41/6 378/41/6 374/41/6
f 389/41/6 357/41/6 361/41/6 394/41/6
f 360/41/4 391/41/4 393/41/4 300/41/4 367/41/4
f 393/41/4 392/41/4 375/41/4 384/41/4 300/41/4
f 416/41/6 396/41/6 380/41/6 415/41/6
f 417/41/6 411/41/6 363/41/6 397/41/6
f 380/41/2 396/41/2 398/41/2 304/41/2 387/41/2
f 398/41/2 397/41/2 363/41/2 372/41/2 304/41/2
f 394/41/6 361/41/6 411/41/6 417/41/6
f 395/41/6 416/41/6 415/41/6 378/41/6
f 396/41/6 416/41/6 417/41/6 397/41/6
f 302/41/5 385/41/5 413/41/5 402/41/5
f 386/41/5 339/41/5 404/41/5 412/41/5
f 377/41/6 414/41/6 400/41/6 249/41/6
f 369/41/5 408/41/5 401/41/5 301/41/5
f 302/41/5 402/41/5 409/41/5 370/41/5
f 362/41/6 213/41/6 399/41/6 410/41/6
f 379/41/1 414/41/1 405/41/1 348/41/1
f 363/41/1 411/41/1 403/41/1 356/41/1
f 386/41/5 412/41/5 413/41/5 385/41/5
f 378/41/3 415/41/3 407/41/3 343/41/3
f 371/41/5 408/41/5 409/41/5 372/41/5
f 351/41/6 406/41/6 403/41/6 352/41/6
f 362/41/3 410/41/3 406/41/3 351/41/3
f 249/41/1 400/41/1 404/41/1 339/41/1
f 214/41/3 399/41/3 401/41/3 303/41/3
f 348/41/6 405/41/6 407/41/6 347/41/6
f 459/41/6 429/41/6 435/41/6 474/41/6
f 473/41/6 462/41/6 436/41/6 433/41/6
f 474/41/6 435/41/6 436/41/6 462/41/6
f 460/41/5 431/41/5 422/41/5 466/41/5
f 467/41/5 423/41/5 432/41/5 472/41/5
f 464/41/6 461/41/6 434/41/6 419/41/6
f 470/41/5 466/41/5 422/41/5 427/41/5
f 465/41/5 458/41/5 428/41/5 421/41/5
f 463/41/6 418/41/6 430/41/6 471/41/6
f 454/41/1 434/41/1 420/41/1 449/41/1
f 453/41/5 431/41/5 432/41/5 446/41/5
f 470/41/5 427/41/5 428/41/5 458/41/5
f 450/41/6 426/41/6 425/41/6 443/41/6
f 452/41/1 429/41/1 426/41/1 450/41/1
f 471/41/3 430/41/3 425/41/3 469/41/3
f 473/41/3 433/41/3 424/41/3 468/41/3
f 464/41/1 419/41/1 423/41/1 467/41/1
f 437/41/3 418/41/3 421/41/3 439/41/3
f 468/41/6 424/41/6 420/41/6 456/41/6
f 475/41/3 437/41/3 439/41/3 477/41/3
f 490/41/1 452/41/1 450/41/1 488/41/1
f 488/41/6 450/41/6 443/41/6 481/41/6
f 491/41/5 453/41/5 446/41/5 484/41/5
f 492/41/1 454/41/1 449/41/1 487/41/1
f 429/41/6 452/41/6 448/41/6 435/41/6
f 433/41/6 436/41/6 455/41/6 447/41/6
f 500/41/4 512/41/4 524/41/4 528/41/4
f 431/41/5 453/41/5 440/41/5 422/41/5
f 423/41/5 441/41/5 446/41/5 432/41/5
f 419/41/6 434/41/6 454/41/6 438/41/6
f 427/41/5 422/41/5 440/41/5 444/41/5
f 421/41/5 428/41/5 451/41/5 439/41/5
f 418/41/6 437/41/6 445/41/6 430/41/6
f 427/41/5 444/41/5 451/41/5 428/41/5
f 430/41/3 445/41/3 443/41/3 425/41/3
f 433/41/3 447/41/3 442/41/3 424/41/3
f 419/41/1 438/41/1 441/41/1 423/41/1
f 424/41/6 442/41/6 449/41/6 420/41/6
f 506/41/6 468/41/6 456/41/6 494/41/6
f 502/41/1 464/41/1 467/41/1 505/41/1
f 511/41/3 473/41/3 468/41/3 506/41/3
f 509/41/3 471/41/3 469/41/3 507/41/3
f 508/41/5 470/41/5 458/41/5 496/41/5
f 501/41/6 463/41/6 471/41/6 509/41/6
f 503/41/5 496/41/5 458/41/5 465/41/5
f 508/41/5 504/41/5 466/41/5 470/41/5
f 502/41/6 499/41/6 461/41/6 464/41/6
f 505/41/5 467/41/5 472/41/5 510/41/5
f 498/41/5 460/41/5 466/41/5 504/41/5
f 462/41/1 500/41/1 528/41/1 526/41/1
f 511/41/6 500/41/6 462/41/6 473/41/6
f 497/41/6 459/41/6 474/41/6 512/41/6
f 434/41/1 461/41/1 456/41/1 420/41/1
f 431/41/5 460/41/5 472/41/5 432/41/5
f 426/41/6 457/41/6 469/41/6 425/41/6
f 429/41/1 459/41/1 457/41/1 426/41/1
f 418/41/3 463/41/3 465/41/3 421/41/3
f 373/41/1 492/41/1 487/41/1 342/41/1
f 381/41/5 491/41/5 484/41/5 382/41/5
f 350/41/6 488/41/6 481/41/6 349/41/6
f 357/41/1 490/41/1 488/41/1 350/41/1
f 211/41/3 475/41/3 477/41/3 297/41/3
f 452/41/6 490/41/6 486/41/6 448/41/6
f 447/41/6 455/41/6 493/41/6 485/41/6
f 448/41/6 486/41/6 493/41/6 455/41/6
f 453/41/5 491/41/5 478/41/5 440/41/5
f 441/41/5 479/41/5 484/41/5 446/41/5
f 438/41/6 454/41/6 492/41/6 476/41/6
f 444/41/5 440/41/5 478/41/5 482/41/5
f 439/41/5 451/41/5 489/41/5 477/41/5
f 437/41/6 475/41/6 483/41/6 445/41/6
f 444/41/5 482/41/5 489/41/5 451/41/5
f 445/41/3 483/41/3 481/41/3 443/41/3
f 447/41/3 485/41/3 480/41/3 442/41/3
f 438/41/1 476/41/1 479/41/1 441/41/1
f 442/41/6 480/41/6 487/41/6 449/41/6
f 360/41/6 497/41/6 512/41/6 391/41/6
f 375/41/6 392/41/6 500/41/6 511/41/6
f 391/41/6 512/41/6 500/41/6 392/41/6
f 384/41/5 498/41/5 504/41/5 300/41/5
f 338/41/5 505/41/5 510/41/5 383/41/5
f 248/41/6 376/41/6 499/41/6 502/41/6
f 367/41/5 300/41/5 504/41/5 508/41/5
f 298/41/5 368/41/5 496/41/5 503/41/5
f 212/41/6 501/41/6 509/41/6 359/41/6
f 367/41/5 508/41/5 496/41/5 368/41/5
f 359/41/3 509/41/3 507/41/3 354/41/3
f 375/41/3 511/41/3 506/41/3 346/41/3
f 248/41/1 502/41/1 505/41/1 338/41/1
f 346/41/6 506/41/6 494/41/6 345/41/6
f 461/41/1 499/41/1 494/41/1 456/41/1
f 460/41/5 498/41/5 510/41/5 472/41/5
f 457/41/6 495/41/6 507/41/6 469/41/6
f 459/41/1 497/41/1 495/41/1 457/41/1
f 463/41/3 501/41/3 503/41/3 465/41/3
f 513/41/6 514/41/6 515/41/6 527/41/6
f 518/41/6 517/41/6 516/41/6 519/41/6
f 522/41/6 523/41/6 520/41/6 521/41/6
f 524/41/6 525/41/6 526/41/6 528/41/6
f 389/41/2 390/41/2 515/41/2 514/41/2
f 435/41/3 448/41/3 523/41/3 522/41/3
f 448/41/2 455/41/2 520/41/2 523/41/2
f 417/41/2 416/41/2 518/41/2 519/41/2
f 512/41/3 474/41/3 525/41/3 524/41/3
f 390/41/1 493/41/1 527/41/1 515/41/1
f 395/41/4 394/41/4 516/41/4 517/41/4
f 436/41/4 435/41/4 522/41/4 521/41/4
f 493/41/4 486/41/4 513/41/4 527/41/4
f 416/41/1 395/41/1 517/41/1 518/41/1
f 394/41/3 417/41/3 519/41/3 516/41/3
f 474/41/2 462/41/2 526/41/2 525/41/2
f 530/19/197 619/17/197 540/17/197 538/19/197
f 536/42/198 530/19/198 557/19/198 559/42/198
f 620/43/199 619/17/199 530/19/199 536/42/199
f 636/11/200 533/44/200 535/45/200 637/12/200
f 636/4/201 619/3/201 621/3/201 545/4/201
f 538/19/202 540/17/202 544/17/202 542/19/202
f 581/46/203 583/47/203 668/47/203 669/46/203
f 619/3/204 636/4/204 539/4/204 540/3/204
f 637/10/205 530/9/205 538/9/205 537/10/205
f 542/19/206 544/17/206 564/17/206 562/19/206
f 651/48/207 603/49/207 670/49/207 662/48/207
f 540/3/208 539/4/208 543/4/208 544/3/208
f 537/10/209 538/9/209 542/9/209 541/10/209
f 594/50/210 596/51/210 635/51/210 631/50/210
f 532/52/211 534/53/211 629/53/211 632/52/211
f 533/44/212 636/11/212 545/11/212 547/44/212
f 550/44/213 548/11/213 552/11/213 554/44/213
f 545/4/214 621/3/214 622/3/214 548/4/214
f 547/44/215 545/11/215 548/11/215 550/44/215
f 552/4/216 553/3/216 555/54/216 554/55/216
f 622/17/217 623/43/217 560/43/217 553/17/217
f 548/4/218 622/3/218 553/3/218 552/4/218
f 599/10/219 600/9/219 715/9/219 714/10/219
f 530/9/220 637/10/220 556/10/220 557/9/220
f 535/41/221 536/41/221 559/41/221 558/41/221
f 637/12/222 535/45/222 558/45/222 556/12/222
f 553/17/223 560/43/223 555/43/223
f 562/19/224 564/17/224 568/17/224 566/19/224
f 639/56/225 531/47/225 664/47/225 654/56/225
f 544/3/226 543/4/226 563/4/226 564/3/226
f 541/10/227 542/9/227 562/9/227 561/10/227
f 568/3/228 644/4/228 571/4/228 572/3/228
f 567/57/229 643/58/229 658/58/229 666/57/229
f 564/3/230 563/4/230 644/4/230 568/3/230
f 561/10/231 562/9/231 566/9/231 645/10/231
f 569/1/232 570/2/232 572/3/232 571/4/232
f 645/10/231 566/9/231 570/9/231 569/10/231
f 566/19/233 568/17/233 572/17/233 570/19/233
f 644/11/234 645/12/234 569/12/234 571/11/234
f 576/42/235 574/19/235 578/19/235 580/42/235
f 558/41/236 559/41/236 576/41/236 575/41/236
f 559/42/237 557/19/237 574/19/237 576/42/237
f 613/12/238 575/45/238 707/45/238 709/12/238
f 579/59/239 580/60/239 578/9/239 577/10/239
f 573/12/240 575/45/240 579/45/240 577/12/240
f 574/9/241 573/10/241 577/10/241 578/9/241
f 575/41/242 576/41/242 580/41/242 579/41/242
f 582/19/243 586/19/243 588/17/243 624/17/243
f 536/42/244 559/42/244 600/19/244 582/19/244
f 620/43/245 536/42/245 582/19/245 624/17/245
f 646/11/246 647/12/246 535/45/246 533/44/246
f 646/4/247 593/4/247 625/3/247 624/3/247
f 586/19/248 590/19/248 592/17/248 588/17/248
f 601/61/249 650/62/249 663/62/249 671/61/249
f 624/3/250 588/3/250 587/4/250 646/4/250
f 647/10/205 585/10/205 586/9/205 582/9/205
f 590/19/251 602/19/251 604/17/251 592/17/251
f 529/63/252 638/64/252 655/64/252 665/63/252
f 588/3/253 592/3/253 591/4/253 587/4/253
f 585/10/254 589/10/254 590/9/254 586/9/254
f 551/65/255 549/51/255 633/51/255 630/65/255
f 534/53/256 584/66/256 634/66/256 629/53/256
f 533/44/257 547/44/257 593/11/257 646/11/257
f 550/44/258 554/44/258 597/11/258 595/11/258
f 593/4/259 595/4/259 626/3/259 625/3/259
f 547/44/260 550/44/260 595/11/260 593/11/260
f 597/4/261 554/55/261 555/54/261 598/3/261
f 626/17/262 598/17/262 560/43/262 623/43/262
f 595/4/263 597/4/263 598/3/263 626/3/263
f 613/10/264 599/10/264 714/10/264 716/10/264
f 582/9/265 600/9/265 599/10/265 647/10/265
f 647/12/266 599/12/266 558/45/266 535/45/266
f 598/17/267 555/43/267 560/43/267
f 602/19/268 606/19/268 608/17/268 604/17/268
f 642/67/231 565/68/231 667/68/231 659/67/231
f 592/3/269 604/3/269 652/4/269 591/4/269
f 589/10/270 653/10/270 602/9/270 590/9/270
f 608/3/271 612/3/271 611/4/271 607/4/271
f 652/11/272 607/11/272 605/12/272 653/12/272
f 604/3/273 608/3/273 607/4/273 652/4/273
f 653/10/231 605/10/231 606/9/231 602/9/231
f 609/1/274 611/4/274 612/3/274 610/2/274
f 605/10/231 609/10/231 610/9/231 606/9/231
f 606/19/275 610/19/275 612/17/275 608/17/275
f 607/11/276 611/11/276 609/12/276 605/12/276
f 576/42/277 618/42/277 616/19/277 614/19/277
f 559/42/278 576/42/278 614/19/278 600/19/278
f 556/12/279 558/45/279 705/45/279 704/12/279
f 617/59/280 615/10/280 616/9/280 618/60/280
f 613/12/281 615/12/281 617/45/281 575/45/281
f 614/9/282 616/9/282 615/10/282 613/10/282
f 575/41/283 617/41/283 618/41/283 576/41/283
f 534/53/284 532/52/284 619/17/284 620/43/284
f 532/52/285 546/50/285 621/17/285 619/17/285
f 549/51/286 551/65/286 623/43/286 622/17/286
f 546/50/287 549/51/287 622/17/287 621/17/287
f 584/66/288 534/53/288 620/43/288 624/17/288
f 594/50/289 584/66/289 624/17/289 625/17/289
f 551/65/290 596/51/290 626/17/290 623/43/290
f 596/51/291 594/50/291 625/17/291 626/17/291
f 627/50/292 628/43/292 630/65/292 633/51/292
f 632/52/293 629/53/293 628/43/293 627/50/293
f 631/50/294 635/51/294 630/65/294 628/43/294
f 634/66/295 631/50/295 628/43/295 629/53/295
f 584/66/296 594/50/296 631/50/296 634/66/296
f 549/51/297 546/50/297 627/50/297 633/51/297
f 546/50/298 532/52/298 632/52/298 627/50/298
f 596/51/299 551/65/299 630/65/299 635/51/299
f 529/63/300 531/47/300 636/11/300 637/12/300
f 638/64/301 529/63/301 637/12/301 537/12/301
f 531/47/302 639/56/302 539/11/302 636/11/302
f 640/62/303 638/64/303 537/12/303 541/12/303
f 639/56/304 641/69/304 543/11/304 539/11/304
f 642/67/305 640/62/305 541/12/305 561/12/305
f 641/69/306 643/58/306 563/11/306 543/11/306
f 567/57/307 565/68/307 645/12/307 644/11/307
f 565/68/308 642/67/308 561/12/308 645/12/308
f 643/58/309 567/57/309 644/11/309 563/11/309
f 583/47/310 581/46/310 647/12/310 646/11/310
f 581/46/311 648/64/311 585/12/311 647/12/311
f 649/70/312 583/47/312 646/11/312 587/11/312
f 648/64/313 650/62/313 589/12/313 585/12/313
f 651/48/314 649/70/314 587/11/314 591/11/314
f 601/61/315 603/49/315 652/11/315 653/12/315
f 650/62/316 601/61/316 653/12/316 589/12/316
f 603/49/317 651/48/317 591/11/317 652/11/317
f 660/70/318 661/64/318 679/64/318 678/70/318
f 654/56/319 655/64/319 657/62/319 656/69/319
f 657/62/320 659/67/320 677/67/320 675/62/320
f 658/58/321 659/67/321 667/68/321 666/57/321
f 684/47/322 668/47/322 693/47/322 701/47/322
f 660/70/323 662/48/323 663/62/323 661/64/323
f 659/67/324 658/58/324 676/58/324 677/67/324
f 638/64/325 640/62/325 657/62/325 655/64/325
f 648/64/326 581/46/326 669/46/326 661/64/326
f 641/69/327 639/56/327 654/56/327 656/69/327
f 583/47/328 649/70/328 660/70/328 668/47/328
f 640/62/329 642/67/329 659/67/329 657/62/329
f 650/62/330 648/64/330 661/64/330 663/62/330
f 643/58/331 641/69/331 656/69/331 658/58/331
f 649/70/332 651/48/332 662/48/332 660/70/332
f 565/68/232 567/57/232 666/57/232 667/68/232
f 531/47/333 529/63/333 665/63/333 664/47/333
f 603/49/334 601/61/334 671/61/334 670/49/334
f 682/47/335 683/63/335 673/64/335 672/56/335
f 674/69/336 675/62/336 677/67/336 676/58/336
f 684/47/337 678/70/337 679/64/337 685/46/337
f 680/48/338 686/49/338 687/61/338 681/62/338
f 664/47/339 682/47/339 697/47/339 689/47/339
f 663/62/340 662/48/340 680/48/340 681/62/340
f 664/47/341 665/63/341 683/63/341 682/47/341
f 670/49/334 671/61/334 687/61/334 686/49/334
f 665/63/342 655/64/342 673/64/342 683/63/342
f 671/61/343 663/62/343 681/62/343 687/61/343
f 660/70/344 678/70/344 700/70/344 692/70/344
f 668/47/345 660/70/345 692/70/345 693/47/345
f 655/64/346 654/56/346 672/56/346 673/64/346
f 669/46/347 668/47/347 684/47/347 685/46/347
f 656/69/348 657/62/348 675/62/348 674/69/348
f 661/64/349 669/46/349 685/46/349 679/64/349
f 693/47/350 692/70/350 700/70/350 701/47/350
f 690/58/351 691/69/351 699/69/351 698/58/351
f 688/56/352 689/47/352 697/47/352 696/56/352
f 695/48/353 694/49/353 702/49/353 703/48/353
f 658/58/354 656/69/354 691/69/354 690/58/354
f 678/70/355 684/47/355 701/47/355 700/70/355
f 670/49/356 686/49/356 702/49/356 694/49/356
f 682/47/357 672/56/357 696/56/357 697/47/357
f 656/69/356 674/69/356 699/69/356 691/69/356
f 686/49/358 680/48/358 703/48/358 702/49/358
f 672/56/359 654/56/359 688/56/359 696/56/359
f 654/56/360 664/47/360 689/47/360 688/56/360
f 662/48/361 670/49/361 694/49/361 695/48/361
f 680/48/362 662/48/362 695/48/362 703/48/362
f 676/58/362 658/58/362 690/58/362 698/58/362
f 674/69/363 676/58/363 698/58/363 699/69/363
f 704/12/364 705/45/364 707/45/364 706/12/364
f 708/12/365 709/12/365 707/45/365 705/45/365
f 573/10/366 556/10/366 704/10/366 706/10/366
f 575/45/367 573/12/367 706/12/367 707/45/367
f 558/45/368 599/12/368 708/12/368 705/45/368
f 599/10/369 613/10/369 709/10/369 708/10/369
f 711/9/370 710/10/370 712/10/370 713/9/370
f 715/9/371 717/9/371 716/10/371 714/10/371
f 573/10/372 574/9/372 713/9/372 712/10/372
f 600/19/373 614/19/373 720/19/373 721/19/373
f 719/19/374 557/19/374 728/19/374 732/19/374
f 557/9/375 556/10/375 710/10/375 711/9/375
f 614/9/376 613/10/376 716/10/376 717/9/376
f 556/10/377 573/10/377 712/10/377 710/10/377
f 718/19/378 719/19/378 723/19/378 722/19/378
f 721/19/379 720/19/379 724/19/379 725/19/379
f 715/9/380 600/9/380 726/9/380 727/9/380
f 713/9/381 574/9/381 718/9/381 722/9/381
f 717/9/382 715/9/382 725/9/382 724/9/382
f 614/9/383 717/9/383 724/9/383 720/9/383
f 711/9/384 713/9/384 722/9/384 723/9/384
f 574/19/385 557/19/385 719/19/385 718/19/385
f 732/19/386 728/19/386 736/19/386 740/19/386
f 727/9/387 726/9/387 734/9/387 735/9/387
f 600/19/388 721/19/388 730/19/388 726/19/388
f 557/9/389 711/9/389 729/9/389 728/9/389
f 723/19/390 719/19/390 732/19/390 733/19/390
f 721/19/391 725/19/391 731/19/391 730/19/391
f 711/9/392 723/9/392 733/9/392 729/9/392
f 725/9/393 715/9/393 727/9/393 731/9/393
f 735/9/394 734/9/394 738/9/394 739/9/394
f 736/9/395 737/9/395 741/9/395 740/9/395
f 731/9/396 727/9/396 735/9/396 739/9/396
f 733/19/397 732/19/397 740/19/397 741/19/397
f 728/9/398 729/9/398 737/9/398 736/9/398
f 729/9/399 733/9/399 741/9/399 737/9/399
f 726/19/400 730/19/400 738/19/400 734/19/400
f 730/19/401 731/19/401 739/19/401 738/19/401
f 743/19/197 832/17/197 753/17/197 751/19/197
f 749/42/198 743/19/198 770/19/198 772/42/198
f 833/43/199 832/17/199 743/19/199 749/42/199
f 849/11/200 746/44/200 748/45/200 850/12/200
f 849/4/201 832/3/201 834/3/201 758/4/201
f 751/19/202 753/17/202 757/17/202 755/19/202
f 794/46/203 796/47/203 881/47/203 882/46/203
f 832/3/204 849/4/204 752/4/204 753/3/204
f 850/10/231 743/9/231 751/9/231 750/10/231
f 755/19/206 757/17/206 777/17/206 775/19/206
f 864/48/207 816/49/207 883/49/207 875/48/207
f 753/3/402 752/4/402 756/4/402 757/3/402
f 750/10/209 751/9/209 755/9/209 754/10/209
f 807/50/210 809/51/210 848/51/210 844/50/210
f 745/52/211 747/53/211 842/53/211 845/52/211
f 746/44/212 849/11/212 758/11/212 760/44/212
f 763/44/213 761/11/213 765/11/213 767/44/213
f 758/4/214 834/3/214 835/3/214 761/4/214
f 760/44/215 758/11/215 761/11/215 763/44/215
f 765/4/216 766/3/216 768/54/216 767/55/216
f 835/17/217 836/43/217 773/43/217 766/17/217
f 761/4/218 835/3/218 766/3/218 765/4/218
f 812/10/219 813/9/219 928/9/219 927/10/219
f 743/9/220 850/10/220 769/10/220 770/9/220
f 748/41/221 749/41/221 772/41/221 771/41/221
f 850/12/222 748/45/222 771/45/222 769/12/222
f 766/17/223 773/43/223 768/43/223
f 775/19/224 777/17/224 781/17/224 779/19/224
f 852/56/225 744/47/225 877/47/225 867/56/225
f 757/3/226 756/4/226 776/4/226 777/3/226
f 754/10/227 755/9/227 775/9/227 774/10/227
f 781/3/228 857/4/228 784/4/228 785/3/228
f 780/57/229 856/58/229 871/58/229 879/57/229
f 777/3/230 776/4/230 857/4/230 781/3/230
f 774/10/231 775/9/231 779/9/231 858/10/231
f 782/1/232 783/2/232 785/3/232 784/4/232
f 858/10/231 779/9/231 783/9/231 782/10/231
f 779/19/233 781/17/233 785/17/233 783/19/233
f 857/11/234 858/12/234 782/12/234 784/11/234
f 789/42/235 787/19/235 791/19/235 793/42/235
f 771/41/403 772/41/403 789/41/403 788/41/403
f 772/42/237 770/19/237 787/19/237 789/42/237
f 826/12/238 788/45/238 920/45/238 922/12/238
f 792/59/239 793/60/239 791/9/239 790/10/239
f 786/12/240 788/45/240 792/45/240 790/12/240
f 787/9/241 786/10/241 790/10/241 791/9/241
f 788/41/242 789/41/242 793/41/242 792/41/242
f 795/19/243 799/19/243 801/17/243 837/17/243
f 749/42/244 772/42/244 813/19/244 795/19/244
f 833/43/245 749/42/245 795/19/245 837/17/245
f 859/11/246 860/12/246 748/45/246 746/44/246
f 859/4/247 806/4/247 838/3/247 837/3/247
f 799/19/248 803/19/248 805/17/248 801/17/248
f 814/61/249 863/62/249 876/62/249 884/61/249
f 837/3/250 801/3/250 800/4/250 859/4/250
f 860/10/205 798/10/205 799/9/205 795/9/205
f 803/19/251 815/19/251 817/17/251 805/17/251
f 742/63/252 851/64/252 868/64/252 878/63/252
f 801/3/253 805/3/253 804/4/253 800/4/253
f 798/10/404 802/10/404 803/9/404 799/9/404
f 764/65/255 762/51/255 846/51/255 843/65/255
f 747/53/256 797/66/256 847/66/256 842/53/256
f 746/44/257 760/44/257 806/11/257 859/11/257
f 763/44/258 767/44/258 810/11/258 808/11/258
f 806/4/259 808/4/259 839/3/259 838/3/259
f 760/44/260 763/44/260 808/11/260 806/11/260
f 810/4/261 767/55/261 768/54/261 811/3/261
f 839/17/262 811/17/262 773/43/262 836/43/262
f 808/4/263 810/4/263 811/3/263 839/3/263
f 826/10/264 812/10/264 927/10/264 929/10/264
f 795/9/265 813/9/265 812/10/265 860/10/265
f 860/12/266 812/12/266 771/45/266 748/45/266
f 811/17/267 768/43/267 773/43/267
f 815/19/268 819/19/268 821/17/268 817/17/268
f 855/67/231 778/68/231 880/68/231 872/67/231
f 805/3/269 817/3/269 865/4/269 804/4/269
f 802/10/270 866/10/270 815/9/270 803/9/270
f 821/3/271 825/3/271 824/4/271 820/4/271
f 865/11/272 820/11/272 818/12/272 866/12/272
f 817/3/273 821/3/273 820/4/273 865/4/273
f 866/10/231 818/10/231 819/9/231 815/9/231
f 822/1/274 824/4/274 825/3/274 823/2/274
f 818/10/231 822/10/231 823/9/231 819/9/231
f 819/19/275 823/19/275 825/17/275 821/17/275
f 820/11/276 824/11/276 822/12/276 818/12/276
f 789/42/277 831/42/277 829/19/277 827/19/277
f 772/42/278 789/42/278 827/19/278 813/19/278
f 769/12/279 771/45/279 918/45/279 917/12/279
f 830/59/280 828/10/280 829/9/280 831/60/280
f 826/12/281 828/12/281 830/45/281 788/45/281
f 827/9/282 829/9/282 828/10/282 826/10/282
f 788/41/283 830/41/283 831/41/283 789/41/283
f 747/53/284 745/52/284 832/17/284 833/43/284
f 745/52/285 759/50/285 834/17/285 832/17/285
f 762/51/286 764/65/286 836/43/286 835/17/286
f 759/50/287 762/51/287 835/17/287 834/17/287
f 797/66/288 747/53/288 833/43/288 837/17/288
f 807/50/289 797/66/289 837/17/289 838/17/289
f 764/65/290 809/51/290 839/17/290 836/43/290
f 809/51/291 807/50/291 838/17/291 839/17/291
f 840/50/292 841/43/292 843/65/292 846/51/292
f 845/52/293 842/53/293 841/43/293 840/50/293
f 844/50/294 848/51/294 843/65/294 841/43/294
f 847/66/295 844/50/295 841/43/295 842/53/295
f 797/66/405 807/50/405 844/50/405 847/66/405
f 762/51/406 759/50/406 840/50/406 846/51/406
f 759/50/298 745/52/298 845/52/298 840/50/298
f 809/51/299 764/65/299 843/65/299 848/51/299
f 742/63/300 744/47/300 849/11/300 850/12/300
f 851/64/301 742/63/301 850/12/301 750/12/301
f 744/47/302 852/56/302 752/11/302 849/11/302
f 853/62/303 851/64/303 750/12/303 754/12/303
f 852/56/304 854/69/304 756/11/304 752/11/304
f 855/67/305 853/62/305 754/12/305 774/12/305
f 854/69/306 856/58/306 776/11/306 756/11/306
f 780/57/307 778/68/307 858/12/307 857/11/307
f 778/68/308 855/67/308 774/12/308 858/12/308
f 856/58/309 780/57/309 857/11/309 776/11/309
f 796/47/407 794/46/407 860/12/407 859/11/407
f 794/46/311 861/64/311 798/12/311 860/12/311
f 862/70/312 796/47/312 859/11/312 800/11/312
f 861/64/313 863/62/313 802/12/313 798/12/313
f 864/48/314 862/70/314 800/11/314 804/11/314
f 814/61/315 816/49/315 865/11/315 866/12/315
f 863/62/316 814/61/316 866/12/316 802/12/316
f 816/49/317 864/48/317 804/11/317 865/11/317
f 873/70/318 874/64/318 892/64/318 891/70/318
f 867/56/319 868/64/319 870/62/319 869/69/319
f 870/62/320 872/67/320 890/67/320 888/62/320
f 871/58/321 872/67/321 880/68/321 879/57/321
f 897/47/322 881/47/322 906/47/322 914/47/322
f 873/70/323 875/48/323 876/62/323 874/64/323
f 872/67/324 871/58/324 889/58/324 890/67/324
f 851/64/325 853/62/325 870/62/325 868/64/325
f 861/64/326 794/46/326 882/46/326 874/64/326
f 854/69/327 852/56/327 867/56/327 869/69/327
f 796/47/328 862/70/328 873/70/328 881/47/328
f 853/62/329 855/67/329 872/67/329 870/62/329
f 863/62/408 861/64/408 874/64/408 876/62/408
f 856/58/409 854/69/409 869/69/409 871/58/409
f 862/70/332 864/48/332 875/48/332 873/70/332
f 778/68/410 780/57/410 879/57/410 880/68/410
f 744/47/333 742/63/333 878/63/333 877/47/333
f 816/49/334 814/61/334 884/61/334 883/49/334
f 895/47/335 896/63/335 886/64/335 885/56/335
f 887/69/336 888/62/336 890/67/336 889/58/336
f 897/47/337 891/70/337 892/64/337 898/46/337
f 893/48/338 899/49/338 900/61/338 894/62/338
f 877/47/339 895/47/339 910/47/339 902/47/339
f 876/62/340 875/48/340 893/48/340 894/62/340
f 877/47/341 878/63/341 896/63/341 895/47/341
f 883/49/334 884/61/334 900/61/334 899/49/334
f 878/63/342 868/64/342 886/64/342 896/63/342
f 884/61/343 876/62/343 894/62/343 900/61/343
f 873/70/344 891/70/344 913/70/344 905/70/344
f 881/47/345 873/70/345 905/70/345 906/47/345
f 868/64/346 867/56/346 885/56/346 886/64/346
f 882/46/347 881/47/347 897/47/347 898/46/347
f 869/69/348 870/62/348 888/62/348 887/69/348
f 874/64/349 882/46/349 898/46/349 892/64/349
f 906/47/350 905/70/350 913/70/350 914/47/350
f 903/58/351 904/69/351 912/69/351 911/58/351
f 901/56/352 902/47/352 910/47/352 909/56/352
f 908/48/353 907/49/353 915/49/353 916/48/353
f 871/58/354 869/69/354 904/69/354 903/58/354
f 891/70/355 897/47/355 914/47/355 913/70/355
f 883/49/356 899/49/356 915/49/356 907/49/356
f 895/47/357 885/56/357 909/56/357 910/47/357
f 869/69/356 887/69/356 912/69/356 904/69/356
f 899/49/358 893/48/358 916/48/358 915/49/358
f 885/56/359 867/56/359 901/56/359 909/56/359
f 867/56/360 877/47/360 902/47/360 901/56/360
f 875/48/361 883/49/361 907/49/361 908/48/361
f 893/48/362 875/48/362 908/48/362 916/48/362
f 889/58/362 871/58/362 903/58/362 911/58/362
f 887/69/363 889/58/363 911/58/363 912/69/363
f 917/12/364 918/45/364 920/45/364 919/12/364
f 921/12/365 922/12/365 920/45/365 918/45/365
f 786/10/366 769/10/366 917/10/366 919/10/366
f 788/45/367 786/12/367 919/12/367 920/45/367
f 771/45/368 812/12/368 921/12/368 918/45/368
f 812/10/369 826/10/369 922/10/369 921/10/369
f 924/9/370 923/10/370 925/10/370 926/9/370
f 928/9/371 930/9/371 929/10/371 927/10/371
f 786/10/372 787/9/372 926/9/372 925/10/372
f 813/19/373 827/19/373 933/19/373 934/19/373
f 932/19/374 770/19/374 941/19/374 945/19/374
f 770/9/375 769/10/375 923/10/375 924/9/375
f 827/9/411 826/10/411 929/10/411 930/9/411
f 769/10/377 786/10/377 925/10/377 923/10/377
f 931/19/378 932/19/378 936/19/378 935/19/378
f 934/19/379 933/19/379 937/19/379 938/19/379
f 928/9/380 813/9/380 939/9/380 940/9/380
f 926/9/381 787/9/381 931/9/381 935/9/381
f 930/9/382 928/9/382 938/9/382 937/9/382
f 827/9/383 930/9/383 937/9/383 933/9/383
f 924/9/384 926/9/384 935/9/384 936/9/384
f 787/19/385 770/19/385 932/19/385 931/19/385
f 945/19/386 941/19/386 949/19/386 953/19/386
f 940/9/387 939/9/387 947/9/387 948/9/387
f 813/19/388 934/19/388 943/19/388 939/19/388
f 770/9/389 924/9/389 942/9/389 941/9/389
f 936/19/390 932/19/390 945/19/390 946/19/390
f 934/19/391 938/19/391 944/19/391 943/19/391
f 924/9/392 936/9/392 946/9/392 942/9/392
f 938/9/393 928/9/393 940/9/393 944/9/393
f 948/9/412 947/9/412 951/9/412 952/9/412
f 949/9/413 950/9/413 954/9/413 953/9/413
f 944/9/396 940/9/396 948/9/396 952/9/396
f 946/19/397 945/19/397 953/19/397 954/19/397
f 941/9/398 942/9/398 950/9/398 949/9/398
f 942/9/399 946/9/399 954/9/399 950/9/399
f 939/19/400 943/19/400 951/19/400 947/19/400
f 943/19/401 944/19/401 952/19/401 951/19/401
f 956/19/197 1045/17/197 966/17/197 964/19/197
f 962/42/198 956/19/198 983/19/198 985/42/198
f 1046/43/199 1045/17/199 956/19/199 962/42/199
f 1062/11/200 959/44/200 961/45/200 1063/12/200
f 1062/4/201 1045/3/201 1047/3/201 971/4/201
f 964/19/202 966/17/202 970/17/202 968/19/202
f 1007/46/203 1009/47/203 1094/47/203 1095/46/203
f 1045/3/204 1062/4/204 965/4/204 966/3/204
f 1063/10/205 956/9/205 964/9/205 963/10/205
f 968/19/206 970/17/206 990/17/206 988/19/206
f 1077/48/207 1029/49/207 1096/49/207 1088/48/207
f 966/3/208 965/4/208 969/4/208 970/3/208
f 963/10/209 964/9/209 968/9/209 967/10/209
f 1020/50/210 1022/51/210 1061/51/210 1057/50/210
f 958/52/211 960/53/211 1055/53/211 1058/52/211
f 959/44/212 1062/11/212 971/11/212 973/44/212
f 976/44/213 974/11/213 978/11/213 980/44/213
f 971/4/214 1047/3/214 1048/3/214 974/4/214
f 973/44/215 971/11/215 974/11/215 976/44/215
f 978/4/216 979/3/216 981/54/216 980/55/216
f 1048/17/217 1049/43/217 986/43/217 979/17/217
f 974/4/218 1048/3/218 979/3/218 978/4/218
f 1025/10/414 1026/9/414 1141/9/414 1140/10/414
f 956/9/220 1063/10/220 982/10/220 983/9/220
f 961/41/221 962/41/221 985/41/221 984/41/221
f 1063/12/222 961/45/222 984/45/222 982/12/222
f 979/17/223 986/43/223 981/43/223
f 988/19/224 990/17/224 994/17/224 992/19/224
f 1065/56/225 957/47/225 1090/47/225 1080/56/225
f 970/3/415 969/4/415 989/4/415 990/3/415
f 967/10/227 968/9/227 988/9/227 987/10/227
f 994/3/228 1070/4/228 997/4/228 998/3/228
f 993/57/229 1069/58/229 1084/58/229 1092/57/229
f 990/3/230 989/4/230 1070/4/230 994/3/230
f 987/10/231 988/9/231 992/9/231 1071/10/231
f 995/1/232 996/2/232 998/3/232 997/4/232
f 1071/10/231 992/9/231 996/9/231 995/10/231
f 992/19/233 994/17/233 998/17/233 996/19/233
f 1070/11/234 1071/12/234 995/12/234 997/11/234
f 1002/42/235 1000/19/235 1004/19/235 1006/42/235
f 984/41/236 985/41/236 1002/41/236 1001/41/236
f 985/42/237 983/19/237 1000/19/237 1002/42/237
f 1039/12/238 1001/45/238 1133/45/238 1135/12/238
f 1005/59/239 1006/60/239 1004/9/239 1003/10/239
f 999/12/240 1001/45/240 1005/45/240 1003/12/240
f 1000/9/241 999/10/241 1003/10/241 1004/9/241
f 1001/41/242 1002/41/242 1006/41/242 1005/41/242
f 1008/19/243 1012/19/243 1014/17/243 1050/17/243
f 962/42/244 985/42/244 1026/19/244 1008/19/244
f 1046/43/245 962/42/245 1008/19/245 1050/17/245
f 1072/11/246 1073/12/246 961/45/246 959/44/246
f 1072/4/247 1019/4/247 1051/3/247 1050/3/247
f 1012/19/248 1016/19/248 1018/17/248 1014/17/248
f 1027/61/249 1076/62/249 1089/62/249 1097/61/249
f 1050/3/250 1014/3/250 1013/4/250 1072/4/250
f 1073/10/205 1011/10/205 1012/9/205 1008/9/205
f 1016/19/251 1028/19/251 1030/17/251 1018/17/251
f 955/63/252 1064/64/252 1081/64/252 1091/63/252
f 1014/3/253 1018/3/253 1017/4/253 1013/4/253
f 1011/10/254 1015/10/254 1016/9/254 1012/9/254
f 977/65/255 975/51/255 1059/51/255 1056/65/255
f 960/53/256 1010/66/256 1060/66/256 1055/53/256
f 959/44/257 973/44/257 1019/11/257 1072/11/257
f 976/44/258 980/44/258 1023/11/258 1021/11/258
f 1019/4/416 1021/4/416 1052/3/416 1051/3/416
f 973/44/260 976/44/260 1021/11/260 1019/11/260
f 1023/4/261 980/55/261 981/54/261 1024/3/261
f 1052/17/262 1024/17/262 986/43/262 1049/43/262
f 1021/4/263 1023/4/263 1024/3/263 1052/3/263
f 1039/10/264 1025/10/264 1140/10/264 1142/10/264
f 1008/9/265 1026/9/265 1025/10/265 1073/10/265
f 1073/12/266 1025/12/266 984/45/266 961/45/266
f 1024/17/267 981/43/267 986/43/267
f 1028/19/268 1032/19/268 1034/17/268 1030/17/268
f 1068/67/231 991/68/231 1093/68/231 1085/67/231
f 1018/3/269 1030/3/269 1078/4/269 1017/4/269
f 1015/10/270 1079/10/270 1028/9/270 1016/9/270
f 1034/3/271 1038/3/271 1037/4/271 1033/4/271
f 1078/11/272 1033/11/272 1031/12/272 1079/12/272
f 1030/3/273 1034/3/273 1033/4/273 1078/4/273
f 1079/10/231 1031/10/231 1032/9/231 1028/9/231
f 1035/1/274 1037/4/274 1038/3/274 1036/2/274
f 1031/10/231 1035/10/231 1036/9/231 1032/9/231
f 1032/19/275 1036/19/275 1038/17/275 1034/17/275
f 1033/11/276 1037/11/276 1035/12/276 1031/12/276
f 1002/42/277 1044/42/277 1042/19/277 1040/19/277
f 985/42/278 1002/42/278 1040/19/278 1026/19/278
f 982/12/279 984/45/279 1131/45/279 1130/12/279
f 1043/59/280 1041/10/280 1042/9/280 1044/60/280
f 1039/12/281 1041/12/281 1043/45/281 1001/45/281
f 1040/9/282 1042/9/282 1041/10/282 1039/10/282
f 1001/41/283 1043/41/283 1044/41/283 1002/41/283
f 960/53/284 958/52/284 1045/17/284 1046/43/284
f 958/52/285 972/50/285 1047/17/285 1045/17/285
f 975/51/286 977/65/286 1049/43/286 1048/17/286
f 972/50/287 975/51/287 1048/17/287 1047/17/287
f 1010/66/288 960/53/288 1046/43/288 1050/17/288
f 1020/50/289 1010/66/289 1050/17/289 1051/17/289
f 977/65/290 1022/51/290 1052/17/290 1049/43/290
f 1022/51/291 1020/50/291 1051/17/291 1052/17/291
f 1053/50/292 1054/43/292 1056/65/292 1059/51/292
f 1058/52/293 1055/53/293 1054/43/293 1053/50/293
f 1057/50/294 1061/51/294 1056/65/294 1054/43/294
f 1060/66/295 1057/50/295 1054/43/295 1055/53/295
f 1010/66/296 1020/50/296 1057/50/296 1060/66/296
f 975/51/417 972/50/417 1053/50/417 1059/51/417
f 972/50/418 958/52/418 1058/52/418 1053/50/418
f 1022/51/299 977/65/299 1056/65/299 1061/51/299
f 955/63/300 957/47/300 1062/11/300 1063/12/300
f 1064/64/301 955/63/301 1063/12/301 963/12/301
f 957/47/302 1065/56/302 965/11/302 1062/11/302
f 1066/62/303 1064/64/303 963/12/303 967/12/303
f 1065/56/304 1067/69/304 969/11/304 965/11/304
f 1068/67/305 1066/62/305 967/12/305 987/12/305
f 1067/69/306 1069/58/306 989/11/306 969/11/306
f 993/57/307 991/68/307 1071/12/307 1070/11/307
f 991/68/308 1068/67/308 987/12/308 1071/12/308
f 1069/58/309 993/57/309 1070/11/309 989/11/309
f 1009/47/407 1007/46/407 1073/12/407 1072/11/407
f 1007/46/311 1074/64/311 1011/12/311 1073/12/311
f 1075/70/312 1009/47/312 1072/11/312 1013/11/312
f 1074/64/313 1076/62/313 1015/12/313 1011/12/313
f 1077/48/314 1075/70/314 1013/11/314 1017/11/314
f 1027/61/315 1029/49/315 1078/11/315 1079/12/315
f 1076/62/316 1027/61/316 1079/12/316 1015/12/316
f 1029/49/317 1077/48/317 1017/11/317 1078/11/317
f 1086/70/318 1087/64/318 1105/64/318 1104/70/318
f 1080/56/319 1081/64/319 1083/62/319 1082/69/319
f 1083/62/320 1085/67/320 1103/67/320 1101/62/320
f 1084/58/321 1085/67/321 1093/68/321 1092/57/321
f 1110/47/322 1094/47/322 1119/47/322 1127/47/322
f 1086/70/323 1088/48/323 1089/62/323 1087/64/323
f 1085/67/419 1084/58/419 1102/58/419 1103/67/419
f 1064/64/420 1066/62/420 1083/62/420 1081/64/420
f 1074/64/421 1007/46/421 1095/46/421 1087/64/421
f 1067/69/422 1065/56/422 1080/56/422 1082/69/422
f 1009/47/328 1075/70/328 1086/70/328 1094/47/328
f 1066/62/329 1068/67/329 1085/67/329 1083/62/329
f 1076/62/408 1074/64/408 1087/64/408 1089/62/408
f 1069/58/331 1067/69/331 1082/69/331 1084/58/331
f 1075/70/332 1077/48/332 1088/48/332 1086/70/332
f 991/68/410 993/57/410 1092/57/410 1093/68/410
f 957/47/423 955/63/423 1091/63/423 1090/47/423
f 1029/49/334 1027/61/334 1097/61/334 1096/49/334
f 1108/47/335 1109/63/335 1099/64/335 1098/56/335
f 1100/69/336 1101/62/336 1103/67/336 1102/58/336
f 1110/47/337 1104/70/337 1105/64/337 1111/46/337
f 1106/48/338 1112/49/338 1113/61/338 1107/62/338
f 1090/47/339 1108/47/339 1123/47/339 1115/47/339
f 1089/62/340 1088/48/340 1106/48/340 1107/62/340
f 1090/47/341 1091/63/341 1109/63/341 1108/47/341
f 1096/49/334 1097/61/334 1113/61/334 1112/49/334
f 1091/63/342 1081/64/342 1099/64/342 1109/63/342
f 1097/61/343 1089/62/343 1107/62/343 1113/61/343
f 1086/70/344 1104/70/344 1126/70/344 1118/70/344
f 1094/47/345 1086/70/345 1118/70/345 1119/47/345
f 1081/64/346 1080/56/346 1098/56/346 1099/64/346
f 1095/46/347 1094/47/347 1110/47/347 1111/46/347
f 1082/69/348 1083/62/348 1101/62/348 1100/69/348
f 1087/64/349 1095/46/349 1111/46/349 1105/64/349
f 1119/47/350 1118/70/350 1126/70/350 1127/47/350
f 1116/58/351 1117/69/351 1125/69/351 1124/58/351
f 1114/56/352 1115/47/352 1123/47/352 1122/56/352
f 1121/48/353 1120/49/353 1128/49/353 1129/48/353
f 1084/58/354 1082/69/354 1117/69/354 1116/58/354
f 1104/70/355 1110/47/355 1127/47/355 1126/70/355
f 1096/49/356 1112/49/356 1128/49/356 1120/49/356
f 1108/47/357 1098/56/357 1122/56/357 1123/47/357
f 1082/69/356 1100/69/356 1125/69/356 1117/69/356
f 1112/49/358 1106/48/358 1129/48/358 1128/49/358
f 1098/56/359 1080/56/359 1114/56/359 1122/56/359
f 1080/56/360 1090/47/360 1115/47/360 1114/56/360
f 1088/48/361 1096/49/361 1120/49/361 1121/48/361
f 1106/48/362 1088/48/362 1121/48/362 1129/48/362
f 1102/58/362 1084/58/362 1116/58/362 1124/58/362
f 1100/69/363 1102/58/363 1124/58/363 1125/69/363
f 1130/12/364 1131/45/364 1133/45/364 1132/12/364
f 1134/12/365 1135/12/365 1133/45/365 1131/45/365
f 999/10/366 982/10/366 1130/10/366 1132/10/366
f 1001/45/367 999/12/367 1132/12/367 1133/45/367
f 984/45/368 1025/12/368 1134/12/368 1131/45/368
f 1025/10/369 1039/10/369 1135/10/369 1134/10/369
f 1137/9/424 1136/10/424 1138/10/424 1139/9/424
f 1141/9/425 1143/9/425 1142/10/425 1140/10/425
f 999/10/372 1000/9/372 1139/9/372 1138/10/372
f 1026/19/426 1040/19/426 1146/19/426 1147/19/426
f 1145/19/374 983/19/374 1154/19/374 1158/19/374
f 983/9/375 982/10/375 1136/10/375 1137/9/375
f 1040/9/427 1039/10/427 1142/10/427 1143/9/427
f 982/10/377 999/10/377 1138/10/377 1136/10/377
f 1144/19/378 1145/19/378 1149/19/378 1148/19/378
f 1147/19/379 1146/19/379 1150/19/379 1151/19/379
f 1141/9/380 1026/9/380 1152/9/380 1153/9/380
f 1139/9/381 1000/9/381 1144/9/381 1148/9/381
f 1143/9/382 1141/9/382 1151/9/382 1150/9/382
f 1040/9/428 1143/9/428 1150/9/428 1146/9/428
f 1137/9/384 1139/9/384 1148/9/384 1149/9/384
f 1000/19/385 983/19/385 1145/19/385 1144/19/385
f 1158/19/386 1154/19/386 1162/19/386 1166/19/386
f 1153/9/387 1152/9/387 1160/9/387 1161/9/387
f 1026/19/388 1147/19/388 1156/19/388 1152/19/388
f 983/9/389 1137/9/389 1155/9/389 1154/9/389
f 1149/19/390 1145/19/390 1158/19/390 1159/19/390
f 1147/19/391 1151/19/391 1157/19/391 1156/19/391
f 1137/9/392 1149/9/392 1159/9/392 1155/9/392
f 1151/9/393 1141/9/393 1153/9/393 1157/9/393
f 1161/9/412 1160/9/412 1164/9/412 1165/9/412
f 1162/9/413 1163/9/413 1167/9/413 1166/9/413
f 1157/9/396 1153/9/396 1161/9/396 1165/9/396
f 1159/19/397 1158/19/397 1166/19/397 1167/19/397
f 1154/9/398 1155/9/398 1163/9/398 1162/9/398
f 1155/9/399 1159/9/399 1167/9/399 1163/9/399
f 1152/19/400 1156/19/400 1164/19/400 1160/19/400
f 1156/19/401 1157/19/401 1165/19/401 1164/19/401
