# Blender 4.5.4 LTS
# www.blender.org
mtllib Destroyer.mtl
o Destroyer
v 0.531605 -0.090387 6.214137
v 0.531605 -0.090387 7.136600
v -0.545593 -0.090387 7.136600
v -0.545595 -0.090387 6.214137
v 0.348829 0.547492 6.214137
v -0.362818 0.547492 6.214137
v 0.348830 0.660325 6.672681
v 0.531605 0.013731 7.136600
v 0.459965 0.557074 6.904642
v 0.531605 0.327430 7.012994
v -0.545593 0.013731 7.136600
v -0.362818 0.660325 6.672681
v -0.545593 0.327430 7.012994
v -0.473953 0.557074 6.904642
v 0.802354 -0.257353 -5.008470
v 0.798399 -0.761099 -5.017014
v 0.718694 -0.263391 -5.326593
v 0.672386 -0.761960 -5.326855
v 0.614407 -1.076679 -4.993502
v 0.490217 -1.076804 -5.318841
v 0.860701 -0.253075 -4.734745
v 0.857815 -0.760632 -4.734632
v 0.669249 -1.077175 -4.730108
v 0.632662 -0.264215 -5.523340
v 0.574648 -0.761433 -5.522237
v 0.399592 -1.076030 -5.509502
v 0.453474 -0.262238 -5.786203
v 0.473200 -0.764266 -5.741335
v 0.321409 -1.070312 -5.667769
v 0.003139 -0.241793 -6.272416
v 0.003138 -0.750231 -6.194920
v 0.003138 -1.075955 -5.935054
v 1.032795 -0.251238 -4.135599
v 0.953551 -0.763690 -4.134365
v 0.714995 -1.077292 -4.130560
v 1.156725 -0.256504 -3.652526
v 1.067859 -0.764479 -3.651604
v 0.784018 -1.078318 -3.648316
v 1.261583 -0.335745 -3.058709
v 1.148999 -0.758992 -3.058552
v 0.893316 -1.119442 -3.056203
v 1.355864 -0.388851 -2.469386
v 1.202930 -0.730482 -2.471264
v 0.996003 -1.181478 -2.471033
v 1.369102 -0.461875 -1.472338
v 1.064209 -1.135168 -1.473780
v 1.218198 -0.439729 2.427837
v 0.902611 -1.077940 2.428347
v 1.025999 -0.443105 7.668945
v 0.790811 -1.081916 7.661101
v 0.003139 -0.415421 7.668170
v 0.003139 -1.083956 7.642735
v 0.003139 -1.082461 2.456730
v 0.003139 -1.161011 -1.476453
v 0.003139 -1.156909 -2.473746
v 0.003138 -1.084780 -4.155225
v 0.003139 -1.124370 -3.077563
v 0.003139 -1.082986 -3.663089
v 0.003138 -1.085686 -4.721968
v 0.003138 -1.084053 -5.003945
v 0.003138 -1.087436 -5.356436
v 0.003138 -1.094932 -5.525852
v 0.003138 -1.100190 -5.679948
v -0.796078 -0.257354 -5.008469
v -0.792124 -0.761099 -5.017013
v -0.712418 -0.263391 -5.326594
v -0.666111 -0.761960 -5.326855
v -0.608131 -1.076679 -4.993502
v -0.483942 -1.076804 -5.318841
v -0.854425 -0.253076 -4.734745
v -0.851540 -0.760632 -4.734632
v -0.662973 -1.077175 -4.730108
v -0.626387 -0.264215 -5.523341
v -0.568373 -0.761433 -5.522237
v -0.393316 -1.076030 -5.509503
v -0.447199 -0.262238 -5.786204
v -0.466925 -0.764266 -5.741335
v -0.315133 -1.070312 -5.667769
v -1.026520 -0.251238 -4.135598
v -0.947277 -0.763690 -4.134364
v -0.708719 -1.077292 -4.130561
v -1.150446 -0.256504 -3.652526
v -1.061579 -0.764479 -3.651603
v -0.777739 -1.078318 -3.648316
v -1.255304 -0.335745 -3.058709
v -1.142719 -0.758993 -3.058551
v -0.887037 -1.119441 -3.056203
v -1.349585 -0.388851 -2.469385
v -1.196650 -0.730482 -2.471264
v -0.989723 -1.181478 -2.471033
v -1.362825 -0.461875 -1.472338
v -1.057930 -1.135169 -1.473781
v -1.211920 -0.439729 2.427837
v -0.896332 -1.077940 2.428347
v -1.019722 -0.443105 7.668946
v -0.784533 -1.081916 7.661102
v 0.691305 -0.254159 -4.990508
v 0.688332 -0.740394 -4.998525
v 0.610765 -0.254159 -5.300812
v 0.566148 -0.740394 -5.300812
v 0.539976 -0.991069 -4.980202
v 0.417792 -0.991069 -5.300813
v 0.748293 -0.254159 -4.723088
v 0.745090 -0.740394 -4.723358
v 0.596735 -0.991069 -4.722741
v 0.528215 -0.254159 -5.490470
v 0.471105 -0.740394 -5.490470
v 0.328063 -0.991069 -5.490470
v 0.355730 -0.254159 -5.741418
v 0.376835 -0.740394 -5.697438
v 0.251050 -0.991069 -5.636904
v 0.003138 -0.218629 -6.129406
v 0.003138 -0.701373 -6.069545
v 0.003138 -0.988241 -5.867311
v 0.907230 -0.254314 -4.127130
v 0.839864 -0.740394 -4.127827
v 0.646683 -0.991069 -4.127210
v 1.023600 -0.254068 -3.647292
v 0.944540 -0.740394 -3.647756
v 0.715212 -0.991069 -3.647139
v 1.123581 -0.323010 -3.054835
v 1.055238 -0.725350 -3.055185
v 0.816731 -1.017741 -3.054465
v 1.206524 -0.375871 -2.469033
v 1.202367 -0.692441 -2.469425
v 0.932960 -1.056786 -2.468528
v 1.212470 -0.439078 -1.474610
v 1.083855 -1.017198 -1.473755
v 1.085961 -0.412848 2.426973
v 0.904161 -0.991069 2.427590
v 0.914831 -0.412848 7.580400
v 0.758917 -0.991069 7.581017
v 0.003139 -0.412848 7.580400
v 0.003139 -0.996548 7.557040
v 0.003139 -0.994662 2.456560
v 0.003139 -1.039437 -1.476269
v 0.003139 -1.041114 -2.473242
v 0.003138 -0.996983 -4.155309
v 0.003139 -1.021965 -3.077503
v 0.003139 -0.995192 -3.663187
v 0.003138 -0.997887 -4.721797
v 0.003138 -0.996250 -5.003901
v 0.003138 -0.999606 -5.357217
v 0.003138 -1.006964 -5.526275
v 0.003138 -1.011939 -5.673819
v -0.685030 -0.254159 -4.990509
v -0.682056 -0.740394 -4.998526
v -0.604488 -0.254159 -5.300813
v -0.559872 -0.740394 -5.300813
v -0.533701 -0.991069 -4.980202
v -0.411516 -0.991069 -5.300813
v -0.742018 -0.254159 -4.723088
v -0.738815 -0.740394 -4.723358
v -0.590460 -0.991069 -4.722741
v -0.521940 -0.254159 -5.490470
v -0.464828 -0.740394 -5.490470
v -0.321788 -0.991069 -5.490470
v -0.349455 -0.254159 -5.741419
v -0.370560 -0.740394 -5.697439
v -0.244775 -0.991069 -5.636904
v -0.900955 -0.254314 -4.127130
v -0.833590 -0.740394 -4.127827
v -0.640408 -0.991069 -4.127210
v -1.017321 -0.254068 -3.647291
v -0.938261 -0.740394 -3.647756
v -0.708933 -0.991069 -3.647139
v -1.117302 -0.323010 -3.054835
v -1.048958 -0.725350 -3.055184
v -0.810452 -1.017741 -3.054465
v -1.200245 -0.375872 -2.469032
v -1.196087 -0.692441 -2.469424
v -0.926680 -1.056787 -2.468528
v -1.206192 -0.439078 -1.474610
v -1.077576 -1.017198 -1.473756
v -1.079683 -0.412848 2.426973
v -0.897884 -0.991069 2.427590
v -0.908552 -0.412848 7.580400
v -0.752640 -0.991069 7.581017
v -0.268219 -0.344796 -1.837457
v -0.268219 -0.344796 -2.545789
v 0.370403 -0.344796 -2.545789
v 0.370403 -0.344796 -1.837457
v -0.577812 -0.359441 -1.733450
v -0.577812 -0.359441 -2.665175
v 0.679996 -0.359441 -2.665175
v 0.679996 -0.359441 -1.733451
v -0.364393 0.055193 -1.733450
v 0.466576 0.055193 -1.733451
v -0.364393 0.128536 -2.196599
v -0.577812 -0.291761 -2.665175
v -0.494160 0.061420 -2.430887
v -0.577812 -0.087852 -2.540325
v 0.679996 -0.291761 -2.665175
v 0.466577 0.128536 -2.196599
v 0.679996 -0.087852 -2.540325
v 0.596344 0.061420 -2.430886
v 0.358746 0.013305 -3.182787
v 0.347453 -0.214979 -2.462398
v 0.358746 0.046592 -3.177818
v 0.347453 -0.169279 -2.455574
v 0.480518 0.013305 -3.182787
v 0.491811 -0.214979 -2.462398
v 0.480518 0.046592 -3.177818
v 0.491811 -0.169279 -2.455575
v 0.419632 0.092712 -3.170932
v 0.419632 -0.115925 -2.447608
v 0.419632 -0.032816 -3.189675
v 0.419632 -0.268333 -2.470364
v 0.347453 0.052798 -3.176891
v 0.347453 0.007098 -3.183714
v 0.419632 0.106153 -3.168925
v 0.491811 0.007098 -3.183714
v 0.491811 0.052798 -3.176891
v 0.419632 -0.046256 -3.191681
v 0.419632 -0.117649 -2.487668
v 0.419632 -0.243177 -2.506410
v 0.358746 -0.163770 -2.494553
v 0.358746 -0.197057 -2.499525
v 0.480519 -0.197057 -2.499524
v 0.480519 -0.163770 -2.494554
v -0.012641 0.013305 -3.182787
v -0.023933 -0.214979 -2.462398
v -0.012641 0.046592 -3.177818
v -0.023933 -0.169279 -2.455574
v 0.109133 0.013305 -3.182787
v 0.120425 -0.214979 -2.462398
v 0.109133 0.046592 -3.177818
v 0.120425 -0.169279 -2.455574
v 0.048246 0.092712 -3.170932
v 0.048245 -0.115925 -2.447608
v 0.048246 -0.032816 -3.189675
v 0.048245 -0.268333 -2.470364
v -0.023932 0.052798 -3.176891
v -0.023932 0.007098 -3.183714
v 0.048246 0.106153 -3.168925
v 0.120424 0.007098 -3.183714
v 0.120424 0.052798 -3.176891
v 0.048246 -0.046256 -3.191681
v 0.048245 -0.117649 -2.487667
v 0.048245 -0.243177 -2.506410
v -0.012641 -0.163770 -2.494553
v -0.012641 -0.197057 -2.499525
v 0.109133 -0.197057 -2.499524
v 0.109133 -0.163770 -2.494553
v -0.416536 0.013305 -3.182787
v -0.427828 -0.214979 -2.462398
v -0.416536 0.046592 -3.177818
v -0.427828 -0.169279 -2.455574
v -0.294763 0.013305 -3.182787
v -0.283471 -0.214979 -2.462398
v -0.294763 0.046592 -3.177818
v -0.283471 -0.169279 -2.455574
v -0.355650 0.092712 -3.170932
v -0.355650 -0.115925 -2.447608
v -0.355650 -0.032816 -3.189675
v -0.355650 -0.268333 -2.470364
v -0.427830 0.052798 -3.176891
v -0.427830 0.007098 -3.183714
v -0.355650 0.106153 -3.168925
v -0.283471 0.007098 -3.183714
v -0.283471 0.052798 -3.176891
v -0.355650 -0.046256 -3.191681
v -0.355650 -0.117649 -2.487667
v -0.355650 -0.243177 -2.506410
v -0.416536 -0.163770 -2.494553
v -0.416536 -0.197057 -2.499524
v -0.294764 -0.197057 -2.499524
v -0.294764 -0.163770 -2.494553
v 0.767989 -1.022002 6.079530
v 0.452189 -0.410429 6.317110
v 0.767990 -1.022002 7.255980
v 0.452189 -0.410429 7.018402
v -0.795801 -1.022002 6.079531
v -0.480000 -0.410429 6.317110
v -0.795799 -1.022002 7.255980
v -0.480000 -0.410429 7.018402
v 0.767989 -0.410429 6.079530
v 0.767990 -0.410429 7.255980
v -0.795799 -0.410429 7.255980
v -0.795801 -0.410429 6.079531
v 0.452189 -0.067859 6.317110
v 0.452189 -0.067859 7.018402
v -0.480000 -0.067859 7.018402
v -0.480000 -0.067859 6.317110
v -0.151447 0.288954 7.910099
v -0.138751 0.279216 6.885767
v -0.151447 0.329299 7.910056
v -0.138751 0.334606 6.885708
v -0.288376 0.288954 7.910099
v -0.301073 0.279216 6.885767
v -0.288376 0.329299 7.910056
v -0.301073 0.334606 6.885708
v -0.219912 0.385199 7.909998
v -0.219912 0.399273 6.885639
v -0.219912 0.233055 7.910159
v -0.219912 0.214549 6.885835
v -0.138751 0.336822 7.910048
v -0.138751 0.281432 7.910107
v -0.219912 0.401489 7.909981
v -0.301073 0.281432 7.910107
v -0.301073 0.336822 7.910048
v -0.219912 0.216764 7.910176
v -0.219912 0.383100 6.925366
v -0.219912 0.230956 6.925527
v -0.151449 0.327201 6.925426
v -0.151449 0.286856 6.925467
v -0.288377 0.286856 6.925467
v -0.288377 0.327201 6.925426
v 0.266156 0.288954 7.910099
v 0.278852 0.279216 6.885766
v 0.266156 0.329299 7.910056
v 0.278852 0.334606 6.885708
v 0.129228 0.288954 7.910099
v 0.116531 0.279216 6.885767
v 0.129228 0.329299 7.910056
v 0.116531 0.334606 6.885708
v 0.197693 0.385199 7.909998
v 0.197691 0.399273 6.885639
v 0.197693 0.233055 7.910159
v 0.197691 0.214549 6.885835
v 0.278853 0.336822 7.910048
v 0.278853 0.281432 7.910107
v 0.197693 0.401489 7.909981
v 0.116531 0.281432 7.910107
v 0.116531 0.336822 7.910048
v 0.197693 0.216764 7.910176
v 0.197691 0.383100 6.925366
v 0.197691 0.230956 6.925527
v 0.266155 0.327201 6.925425
v 0.266155 0.286856 6.925467
v 0.129228 0.286856 6.925467
v 0.129228 0.327201 6.925426
v 1.263469 -0.459852 0.477235
v 0.962007 -1.098018 0.476937
v 0.003139 -1.111011 0.122074
v -1.257189 -0.459852 0.477234
v -0.955727 -1.098018 0.476937
v 1.122169 -0.435565 0.475831
v 0.972903 -1.001600 0.476523
v 0.003139 -1.012614 0.122053
v -1.115889 -0.435565 0.475831
v -0.966623 -1.001600 0.476522
v 1.185722 -0.441417 4.630822
v 0.894047 -1.079927 4.657000
v 0.003139 -1.083208 4.726625
v -1.179445 -0.441417 4.630822
v -0.887770 -1.079928 4.656999
v 1.057096 -0.412848 4.575377
v 0.878698 -0.991069 4.579129
v 0.003139 -0.995605 4.622205
v -1.050819 -0.412848 4.575377
v -0.872421 -0.991069 4.579127
v 1.083855 -0.980813 -1.473755
v 0.904161 -0.954683 2.427590
v 0.003139 -0.958278 2.456560
v 0.003139 -1.003053 -1.476269
v -1.077576 -0.980813 -1.473756
v -0.897884 -0.954684 2.427590
v 0.972903 -0.965215 0.476523
v 0.003139 -0.976229 0.122053
v -0.966623 -0.965215 0.476522
v 0.972903 -0.359336 0.476523
v 1.083855 -0.374934 -1.473755
v 0.768847 -0.980813 -3.335698
v 0.904161 -0.348804 2.427590
v 0.003139 -1.003053 -3.338212
v 0.003139 -0.397174 -1.476269
v -0.966623 -0.359336 0.476522
v -1.077576 -0.374934 -1.473756
v -0.897884 -0.348805 2.427590
v 0.003139 -0.958278 5.885891
v 0.759216 -0.954683 5.856921
v -0.752937 -0.954684 5.856920
v 0.003139 -0.352399 5.885891
v 0.759216 -0.348804 5.856921
v -0.752937 -0.348805 5.856920
v 0.858567 -0.118537 0.617517
v 1.083855 -0.134267 -1.292328
v 0.003139 -0.111732 2.456560
v 0.794597 -0.108575 2.431113
v 0.003139 -0.128411 0.261254
v 0.003139 -0.156507 -1.294842
v -0.852287 -0.118537 0.617517
v -1.077578 -0.134267 -1.292328
v -0.788319 -0.108575 2.431113
v 0.003139 -0.111732 5.885891
v 0.655518 -0.108601 5.721638
v -0.649239 -0.108601 5.721637
v -0.762568 -0.980813 -3.335698
v 0.003139 -0.397174 -3.338212
v 0.768847 -0.374934 -3.335698
v -0.762568 -0.374934 -3.335698
v 0.003139 -1.003053 -4.433152
v 0.540179 -0.980813 -4.430638
v -0.533899 -0.980813 -4.430639
v 0.003139 -0.270822 -4.433152
v 0.540179 -0.248582 -4.430638
v -0.533899 -0.248582 -4.430639
v 0.003140 -1.003053 -5.454103
v 0.355212 -0.980813 -5.451589
v -0.348931 -0.980813 -5.451589
v 0.003140 -0.270822 -5.454103
v 0.355212 -0.248582 -5.451589
v -0.348931 -0.248582 -5.451589
v -0.294749 -0.248722 -4.510201
v -0.294750 -0.248722 -5.206623
v 0.339329 -0.248722 -5.206623
v 0.339330 -0.248722 -4.510201
v -0.187161 0.040022 -4.510201
v 0.231741 0.040022 -4.510201
v -0.187161 0.091098 -4.856383
v -0.294750 -0.201591 -5.206623
v -0.252580 0.044359 -5.031504
v -0.294750 -0.059592 -5.113305
v 0.339329 -0.201591 -5.206623
v 0.231741 0.091098 -4.856383
v 0.339329 -0.059592 -5.113305
v 0.297158 0.044359 -5.031504
v -0.248003 -0.238524 -4.587941
v -0.248003 -0.238524 -5.117389
v 0.300718 -0.238524 -5.117389
v 0.300718 -0.238524 -4.587941
v 0.107320 -0.077008 -5.790584
v 0.099847 -0.081416 -5.017255
v 0.107320 -0.058745 -5.790552
v 0.099847 -0.056344 -5.017210
v 0.187921 -0.077008 -5.790584
v 0.195395 -0.081416 -5.017255
v 0.187921 -0.058745 -5.790552
v 0.195395 -0.056344 -5.017210
v 0.147620 -0.033442 -5.790507
v 0.147620 -0.027071 -5.017159
v 0.147620 -0.102312 -5.790629
v 0.147620 -0.110689 -5.017306
v 0.099846 -0.055341 -5.790545
v 0.099846 -0.080413 -5.790589
v 0.147620 -0.026068 -5.790494
v 0.195395 -0.080414 -5.790589
v 0.195395 -0.055341 -5.790545
v 0.147620 -0.109686 -5.790642
v 0.147620 -0.034392 -5.047151
v 0.147620 -0.103262 -5.047273
v 0.107321 -0.059695 -5.047195
v 0.107321 -0.077958 -5.047228
v 0.187922 -0.077958 -5.047228
v 0.187922 -0.059695 -5.047195
v -0.138497 -0.077008 -5.790584
v -0.145970 -0.081416 -5.017255
v -0.138497 -0.058745 -5.790552
v -0.145970 -0.056344 -5.017210
v -0.057896 -0.077008 -5.790584
v -0.050422 -0.081416 -5.017255
v -0.057896 -0.058745 -5.790552
v -0.050422 -0.056344 -5.017210
v -0.098197 -0.033442 -5.790507
v -0.098196 -0.027071 -5.017159
v -0.098197 -0.102312 -5.790629
v -0.098196 -0.110689 -5.017306
v -0.145971 -0.055341 -5.790545
v -0.145971 -0.080413 -5.790589
v -0.098197 -0.026068 -5.790494
v -0.050423 -0.080413 -5.790589
v -0.050423 -0.055341 -5.790545
v -0.098197 -0.109686 -5.790642
v -0.098196 -0.034392 -5.047151
v -0.098196 -0.103262 -5.047273
v -0.138496 -0.059695 -5.047195
v -0.138496 -0.077958 -5.047228
v -0.057896 -0.077958 -5.047228
v -0.057896 -0.059695 -5.047195
v 0.904161 -0.108138 2.427590
v 0.972903 -0.118670 0.476523
v -0.897884 -0.108138 2.427590
v -0.966623 -0.118670 0.476522
v 0.003139 -0.129683 0.122053
v 0.003139 -0.111732 5.746634
v 0.759216 -0.108138 5.856921
v -0.752937 -0.108138 5.856920
v 0.794597 0.655749 2.431113
v -0.788319 0.655749 2.431113
v 0.003139 0.635913 0.261254
v 0.726583 0.645707 0.733781
v -0.720304 0.645707 0.733781
v 0.003139 -0.111732 4.244405
v 0.735712 -0.108575 4.218958
v -0.729433 -0.108575 4.218957
v 0.003139 0.652593 4.081586
v 0.613068 0.655231 4.060400
v -0.606789 0.655231 4.060400
v 0.666568 0.655239 2.435229
v 0.858567 0.645788 0.617517
v -0.660290 0.655239 2.435229
v -0.852287 0.645788 0.617517
v 0.003139 0.637214 0.432487
v 0.003139 0.652593 4.244405
v 0.735712 0.655749 4.218958
v -0.729433 0.655749 4.218957
v -1.174152 1.115508 0.336197
v 0.666568 0.930721 2.435229
v -0.660290 0.930721 2.435229
v 0.003139 0.912696 0.432487
v 0.003139 0.928075 4.081586
v 0.726583 0.921189 0.733781
v -0.720304 0.921189 0.733781
v 0.613068 0.930713 4.060400
v -0.606789 0.930713 4.060400
v 0.666568 1.125040 2.435229
v -0.660290 1.125040 2.435229
v 0.003139 1.107015 0.432487
v 0.003139 1.122394 4.081586
v 0.726583 1.115508 0.733781
v -0.720304 1.115508 0.733781
v 0.613068 1.125031 4.060400
v -0.606789 1.125031 4.060400
v -1.172529 0.921189 0.333205
v -1.210562 0.930721 2.465683
v -1.210562 1.125040 2.465680
v 1.180432 1.115508 0.336198
v 1.178808 0.921189 0.333206
v 0.003139 0.912696 -0.269215
v 0.003139 1.107015 -0.269215
v 1.216841 0.930721 2.465683
v 0.003139 0.928075 4.783287
v 0.999375 0.930713 4.560572
v -0.993097 0.930713 4.560571
v 1.216841 1.125040 2.465680
v 0.003139 1.122394 4.783287
v 0.999967 1.125031 4.559829
v -0.993689 1.125031 4.559829
v 0.003139 1.292587 2.456560
v 0.666568 1.295234 2.435229
v -0.660290 1.295234 2.435229
v 0.003139 1.277208 0.432487
v 0.003139 1.292587 4.081586
v 0.726583 1.285702 0.733781
v -0.720304 1.285702 0.733781
v 0.613068 1.295225 4.060400
v -0.606789 1.295225 4.060400
v 0.251781 -0.579284 1.318158
v 0.251781 -0.579284 2.014581
v -0.303120 -0.579284 2.014581
v -0.303120 -0.579284 1.318159
v 0.157628 -0.290539 1.318158
v -0.208965 -0.290539 1.318159
v 0.157628 -0.239464 1.664341
v 0.251781 -0.532152 2.014581
v 0.214877 -0.286201 1.839461
v 0.251781 -0.390153 1.921263
v -0.303120 -0.532152 2.014581
v -0.208965 -0.239464 1.664341
v -0.303120 -0.390153 1.921263
v -0.266214 -0.286201 1.839462
v 0.210872 -0.569085 1.395898
v 0.210873 -0.569085 1.925346
v -0.269329 -0.569085 1.925346
v -0.269330 -0.569085 1.395899
v -0.100081 -0.407569 2.598542
v -0.093541 -0.411977 1.825212
v -0.100081 -0.389306 2.598510
v -0.093541 -0.386905 1.825168
v -0.170617 -0.407569 2.598542
v -0.177158 -0.411977 1.825212
v -0.170617 -0.389306 2.598510
v -0.177158 -0.386905 1.825168
v -0.135349 -0.364003 2.598465
v -0.135349 -0.357632 1.825116
v -0.135349 -0.432873 2.598587
v -0.135349 -0.441250 1.825264
v -0.093541 -0.385901 2.598504
v -0.093541 -0.410975 2.598548
v -0.135349 -0.356628 2.598452
v -0.177158 -0.410975 2.598548
v -0.177158 -0.385901 2.598504
v -0.135349 -0.440247 2.598599
v -0.135349 -0.364953 1.855108
v -0.135349 -0.433823 1.855230
v -0.100082 -0.390256 1.855153
v -0.100082 -0.408519 1.855186
v -0.170618 -0.408519 1.855185
v -0.170618 -0.390256 1.855153
v 0.115040 -0.407569 2.598542
v 0.121581 -0.411977 1.825212
v 0.115040 -0.389306 2.598510
v 0.121581 -0.386905 1.825168
v 0.044504 -0.407569 2.598542
v 0.037963 -0.411977 1.825212
v 0.044504 -0.389306 2.598510
v 0.037963 -0.386905 1.825168
v 0.079773 -0.364003 2.598465
v 0.079772 -0.357632 1.825116
v 0.079773 -0.432873 2.598587
v 0.079772 -0.441250 1.825264
v 0.121581 -0.385901 2.598504
v 0.121581 -0.410975 2.598548
v 0.079773 -0.356628 2.598452
v 0.037964 -0.410975 2.598548
v 0.037964 -0.385901 2.598504
v 0.079773 -0.440247 2.598599
v 0.079772 -0.364953 1.855108
v 0.079772 -0.433823 1.855230
v 0.115040 -0.390256 1.855153
v 0.115040 -0.408519 1.855185
v 0.044503 -0.408519 1.855185
v 0.044503 -0.390256 1.855153
v -0.388994 1.297316 3.959227
v 0.202562 1.297316 3.959227
v -0.388994 1.297316 3.367670
v 0.202562 1.297316 3.367670
v -0.285619 1.404183 3.471045
v -0.285619 1.404183 3.855851
v 0.099187 1.404183 3.855851
v 0.099187 1.404183 3.471046
v -0.229256 1.543696 3.542852
v -0.229256 1.543696 3.784045
v 0.042824 1.543696 3.784045
v 0.042823 1.543696 3.542852
v -0.285619 1.543696 3.471045
v -0.285619 1.543696 3.855851
v 0.099187 1.543696 3.855851
v 0.099187 1.543696 3.471046
v -0.229256 1.815593 3.542852
v -0.229256 1.815593 3.784045
v 0.042824 1.815593 3.784045
v 0.042823 1.815593 3.542852
v -0.093216 1.297316 3.959227
v -0.093216 1.297316 3.367670
v -0.093216 1.404183 3.855851
v -0.093216 1.404183 3.471045
v -0.093216 1.543696 3.855851
v -0.093216 1.543696 3.471045
v -0.093216 1.543696 3.784045
v -0.093216 1.543696 3.542852
v -0.093217 1.815593 3.869568
v -0.093217 1.815593 3.457328
v -0.388994 1.297316 3.663449
v 0.202562 1.297316 3.663448
v -0.285619 1.404183 3.663448
v 0.099187 1.404183 3.663448
v -0.285619 1.543696 3.663448
v 0.099187 1.543696 3.663448
v -0.229256 1.543696 3.663448
v 0.042823 1.543696 3.663448
v -0.325730 1.815593 3.663448
v 0.139297 1.815593 3.663448
v -0.093216 1.297316 3.663448
v -0.325730 1.950779 3.663448
v -0.229256 1.950779 3.784045
v -0.093217 1.950779 3.869568
v 0.042824 1.950779 3.784045
v 0.139297 1.950779 3.663448
v 0.042823 1.950779 3.542852
v -0.093217 1.950779 3.457328
v -0.229256 1.950779 3.542852
v -0.325730 2.455609 3.663448
v -0.474949 2.581054 4.001845
v -0.093217 2.455609 3.869568
v 0.288513 2.581054 4.001845
v 0.139297 2.455609 3.663448
v 0.288513 2.581054 3.325051
v -0.093217 2.455609 3.457328
v -0.474949 2.581054 3.325050
v -0.093216 2.515681 3.663448
v -0.443365 1.815593 3.663448
v -0.297332 1.815593 3.906263
v -0.093217 1.815593 4.019432
v 0.110901 1.815593 3.906263
v 0.256931 1.815593 3.663448
v 0.110900 1.815593 3.420634
v -0.093217 1.815593 3.307464
v -0.297333 1.815593 3.420634
v -0.297333 1.950779 3.420634
v -0.443365 1.950779 3.663448
v -0.297332 1.950779 3.906263
v -0.093217 1.950779 4.019432
v 0.110901 1.950779 3.906263
v 0.256931 1.950779 3.663448
v 0.110900 1.950779 3.420634
v -0.093217 1.950779 3.307464
v -0.577812 -0.122015 -0.029628
v -0.577812 -0.122015 -0.961351
v 0.679996 -0.122015 -0.961352
v 0.679996 -0.122015 -0.029629
v -0.364393 0.292618 -0.029628
v 0.466576 0.292618 -0.029628
v -0.364393 0.365961 -0.492776
v -0.577812 -0.054337 -0.961351
v -0.494160 0.298846 -0.727064
v -0.577812 0.149573 -0.836503
v 0.679996 -0.054337 -0.961352
v 0.466577 0.365961 -0.492776
v 0.679996 0.149573 -0.836504
v 0.596344 0.298846 -0.727064
v 0.358746 0.250730 -1.478965
v 0.347453 0.022447 -0.758576
v 0.358746 0.284018 -1.473995
v 0.347453 0.068147 -0.751752
v 0.480518 0.250730 -1.478965
v 0.491811 0.022447 -0.758575
v 0.480518 0.284018 -1.473995
v 0.491811 0.068147 -0.751752
v 0.419632 0.330138 -1.467109
v 0.419632 0.121501 -0.743786
v 0.419632 0.204610 -1.485851
v 0.419632 -0.030909 -0.766542
v 0.347453 0.290224 -1.473068
v 0.347453 0.244524 -1.479891
v 0.419632 0.343578 -1.465102
v 0.491811 0.244524 -1.479891
v 0.491811 0.290224 -1.473068
v 0.419632 0.191169 -1.487858
v 0.419632 0.119776 -0.783845
v 0.419632 -0.005752 -0.802588
v 0.358746 0.073656 -0.790731
v 0.358746 0.040368 -0.795702
v 0.480519 0.040368 -0.795702
v 0.480519 0.073656 -0.790731
v -0.012641 0.250730 -1.478965
v -0.023933 0.022447 -0.758576
v -0.012641 0.284018 -1.473995
v -0.023933 0.068147 -0.751752
v 0.109133 0.250730 -1.478965
v 0.120425 0.022447 -0.758576
v 0.109133 0.284018 -1.473995
v 0.120425 0.068147 -0.751752
v 0.048246 0.330138 -1.467109
v 0.048245 0.121501 -0.743786
v 0.048246 0.204610 -1.485851
v 0.048245 -0.030909 -0.766541
v -0.023932 0.290224 -1.473068
v -0.023932 0.244524 -1.479891
v 0.048246 0.343578 -1.465101
v 0.120424 0.244524 -1.479891
v 0.120424 0.290224 -1.473068
v 0.048246 0.191169 -1.487858
v 0.048245 0.119776 -0.783845
v 0.048245 -0.005752 -0.802588
v -0.012641 0.073656 -0.790731
v -0.012641 0.040368 -0.795702
v 0.109133 0.040368 -0.795702
v 0.109133 0.073656 -0.790731
v -0.416536 0.250730 -1.478964
v -0.427828 0.022447 -0.758575
v -0.416536 0.284018 -1.473995
v -0.427828 0.068147 -0.751751
v -0.294763 0.250730 -1.478965
v -0.283471 0.022447 -0.758576
v -0.294763 0.284018 -1.473995
v -0.283471 0.068147 -0.751752
v -0.355650 0.330138 -1.467109
v -0.355650 0.121501 -0.743786
v -0.355650 0.204610 -1.485851
v -0.355650 -0.030909 -0.766541
v -0.427830 0.290224 -1.473068
v -0.427830 0.244524 -1.479891
v -0.355650 0.343578 -1.465101
v -0.283471 0.244524 -1.479891
v -0.283471 0.290224 -1.473068
v -0.355650 0.191169 -1.487858
v -0.355650 0.119776 -0.783845
v -0.355650 -0.005752 -0.802588
v -0.416536 0.073656 -0.790730
v -0.416536 0.040368 -0.795702
v -0.294764 0.040368 -0.795702
v -0.294764 0.073656 -0.790731
vn -0.0000 -1.0000 -0.0000
vn -0.0000 -0.0000 -1.0000
vn -0.0000 0.9136 0.4067
vn -0.0000 0.4267 0.9044
vn -0.0000 0.3666 0.9304
vn 0.9748 0.2003 -0.0983
vn -0.0000 0.9710 -0.2389
vn -0.0000 -0.0000 1.0000
vn -0.9748 0.2003 -0.0983
vn 0.9477 -0.0447 -0.3159
vn 0.8124 -0.4878 -0.3193
vn 0.8445 -0.5056 -0.1768
vn 0.9783 -0.0049 -0.2071
vn 0.7954 -0.4642 -0.3897
vn 0.9014 -0.0948 -0.4224
vn 0.7948 -0.4717 -0.3819
vn 0.8629 -0.0562 -0.5023
vn 0.5879 -0.4835 -0.6485
vn 0.7114 -0.0708 -0.6993
vn 0.8231 -0.5592 -0.0985
vn 0.9729 -0.0786 -0.2173
vn 0.7595 -0.6340 -0.1455
vn 0.9584 -0.1584 -0.2374
vn 0.7722 -0.6191 -0.1427
vn 0.9641 -0.2088 -0.1641
vn 0.8613 -0.4914 -0.1291
vn 0.9374 -0.3251 -0.1249
vn 0.9094 -0.4139 -0.0415
vn 0.8999 -0.4351 0.0286
vn 0.9239 -0.3805 0.0400
vn 0.9120 -0.4080 -0.0420
vn -0.0109 -0.0235 0.9997
vn 0.0043 -1.0000 -0.0006
vn 0.0148 -0.9996 0.0250
vn 0.0006 -0.9998 0.0211
vn -0.0094 -0.9969 -0.0785
vn 0.0073 -0.9975 -0.0706
vn 0.0081 -1.0000 0.0002
vn 0.0116 -0.9999 0.0002
vn 0.0124 -0.9999 -0.0052
vn 0.0163 -0.9999 0.0022
vn 0.0328 -0.9994 0.0104
vn 0.0688 -0.9975 -0.0187
vn 0.0966 -0.9909 -0.0941
vn -0.9477 -0.0447 -0.3159
vn -0.8124 -0.4878 -0.3193
vn -0.8445 -0.5056 -0.1768
vn -0.9783 -0.0049 -0.2071
vn -0.7954 -0.4642 -0.3897
vn -0.9014 -0.0948 -0.4224
vn -0.7948 -0.4717 -0.3819
vn -0.8629 -0.0562 -0.5023
vn -0.5879 -0.4835 -0.6485
vn -0.7113 -0.0708 -0.6993
vn -0.8231 -0.5592 -0.0985
vn -0.9729 -0.0786 -0.2173
vn -0.7595 -0.6340 -0.1455
vn -0.9584 -0.1584 -0.2374
vn -0.7722 -0.6191 -0.1427
vn -0.9641 -0.2088 -0.1641
vn -0.8613 -0.4914 -0.1291
vn -0.9374 -0.3251 -0.1249
vn -0.9094 -0.4139 -0.0415
vn -0.8999 -0.4351 0.0286
vn -0.9239 -0.3805 0.0400
vn -0.9120 -0.4080 -0.0420
vn 0.0109 -0.0235 0.9997
vn -0.0043 -1.0000 -0.0006
vn -0.0148 -0.9996 0.0250
vn -0.0006 -0.9998 0.0211
vn 0.0094 -0.9969 -0.0785
vn -0.0073 -0.9975 -0.0706
vn -0.0081 -1.0000 0.0002
vn -0.0116 -0.9999 0.0002
vn -0.0124 -0.9999 -0.0052
vn -0.0163 -0.9999 0.0022
vn -0.0328 -0.9994 0.0104
vn -0.0688 -0.9975 -0.0187
vn -0.0966 -0.9909 -0.0941
vn -0.9485 0.0438 0.3139
vn -0.8108 0.4914 0.3181
vn -0.8436 0.5060 0.1798
vn -0.9787 0.0045 0.2052
vn -0.7968 0.4631 0.3881
vn -0.9016 0.0943 0.4221
vn -0.7934 0.4719 0.3845
vn -0.8628 0.0547 0.5026
vn -0.6018 0.4600 0.6529
vn -0.7189 0.0586 0.6927
vn -0.8222 0.5604 0.0999
vn -0.9756 0.0706 0.2078
vn -0.7573 0.6386 0.1366
vn -0.9642 0.1449 0.2220
vn -0.7499 0.6464 0.1406
vn -0.9705 0.1608 0.1798
vn -0.7782 0.6023 0.1781
vn -0.9762 0.0982 0.1934
vn -0.9211 0.3890 0.0173
vn -0.9602 0.2778 -0.0282
vn -0.9599 0.2773 -0.0419
vn -0.9999 0.0131 0.0068
vn 0.0143 0.0176 -0.9997
vn -0.0046 1.0000 0.0002
vn -0.0141 0.9998 -0.0124
vn -0.0032 0.9998 -0.0205
vn 0.0058 0.9988 0.0483
vn -0.0066 0.9989 0.0459
vn -0.0074 1.0000 -0.0013
vn -0.0103 0.9999 -0.0003
vn -0.0107 0.9999 0.0042
vn -0.0142 0.9999 -0.0024
vn -0.0314 0.9994 -0.0126
vn -0.0640 0.9979 -0.0001
vn -0.1011 0.9875 0.1209
vn 0.9485 0.0438 0.3139
vn 0.8107 0.4914 0.3181
vn 0.8436 0.5060 0.1798
vn 0.9787 0.0045 0.2052
vn 0.7968 0.4631 0.3881
vn 0.9016 0.0943 0.4221
vn 0.7934 0.4719 0.3845
vn 0.8628 0.0547 0.5026
vn 0.6018 0.4600 0.6529
vn 0.7189 0.0586 0.6927
vn 0.8222 0.5604 0.0999
vn 0.9756 0.0706 0.2078
vn 0.7573 0.6386 0.1366
vn 0.9642 0.1449 0.2220
vn 0.7499 0.6464 0.1406
vn 0.9705 0.1608 0.1798
vn 0.7782 0.6023 0.1781
vn 0.9762 0.0982 0.1934
vn 0.9211 0.3890 0.0173
vn 0.9602 0.2778 -0.0282
vn 0.9599 0.2773 -0.0419
vn 0.9999 0.0131 0.0068
vn -0.0143 0.0176 -0.9997
vn 0.0046 1.0000 0.0002
vn 0.0141 0.9998 -0.0124
vn 0.0032 0.9998 -0.0205
vn -0.0058 0.9988 0.0483
vn 0.0066 0.9989 0.0459
vn 0.0074 1.0000 -0.0013
vn 0.0103 0.9999 -0.0003
vn 0.0107 0.9999 0.0042
vn 0.0142 0.9999 -0.0024
vn 0.0314 0.9994 -0.0126
vn 0.0640 0.9979 -0.0001
vn 0.1011 0.9875 0.1209
vn 0.0520 0.9984 -0.0232
vn 0.0082 0.9999 -0.0096
vn 0.0802 0.9961 -0.0371
vn 0.0719 0.9964 -0.0454
vn 0.1576 0.9841 -0.0817
vn -0.0172 0.9998 0.0034
vn -0.0022 1.0000 0.0058
vn 0.0593 0.9917 0.1136
vn 0.0900 0.9930 0.0760
vn 0.1560 0.9877 0.0064
vn 0.2072 0.9783 0.0033
vn 0.1155 0.9911 0.0667
vn 0.0140 0.9846 0.1745
vn -0.0520 0.9984 -0.0232
vn -0.0082 0.9999 -0.0096
vn -0.0802 0.9961 -0.0371
vn -0.0719 0.9964 -0.0454
vn -0.1576 0.9841 -0.0817
vn 0.0172 0.9998 0.0034
vn 0.0022 1.0000 0.0058
vn -0.0593 0.9917 0.1136
vn -0.0900 0.9930 0.0760
vn -0.1839 0.9829 -0.0070
vn -0.2315 0.9728 0.0118
vn -0.1155 0.9911 0.0667
vn -0.0140 0.9846 0.1745
vn -0.0000 1.0000 -0.0000
vn -0.0000 0.9613 -0.2754
vn -0.0000 0.5913 -0.8065
vn -0.0000 0.5222 -0.8528
vn -0.9326 0.3442 0.1088
vn -0.0000 0.9877 0.1564
vn 0.9326 0.3442 0.1088
vn -1.0000 -0.0000 -0.0000
vn 0.5943 0.7686 0.2367
vn 1.0000 -0.0000 -0.0000
vn -0.5943 -0.7686 -0.2366
vn -0.6037 -0.7619 -0.2346
vn -0.0000 -0.1477 0.9890
vn 0.6037 -0.7619 -0.2346
vn 0.5943 -0.7686 -0.2366
vn -0.5943 0.7686 0.2367
vn -0.0000 0.1477 -0.9890
vn 0.6037 0.7619 0.2346
vn -0.6037 0.7619 0.2346
vn 0.5943 0.7686 0.2366
vn -0.5943 -0.7686 -0.2367
vn -0.6232 0.7821 -0.0017
vn 0.6232 -0.7821 0.0017
vn 0.6324 -0.7746 0.0016
vn -0.0000 -0.0011 -1.0000
vn -0.6324 -0.7746 0.0017
vn -0.6232 -0.7821 0.0017
vn 0.6232 0.7821 -0.0017
vn -0.0000 0.0011 1.0000
vn -0.0000 0.0010 1.0000
vn -0.6325 0.7746 -0.0017
vn 0.6324 0.7746 -0.0017
vn 0.6324 -0.7746 0.0017
vn -0.6324 0.7746 -0.0017
vn -0.1560 0.9877 0.0064
vn 0.1839 0.9829 -0.0070
vn 0.0066 1.0000 -0.0068
vn 0.9705 0.2356 -0.0512
vn -0.0066 1.0000 -0.0068
vn -0.9705 0.2356 -0.0512
vn -0.0074 -0.9999 0.0114
vn -0.9064 -0.4191 0.0525
vn 0.0074 -0.9999 0.0114
vn 0.9064 -0.4191 0.0525
vn -0.2072 0.9783 0.0033
vn 0.2315 0.9728 0.0118
vn 0.0061 1.0000 -0.0000
vn 0.9547 0.2973 -0.0121
vn -0.0061 1.0000 -0.0000
vn -0.9547 0.2973 -0.0121
vn -0.0032 -1.0000 -0.0004
vn -0.9031 -0.4294 0.0080
vn 0.0032 -1.0000 -0.0004
vn 0.9031 -0.4294 0.0080
vn 0.0141 -0.9998 0.0124
vn -0.0141 -0.9998 0.0124
vn -0.0066 -1.0000 0.0068
vn 0.0066 -1.0000 0.0068
vn -0.0383 -0.0000 0.9993
vn -0.9994 -0.0000 0.0352
vn 0.0383 -0.0000 0.9993
vn -0.9980 -0.0225 0.0597
vn 0.9984 -0.0000 0.0568
vn 0.9994 -0.0000 0.0352
vn -0.0043 -1.0000 0.0001
vn 0.0241 -0.9997 -0.0020
vn -0.9991 -0.0000 0.0422
vn 0.0241 0.9997 0.0020
vn -0.9984 -0.0000 0.0568
vn 0.0043 -1.0000 0.0001
vn 0.9991 -0.0000 0.0422
vn -0.0138 0.9998 -0.0138
vn 0.0138 0.9998 -0.0138
vn 0.3845 -0.0000 -0.9231
vn 0.9994 -0.0000 0.0353
vn -0.0044 1.0000 -0.0001
vn 0.0044 1.0000 -0.0001
vn 0.0105 0.6019 -0.7985
vn -0.0105 0.6019 -0.7985
vn 0.9980 -0.0225 0.0597
vn -0.0341 -0.9994 -0.0036
vn 0.0343 0.9924 0.1181
vn -0.0241 -0.9997 -0.0020
vn -0.0241 0.9997 0.0020
vn 0.9860 -0.0000 -0.1668
vn -0.9860 -0.0000 -0.1668
vn 0.9840 -0.0000 -0.1783
vn -0.9840 -0.0000 -0.1783
vn -0.9789 -0.0000 -0.2044
vn 0.9789 -0.0000 -0.2044
vn -0.0343 0.9924 0.1181
vn 0.0341 -0.9994 -0.0036
vn 0.0071 -0.0000 -1.0000
vn -0.0071 -0.0000 -1.0000
vn -0.0500 0.9987 0.0045
vn 0.0500 -0.9987 -0.0045
vn 0.0500 0.9987 0.0045
vn -0.0500 -0.9987 -0.0045
vn -0.0000 0.9662 -0.2579
vn -0.0000 0.6184 -0.7859
vn -0.0000 0.5492 -0.8357
vn -0.9633 0.2573 0.0758
vn -0.0000 0.9893 0.1460
vn 0.9633 0.2574 0.0758
vn 0.5225 0.8527 0.0011
vn -0.5225 -0.8527 -0.0011
vn -0.5317 -0.8469 -0.0011
vn -0.0000 -0.0018 1.0000
vn 0.5317 -0.8469 -0.0011
vn 0.5224 -0.8527 -0.0011
vn -0.5225 0.8527 0.0011
vn -0.0001 0.0017 -1.0000
vn -0.0000 0.0018 -1.0000
vn 0.0001 0.0017 -1.0000
vn 0.5318 0.8469 0.0011
vn -0.5318 0.8469 0.0011
vn -0.5224 -0.8527 -0.0011
vn -0.0050 1.0000 -0.0056
vn 0.0050 1.0000 -0.0056
vn 0.0082 0.9999 -0.0084
vn -0.0082 0.9999 -0.0084
vn -0.0048 1.0000 0.0001
vn 0.0048 1.0000 0.0001
vn -0.0041 1.0000 -0.0002
vn 0.0041 1.0000 -0.0002
vn -0.3845 -0.0000 -0.9231
vn 0.0347 -0.0000 0.9994
vn -0.9995 -0.0000 0.0329
vn -0.9994 -0.0000 0.0353
vn 0.0041 -1.0000 0.0001
vn -0.0347 -0.0000 0.9994
vn 0.9995 -0.0000 0.0329
vn -0.0041 -1.0000 0.0001
vn -0.0049 1.0000 -0.0057
vn 0.0049 1.0000 -0.0057
vn 0.0083 0.9999 -0.0080
vn -0.0083 0.9999 -0.0080
vn -0.0043 1.0000 -0.0000
vn 0.0043 1.0000 -0.0000
vn 0.0040 1.0000 -0.0001
vn -0.0040 1.0000 -0.0001
vn -0.0075 1.0000 -0.0031
vn 0.0031 -1.0000 -0.0010
vn 0.0075 1.0000 -0.0031
vn 0.0075 -1.0000 0.0031
vn 0.0018 1.0000 -0.0050
vn -0.0075 -1.0000 0.0031
vn -0.0018 1.0000 -0.0050
vn -0.0018 -1.0000 0.0050
vn 0.2185 0.0015 0.9758
vn -0.9947 -0.0013 0.1031
vn -0.9998 -0.0040 -0.0174
vn 0.4566 0.0049 -0.8896
vn -0.4566 0.0049 -0.8896
vn 0.9998 -0.0040 -0.0174
vn 0.9947 -0.0013 0.1031
vn -0.2185 0.0015 0.9758
vn -0.0031 -1.0000 -0.0010
vn -0.0031 1.0000 0.0010
vn 0.0031 1.0000 0.0010
vn 0.0018 -1.0000 0.0050
vn 0.0067 1.0000 -0.0068
vn -0.0067 1.0000 -0.0068
vn 0.0042 1.0000 -0.0001
vn -0.0042 1.0000 -0.0001
vn -0.0000 0.9662 0.2579
vn -0.0000 0.6184 0.7859
vn -0.0000 0.5492 0.8357
vn 0.9716 0.2271 -0.0669
vn -0.0000 0.9893 -0.1460
vn -0.9716 0.2271 -0.0669
vn -0.5735 0.8192 -0.0011
vn 0.5735 -0.8192 0.0011
vn 0.5829 -0.8125 0.0010
vn -0.0000 -0.0018 -1.0000
vn -0.5830 -0.8125 0.0010
vn -0.5735 -0.8192 0.0011
vn 0.5735 0.8192 -0.0011
vn -0.0000 0.0018 1.0000
vn -0.0000 0.0017 1.0000
vn -0.5830 0.8125 -0.0010
vn 0.5829 0.8125 -0.0010
vn -0.5829 -0.8125 0.0010
vn -0.0000 0.6953 0.7188
vn 0.7188 0.6953 -0.0000
vn -0.7188 0.6953 -0.0000
vn -0.0000 0.6953 -0.7188
vn -0.2965 -0.1484 -0.9434
vn 0.2965 -0.1484 0.9434
vn 0.9161 -0.1625 -0.3665
vn -0.9161 -0.1625 0.3664
vn -0.2965 -0.1484 0.9434
vn 0.2966 -0.1484 -0.9434
vn -0.9161 -0.1625 -0.3664
vn 0.9161 -0.1625 0.3664
vn -0.9780 -0.2006 -0.0575
vn 0.9780 -0.2006 0.0575
vn 0.0454 -0.1787 0.9828
vn 0.9780 -0.2006 -0.0575
vn -0.0849 0.9918 0.0958
vn 0.0849 0.9918 0.0958
vn 0.0849 0.9918 -0.0958
vn -0.0849 0.9918 -0.0958
vn -0.9780 -0.2006 0.0575
vn -0.0454 -0.1788 -0.9828
vn 0.0454 -0.1788 -0.9828
vn -0.0454 -0.1787 0.9828
vn 0.4849 -0.0000 0.8746
vn -0.4849 -0.0000 -0.8746
vn -0.8570 -0.0000 -0.5154
vn -0.4849 -0.0000 0.8746
vn 0.4849 -0.0000 -0.8746
vn 0.8570 -0.0000 0.5154
vn 0.8570 -0.0000 -0.5154
vn -0.8570 -0.0000 0.5154
vn -0.5943 0.7686 0.2366
vt 0.160243 0.905416
vt 0.133808 0.905416
vt 0.133808 0.878573
vt 0.160243 0.878573
vt 0.260409 0.901900
vt 0.260409 0.928743
vt 0.252272 0.924189
vt 0.252272 0.906455
vt 0.089968 0.886282
vt 0.089968 0.904016
vt 0.083301 0.906786
vt 0.083301 0.883513
vt 0.080155 0.908571
vt 0.080155 0.881727
vt 0.260409 0.928744
vt 0.264318 0.901900
vt 0.264318 0.928744
vt 0.244396 0.901900
vt 0.244396 0.928344
vt 0.236174 0.928351
vt 0.234724 0.915205
vt 0.236067 0.908552
vt 0.239028 0.905443
vt 0.243058 0.901900
vt 0.103092 0.886282
vt 0.103092 0.904016
vt 0.265655 0.901900
vt 0.265655 0.928744
vt 0.225052 0.928344
vt 0.225052 0.901900
vt 0.226390 0.901900
vt 0.230420 0.905443
vt 0.233381 0.908552
vt 0.234724 0.915205
vt 0.233275 0.928351
vt 0.311863 0.592854
vt 0.304122 0.592575
vt 0.304057 0.580803
vt 0.311639 0.580771
vt 0.295212 0.593511
vt 0.295163 0.581151
vt 0.304186 0.603300
vt 0.295245 0.603515
vt 0.312033 0.603250
vt 0.295163 0.573906
vt 0.304050 0.573379
vt 0.311591 0.573296
vt 0.295307 0.567891
vt 0.303943 0.565055
vt 0.311628 0.563305
vt 0.189574 0.562043
vt 0.183887 0.565071
vt 0.171963 0.554930
vt 0.171963 0.544816
vt 0.304344 0.547805
vt 0.312200 0.544816
vt 0.304212 0.626099
vt 0.295366 0.626283
vt 0.312200 0.626020
vt 0.198633 0.623426
vt 0.207571 0.623040
vt 0.208650 0.641366
vt 0.198870 0.641732
vt 0.312153 0.644358
vt 0.304291 0.644432
vt 0.208803 0.663876
vt 0.199646 0.664190
vt 0.308958 0.666918
vt 0.304288 0.666947
vt 0.210117 0.686183
vt 0.201009 0.686428
vt 0.306646 0.689302
vt 0.304488 0.689266
vt 0.295735 0.689311
vt 0.304994 0.727161
vt 0.295956 0.727168
vt 0.296153 0.763796
vt 0.306431 0.763754
vt 0.307868 0.800347
vt 0.296350 0.800425
vt 0.296535 0.840973
vt 0.308062 0.841053
vt 0.308256 0.881760
vt 0.296719 0.881521
vt 0.419565 0.864455
vt 0.407971 0.870850
vt 0.407286 0.834383
vt 0.419728 0.834417
vt 0.202314 0.838037
vt 0.171963 0.838230
vt 0.171963 0.798582
vt 0.202627 0.797502
vt 0.203438 0.760884
vt 0.171963 0.761395
vt 0.171963 0.724208
vt 0.204250 0.724267
vt 0.171963 0.686352
vt 0.171963 0.663498
vt 0.171963 0.641175
vt 0.171963 0.622496
vt 0.171963 0.600984
vt 0.196919 0.600668
vt 0.171963 0.590279
vt 0.194864 0.590670
vt 0.171963 0.576902
vt 0.190212 0.578321
vt 0.171963 0.570477
vt 0.186816 0.571083
vt 0.171963 0.564632
vt 0.278462 0.592854
vt 0.278686 0.580771
vt 0.286269 0.580804
vt 0.286203 0.592575
vt 0.295162 0.581151
vt 0.295113 0.593511
vt 0.295081 0.603515
vt 0.286140 0.603301
vt 0.278293 0.603250
vt 0.286276 0.573379
vt 0.295163 0.573906
vt 0.278735 0.573296
vt 0.286383 0.565055
vt 0.295018 0.567891
vt 0.278697 0.563305
vt 0.154351 0.562043
vt 0.160038 0.565071
vt 0.278126 0.544816
vt 0.285981 0.547805
vt 0.294960 0.626283
vt 0.286114 0.626099
vt 0.278126 0.626020
vt 0.145292 0.623426
vt 0.145055 0.641732
vt 0.135275 0.641366
vt 0.136355 0.623040
vt 0.286034 0.644432
vt 0.278173 0.644358
vt 0.144279 0.664190
vt 0.135123 0.663876
vt 0.286037 0.666947
vt 0.281367 0.666918
vt 0.142916 0.686428
vt 0.133808 0.686183
vt 0.285838 0.689266
vt 0.283679 0.689302
vt 0.294590 0.689311
vt 0.294370 0.727168
vt 0.285332 0.727161
vt 0.294173 0.763796
vt 0.293975 0.800425
vt 0.282458 0.800347
vt 0.283895 0.763754
vt 0.293791 0.840973
vt 0.293606 0.881521
vt 0.282070 0.881760
vt 0.282264 0.841053
vt 0.419728 0.804378
vt 0.408169 0.797921
vt 0.141611 0.838037
vt 0.141298 0.797502
vt 0.140487 0.760884
vt 0.139675 0.724267
vt 0.147006 0.600668
vt 0.149061 0.590670
vt 0.153714 0.578321
vt 0.157109 0.571083
vt 0.312681 0.588032
vt 0.312801 0.576254
vt 0.320053 0.576319
vt 0.319927 0.587790
vt 0.327201 0.576388
vt 0.327068 0.588555
vt 0.326971 0.598328
vt 0.319824 0.598235
vt 0.312580 0.598183
vt 0.320137 0.569122
vt 0.327283 0.569192
vt 0.312882 0.569057
vt 0.320226 0.561269
vt 0.327348 0.563636
vt 0.313002 0.559538
vt 0.244701 0.929894
vt 0.244396 0.915882
vt 0.252272 0.916065
vt 0.251841 0.925346
vt 0.312200 0.544816
vt 0.319324 0.547150
vt 0.326764 0.620938
vt 0.319607 0.620843
vt 0.312370 0.620792
vt 0.220011 0.610885
vt 0.219585 0.629113
vt 0.211683 0.628992
vt 0.212773 0.610764
vt 0.319443 0.639070
vt 0.312200 0.639017
vt 0.218820 0.651589
vt 0.211402 0.651468
vt 0.319247 0.661547
vt 0.315073 0.661519
vt 0.217756 0.673843
vt 0.210117 0.673722
vt 0.319047 0.683800
vt 0.317376 0.683796
vt 0.326206 0.683896
vt 0.325863 0.721679
vt 0.318728 0.721589
vt 0.325551 0.758294
vt 0.325239 0.794910
vt 0.315353 0.794793
vt 0.317040 0.758191
vt 0.324903 0.833951
vt 0.324567 0.872993
vt 0.314681 0.872877
vt 0.315017 0.833835
vt 0.415260 0.623347
vt 0.414998 0.596404
vt 0.425041 0.596404
vt 0.425041 0.628905
vt 0.216876 0.823891
vt 0.216574 0.784852
vt 0.244122 0.785953
vt 0.244122 0.823988
vt 0.215738 0.748240
vt 0.214902 0.711628
vt 0.244122 0.711565
vt 0.244122 0.748760
vt 0.244122 0.673713
vt 0.244122 0.650841
vt 0.244122 0.628505
vt 0.244122 0.609821
vt 0.221882 0.588274
vt 0.244122 0.588313
vt 0.224008 0.578499
vt 0.244122 0.577601
vt 0.228586 0.566326
vt 0.244122 0.564188
vt 0.231948 0.559125
vt 0.244122 0.557771
vt 0.234833 0.553565
vt 0.244122 0.552171
vt 0.244122 0.544816
vt 0.342015 0.588032
vt 0.334769 0.587790
vt 0.334643 0.576319
vt 0.341896 0.576254
vt 0.327628 0.588555
vt 0.327496 0.576388
vt 0.334872 0.598235
vt 0.327725 0.598328
vt 0.342116 0.598183
vt 0.327413 0.569192
vt 0.334560 0.569122
vt 0.341815 0.569057
vt 0.334471 0.561269
vt 0.341694 0.559537
vt 0.245350 0.901900
vt 0.252272 0.906774
vt 0.335373 0.547150
vt 0.342497 0.544816
vt 0.335089 0.620843
vt 0.327932 0.620938
vt 0.342326 0.620792
vt 0.268233 0.610885
vt 0.275470 0.610764
vt 0.276560 0.628992
vt 0.268658 0.629113
vt 0.342497 0.639017
vt 0.335253 0.639070
vt 0.276841 0.651468
vt 0.269423 0.651589
vt 0.339624 0.661519
vt 0.335449 0.661547
vt 0.278126 0.673722
vt 0.270487 0.673843
vt 0.337320 0.683796
vt 0.335649 0.683800
vt 0.328490 0.683896
vt 0.335969 0.721589
vt 0.328834 0.721679
vt 0.329146 0.758294
vt 0.337656 0.758191
vt 0.339343 0.794793
vt 0.329457 0.794910
vt 0.329793 0.833951
vt 0.339679 0.833835
vt 0.340015 0.872877
vt 0.330129 0.872993
vt 0.415260 0.569461
vt 0.425041 0.563903
vt 0.271367 0.823891
vt 0.271669 0.784852
vt 0.272505 0.748240
vt 0.273342 0.711628
vt 0.266361 0.588274
vt 0.264235 0.578499
vt 0.259657 0.566326
vt 0.256295 0.559125
vt 0.253410 0.553565
vt 0.065423 0.592812
vt 0.068557 0.580735
vt 0.072601 0.581711
vt 0.069583 0.593492
vt 0.063237 0.603203
vt 0.067448 0.603646
vt 0.071781 0.573266
vt 0.075694 0.574510
vt 0.078494 0.563284
vt 0.082156 0.564982
vt 0.095366 0.544816
vt 0.095366 0.550236
vt 0.060683 0.625967
vt 0.064913 0.626257
vt 0.058569 0.644301
vt 0.062815 0.644485
vt 0.056925 0.666884
vt 0.061140 0.667003
vt 0.057010 0.689286
vt 0.061244 0.689291
vt 0.058326 0.763738
vt 0.058434 0.727158
vt 0.062669 0.727089
vt 0.062465 0.763682
vt 0.058560 0.841023
vt 0.058218 0.800319
vt 0.062261 0.800275
vt 0.062563 0.839315
vt 0.095366 0.881687
vt 0.058902 0.881727
vt 0.062865 0.878354
vt 0.095366 0.878354
vt 0.122175 0.580735
vt 0.125310 0.592812
vt 0.121149 0.593492
vt 0.118131 0.581711
vt 0.127496 0.603203
vt 0.123284 0.603646
vt 0.118952 0.573265
vt 0.115039 0.574510
vt 0.112238 0.563284
vt 0.108576 0.564981
vt 0.130049 0.625967
vt 0.125820 0.626257
vt 0.132164 0.644301
vt 0.127917 0.644485
vt 0.133808 0.666884
vt 0.129592 0.667003
vt 0.133723 0.689286
vt 0.129488 0.689291
vt 0.132407 0.763738
vt 0.132515 0.800319
vt 0.128472 0.800275
vt 0.128268 0.763682
vt 0.132173 0.841023
vt 0.131831 0.881727
vt 0.127868 0.878354
vt 0.128170 0.839315
vt 0.132299 0.727158
vt 0.128064 0.727089
vt 0.056925 0.881727
vt 0.080155 0.908622
vt 0.056925 0.908622
vt 0.381466 0.652923
vt 0.416832 0.652923
vt 0.416832 0.698676
vt 0.381466 0.698676
vt 0.419728 0.869331
vt 0.419728 0.823578
vt 0.427919 0.831341
vt 0.427919 0.861568
vt 0.399071 0.790158
vt 0.399071 0.759931
vt 0.407948 0.755211
vt 0.407948 0.794878
vt 0.412063 0.752168
vt 0.412063 0.797921
vt 0.416748 0.752168
vt 0.416748 0.797921
vt 0.425669 0.688093
vt 0.425669 0.652714
vt 0.433911 0.652725
vt 0.435360 0.670311
vt 0.434006 0.679201
vt 0.431037 0.683353
vt 0.427007 0.688093
vt 0.381466 0.790158
vt 0.381466 0.759931
vt 0.438290 0.869331
vt 0.438290 0.823578
vt 0.439619 0.823578
vt 0.439619 0.869331
vt 0.435276 0.751959
vt 0.435276 0.787338
vt 0.433938 0.787338
vt 0.429908 0.782597
vt 0.426939 0.778446
vt 0.425585 0.769556
vt 0.427034 0.751970
vt 0.444255 0.898702
vt 0.444255 0.926441
vt 0.443322 0.926554
vt 0.443322 0.898815
vt 0.438440 0.871138
vt 0.438440 0.898585
vt 0.435815 0.898297
vt 0.435815 0.870850
vt 0.444410 0.613433
vt 0.444410 0.641172
vt 0.443477 0.641059
vt 0.443477 0.613320
vt 0.339717 0.872993
vt 0.339717 0.900492
vt 0.337092 0.900766
vt 0.337092 0.873267
vt 0.149255 0.905653
vt 0.151469 0.905416
vt 0.151469 0.931464
vt 0.149255 0.931701
vt 0.422513 0.559651
vt 0.424485 0.557617
vt 0.425330 0.557960
vt 0.425330 0.560793
vt 0.422513 0.562484
vt 0.423357 0.562826
vt 0.147040 0.905416
vt 0.147040 0.931464
vt 0.342343 0.873267
vt 0.342343 0.900766
vt 0.441066 0.870850
vt 0.441066 0.898297
vt 0.420239 0.751334
vt 0.420915 0.751334
vt 0.421041 0.751745
vt 0.420113 0.751745
vt 0.419303 0.749120
vt 0.419031 0.749120
vt 0.420915 0.746905
vt 0.420239 0.746905
vt 0.420113 0.746494
vt 0.421041 0.746494
vt 0.421851 0.749120
vt 0.422124 0.749120
vt 0.100541 0.910247
vt 0.102265 0.908571
vt 0.102888 0.908834
vt 0.102888 0.911239
vt 0.100541 0.912651
vt 0.101163 0.912914
vt 0.445090 0.613402
vt 0.445769 0.613320
vt 0.445769 0.639596
vt 0.445090 0.639678
vt 0.444410 0.613320
vt 0.444410 0.639596
vt 0.306757 0.907417
vt 0.308972 0.907666
vt 0.308972 0.933665
vt 0.306757 0.933416
vt 0.304542 0.907666
vt 0.304542 0.933665
vt 0.277553 0.901900
vt 0.277553 0.929639
vt 0.276620 0.929752
vt 0.276620 0.902013
vt 0.438440 0.898873
vt 0.438440 0.926321
vt 0.435815 0.926033
vt 0.435815 0.898585
vt 0.380827 0.888446
vt 0.380827 0.916185
vt 0.379894 0.916072
vt 0.379894 0.888333
vt 0.403934 0.896348
vt 0.403934 0.923847
vt 0.401309 0.924120
vt 0.401309 0.896622
vt 0.153684 0.905653
vt 0.155899 0.905416
vt 0.155899 0.931464
vt 0.153684 0.931701
vt 0.422124 0.748528
vt 0.424096 0.746494
vt 0.424941 0.746836
vt 0.424941 0.749669
vt 0.422124 0.751361
vt 0.422969 0.751703
vt 0.406560 0.896622
vt 0.406560 0.924120
vt 0.441066 0.898585
vt 0.441066 0.926033
vt 0.419926 0.562140
vt 0.420550 0.562398
vt 0.420510 0.562825
vt 0.419653 0.562472
vt 0.419905 0.559736
vt 0.419653 0.559632
vt 0.422239 0.558303
vt 0.421615 0.558045
vt 0.421655 0.557617
vt 0.422512 0.557971
vt 0.422260 0.560707
vt 0.422512 0.560811
vt 0.056925 0.910297
vt 0.058649 0.908622
vt 0.059271 0.908885
vt 0.059271 0.911289
vt 0.056925 0.912702
vt 0.057547 0.912965
vt 0.205329 0.907877
vt 0.206008 0.907795
vt 0.206008 0.934071
vt 0.205329 0.934153
vt 0.444967 0.870850
vt 0.445646 0.870932
vt 0.445646 0.897208
vt 0.444967 0.897126
vt 0.297898 0.907417
vt 0.300112 0.907666
vt 0.300112 0.933665
vt 0.297898 0.933416
vt 0.295683 0.907666
vt 0.295683 0.933665
vt 0.444255 0.870850
vt 0.444255 0.898589
vt 0.443322 0.898702
vt 0.443322 0.870963
vt 0.339717 0.901054
vt 0.339717 0.928501
vt 0.337092 0.928213
vt 0.337092 0.900766
vt 0.312200 0.881873
vt 0.312200 0.909612
vt 0.311267 0.909499
vt 0.311267 0.881760
vt 0.437290 0.795806
vt 0.437290 0.823304
vt 0.434665 0.823578
vt 0.434665 0.796080
vt 0.144825 0.905653
vt 0.147040 0.905416
vt 0.147040 0.931464
vt 0.144825 0.931701
vt 0.097724 0.910605
vt 0.099696 0.908571
vt 0.100541 0.908913
vt 0.100541 0.911747
vt 0.097724 0.913438
vt 0.098568 0.913780
vt 0.142610 0.905416
vt 0.142610 0.931464
vt 0.439916 0.796080
vt 0.439916 0.823578
vt 0.342343 0.928213
vt 0.417146 0.751334
vt 0.417822 0.751334
vt 0.417948 0.751745
vt 0.417020 0.751745
vt 0.416210 0.749120
vt 0.415937 0.749120
vt 0.417822 0.746905
vt 0.417146 0.746905
vt 0.417020 0.746494
vt 0.417948 0.746494
vt 0.418758 0.749120
vt 0.404761 0.891305
vt 0.406486 0.889629
vt 0.407108 0.889892
vt 0.407108 0.892297
vt 0.404761 0.893709
vt 0.405383 0.893972
vt 0.206008 0.907877
vt 0.206688 0.907795
vt 0.206688 0.934071
vt 0.206008 0.934153
vt 0.444967 0.897208
vt 0.445646 0.897290
vt 0.445646 0.923566
vt 0.444967 0.923484
vt 0.302327 0.907417
vt 0.302327 0.933416
vt 0.300112 0.907666
vt 0.300112 0.933665
vt 0.443217 0.686440
vt 0.435360 0.686440
vt 0.435360 0.652714
vt 0.443217 0.652714
vt 0.438384 0.737831
vt 0.430531 0.737831
vt 0.430531 0.698861
vt 0.438384 0.698861
vt 0.435620 0.613320
vt 0.443477 0.613320
vt 0.443477 0.647046
vt 0.435620 0.647046
vt 0.443078 0.751959
vt 0.443078 0.790928
vt 0.435276 0.790928
vt 0.277553 0.862930
vt 0.243840 0.901900
vt 0.243840 0.862930
vt 0.177299 0.907985
vt 0.177299 0.928089
vt 0.172898 0.928089
vt 0.172898 0.907985
vt 0.237030 0.870800
vt 0.216927 0.870800
vt 0.210117 0.862930
vt 0.216927 0.894030
vt 0.210117 0.901900
vt 0.237030 0.894030
vt 0.243840 0.901900
vt 0.389192 0.652136
vt 0.389192 0.628905
vt 0.409295 0.628905
vt 0.409295 0.652136
vt 0.164613 0.907985
vt 0.164613 0.931215
vt 0.160243 0.931215
vt 0.160243 0.907985
vt 0.442783 0.728239
vt 0.442783 0.751469
vt 0.438384 0.751469
vt 0.438384 0.728239
vt 0.181701 0.907985
vt 0.181701 0.928089
vt 0.209978 0.878573
vt 0.209978 0.907938
vt 0.209267 0.907939
vt 0.209267 0.878574
vt 0.443698 0.593264
vt 0.443698 0.563903
vt 0.445720 0.563916
vt 0.445720 0.593278
vt 0.444967 0.870851
vt 0.444967 0.900216
vt 0.444255 0.900215
vt 0.444255 0.870850
vt 0.440407 0.728239
vt 0.440407 0.698886
vt 0.442429 0.698861
vt 0.442429 0.728215
vt 0.444135 0.727077
vt 0.442429 0.727098
vt 0.442429 0.698882
vt 0.444135 0.698861
vt 0.066196 0.910183
vt 0.066196 0.912367
vt 0.065542 0.912634
vt 0.064015 0.911073
vt 0.064669 0.908622
vt 0.064015 0.908888
vt 0.445841 0.727098
vt 0.445841 0.698882
vt 0.438384 0.728215
vt 0.438384 0.698861
vt 0.441675 0.593278
vt 0.441675 0.563916
vt 0.060198 0.912350
vt 0.060716 0.912350
vt 0.060813 0.912667
vt 0.060102 0.912667
vt 0.059481 0.910644
vt 0.059271 0.910644
vt 0.060716 0.908938
vt 0.060198 0.908938
vt 0.060102 0.908622
vt 0.060813 0.908622
vt 0.061434 0.910644
vt 0.061643 0.910644
vt 0.070178 0.909916
vt 0.071502 0.908622
vt 0.071979 0.908822
vt 0.071979 0.910673
vt 0.070178 0.911767
vt 0.070656 0.911968
vt 0.277553 0.862931
vt 0.278071 0.862930
vt 0.278071 0.891157
vt 0.277553 0.891158
vt 0.380948 0.888333
vt 0.381466 0.888334
vt 0.381466 0.916560
vt 0.380948 0.916560
vt 0.444923 0.680949
vt 0.443217 0.680938
vt 0.444923 0.652726
vt 0.446630 0.680938
vt 0.446630 0.652714
vt 0.407271 0.896348
vt 0.407271 0.925713
vt 0.406560 0.925714
vt 0.406560 0.896349
vt 0.444195 0.825168
vt 0.444195 0.795806
vt 0.446217 0.795819
vt 0.446217 0.825181
vt 0.444967 0.900217
vt 0.444967 0.929582
vt 0.444255 0.929581
vt 0.444255 0.900216
vt 0.131563 0.911105
vt 0.131563 0.881752
vt 0.133586 0.881727
vt 0.133586 0.911081
vt 0.443878 0.853396
vt 0.442172 0.853418
vt 0.442172 0.825202
vt 0.443878 0.825181
vt 0.068378 0.910183
vt 0.068378 0.912367
vt 0.067724 0.912634
vt 0.066196 0.911073
vt 0.066851 0.908622
vt 0.066196 0.908888
vt 0.445585 0.853418
vt 0.445585 0.825202
vt 0.129541 0.911081
vt 0.129541 0.881727
vt 0.442172 0.825181
vt 0.442172 0.795819
vt 0.062570 0.912350
vt 0.063088 0.912350
vt 0.063185 0.912667
vt 0.062473 0.912667
vt 0.061852 0.910644
vt 0.061643 0.910644
vt 0.063088 0.908938
vt 0.062570 0.908938
vt 0.062473 0.908622
vt 0.063185 0.908622
vt 0.063806 0.910644
vt 0.064015 0.910644
vt 0.068378 0.909916
vt 0.069701 0.908622
vt 0.070178 0.908822
vt 0.070178 0.910673
vt 0.068378 0.911767
vt 0.068855 0.911968
vt 0.277553 0.891158
vt 0.278071 0.891158
vt 0.278071 0.919384
vt 0.277553 0.919385
vt 0.445585 0.825181
vt 0.446103 0.825182
vt 0.446103 0.853408
vt 0.445585 0.853408
vt 0.444784 0.780194
vt 0.443078 0.780183
vt 0.444784 0.751970
vt 0.446490 0.780183
vt 0.446490 0.751959
vt 0.271065 0.862930
vt 0.244122 0.862022
vt 0.217179 0.862930
vt 0.141924 0.878573
vt 0.171963 0.877877
vt 0.202001 0.878573
vt 0.219020 0.750918
vt 0.244122 0.751395
vt 0.219924 0.784986
vt 0.244122 0.785953
vt 0.220498 0.785009
vt 0.268319 0.784986
vt 0.267745 0.785009
vt 0.269223 0.750918
vt 0.244122 0.754090
vt 0.265406 0.753976
vt 0.224098 0.785153
vt 0.264405 0.785143
vt 0.264145 0.785153
vt 0.222838 0.753976
vt 0.223838 0.785142
vt 0.500000 0.500000
vt 0.500000 1.000000
vt 1.000000 1.000000
vt 1.000000 0.500000
vt 0.500000 0.000000
vt 1.000000 0.000000
vt 0.000000 0.500000
vt 0.000000 0.000000
vt 0.000000 1.000000
vt 0.500000 1.000000
vt 0.500000 0.813396
vt 0.146473 0.813396
vt 0.500000 0.813396
vt 0.146473 0.500000
vt 0.500000 0.186604
vt 0.146473 0.186604
vt 0.853527 0.500000
vt 0.853527 0.186604
vt 0.853527 0.813396
vt 0.500000 0.186604
vt 0.500000 0.500000
s 0
usemtl Material.002
f 3/1/1 4/2/1 1/3/1 2/4/1
f 1/5/2 4/6/2 6/7/2 5/8/2
f 7/9/3 12/10/3 14/11/3 9/12/3
f 9/12/4 14/11/4 13/13/4 10/14/4
f 10/15/5 13/5/5 11/16/5 8/17/5
f 2/18/6 1/19/6 5/20/6 7/21/6 9/22/6 10/23/6 8/24/6
f 12/10/7 7/9/7 5/25/7 6/26/7
f 3/27/8 2/28/8 8/17/8 11/16/8
f 4/29/9 3/30/9 11/31/9 13/32/9 14/33/9 12/34/9 6/35/9
f 15/36/10 16/37/10 18/38/10 17/39/10
f 18/38/11 16/37/11 19/40/11 20/41/11
f 19/40/12 16/37/12 22/42/12 23/43/12
f 16/37/13 15/36/13 21/44/13 22/42/13
f 18/38/14 20/41/14 26/45/14 25/46/14
f 17/39/15 18/38/15 25/46/15 24/47/15
f 25/46/16 26/45/16 29/48/16 28/49/16
f 24/47/17 25/46/17 28/49/17 27/50/17
f 28/51/18 29/52/18 32/53/18 31/54/18
f 27/50/19 28/49/19 31/55/19 30/56/19
f 23/43/20 22/42/20 34/57/20 35/58/20
f 22/42/21 21/44/21 33/59/21 34/57/21
f 35/60/22 34/61/22 37/62/22 38/63/22
f 34/57/23 33/59/23 36/64/23 37/65/23
f 38/63/24 37/62/24 40/66/24 41/67/24
f 37/65/25 36/64/25 39/68/25 40/69/25
f 41/67/26 40/66/26 43/70/26 44/71/26
f 40/69/27 39/68/27 42/72/27 43/73/27
f 44/74/28 43/73/28 45/75/28 46/76/28
f 334/77/29 333/78/29 47/79/29 48/80/29
f 344/81/30 343/82/30 49/83/30 50/84/30
f 43/73/31 42/72/31 45/75/31
f 50/85/32 49/86/32 51/87/32 52/88/32
f 344/89/33 345/90/33 53/91/33 48/92/33
f 334/93/34 335/94/34 54/95/34 46/96/34
f 46/96/35 54/95/35 55/97/35 44/71/35
f 44/71/36 55/97/36 57/98/36 41/67/36
f 41/67/37 57/98/37 58/99/37 38/63/37
f 38/63/38 58/99/38 56/100/38 35/60/38
f 35/60/39 56/100/39 59/101/39 23/102/39
f 23/102/40 59/101/40 60/103/40 19/104/40
f 19/104/41 60/103/41 61/105/41 20/106/41
f 20/106/42 61/105/42 62/107/42 26/108/42
f 26/108/43 62/107/43 63/109/43 29/52/43
f 29/52/44 63/109/44 32/53/44
f 64/110/45 66/111/45 67/112/45 65/113/45
f 67/112/46 69/114/46 68/115/46 65/113/46
f 68/115/47 72/116/47 71/117/47 65/113/47
f 65/113/48 71/117/48 70/118/48 64/110/48
f 67/112/49 74/119/49 75/120/49 69/114/49
f 66/111/50 73/121/50 74/119/50 67/112/50
f 74/119/51 77/122/51 78/123/51 75/120/51
f 73/121/52 76/124/52 77/122/52 74/119/52
f 77/125/53 31/54/53 32/53/53 78/126/53
f 76/124/54 30/127/54 31/128/54 77/122/54
f 72/116/55 81/129/55 80/130/55 71/117/55
f 71/117/56 80/130/56 79/131/56 70/118/56
f 81/132/57 84/133/57 83/134/57 80/135/57
f 80/130/58 83/136/58 82/137/58 79/131/58
f 84/133/59 87/138/59 86/139/59 83/134/59
f 83/136/60 86/140/60 85/141/60 82/137/60
f 87/138/61 90/142/61 89/143/61 86/139/61
f 86/140/62 89/144/62 88/145/62 85/141/62
f 90/146/63 92/147/63 91/148/63 89/144/63
f 337/149/64 94/150/64 93/151/64 336/152/64
f 347/153/65 96/154/65 95/155/65 346/156/65
f 89/144/66 91/148/66 88/145/66
f 96/157/67 52/88/67 51/87/67 95/158/67
f 347/159/68 94/160/68 53/91/68 345/90/68
f 337/161/69 92/162/69 54/95/69 335/94/69
f 92/162/70 90/142/70 55/97/70 54/95/70
f 90/142/71 87/138/71 57/98/71 55/97/71
f 87/138/72 84/133/72 58/99/72 57/98/72
f 84/133/73 81/132/73 56/100/73 58/99/73
f 81/132/74 72/163/74 59/101/74 56/100/74
f 72/163/75 68/164/75 60/103/75 59/101/75
f 68/164/76 69/165/76 61/105/76 60/103/76
f 69/165/77 75/166/77 62/107/77 61/105/77
f 75/166/78 78/126/78 63/109/78 62/107/78
f 78/126/79 32/53/79 63/109/79
f 97/167/80 99/168/80 100/169/80 98/170/80
f 100/169/81 102/171/81 101/172/81 98/170/81
f 101/172/82 105/173/82 104/174/82 98/170/82
f 98/170/83 104/174/83 103/175/83 97/167/83
f 100/169/84 107/176/84 108/177/84 102/171/84
f 99/168/85 106/178/85 107/176/85 100/169/85
f 107/176/86 110/179/86 111/180/86 108/177/86
f 106/178/87 109/181/87 110/179/87 107/176/87
f 110/182/88 113/183/88 114/184/88 111/185/88
f 109/181/89 112/186/89 113/187/89 110/179/89
f 105/173/90 117/188/90 116/189/90 104/174/90
f 104/174/91 116/189/91 115/190/91 103/175/91
f 117/191/92 120/192/92 119/193/92 116/194/92
f 116/189/93 119/195/93 118/196/93 115/190/93
f 120/192/94 123/197/94 122/198/94 119/193/94
f 119/195/95 122/199/95 121/200/95 118/196/95
f 123/197/96 126/201/96 125/202/96 122/198/96
f 122/199/97 125/203/97 124/204/97 121/200/97
f 126/205/98 128/206/98 127/207/98 125/203/98
f 339/208/99 130/209/99 129/210/99 338/211/99
f 349/212/100 132/213/100 131/214/100 348/215/100
f 125/203/101 127/207/101 124/204/101
f 132/216/102 134/217/102 133/218/102 131/219/102
f 349/220/103 130/221/103 135/222/103 350/223/103
f 339/224/104 128/225/104 136/226/104 340/227/104
f 128/225/105 126/201/105 137/228/105 136/226/105
f 126/201/106 123/197/106 139/229/106 137/228/106
f 123/197/107 120/192/107 140/230/107 139/229/107
f 120/192/108 117/191/108 138/231/108 140/230/108
f 117/191/109 105/232/109 141/233/109 138/231/109
f 105/232/110 101/234/110 142/235/110 141/233/110
f 101/234/111 102/236/111 143/237/111 142/235/111
f 102/236/112 108/238/112 144/239/112 143/237/112
f 108/238/113 111/240/113 145/241/113 144/239/113
f 111/240/114 114/242/114 145/241/114
f 146/243/115 147/244/115 149/245/115 148/246/115
f 149/245/116 147/244/116 150/247/116 151/248/116
f 150/247/117 147/244/117 153/249/117 154/250/117
f 147/244/118 146/243/118 152/251/118 153/249/118
f 149/245/119 151/248/119 157/252/119 156/253/119
f 148/246/120 149/245/120 156/253/120 155/254/120
f 156/253/121 157/252/121 160/180/121 159/255/121
f 155/254/122 156/253/122 159/255/122 158/256/122
f 159/257/123 160/258/123 114/184/123 113/183/123
f 158/256/124 159/255/124 113/259/124 112/260/124
f 154/250/125 153/249/125 162/261/125 163/262/125
f 153/249/126 152/251/126 161/263/126 162/261/126
f 163/264/127 162/265/127 165/266/127 166/267/127
f 162/261/128 161/263/128 164/268/128 165/269/128
f 166/267/129 165/266/129 168/270/129 169/271/129
f 165/269/130 164/268/130 167/272/130 168/273/130
f 169/271/131 168/270/131 171/274/131 172/275/131
f 168/273/132 167/272/132 170/276/132 171/277/132
f 172/278/133 171/277/133 173/279/133 174/280/133
f 342/281/134 341/282/134 175/283/134 176/284/134
f 352/285/135 351/286/135 177/287/135 178/288/135
f 171/277/136 170/276/136 173/279/136
f 178/289/137 177/290/137 133/218/137 134/217/137
f 352/291/138 350/223/138 135/222/138 176/292/138
f 342/293/139 340/227/139 136/226/139 174/294/139
f 174/294/140 136/226/140 137/228/140 172/275/140
f 172/275/141 137/228/141 139/229/141 169/271/141
f 169/271/142 139/229/142 140/230/142 166/267/142
f 166/267/143 140/230/143 138/231/143 163/264/143
f 163/264/144 138/231/144 141/233/144 154/295/144
f 154/295/145 141/233/145 142/235/145 150/296/145
f 150/296/146 142/235/146 143/237/146 151/297/146
f 151/297/147 143/237/147 144/239/147 157/298/147
f 157/298/148 144/239/148 145/241/148 160/299/148
f 160/299/149 145/241/149 114/242/149
f 15/300/150 17/301/150 99/302/150 97/303/150
f 21/304/151 15/300/151 97/303/151 103/305/151
f 17/301/152 24/306/152 106/307/152 99/302/152
f 24/306/153 27/308/153 109/309/153 106/307/153
f 27/308/154 30/310/154 112/311/154 109/309/154
f 33/312/155 21/304/155 103/305/155 115/313/155
f 36/314/156 33/312/156 115/313/156 118/315/156
f 39/316/157 36/314/157 118/315/157 121/317/157
f 42/318/158 39/316/158 121/317/158 124/319/158
f 333/320/159 45/321/159 127/322/159 338/323/159
f 343/324/160 47/325/160 129/326/160 348/327/160
f 45/321/161 42/318/161 124/319/161 127/322/161
f 51/328/162 49/329/162 131/330/162 133/331/162
f 66/332/163 64/333/163 146/334/163 148/335/163
f 64/333/164 70/336/164 152/337/164 146/334/164
f 73/338/165 66/332/165 148/335/165 155/339/165
f 76/340/166 73/338/166 155/339/166 158/341/166
f 30/310/167 76/340/167 158/341/167 112/311/167
f 70/336/168 79/342/168 161/343/168 152/337/168
f 79/342/169 82/344/169 164/345/169 161/343/169
f 82/344/170 85/346/170 167/347/170 164/345/170
f 85/346/171 88/348/171 170/349/171 167/347/171
f 336/350/172 93/351/172 175/352/172 341/353/172
f 346/354/173 95/355/173 177/356/173 351/357/173
f 88/348/174 91/358/174 173/359/174 170/349/174
f 95/355/175 51/328/175 133/331/175 177/356/175
f 181/360/176 180/14/176 179/361/176 182/362/176
f 185/363/1 186/364/1 183/365/1 184/366/1
f 183/367/8 186/368/8 188/369/8 187/370/8
f 189/371/177 194/372/177 196/373/177 191/374/177
f 191/374/178 196/373/178 195/375/178 192/376/178
f 192/376/179 195/375/179 193/377/179 190/378/179
f 184/379/180 183/380/180 187/381/180 189/382/180 191/383/180 192/384/180 190/385/180
f 194/372/181 189/371/181 187/386/181 188/387/181
f 185/388/2 184/389/2 190/390/2 193/391/2
f 186/392/182 185/393/182 193/394/182 195/395/182 196/396/182 194/397/182 188/398/182
f 210/399/183 198/400/183 200/401/183 209/402/183
f 211/403/184 206/404/184 204/405/184 213/406/184
f 213/407/185 204/408/185 202/409/185 212/410/185
f 214/411/186 208/412/186 198/413/186 210/414/186
f 205/415/187 203/416/187 220/417/187 215/418/187
f 206/419/188 200/420/188 198/421/188 208/422/188
f 204/423/188 206/419/188 208/422/188 202/424/188
f 199/425/189 205/415/189 215/418/189 217/426/189
f 212/427/190 202/428/190 208/412/190 214/411/190
f 209/429/191 200/430/191 206/404/191 211/403/191
f 199/431/192 197/432/192 210/433/192 209/434/192
f 205/435/192 199/431/192 209/434/192 211/436/192
f 201/437/192 203/438/192 213/439/192 212/440/192
f 207/441/192 201/437/192 212/440/192 214/442/192
f 203/438/192 205/435/192 211/436/192 213/439/192
f 197/432/192 207/441/192 214/442/192 210/433/192
f 215/443/192 220/444/192 219/445/192 216/446/192
f 217/447/192 215/443/192 216/446/192 218/448/192
f 203/449/183 201/450/183 219/451/183 220/452/183
f 197/453/185 199/449/185 217/452/185 218/454/185
f 207/455/193 197/456/193 218/457/193 216/458/193
f 201/459/194 207/455/194 216/458/194 219/460/194
f 234/461/183 222/462/183 224/463/183 233/464/183
f 235/465/195 230/466/195 228/467/195 237/468/195
f 237/469/185 228/470/185 226/471/185 236/472/185
f 238/473/196 232/474/196 222/475/196 234/476/196
f 229/477/187 227/478/187 244/479/187 239/480/187
f 230/481/188 224/482/188 222/483/188 232/484/188
f 228/485/188 230/481/188 232/484/188 226/486/188
f 223/416/189 229/477/189 239/480/189 241/417/189
f 236/487/190 226/488/190 232/474/190 238/473/190
f 233/489/191 224/490/191 230/466/191 235/465/191
f 223/491/192 221/492/192 234/493/192 233/494/192
f 229/495/192 223/491/192 233/494/192 235/496/192
f 225/497/192 227/498/192 237/499/192 236/500/192
f 231/501/192 225/497/192 236/500/192 238/502/192
f 227/498/192 229/495/192 235/496/192 237/499/192
f 221/492/192 231/501/192 238/502/192 234/493/192
f 239/503/192 244/504/192 243/505/192 240/506/192
f 241/507/192 239/503/192 240/506/192 242/508/192
f 227/509/183 225/510/183 243/511/183 244/512/183
f 221/513/185 223/514/185 241/515/185 242/516/185
f 231/517/193 221/518/193 242/519/193 240/520/193
f 225/521/194 231/517/194 240/520/194 243/522/194
f 258/523/183 246/524/183 248/525/183 257/526/183
f 259/527/195 254/528/195 252/529/195 261/530/195
f 261/531/185 252/532/185 250/533/185 260/534/185
f 262/535/186 256/536/186 246/537/186 258/538/186
f 253/539/187 251/540/187 268/541/187 263/542/187
f 254/543/188 248/544/188 246/545/188 256/546/188
f 252/547/188 254/543/188 256/546/188 250/548/188
f 247/549/189 253/539/189 263/542/189 265/550/189
f 260/551/190 250/552/190 256/536/190 262/535/190
f 257/428/191 248/553/191 254/528/191 259/527/191
f 247/554/192 245/555/192 258/556/192 257/557/192
f 253/558/192 247/554/192 257/557/192 259/559/192
f 249/560/192 251/561/192 261/562/192 260/563/192
f 255/564/192 249/560/192 260/563/192 262/436/192
f 251/561/192 253/558/192 259/559/192 261/562/192
f 245/555/192 255/564/192 262/436/192 258/556/192
f 263/565/192 268/566/192 267/567/192 264/568/192
f 265/569/192 263/565/192 264/568/192 266/570/192
f 251/571/183 249/572/183 267/573/183 268/574/183
f 245/575/185 247/576/185 265/577/185 266/578/185
f 255/579/193 245/459/193 266/460/193 264/580/193
f 249/581/194 255/579/194 264/580/194 267/582/194
f 269/583/185 277/584/185 278/585/185 271/586/185
f 271/587/8 278/588/8 279/589/8 275/590/8
f 275/591/183 279/592/183 280/593/183 273/594/183
f 273/392/2 280/595/2 277/596/2 269/597/2
f 271/598/1 275/461/1 273/599/1 269/600/1
f 272/601/185 270/602/185 281/603/185 282/604/185
f 270/605/176 272/606/176 278/607/176 277/600/176
f 272/606/176 276/608/176 279/609/176 278/607/176
f 276/608/176 274/610/176 280/611/176 279/609/176
f 274/610/176 270/605/176 277/600/176 280/611/176
f 283/612/176 282/613/176 281/614/176 284/615/176
f 270/616/2 274/617/2 284/618/2 281/619/2
f 276/620/8 272/621/8 282/622/8 283/623/8
f 274/602/183 276/601/183 283/624/183 284/625/183
f 298/626/185 286/627/185 288/628/185 297/629/185
f 299/630/197 294/631/197 292/632/197 301/633/197
f 301/634/183 292/635/183 290/636/183 300/637/183
f 302/638/198 296/639/198 286/640/198 298/641/198
f 293/642/199 291/643/199 308/644/199 303/645/199
f 294/646/200 288/647/200 286/648/200 296/649/200
f 292/650/200 294/646/200 296/649/200 290/651/200
f 287/652/201 293/642/201 303/645/201 305/653/201
f 300/654/202 290/655/202 296/639/202 302/638/202
f 297/656/203 288/657/203 294/631/203 299/630/203
f 287/658/204 285/659/204 298/660/204 297/661/204
f 293/662/205 287/658/205 297/661/205 299/663/205
f 289/664/204 291/665/204 301/666/204 300/667/204
f 295/668/205 289/664/205 300/667/205 302/669/205
f 291/665/205 293/662/205 299/663/205 301/666/205
f 285/659/205 295/668/205 302/669/205 298/660/205
f 303/670/205 308/671/205 307/672/205 304/673/205
f 305/674/205 303/670/205 304/673/205 306/675/205
f 291/676/185 289/677/185 307/678/185 308/679/185
f 285/680/183 287/681/183 305/682/183 306/683/183
f 295/684/206 285/685/206 306/586/206 304/686/206
f 289/687/207 295/684/207 304/686/207 307/688/207
f 322/689/185 310/690/185 312/691/185 321/692/185
f 323/693/197 318/694/197 316/695/197 325/696/197
f 325/697/183 316/698/183 314/699/183 324/700/183
f 326/701/198 320/702/198 310/703/198 322/704/198
f 317/705/208 315/706/208 332/707/208 327/708/208
f 318/709/200 312/710/200 310/711/200 320/712/200
f 316/713/200 318/709/200 320/712/200 314/714/200
f 311/715/201 317/705/201 327/708/201 329/716/201
f 324/717/202 314/718/202 320/702/202 326/701/202
f 321/719/203 312/720/203 318/694/203 323/693/203
f 311/721/204 309/722/204 322/723/204 321/724/204
f 317/725/205 311/721/205 321/724/205 323/726/205
f 313/727/204 315/728/204 325/729/204 324/730/204
f 319/731/205 313/727/205 324/730/205 326/732/205
f 315/728/205 317/725/205 323/726/205 325/729/205
f 309/722/205 319/731/205 326/732/205 322/723/205
f 327/733/204 332/734/204 331/735/204 328/736/204
f 329/737/205 327/733/205 328/736/205 330/738/205
f 315/739/185 313/740/185 331/741/185 332/742/185
f 309/743/183 311/744/183 329/745/183 330/746/183
f 319/747/209 309/748/209 330/595/209 328/749/209
f 313/750/207 319/747/207 328/749/207 331/751/207
f 91/358/210 336/350/210 341/353/210 173/359/210
f 47/325/211 333/320/211 338/323/211 129/326/211
f 176/292/212 135/222/212 340/227/212 342/293/212
f 174/280/213 173/279/213 341/282/213 342/281/213
f 130/221/214 339/224/214 340/227/214 135/222/214
f 128/206/215 339/208/215 338/211/215 127/207/215
f 94/160/216 337/161/216 335/94/216 53/91/216
f 92/147/217 337/149/217 336/152/217 91/148/217
f 48/92/218 53/91/218 335/94/218 334/93/218
f 46/76/219 45/75/219 333/78/219 334/77/219
f 93/351/220 346/354/220 351/357/220 175/352/220
f 49/329/221 343/324/221 348/327/221 131/330/221
f 178/752/222 134/753/222 350/223/222 352/291/222
f 176/284/223 175/283/223 351/286/223 352/285/223
f 132/754/224 349/220/224 350/223/224 134/753/224
f 130/209/225 349/212/225 348/215/225 129/210/225
f 96/755/226 347/159/226 345/90/226 52/756/226
f 94/150/227 347/153/227 346/156/227 93/151/227
f 50/757/228 52/756/228 345/90/228 344/89/228
f 48/80/229 47/79/229 343/82/229 344/81/229
f 359/224/230 360/227/230 356/226/230 353/225/230
f 361/293/231 357/294/231 356/226/231 360/227/231
f 358/292/232 361/293/232 360/227/232 355/222/232
f 354/221/233 355/222/233 360/227/233 359/224/233
f 376/292/234 374/222/234 386/222/234 478/292/234
f 368/293/235 370/292/235 473/292/235 474/293/235
f 374/222/236 375/221/236 477/221/236 386/222/236
f 369/294/237 368/293/237 474/293/237 384/294/237
f 359/224/238 353/225/238 363/225/238 362/224/238
f 361/293/235 358/292/235 370/292/235 368/293/235
f 354/221/239 359/224/239 362/224/239 365/221/239
f 358/292/240 355/222/240 371/222/240 373/292/240
f 353/225/241 356/226/241 366/226/241 364/225/241
f 370/292/242 376/292/242 478/292/242 473/292/242
f 369/294/243 367/226/243 390/226/243 392/294/243
f 357/294/244 361/293/244 368/293/244 369/294/244
f 373/292/234 371/222/234 374/222/234 376/292/234
f 371/222/236 372/221/236 375/221/236 374/222/236
f 355/222/245 354/221/245 372/221/245 371/222/245
f 354/221/246 365/221/246 375/221/246 372/221/246
f 365/221/239 362/224/239 472/224/239 471/221/239
f 370/292/242 358/292/242 373/292/242 376/292/242
f 472/224/247 378/225/247 382/226/247 475/227/247
f 474/293/248 475/227/248 382/226/248 384/294/248
f 377/758/249 381/759/249 481/759/249 491/758/249
f 380/760/250 377/758/250 491/758/250 479/760/250
f 380/760/251 379/222/251 476/761/251 387/762/251
f 379/222/252 385/763/252 388/764/252 476/761/252
f 367/226/253 369/294/253 384/294/253 382/226/253
f 363/225/254 367/226/254 382/226/254 378/225/254
f 375/221/246 365/221/246 471/221/246 477/221/246
f 362/224/255 363/225/255 378/225/255 472/224/255
f 366/226/256 389/294/256 395/294/256 393/226/256
f 392/294/257 390/226/257 396/226/257 398/294/257
f 356/226/258 357/294/258 389/294/258 366/226/258
f 367/226/259 363/225/259 391/225/259 390/226/259
f 363/225/260 353/225/260 364/225/260 391/225/260
f 357/294/261 369/294/261 392/294/261 389/294/261
f 397/225/262 394/225/262 400/225/262 403/225/262
f 395/294/263 398/294/263 404/294/263 401/294/263
f 389/294/264 392/294/264 398/294/264 395/294/264
f 391/225/265 364/225/265 394/225/265 397/225/265
f 390/226/266 391/225/266 397/225/266 396/226/266
f 364/225/267 366/226/267 393/226/267 394/225/267
f 400/225/268 399/226/268 402/226/268 403/225/268
f 399/226/269 401/294/269 404/294/269 402/226/269
f 396/226/270 397/225/270 403/225/270 402/226/270
f 394/225/271 393/226/271 399/226/271 400/225/271
f 398/294/272 396/226/272 402/226/272 404/294/272
f 393/226/273 395/294/273 401/294/273 399/226/273
f 407/1/1 408/2/1 405/3/1 406/4/1
f 405/5/8 408/6/8 410/7/8 409/8/8
f 411/9/274 416/10/274 418/11/274 413/12/274
f 413/12/275 418/11/275 417/13/275 414/14/275
f 414/15/276 417/5/276 415/16/276 412/17/276
f 406/18/277 405/19/277 409/20/277 411/21/277 413/22/277 414/23/277 412/24/277
f 416/10/278 411/9/278 409/25/278 410/26/278
f 407/27/2 406/28/2 412/17/2 415/16/2
f 408/29/279 407/30/279 415/31/279 417/32/279 418/33/279 416/34/279 410/35/279
f 421/612/176 420/613/176 419/614/176 422/615/176
f 436/626/183 424/627/183 426/628/183 435/629/183
f 437/630/280 432/631/280 430/632/280 439/633/280
f 439/634/185 430/635/185 428/636/185 438/637/185
f 440/638/281 434/639/281 424/640/281 436/641/281
f 431/642/282 429/643/282 446/644/282 441/645/282
f 432/646/283 426/647/283 424/648/283 434/649/283
f 430/650/283 432/646/283 434/649/283 428/651/283
f 425/652/284 431/642/284 441/645/284 443/653/284
f 438/654/285 428/655/285 434/639/285 440/638/285
f 435/656/286 426/657/286 432/631/286 437/630/286
f 425/658/287 423/659/287 436/660/287 435/661/287
f 431/662/288 425/658/288 435/661/288 437/663/288
f 427/664/289 429/665/289 439/666/289 438/667/289
f 433/668/289 427/664/289 438/667/289 440/669/289
f 429/665/288 431/662/288 437/663/288 439/666/288
f 423/659/287 433/668/287 440/669/287 436/660/287
f 441/670/288 446/671/288 445/672/288 442/673/288
f 443/674/288 441/670/288 442/673/288 444/675/288
f 429/676/183 427/677/183 445/678/183 446/679/183
f 423/680/185 425/681/185 443/682/185 444/683/185
f 433/684/290 423/685/290 444/586/290 442/686/290
f 427/687/291 433/684/291 442/686/291 445/688/291
f 460/689/183 448/690/183 450/691/183 459/692/183
f 461/693/280 456/694/280 454/695/280 463/696/280
f 463/697/185 454/698/185 452/699/185 462/700/185
f 464/701/292 458/702/292 448/703/292 460/704/292
f 455/705/282 453/706/282 470/707/282 465/708/282
f 456/709/283 450/710/283 448/711/283 458/712/283
f 454/713/283 456/709/283 458/712/283 452/714/283
f 449/715/284 455/705/284 465/708/284 467/716/284
f 462/717/285 452/718/285 458/702/285 464/701/285
f 459/719/286 450/720/286 456/694/286 461/693/286
f 449/721/287 447/722/287 460/723/287 459/724/287
f 455/725/288 449/721/288 459/724/288 461/726/288
f 451/727/289 453/728/289 463/729/289 462/730/289
f 457/731/289 451/727/289 462/730/289 464/732/289
f 453/728/288 455/725/288 461/726/288 463/729/288
f 447/722/287 457/731/287 464/732/287 460/723/287
f 465/733/288 470/734/288 469/735/288 466/736/288
f 467/737/288 465/733/288 466/736/288 468/738/288
f 453/739/183 451/740/183 469/741/183 470/742/183
f 447/743/185 449/744/185 467/745/185 468/746/185
f 457/747/290 447/748/290 468/595/290 466/749/290
f 451/750/291 457/747/291 466/749/291 469/751/291
f 377/758/293 380/760/293 471/221/293 472/224/293
f 385/763/294 383/765/294 474/293/294 473/292/294
f 383/765/295 381/759/295 475/227/295 474/293/295
f 381/759/296 377/758/296 472/224/296 475/227/296
f 387/762/297 476/761/297 386/222/297 477/221/297
f 476/761/298 388/764/298 478/292/298 386/222/298
f 380/760/299 387/762/299 477/221/299 471/221/299
f 388/764/300 385/763/300 473/292/300 478/292/300
f 494/766/301 483/767/301 504/767/301 501/766/301
f 487/222/302 488/768/302 505/768/302 502/222/302
f 492/769/303 489/770/303 506/770/303 500/769/303
f 383/765/304 385/763/304 480/763/304 493/765/304
f 379/222/305 380/760/305 485/760/305 484/222/305
f 381/759/301 383/765/301 493/765/301 481/759/301
f 486/763/306 484/222/306 495/222/306 497/763/306
f 484/222/302 485/760/302 496/760/302 495/222/302
f 480/763/303 385/763/303 486/763/303 497/763/303
f 483/767/304 492/769/304 500/769/304 504/767/304
f 380/760/307 479/760/307 496/760/307 485/760/307
f 385/763/308 379/222/308 484/222/308 486/763/308
f 482/771/309 490/772/309 479/760/309 491/758/309
f 492/769/310 483/767/310 493/765/310 480/763/310
f 483/767/311 494/766/311 481/759/311 493/765/311
f 494/766/312 482/771/312 491/758/312 481/759/312
f 488/768/313 487/222/313 495/222/313 496/760/313
f 487/222/314 489/770/314 497/763/314 495/222/314
f 489/770/315 492/769/315 480/763/315 497/763/315
f 490/772/316 488/768/316 496/760/316 479/760/316
f 509/766/317 511/771/317 518/771/317 521/766/317
f 502/222/318 505/768/318 524/768/318 523/222/318
f 512/767/319 509/766/319 521/766/319 498/767/319
f 503/771/320 501/766/320 520/766/320 519/771/320
f 490/772/250 482/771/250 503/771/250 499/772/250
f 488/768/307 490/772/307 499/772/307 505/768/307
f 489/770/306 487/222/306 502/222/306 506/770/306
f 482/771/249 494/766/249 501/766/249 503/771/249
f 507/772/250 511/771/250 535/771/250 531/772/250
f 509/766/301 512/767/301 536/767/301 533/766/301
f 510/222/302 513/768/302 537/768/302 534/222/302
f 508/769/303 514/770/303 538/770/303 532/769/303
f 508/769/321 512/767/321 498/767/321 517/769/321
f 501/766/322 504/767/322 515/767/322 520/766/322
f 511/771/323 507/772/323 526/772/323 518/771/323
f 504/767/324 500/769/324 516/769/324 515/767/324
f 523/222/325 524/768/325 528/768/325 527/222/325
f 516/769/326 525/770/326 529/770/326 517/769/326
f 515/767/327 516/769/327 517/769/327 498/767/327
f 519/771/328 520/766/328 521/766/328 518/771/328
f 520/766/329 515/767/329 498/767/329 521/766/329
f 522/772/330 519/771/330 518/771/330 526/772/330
f 524/768/331 522/772/331 526/772/331 528/768/331
f 525/770/332 523/222/332 527/222/332 529/770/332
f 506/770/333 502/222/333 523/222/333 525/770/333
f 513/768/334 510/222/334 527/222/334 528/768/334
f 500/769/1 506/770/1 525/770/1 516/769/1
f 510/222/335 514/770/335 529/770/335 527/222/335
f 505/768/1 499/772/1 522/772/1 524/768/1
f 514/770/176 508/769/176 517/769/176 529/770/176
f 499/772/336 503/771/336 519/771/336 522/772/336
f 507/772/176 513/768/176 528/768/176 526/772/176
f 532/769/337 530/222/337 533/766/337 536/767/337
f 531/772/338 535/771/338 533/766/338 530/222/338
f 530/222/339 532/769/339 538/770/339 534/222/339
f 531/772/340 530/222/340 534/222/340 537/768/340
f 513/768/307 507/772/307 531/772/307 537/768/307
f 514/770/306 510/222/306 534/222/306 538/770/306
f 511/771/249 509/766/249 533/766/249 535/771/249
f 512/767/304 508/769/304 532/769/304 536/767/304
f 541/1/1 542/2/1 539/3/1 540/4/1
f 539/5/2 542/6/2 544/7/2 543/8/2
f 545/9/341 550/10/341 552/11/341 547/12/341
f 547/12/342 552/11/342 551/13/342 548/14/342
f 548/15/343 551/5/343 549/16/343 546/17/343
f 540/18/344 539/19/344 543/20/344 545/21/344 547/22/344 548/23/344 546/24/344
f 550/10/345 545/9/345 543/25/345 544/26/345
f 541/27/8 540/28/8 546/17/8 549/16/8
f 542/29/346 541/30/346 549/31/346 551/32/346 552/33/346 550/34/346 544/35/346
f 555/612/176 554/613/176 553/614/176 556/615/176
f 570/626/185 558/627/185 560/628/185 569/629/185
f 571/630/347 566/631/347 564/632/347 573/633/347
f 573/634/183 564/635/183 562/636/183 572/637/183
f 574/638/348 568/639/348 558/640/348 570/641/348
f 565/642/349 563/643/349 580/644/349 575/645/349
f 566/646/350 560/647/350 558/648/350 568/649/350
f 564/650/350 566/646/350 568/649/350 562/651/350
f 559/652/351 565/642/351 575/645/351 577/653/351
f 572/654/352 562/655/352 568/639/352 574/638/352
f 569/656/353 560/657/353 566/631/353 571/630/353
f 559/658/354 557/659/354 570/660/354 569/661/354
f 565/662/354 559/658/354 569/661/354 571/663/354
f 561/664/354 563/665/354 573/666/354 572/667/354
f 567/668/355 561/664/355 572/667/355 574/669/355
f 563/665/354 565/662/354 571/663/354 573/666/354
f 557/659/355 567/668/355 574/669/355 570/660/355
f 575/670/354 580/671/354 579/672/354 576/673/354
f 577/674/354 575/670/354 576/673/354 578/675/354
f 563/676/185 561/677/185 579/678/185 580/679/185
f 557/680/183 559/681/183 577/682/183 578/683/183
f 567/684/356 557/685/356 578/586/356 576/686/356
f 561/687/357 567/684/357 576/686/357 579/688/357
f 594/689/185 582/690/185 584/691/185 593/692/185
f 595/693/347 590/694/347 588/695/347 597/696/347
f 597/697/183 588/698/183 586/699/183 596/700/183
f 598/701/348 592/702/348 582/703/348 594/704/348
f 589/705/349 587/706/349 604/707/349 599/708/349
f 590/709/350 584/710/350 582/711/350 592/712/350
f 588/713/350 590/709/350 592/712/350 586/714/350
f 583/715/358 589/705/358 599/708/358 601/716/358
f 596/717/352 586/718/352 592/702/352 598/701/352
f 593/719/353 584/720/353 590/694/353 595/693/353
f 583/721/354 581/722/354 594/723/354 593/724/354
f 589/725/354 583/721/354 593/724/354 595/726/354
f 585/727/354 587/728/354 597/729/354 596/730/354
f 591/731/355 585/727/355 596/730/355 598/732/355
f 587/728/354 589/725/354 595/726/354 597/729/354
f 581/722/355 591/731/355 598/732/355 594/723/355
f 599/733/354 604/734/354 603/735/354 600/736/354
f 601/737/354 599/733/354 600/736/354 602/738/354
f 587/739/185 585/740/185 603/741/185 604/742/185
f 581/743/183 583/744/183 601/745/183 602/746/183
f 591/747/356 581/748/356 602/595/356 600/749/356
f 585/750/357 591/747/357 600/749/357 603/751/357
f 645/773/1 626/774/1 608/775/1 636/776/1
f 638/776/185 612/775/185 620/775/185 640/776/185
f 625/777/359 606/778/359 611/778/359 627/777/359
f 636/776/360 608/775/360 612/775/360 638/776/360
f 635/779/361 605/780/361 610/780/361 637/779/361
f 626/774/362 607/781/362 609/781/362 628/782/362
f 632/783/363 613/784/363 621/784/363 634/785/363
f 637/779/183 610/780/183 618/780/183 639/779/183
f 628/782/2 609/781/2 617/781/2 630/774/2
f 627/777/8 611/778/8 619/778/8 629/777/8
f 641/786/176 613/784/176 617/781/176 639/779/176
f 631/787/176 614/788/176 618/780/176 629/777/176
f 642/789/176 615/790/176 619/778/176 640/776/176
f 632/783/176 616/791/176 620/775/176 630/774/176
f 622/788/1 633/792/1 665/792/1 664/788/1
f 631/787/364 615/790/364 623/790/364 633/792/364
f 642/789/365 616/791/365 624/791/365 644/789/365
f 641/786/366 614/788/366 622/788/366 643/786/366
f 614/788/367 631/787/367 633/792/367 622/788/367
f 633/792/1 623/790/1 666/790/1 665/792/1
f 613/784/176 632/783/176 630/774/176 617/781/176
f 615/790/176 631/787/176 629/777/176 619/778/176
f 610/780/8 627/777/8 629/777/8 618/780/8
f 612/775/2 628/782/2 630/774/2 620/775/2
f 616/791/368 632/783/368 634/785/368 624/791/368
f 608/775/362 626/774/362 628/782/362 612/775/362
f 605/780/359 625/777/359 627/777/359 610/780/359
f 635/779/1 607/781/1 626/774/1 645/773/1
f 605/780/1 635/779/1 645/773/1 625/777/1
f 650/789/176 649/790/176 675/790/176 676/789/176
f 613/784/369 641/786/369 643/786/369 621/784/369
f 615/790/370 642/789/370 644/789/370 623/790/370
f 647/788/176 646/786/176 672/786/176 673/788/176
f 616/791/176 642/789/176 640/776/176 620/775/176
f 614/788/176 641/786/176 639/779/176 618/780/176
f 609/781/183 637/779/183 639/779/183 617/781/183
f 607/781/361 635/779/361 637/779/361 609/781/361
f 606/778/360 636/776/360 638/776/360 611/778/360
f 611/778/185 638/776/185 640/776/185 619/778/185
f 625/777/1 645/773/1 636/776/1 606/778/1
f 646/786/371 647/788/371 655/788/371 654/786/371
f 650/789/372 651/791/372 659/791/372 658/789/372
f 647/788/373 648/792/373 656/792/373 655/788/373
f 649/790/374 650/789/374 658/789/374 657/790/374
f 643/786/1 622/788/1 664/788/1 663/786/1
f 623/790/1 644/789/1 667/789/1 666/790/1
f 646/786/176 653/784/176 671/784/176 672/786/176
f 621/784/1 643/786/1 663/786/1 670/784/1
f 662/793/375 658/789/375 659/791/375 660/785/375
f 654/786/376 662/793/376 660/785/376 661/784/376
f 655/788/377 656/792/377 662/793/377 654/786/377
f 656/792/378 657/790/378 658/789/378 662/793/378
f 653/784/379 646/786/379 654/786/379 661/784/379
f 651/791/380 652/785/380 660/785/380 659/791/380
f 652/785/381 653/784/381 661/784/381 660/785/381
f 648/792/382 649/790/382 657/790/382 656/792/382
f 665/792/383 666/790/383 675/790/383 674/792/383
f 669/785/384 670/784/384 671/784/384 678/785/384
f 670/784/385 663/786/385 672/786/385 671/784/385
f 664/788/386 665/792/386 674/792/386 673/788/386
f 668/791/387 669/785/387 678/785/387 677/791/387
f 666/790/388 667/789/388 676/789/388 675/790/388
f 667/789/389 668/791/389 677/791/389 676/789/389
f 663/786/390 664/788/390 673/788/390 672/786/390
f 649/790/176 648/792/176 674/792/176 675/790/176
f 644/789/1 624/791/1 668/791/1 667/789/1
f 651/791/176 650/789/176 676/789/176 677/791/176
f 624/791/1 634/785/1 669/785/1 668/791/1
f 634/785/1 621/784/1 670/784/1 669/785/1
f 653/784/176 652/785/176 678/785/176 671/784/176
f 648/792/176 647/788/176 673/788/176 674/792/176
f 652/785/176 651/791/176 677/791/176 678/785/176
f 681/363/1 682/364/1 679/365/1 680/366/1
f 679/367/8 682/368/8 684/369/8 683/370/8
f 685/371/177 690/372/177 692/373/177 687/374/177
f 687/374/178 692/373/178 691/375/178 688/376/178
f 688/376/179 691/375/179 689/377/179 686/378/179
f 680/379/180 679/380/180 683/381/180 685/382/180 687/383/180 688/384/180 686/385/180
f 690/372/181 685/371/181 683/386/181 684/387/181
f 681/388/2 680/389/2 686/390/2 689/391/2
f 682/392/182 681/393/182 689/394/182 691/395/182 692/396/182 690/397/182 684/398/182
f 706/399/183 694/400/183 696/401/183 705/402/183
f 707/403/195 702/404/195 700/405/195 709/406/195
f 709/407/185 700/408/185 698/409/185 708/410/185
f 710/411/186 704/412/186 694/413/186 706/414/186
f 701/415/187 699/416/187 716/417/187 711/418/187
f 702/419/188 696/420/188 694/421/188 704/422/188
f 700/423/188 702/419/188 704/422/188 698/424/188
f 695/425/189 701/415/189 711/418/189 713/426/189
f 708/427/190 698/428/190 704/412/190 710/411/190
f 705/429/391 696/430/391 702/404/391 707/403/391
f 695/431/192 693/432/192 706/433/192 705/434/192
f 701/435/192 695/431/192 705/434/192 707/436/192
f 697/437/192 699/438/192 709/439/192 708/440/192
f 703/441/192 697/437/192 708/440/192 710/442/192
f 699/438/192 701/435/192 707/436/192 709/439/192
f 693/432/192 703/441/192 710/442/192 706/433/192
f 711/443/192 716/444/192 715/445/192 712/446/192
f 713/447/192 711/443/192 712/446/192 714/448/192
f 699/449/183 697/450/183 715/451/183 716/452/183
f 693/453/185 695/449/185 713/452/185 714/454/185
f 703/455/193 693/456/193 714/457/193 712/458/193
f 697/459/194 703/455/194 712/458/194 715/460/194
f 730/461/183 718/462/183 720/463/183 729/464/183
f 731/465/195 726/466/195 724/467/195 733/468/195
f 733/469/185 724/470/185 722/471/185 732/472/185
f 734/473/196 728/474/196 718/475/196 730/476/196
f 725/477/187 723/478/187 740/479/187 735/480/187
f 726/481/188 720/482/188 718/483/188 728/484/188
f 724/485/188 726/481/188 728/484/188 722/486/188
f 719/416/189 725/477/189 735/480/189 737/417/189
f 732/487/190 722/488/190 728/474/190 734/473/190
f 729/489/391 720/490/391 726/466/391 731/465/391
f 719/491/192 717/492/192 730/493/192 729/494/192
f 725/495/192 719/491/192 729/494/192 731/496/192
f 721/497/192 723/498/192 733/499/192 732/500/192
f 727/501/192 721/497/192 732/500/192 734/502/192
f 723/498/192 725/495/192 731/496/192 733/499/192
f 717/492/192 727/501/192 734/502/192 730/493/192
f 735/503/192 740/504/192 739/505/192 736/506/192
f 737/507/192 735/503/192 736/506/192 738/508/192
f 723/509/183 721/510/183 739/511/183 740/512/183
f 717/513/185 719/514/185 737/515/185 738/516/185
f 727/517/193 717/518/193 738/519/193 736/520/193
f 721/521/194 727/517/194 736/520/194 739/522/194
f 754/523/183 742/524/183 744/525/183 753/526/183
f 755/527/195 750/528/195 748/529/195 757/530/195
f 757/531/185 748/532/185 746/533/185 756/534/185
f 758/535/186 752/536/186 742/537/186 754/538/186
f 749/539/187 747/540/187 764/541/187 759/542/187
f 750/543/188 744/544/188 742/545/188 752/546/188
f 748/547/188 750/543/188 752/546/188 746/548/188
f 743/549/189 749/539/189 759/542/189 761/550/189
f 756/551/190 746/552/190 752/536/190 758/535/190
f 753/428/391 744/553/391 750/528/391 755/527/391
f 743/554/192 741/555/192 754/556/192 753/557/192
f 749/558/192 743/554/192 753/557/192 755/559/192
f 745/560/192 747/561/192 757/562/192 756/563/192
f 751/564/192 745/560/192 756/563/192 758/436/192
f 747/561/192 749/558/192 755/559/192 757/562/192
f 741/555/192 751/564/192 758/436/192 754/556/192
f 759/565/192 764/566/192 763/567/192 760/568/192
f 761/569/192 759/565/192 760/568/192 762/570/192
f 747/571/183 745/572/183 763/573/183 764/574/183
f 741/575/185 743/576/185 761/577/185 762/578/185
f 751/579/193 741/459/193 762/460/193 760/580/193
f 745/581/194 751/579/194 760/580/194 763/582/194
