# Blender 4.5.4 LTS
# www.blender.org
mtllib Turret.mtl
o Turret
v 0.713910 0.491126 -0.862848
v 0.713911 0.491126 0.890711
v -0.693263 0.491126 0.890712
v -0.693263 0.491126 -0.862847
v 0.693077 1.566656 -1.283103
v -0.672430 1.566656 -1.283102
v 0.693077 1.756904 0.006375
v 1.043786 0.666681 1.310966
v 0.906321 1.582811 0.658672
v 1.043785 1.195609 0.963370
v -1.023136 0.666681 1.310967
v -0.672430 1.756904 0.006376
v -1.023136 1.195609 0.963371
v -0.885672 1.582811 0.658672
v 1.043785 0.491126 -1.283103
v 1.043786 0.491126 1.310966
v -1.023136 0.491126 1.310967
v -1.023137 0.491126 -1.283102
v 0.713910 0.235177 -0.862848
v 0.713911 0.235177 0.890711
v -0.693263 0.235177 0.890712
v -0.693263 0.235177 -0.862847
v 1.236265 -0.502961 -1.513788
v 1.236266 -0.502961 1.541646
v -1.215616 -0.502961 1.541646
v -1.215617 -0.502961 -1.513787
v 1.236265 -1.219257 -1.513788
v 1.236266 -1.219257 1.541646
v -1.215616 -1.219257 1.541646
v -1.215617 -1.219257 -1.513787
v -0.266852 1.130735 3.486132
v -0.242490 1.114316 0.605592
v -0.266852 1.198761 3.486013
v -0.242490 1.207709 0.605428
v -0.529589 1.130735 3.486132
v -0.553954 1.114316 0.605592
v -0.529589 1.198761 3.486013
v -0.553954 1.207709 0.605428
v -0.398221 1.293013 3.485846
v -0.398222 1.316744 0.605237
v -0.398221 1.036484 3.486299
v -0.398222 1.005280 0.605786
v -0.242489 1.211445 3.485989
v -0.242489 1.118052 3.486153
v -0.398221 1.320481 3.485795
v -0.553951 1.118052 3.486153
v -0.553951 1.211445 3.485989
v -0.398221 1.009016 3.486347
v -0.398222 1.289473 0.716951
v -0.398222 1.032945 0.717405
v -0.266853 1.195223 0.717118
v -0.266853 1.127197 0.717240
v -0.529590 1.127196 0.717240
v -0.529590 1.195223 0.717118
v 0.534444 1.130735 3.486131
v 0.558807 1.114316 0.605592
v 0.534444 1.198761 3.486012
v 0.558807 1.207709 0.605427
v 0.271707 1.130735 3.486131
v 0.247343 1.114316 0.605592
v 0.271707 1.198761 3.486012
v 0.247343 1.207709 0.605428
v 0.403076 1.293013 3.485845
v 0.403075 1.316744 0.605236
v 0.403076 1.036484 3.486299
v 0.403075 1.005280 0.605786
v 0.558808 1.211445 3.485988
v 0.558808 1.118052 3.486153
v 0.403076 1.320481 3.485794
v 0.247345 1.118052 3.486153
v 0.247345 1.211445 3.485988
v 0.403076 1.009016 3.486347
v 0.403075 1.289474 0.716951
v 0.403075 1.032945 0.717405
v 0.534443 1.195223 0.717118
v 0.534443 1.127197 0.717240
v 0.271707 1.127196 0.717240
v 0.271707 1.195223 0.717118
vn -1.0000 -0.0000 -0.0000
vn -0.0000 -0.0000 -1.0000
vn -0.0000 0.9662 0.2579
vn -0.0000 0.6184 0.7859
vn -0.0000 0.5492 0.8357
vn 0.9716 0.2271 -0.0669
vn -0.0000 0.9893 -0.1460
vn -0.0000 -0.0000 1.0000
vn -0.9716 0.2271 -0.0669
vn -0.0000 -1.0000 -0.0000
vn -0.8163 0.5777 -0.0000
vn 1.0000 -0.0000 -0.0000
vn 0.8163 0.5777 -0.0000
vn -0.0000 0.6614 -0.7500
vn -0.0000 0.6614 0.7500
vn -0.5735 0.8192 -0.0011
vn 0.5735 -0.8192 0.0011
vn 0.5829 -0.8125 0.0010
vn -0.0000 -0.0018 -1.0000
vn -0.5829 -0.8125 0.0010
vn -0.5735 -0.8192 0.0011
vn 0.5735 0.8192 -0.0011
vn 0.0001 0.0018 1.0000
vn -0.0000 0.0018 1.0000
vn -0.0001 0.0018 1.0000
vn -0.0000 0.0017 1.0000
vn -0.5829 0.8125 -0.0010
vn 0.5829 0.8125 -0.0010
vt 0.664899 0.540502
vt 0.664899 0.709498
vt 0.875000 0.750000
vt 0.625000 0.750000
vt 0.875000 0.625728
vt 0.625000 0.625728
vt 0.625000 0.562864
vt 0.875000 0.562864
vt 0.625000 0.511134
vt 0.875000 0.511134
vt 0.625000 0.500000
vt 0.875000 0.500000
vt 0.875000 0.500000
vt 0.625000 0.500000
vt 0.835101 0.540502
vt 0.835101 0.709498
vt 0.375000 0.000000
vt 0.625000 0.000000
vt 0.625000 0.250000
vt 0.375000 0.250000
vt 0.375000 0.375000
vt 0.625000 0.375000
vt 0.375000 0.500000
vt 0.375000 0.750000
vt 0.375000 0.875000
vt 0.625000 0.875000
vt 0.625000 1.000000
vt 0.375000 1.000000
vt 0.250000 0.500000
vt 0.750000 0.500000
vt 0.750000 0.750000
vt 0.125000 0.500000
vt 0.125000 0.750000
vt 0.250000 0.750000
s 0
usemtl Material.005
f 3/1/1 4/2/1 22/2/1 21/1/1
f 15/3/2 18/4/2 6/4/2 5/3/2
f 7/5/3 12/6/3 14/7/3 9/8/3
f 9/8/4 14/7/4 13/9/4 10/10/4
f 10/10/5 13/9/5 11/11/5 8/12/5
f 16/13/6 15/3/6 5/3/6 7/5/6 9/8/6 10/10/6 8/12/6
f 12/6/7 7/5/7 5/3/7 6/4/7
f 17/14/8 16/13/8 8/12/8 11/11/8
f 18/4/9 17/14/9 11/11/9 13/9/9 14/7/9 12/6/9 6/4/9
f 2/15/10 1/16/10 15/3/10 16/13/10
f 3/1/10 2/15/10 16/13/10 17/14/10
f 4/2/10 3/1/10 17/14/10 18/4/10
f 1/16/10 4/2/10 18/4/10 15/3/10
f 21/1/11 22/2/11 26/2/11 25/1/11
f 1/16/12 2/15/12 20/15/12 19/16/12
f 4/2/2 1/16/2 19/16/2 22/2/2
f 2/15/8 3/1/8 21/1/8 20/15/8
f 26/2/2 23/16/2 27/16/2 30/2/2
f 19/16/13 20/15/13 24/15/13 23/16/13
f 22/2/14 19/16/14 23/16/14 26/2/14
f 20/15/15 21/1/15 25/1/15 24/15/15
f 29/1/10 30/2/10 27/16/10 28/15/10
f 24/15/8 25/1/8 29/1/8 28/15/8
f 25/1/1 26/2/1 30/2/1 29/1/1
f 23/16/12 24/15/12 28/15/12 27/16/12
f 44/17/12 32/18/12 34/19/12 43/20/12
f 45/21/16 40/22/16 38/14/16 47/23/16
f 47/23/1 38/14/1 36/4/1 46/24/1
f 48/25/17 42/26/17 32/27/17 44/28/17
f 39/29/18 37/23/18 54/23/18 49/29/18
f 40/30/19 34/13/19 32/3/19 42/31/19
f 38/14/19 40/30/19 42/31/19 36/4/19
f 33/32/20 39/29/20 49/29/20 51/32/20
f 46/24/21 36/4/21 42/26/21 48/25/21
f 43/20/22 34/19/22 40/22/22 45/21/22
f 33/32/23 31/33/23 44/33/23 43/32/23
f 39/29/24 33/32/24 43/32/24 45/29/24
f 35/24/25 37/23/25 47/23/25 46/24/25
f 41/34/26 35/24/26 46/24/26 48/34/26
f 37/23/24 39/29/24 45/29/24 47/23/24
f 31/33/26 41/34/26 48/34/26 44/33/26
f 49/29/24 54/23/24 53/24/24 50/34/24
f 51/32/24 49/29/24 50/34/24 52/33/24
f 37/23/12 35/24/12 53/24/12 54/23/12
f 31/33/1 33/32/1 51/32/1 52/33/1
f 41/34/27 31/33/27 52/33/27 50/34/27
f 35/24/28 41/34/28 50/34/28 53/24/28
f 68/17/12 56/18/12 58/19/12 67/20/12
f 69/21/16 64/22/16 62/14/16 71/23/16
f 71/23/1 62/14/1 60/4/1 70/24/1
f 72/25/17 66/26/17 56/27/17 68/28/17
f 63/29/18 61/23/18 78/23/18 73/29/18
f 64/30/19 58/13/19 56/3/19 66/31/19
f 62/14/19 64/30/19 66/31/19 60/4/19
f 57/32/20 63/29/20 73/29/20 75/32/20
f 70/24/21 60/4/21 66/26/21 72/25/21
f 67/20/22 58/19/22 64/22/22 69/21/22
f 57/32/24 55/33/24 68/33/24 67/32/24
f 63/29/24 57/32/24 67/32/24 69/29/24
f 59/24/24 61/23/24 71/23/24 70/24/24
f 65/34/24 59/24/24 70/24/24 72/34/24
f 61/23/24 63/29/24 69/29/24 71/23/24
f 55/33/24 65/34/24 72/34/24 68/33/24
f 73/29/24 78/23/24 77/24/24 74/34/24
f 75/32/24 73/29/24 74/34/24 76/33/24
f 61/23/12 59/24/12 77/24/12 78/23/12
f 55/33/1 57/32/1 75/32/1 76/33/1
f 65/34/27 55/33/27 76/33/27 74/34/27
f 59/24/28 65/34/28 74/34/28 77/24/28
